<svg width="149" height="58" viewBox="0 0 149 58" fill="none" xmlns="http://www.w3.org/2000/svg">
<path fill-rule="evenodd" clip-rule="evenodd" d="M38.5051 20.5584V41.1168H41.7426H44.9801V20.5584V0H41.7426H38.5051V20.5584ZM123.605 20.5584V41.1168H126.838H130.07L130.11 32.8188C130.154 23.6887 130.131 23.9975 130.888 22.5181C131.859 20.6226 133.858 19.4746 136.444 19.3272C138.604 19.2041 139.98 19.9312 140.838 21.6495C141.508 22.992 141.527 23.2965 141.527 32.6279V41.1168H144.765H148.002V32.3741C148.002 22.7721 147.971 22.2285 147.309 20.2162C146.727 18.4466 146.02 17.2265 144.886 16.0371C141.465 12.4462 135.218 11.8868 130.572 14.7552L130.08 15.0585V7.52932V0H126.843H123.605V20.5584ZM16.2473 1.44598C13.2193 1.91239 10.3 3.13545 7.83707 4.96928C-0.993218 11.5442 -2.65082 25.5695 4.34531 34.5129C7.20136 38.1638 11.2496 40.5471 16.0738 41.4175C17.4247 41.6613 20.8944 41.6943 22.2598 41.4765C25.4724 40.9638 28.3273 39.8222 30.8712 38.0328C31.8711 37.3294 34.4582 34.995 34.4582 34.7962C34.4582 34.7428 33.4625 33.6871 32.2454 32.4501L30.0326 30.2012L28.8634 31.3295C25.9132 34.1765 22.8325 35.3674 18.791 35.2231C17.5865 35.18 16.7829 35.0895 16.1605 34.9268C12.9724 34.093 10.5752 32.3896 8.70772 29.6317C6.6474 26.589 5.89075 21.7784 6.84003 17.7589C8.41034 11.1107 14.0419 6.99227 20.6298 7.67438C23.7718 7.99975 26.489 9.26737 28.8598 11.5139C29.443 12.0665 29.9662 12.5188 30.0224 12.5188C30.0786 12.5188 31.1126 11.5332 32.3203 10.3285L34.516 8.13803L33.174 6.85422C29.9788 3.79745 26.5043 2.0733 22.2586 1.4376C20.8186 1.22202 17.6723 1.22638 16.2473 1.44598ZM82.2994 8.75559L82.2692 13.3802L80.0434 13.4114L77.8176 13.4426V16.4837V19.5248H80.0723H82.327V30.3208V41.1168H85.5645H88.802V30.3208V19.5248H91.4036H94.0051V16.4812V13.4376H91.4048H88.8047L88.7744 8.81485L88.7442 4.19208L85.5369 4.16153L82.3297 4.13098L82.2994 8.75559ZM107.833 12.9897C102.703 13.5267 98.6423 16.197 96.4967 20.4436C95.4811 22.4536 95.0621 24.1417 94.9714 26.5881C94.8699 29.3279 95.321 31.5677 96.4286 33.8238C99.8308 40.7533 108.396 43.6022 115.858 40.2868C116.922 39.8142 118.657 38.629 119.674 37.6802L120.541 36.8712L118.252 34.6261L115.963 32.381L115.014 33.1882C113.352 34.6036 111.597 35.2594 109.474 35.2594C105.585 35.2594 102.59 33.0338 101.615 29.4185C101.285 28.1949 101.287 26.2374 101.62 25.0032C102.002 23.5857 102.587 22.5863 103.653 21.5326C105.097 20.105 106.597 19.4726 108.868 19.334C111.454 19.1762 113.555 19.9498 115.514 21.7815L115.922 22.1627L118.21 19.8879L120.498 17.6133L119.652 16.8646C116.98 14.4987 114.328 13.3372 110.787 12.9832C109.459 12.8503 109.158 12.8508 107.833 12.9897ZM50.4152 22.1376C50.4158 29.2862 50.4469 31.0424 50.5894 31.9861C51.0349 34.9323 51.9972 36.9723 53.7589 38.7049C55.8218 40.7338 58.2374 41.6422 61.5145 41.6215C63.8004 41.607 65.8008 41.0751 67.5128 40.0267L68.3364 39.5223V40.3195V41.1168H71.5739H74.8114V27.2772V13.4376H71.5739H68.3364V21.4246C68.3364 30.1615 68.3204 30.4047 67.6531 31.8667C66.6732 34.0133 64.1437 35.357 61.3051 35.239C60.4144 35.2019 60.0545 35.1323 59.5489 34.8995C58.4312 34.3849 57.6241 33.3422 57.1483 31.7988C56.9804 31.2544 56.9536 30.1424 56.9191 22.3099L56.8801 13.4376H53.6473H50.4145L50.4152 22.1376ZM107.718 22.7398C106.387 23.1621 105.392 24.0475 104.791 25.3436C104.377 26.2364 104.283 27.8083 104.589 28.7296C105.033 30.0703 105.88 31.0173 107.181 31.6298C107.888 31.9627 108.021 31.9858 109.21 31.9809C110.322 31.9763 110.562 31.9388 111.118 31.6835C112.546 31.0275 113.645 29.5994 113.912 28.0501C114.511 24.5781 111.111 21.6632 107.718 22.7398ZM51.0504 50.903C50.5475 51.0776 49.978 51.5298 49.7784 51.9131C49.532 52.3863 49.5581 53.2704 49.8313 53.7156C50.1521 54.2383 50.4982 54.4264 51.6952 54.7289C52.8805 55.0286 53.3051 55.323 53.3051 55.8454C53.3051 56.5517 52.7463 56.9663 51.7941 56.9663C51.4049 56.9663 51.2435 56.894 50.9232 56.5758C50.6778 56.332 50.5301 56.0732 50.5301 55.8867C50.5301 55.6082 50.4942 55.5881 49.995 55.5881H49.4599L49.5376 56.0762C49.7019 57.109 50.514 57.853 51.5976 57.9632C52.3901 58.044 53.0925 57.8479 53.6016 57.4038C54.1433 56.9314 54.3457 56.5157 54.3457 55.8752C54.3457 54.7838 53.6405 54.1211 52.1355 53.798C51.0154 53.5577 50.6457 53.3065 50.6457 52.786C50.6457 52.2537 51.0692 51.8939 51.7746 51.8266C52.2529 51.7809 52.3846 51.8166 52.6948 52.0758C52.894 52.2423 53.0909 52.5322 53.1324 52.7199C53.2005 53.0279 53.2524 53.0614 53.6611 53.0614C54.1034 53.0614 54.1145 53.0514 54.1145 52.6537C54.1145 51.3428 52.4776 50.4074 51.0504 50.903ZM23.127 54.3822V57.8851H23.6438H24.1607L24.193 56.4208L24.2254 54.9564L25.4684 54.9238L26.7114 54.8912V54.4396V53.988L25.4684 53.9554L24.2254 53.9228L24.192 52.9178L24.1586 51.9129H25.724H27.2895V51.396V50.8792H25.2082H23.127V54.3822ZM29.2551 54.3822V57.8851H29.7754H30.2957V54.3822V50.8792H29.7754H29.2551V54.3822ZM32.8395 54.3822V57.8851H33.3598H33.8801V56.6182C33.8801 55.5971 33.9139 55.3383 34.0538 55.285C34.464 55.1286 34.7674 55.3875 35.6145 56.6164L36.4817 57.8745L37.0887 57.8799C37.4225 57.8827 37.6957 57.857 37.6957 57.8226C37.6957 57.7882 37.3054 57.2099 36.8282 56.5376L35.9608 55.3152L36.4524 55.0699C37.5681 54.5133 37.8967 52.7786 37.1042 51.6298C36.6604 50.9865 36.2816 50.8792 34.4543 50.8792H32.8395V54.3822ZM39.7892 54.0663C39.5786 55.8192 39.379 57.3956 39.3458 57.5693C39.2872 57.877 39.2995 57.8851 39.8203 57.8851C40.1708 57.8851 40.3552 57.8356 40.3556 57.7416C40.3558 57.6627 40.4858 56.5902 40.6442 55.3584C40.8026 54.1266 40.9353 53.0671 40.9389 53.004C40.9426 52.9408 41.4374 53.8582 42.0384 55.0426L43.1313 57.196H43.5665H44.0017L45.0361 55.0591C45.8922 53.2904 46.0843 52.9688 46.1515 53.1928C46.1963 53.3416 46.3506 54.4583 46.4946 55.6743L46.7563 57.8851H47.2557C47.5303 57.8851 47.7551 57.8329 47.7551 57.7691C47.7551 57.7053 47.573 56.1997 47.3504 54.4234C47.1278 52.647 46.9457 51.1229 46.9457 51.0364C46.9457 50.9276 46.7918 50.8792 46.4457 50.8792H45.9456L44.8048 53.2404C44.1774 54.5392 43.6274 55.6242 43.5827 55.6516C43.5378 55.6792 42.9662 54.6166 42.3122 53.2904L41.1232 50.8792H40.6479H40.1724L39.7892 54.0663ZM59.0864 51.396V51.9129H60.127H61.1676V54.899V57.8851H61.6879H62.2082V54.9034V51.9215L63.2778 51.8885L64.3473 51.8554L64.3828 51.3673L64.4184 50.8792H61.7523H59.0864V51.396ZM66.2551 54.3822V57.8851H66.7754H67.2958V56.389V54.8927L68.9434 54.9246L70.5911 54.9564L70.6234 56.4208L70.6558 57.8851H71.1148H71.5739V54.3822V50.8792H71.1114H70.6489V52.3723V53.8653H68.9723H67.2958V52.3723V50.8792H66.7754H66.2551V54.3822ZM74.6992 54.2386C73.9829 56.0862 73.3714 57.6627 73.3402 57.7416C73.2996 57.8445 73.443 57.8851 73.8464 57.8851H74.4091L74.7088 57.0525L75.0084 56.2198L76.4623 56.1878L77.9161 56.1556L78.2399 57.0204L78.5636 57.8851H79.128C79.6189 57.8851 79.682 57.859 79.6121 57.6842C79.5681 57.5737 78.9577 55.9973 78.2558 54.1812L76.9796 50.8792H76.4906H76.0015L74.6992 54.2386ZM80.1301 51.396V51.9129H81.1708H82.2114V54.899V57.8851H82.7317H83.252V54.9034V51.9215L84.3215 51.8885L85.3911 51.8554L85.4266 51.3673L85.4622 50.8792H82.7961H80.1301V51.396ZM90.652 54.3923V57.9054L92.4731 57.8649C94.0808 57.8292 94.3503 57.7949 94.7732 57.5716C95.3923 57.2449 96.0264 56.5037 96.2536 55.8414C96.4814 55.1774 96.4858 53.7382 96.2625 52.9911C96.0388 52.2431 95.3769 51.4892 94.6476 51.1519C94.1173 50.9065 93.9045 50.8814 92.3575 50.8804L90.652 50.8792V54.3923ZM98.6301 54.3822V57.8851H100.769H102.908V57.3683V56.8515H101.29H99.6708V55.8752V54.899H101.058H102.446V54.4396V53.9802H101.058H99.6708V52.9497V51.9193L101.261 51.8874L102.85 51.8554L102.886 51.3673L102.922 50.8792H100.776H98.6301V54.3822ZM105.105 54.3822V57.8851H107.013H108.921V57.3683V56.8515H107.533H106.146V53.8653V50.8792H105.625H105.105V54.3822ZM110.771 54.3822V57.8851H111.291H111.811V54.3822V50.8792H111.291H110.771V54.3822ZM113.836 51.4187C113.929 51.722 114.405 53.3011 114.895 54.9277L115.785 57.8851H116.276C116.644 57.8851 116.783 57.8347 116.827 57.6842C117.473 55.5131 118.795 51.1284 118.837 51.0159C118.881 50.9021 118.76 50.874 118.342 50.901L117.789 50.9366L117.056 53.3951C116.653 54.7473 116.306 55.8708 116.285 55.8919C116.264 55.913 115.909 54.8067 115.496 53.4334L114.747 50.9366L114.208 50.9018L113.669 50.8669L113.836 51.4187ZM120.715 54.3822V57.8851H122.918H125.122L125.086 57.397L125.05 56.9089L123.398 56.877L121.746 56.8452L121.779 55.9007L121.813 54.9564L123.172 54.924L124.53 54.8918V54.4359V53.9802H123.143H121.755V52.9497V51.9193L123.345 51.8874L124.935 51.8554L124.97 51.3673L125.006 50.8792H122.86H120.715V54.3822ZM127.19 54.3822V57.8851H127.71H128.23V56.5644V55.2436H128.578C128.981 55.2436 129.088 55.352 130.109 56.7941L130.841 57.8277L131.502 57.8622L132.162 57.8966L131.241 56.6071L130.32 55.3176L130.771 55.1173C131.044 54.9958 131.349 54.7249 131.547 54.4283C131.827 54.008 131.872 53.8258 131.872 53.1272C131.872 52.4722 131.816 52.217 131.583 51.8094C131.118 50.9953 130.775 50.8792 128.839 50.8792H127.19V54.3822ZM36.0725 52.0253C36.5003 52.2528 36.6612 53.1835 36.3695 53.7437C36.1528 54.1601 35.6716 54.3248 34.6723 54.3248H33.8801V53.1188V51.9129H34.8706C35.4153 51.9129 35.9562 51.9635 36.0725 52.0253ZM94.5444 52.2295C95.1142 52.6332 95.4311 53.4027 95.4311 54.3822C95.4311 55.3616 95.1142 56.1311 94.5444 56.5348C94.2271 56.7596 94.0059 56.7992 92.8778 56.8326L91.577 56.8712V54.3822V51.8931L92.8778 51.9317C94.0059 51.9651 94.2271 52.0047 94.5444 52.2295ZM130.364 51.9842C130.866 52.1754 131.039 53.2182 130.67 53.8199C130.42 54.2267 130.089 54.3248 128.967 54.3248H128.23V53.1188V51.9129H129.203C129.739 51.9129 130.261 51.945 130.364 51.9842ZM76.9954 53.7569C77.2568 54.4238 77.4708 55.0051 77.4708 55.049C77.4708 55.0929 77.0229 55.1287 76.4756 55.1287C75.7296 55.1287 75.493 55.0928 75.5308 54.9851C75.7918 54.2429 76.4744 52.4936 76.4945 52.516C76.5085 52.5317 76.734 53.0901 76.9954 53.7569Z" fill="white"/>
<circle cx="109.502" cy="27.5" r="5.5" fill="#FE3D2E"/>
</svg>
