<svg width="181" height="71" viewBox="0 0 181 71" fill="none" xmlns="http://www.w3.org/2000/svg">
<path fill-rule="evenodd" clip-rule="evenodd" d="M47.0901 25.142V50.2841H51.0494H55.0087V25.142V0H51.0494H47.0901V25.142ZM151.164 25.142V50.2841H155.117H159.07L159.119 40.136C159.173 28.9702 159.144 29.3479 160.071 27.5387C161.258 25.2206 163.702 23.8165 166.865 23.6363C169.507 23.4858 171.189 24.375 172.238 26.4764C173.058 28.1182 173.081 28.4906 173.081 39.9025V50.2841H177.041H181V39.5921C181 27.8492 180.962 27.1844 180.152 24.7235C179.441 22.5594 178.575 21.0672 177.19 19.6126C173.006 15.2212 165.365 14.537 159.683 18.045L159.082 18.4159V9.20803V0H155.123H151.164V25.142ZM19.8697 1.76837C16.1666 2.33877 12.5964 3.83451 9.58439 6.07721C-1.21466 14.118 -3.24184 31.2704 5.31412 42.2077C8.80695 46.6726 13.7578 49.5873 19.6576 50.6518C21.3096 50.95 25.5529 50.9903 27.2227 50.724C31.1517 50.097 34.6431 48.7008 37.7541 46.5125C38.977 45.6522 42.1409 42.7974 42.1409 42.5542C42.1409 42.4889 40.9231 41.1978 39.4347 39.6851L36.7285 36.9348L35.2986 38.3146C31.6907 41.7963 27.9231 43.2527 22.9806 43.0763C21.5075 43.0236 20.5247 42.913 19.7635 42.7139C15.8647 41.6942 12.933 39.6111 10.6492 36.2383C8.12948 32.5172 7.20413 26.634 8.36506 21.7184C10.2855 13.5879 17.1726 8.55124 25.2294 9.38543C29.0719 9.78334 32.3949 11.3336 35.2943 14.0809C36.0075 14.7568 36.6473 15.31 36.7161 15.31C36.7848 15.31 38.0494 14.1045 39.5263 12.6313L42.2116 9.95246L40.5703 8.38241C36.6628 4.64411 32.4136 2.53555 27.2213 1.75812C25.4603 1.49448 21.6124 1.49981 19.8697 1.76837ZM100.649 10.7077L100.612 16.3634L97.8896 16.4016L95.1675 16.4397V20.1589V23.8779H97.9249H100.682V37.081V50.2841H104.642H108.601V37.081V23.8779H111.783H114.964V20.1558V16.4336H111.784H108.604L108.567 10.7802L108.53 5.12673L104.608 5.08937L100.686 5.05201L100.649 10.7077ZM131.875 15.8858C125.602 16.5426 120.635 19.8083 118.011 25.0016C116.769 27.4597 116.257 29.5242 116.146 32.5161C116.022 35.8667 116.573 38.606 117.928 41.365C122.089 49.8395 132.563 53.3236 141.69 49.269C142.991 48.691 145.112 47.2416 146.356 46.0813L147.416 45.0919L144.617 42.3462L141.817 39.6005L140.657 40.5877C138.624 42.3187 136.479 43.1207 133.882 43.1207C129.126 43.1207 125.463 40.3989 124.271 35.9776C123.867 34.4811 123.87 32.0871 124.276 30.5778C124.744 28.8442 125.46 27.6221 126.763 26.3334C128.529 24.5875 130.364 23.8141 133.141 23.6446C136.304 23.4516 138.873 24.3978 141.269 26.6378L141.768 27.104L144.565 24.322L147.363 21.5403L146.329 20.6246C143.062 17.7313 139.818 16.3109 135.488 15.8778C133.863 15.7153 133.496 15.716 131.875 15.8858ZM61.6556 27.0733C61.6563 35.8158 61.6943 37.9635 61.8687 39.1176C62.4135 42.7207 63.5903 45.2155 65.7448 47.3345C68.2676 49.8157 71.2218 50.9265 75.2295 50.9013C78.0251 50.8836 80.4715 50.2331 82.5652 48.9509L83.5724 48.3341V49.309V50.2841H87.5317H91.491V33.3589V16.4336H87.5317H83.5724V26.2014C83.5724 36.8862 83.5529 37.1837 82.7368 38.9716C81.5384 41.5967 78.4449 43.2401 74.9735 43.0957C73.8842 43.0503 73.444 42.9652 72.8257 42.6805C71.4588 42.0513 70.4717 40.776 69.8898 38.8886C69.6845 38.2228 69.6517 36.8629 69.6096 27.284L69.5619 16.4336H65.6082H61.6547L61.6556 27.0733ZM131.734 27.8098C130.106 28.3262 128.889 29.409 128.155 30.9941C127.649 32.086 127.534 34.0083 127.907 35.1351C128.451 36.7747 129.486 37.9327 131.078 38.6818C131.943 39.089 132.105 39.1172 133.559 39.1112C134.919 39.1056 135.212 39.0598 135.892 38.7475C137.639 37.9452 138.982 36.1988 139.309 34.304C140.042 30.0579 135.884 26.4931 131.734 27.8098ZM62.4324 62.2521C61.8173 62.4656 61.1209 63.0187 60.8768 63.4874C60.5755 64.0661 60.6073 65.1474 60.9415 65.6918C61.3339 66.331 61.7571 66.5611 63.2209 66.9311C64.6706 67.2975 65.1898 67.6577 65.1898 68.2965C65.1898 69.1603 64.5064 69.6673 63.3419 69.6673C62.866 69.6673 62.6686 69.5788 62.2769 69.1898C61.9767 68.8916 61.7961 68.5751 61.7961 68.347C61.7961 68.0064 61.7521 67.9818 61.1417 67.9818H60.4873L60.5823 68.5788C60.7832 69.8418 61.7765 70.7517 63.1016 70.8865C64.0707 70.9853 64.9298 70.7455 65.5524 70.2023C66.2149 69.6246 66.4625 69.1162 66.4625 68.333C66.4625 66.9982 65.6 66.1878 63.7594 65.7926C62.3896 65.4987 61.9375 65.1915 61.9375 64.5549C61.9375 63.904 62.4553 63.464 63.3181 63.3817C63.903 63.3258 64.0641 63.3695 64.4435 63.6865C64.687 63.89 64.9278 64.2445 64.9786 64.4742C65.0619 64.8507 65.1253 64.8917 65.6252 64.8917C66.1661 64.8917 66.1796 64.8795 66.1796 64.3931C66.1796 62.7899 64.1778 61.646 62.4324 62.2521ZM28.2833 66.507V70.791H28.9154H29.5474L29.587 69.0002L29.6266 67.2093L31.1467 67.1694L32.6668 67.1295V66.5772V66.025L31.1467 65.9851L29.6266 65.9452L29.5858 64.7162L29.5449 63.4872H31.4594H33.3738V62.8551V62.223H30.8286H28.2833V66.507ZM35.7777 66.507V70.791H36.414H37.0504V66.507V62.223H36.414H35.7777V66.507ZM40.1612 66.507V70.791H40.7976H41.4339V69.2416C41.4339 67.9928 41.4752 67.6763 41.6463 67.6112C42.148 67.4199 42.519 67.7365 43.555 69.2394L44.6155 70.7779L45.3579 70.7845C45.7661 70.788 46.1002 70.7566 46.1002 70.7144C46.1002 70.6724 45.6228 69.9652 45.0393 69.143L43.9785 67.6481L44.5797 67.3481C45.9441 66.6674 46.346 64.5459 45.3768 63.1409C44.8341 62.3542 44.3709 62.223 42.1361 62.223H40.1612V66.507ZM48.6605 66.1208C48.4029 68.2644 48.1588 70.1924 48.1182 70.4047C48.0465 70.781 48.0615 70.791 48.6985 70.791C49.1271 70.791 49.3527 70.7305 49.3531 70.6154C49.3534 70.5189 49.5123 69.2073 49.706 67.7009C49.8998 66.1945 50.0621 64.8988 50.0665 64.8215C50.071 64.7443 50.6761 65.8662 51.4111 67.3147L52.7477 69.9482H53.2799H53.8121L55.0771 67.3349C56.1241 65.1718 56.3591 64.7785 56.4413 65.0524C56.496 65.2345 56.6848 66.6001 56.8608 68.0872L57.181 70.791H57.7917C58.1275 70.791 58.4024 70.7271 58.4024 70.6491C58.4024 70.571 58.1797 68.7298 57.9075 66.5574C57.6353 64.385 57.4126 62.5211 57.4126 62.4153C57.4126 62.2822 57.2244 62.223 56.801 62.223H56.1894L54.7943 65.1107C54.0271 66.699 53.3544 68.0259 53.2997 68.0595C53.2448 68.0932 52.5457 66.7937 51.7459 65.1718L50.2919 62.223H49.7106H49.1291L48.6605 66.1208ZM72.26 62.8551V63.4872H73.5327H74.8053V67.1391V70.791H75.4416H76.078V67.1444V63.4977L77.3859 63.4574L78.6939 63.4169L78.7374 62.82L78.7809 62.223H75.5204H72.26V62.8551ZM81.0271 66.507V70.791H81.6634H82.2998V68.9613V67.1314L84.3148 67.1704L86.3298 67.2093L86.3694 69.0002L86.409 70.791H86.9703H87.5317V66.507V62.223H86.9661H86.4005V64.049V65.875H84.3501H82.2998V64.049V62.223H81.6634H81.0271V66.507ZM91.3539 66.3314C90.4779 68.591 89.73 70.5189 89.6918 70.6154C89.6422 70.7413 89.8175 70.791 90.3109 70.791H90.9991L91.3656 69.7727L91.732 68.7543L93.51 68.7152L95.288 68.6758L95.684 69.7335L96.0799 70.791H96.7701C97.3705 70.791 97.4476 70.759 97.3622 70.5452C97.3083 70.4101 96.5618 68.4823 95.7035 66.2612L94.1427 62.223H93.5447H92.9465L91.3539 66.3314ZM97.9956 62.8551V63.4872H99.2683H100.541V67.1391V70.791H101.177H101.814V67.1444V63.4977L103.122 63.4574L104.43 63.4169L104.473 62.82L104.517 62.223H101.256H97.9956V62.8551ZM110.863 66.5194V70.8157L113.091 70.7663C115.057 70.7226 115.386 70.6806 115.904 70.4075C116.661 70.0079 117.436 69.1016 117.714 68.2915C117.992 67.4795 117.998 65.7195 117.725 64.8058C117.451 63.891 116.642 62.969 115.75 62.5565C115.101 62.2565 114.841 62.2257 112.949 62.2244L110.863 62.223V66.5194ZM120.62 66.507V70.791H123.236H125.852V70.1589V69.5269H123.873H121.893V68.333V67.1391H123.59H125.287V66.5772V66.0154H123.59H121.893V64.7552V63.495L123.837 63.456L125.782 63.4169L125.825 62.82L125.869 62.223H123.244H120.62V66.507ZM128.539 66.507V70.791H130.872H133.205V70.1589V69.5269H131.508H129.812V65.875V62.223H129.175H128.539V66.507ZM135.468 66.507V70.791H136.104H136.74V66.507V62.223H136.104H135.468V66.507ZM139.217 62.8828C139.33 63.2537 139.912 65.1849 140.511 67.1742L141.6 70.791H142.201C142.651 70.791 142.82 70.7293 142.875 70.5452C143.664 67.8901 145.281 62.5278 145.333 62.3902C145.386 62.251 145.238 62.2167 144.727 62.2497L144.051 62.2933L143.155 65.2999C142.662 66.9535 142.237 68.3275 142.211 68.3533C142.185 68.3792 141.751 67.0262 141.247 65.3467L140.331 62.2933L139.671 62.2507L139.012 62.208L139.217 62.8828ZM147.629 66.507V70.791H150.323H153.018L152.975 70.1941L152.931 69.5971L150.911 69.5581L148.89 69.5191L148.931 68.3642L148.972 67.2093L150.633 67.1697L152.295 67.1302V66.5728V66.0154H150.598H148.901V64.7552V63.495L150.846 63.456L152.79 63.4169L152.833 62.82L152.877 62.223H150.253H147.629V66.507ZM155.547 66.507V70.791H156.184H156.82V69.1757V67.5605H157.245C157.738 67.5605 157.868 67.6931 159.118 69.4566L160.013 70.7208L160.821 70.7629L161.628 70.805L160.502 69.228L159.376 67.6511L159.927 67.4061C160.261 67.2575 160.634 66.9261 160.876 66.5635C161.218 66.0494 161.274 65.8266 161.274 64.9722C161.274 64.1712 161.206 63.8591 160.921 63.3606C160.351 62.365 159.932 62.223 157.564 62.223H155.547V66.507ZM44.1151 63.6247C44.6382 63.9029 44.8351 65.0411 44.4783 65.7262C44.2133 66.2354 43.6248 66.4368 42.4026 66.4368H41.4339V64.962V63.4872H42.6452C43.3113 63.4872 43.9728 63.5491 44.1151 63.6247ZM115.624 63.8744C116.321 64.3681 116.708 65.3092 116.708 66.507C116.708 67.7048 116.321 68.6459 115.624 69.1396C115.236 69.4145 114.965 69.463 113.585 69.5038L111.995 69.551V66.507V63.463L113.585 63.5102C114.965 63.5511 115.236 63.5995 115.624 63.8744ZM159.429 63.5744C160.043 63.8083 160.255 65.0835 159.803 65.8193C159.498 66.3168 159.093 66.4368 157.721 66.4368H156.82V64.962V63.4872H158.01C158.665 63.4872 159.304 63.5265 159.429 63.5744ZM94.162 65.7424C94.4817 66.5579 94.7433 67.2689 94.7433 67.3225C94.7433 67.3762 94.1957 67.42 93.5263 67.42C92.6139 67.42 92.3246 67.376 92.3708 67.2444C92.69 66.3366 93.5249 64.1973 93.5495 64.2247C93.5666 64.244 93.8423 64.9269 94.162 65.7424Z" fill="#1D1D1F"/>
<circle cx="133.916" cy="33.6313" r="6.72626" fill="#FE3D2E"/>
</svg>
