<svg width="190" height="60" viewBox="0 0 190 60" fill="none" xmlns="http://www.w3.org/2000/svg">
<path fill-rule="evenodd" clip-rule="evenodd" d="M32.1475 57V38.5032C32.1475 35.3897 29.6191 32.8657 26.5 32.8657C23.381 32.8657 20.8525 35.3897 20.8525 38.5032V57H8.8194C3.94858 57 0 53.0584 0 48.1963L0 25.3674C0 22.3978 1.49974 19.6283 3.98866 18.0018L21.6831 6.4381C24.6188 4.51961 28.4144 4.52072 31.3489 6.44093L49.0157 18.0013C51.5021 19.6283 53 22.3963 53 25.364V48.1963C53 53.0584 49.0514 57 44.1806 57H32.1475ZM26.5 26.8004C29.6191 26.8004 32.1475 24.2789 32.1475 21.1684C32.1475 18.0579 29.6191 15.5363 26.5 15.5363C23.381 15.5363 20.8525 18.0579 20.8525 21.1684C20.8525 24.2789 23.381 26.8004 26.5 26.8004Z" fill="#FF492D"/>
<path fill-rule="evenodd" clip-rule="evenodd" d="M78.4973 6.27761C77.5874 6.27761 76.886 5.99304 76.3932 5.42388C75.9003 4.85472 75.6539 4.15622 75.6539 3.32836C75.6539 2.65572 75.8498 2.12538 76.2415 1.73731C76.6333 1.34925 77.1325 1.15522 77.7391 1.15522C78.649 1.15522 79.3503 1.4398 79.8432 2.00896C80.3361 2.57811 80.5825 3.27661 80.5825 4.10448C80.5825 4.77712 80.3866 5.30746 79.9949 5.69552C79.6031 6.08358 79.1039 6.27761 78.4973 6.27761ZM76.033 13.4179C76.033 12.0985 75.8561 11.1219 75.5022 10.4881C75.1484 9.85423 74.4407 9.53731 73.3791 9.53731H73V8.37314H77.5495C78.4594 8.37314 79.1545 8.52836 79.6347 8.83881C80.1149 9.14926 80.4561 9.6602 80.6583 10.3716C80.8605 11.0831 80.9616 12.0985 80.9616 13.4179V26.6119H76.033V13.4179ZM90.53 7.40299V26.6119H88.6344V5.65672C88.6344 4.57014 88.3753 3.71642 87.8572 3.09552C87.339 2.47462 86.4607 2.16418 85.2223 2.16418H85.0327V1H87.6866C89.102 1 90.2583 1.18756 91.1556 1.56269C92.0528 1.93781 92.8048 2.52636 93.4114 3.32836L106.453 18.8507V1H108.349V26.7284H106.605L90.53 7.40299ZM121.087 27C119.344 27 117.814 26.5861 116.5 25.7582C115.186 24.9303 114.168 23.7985 113.448 22.3627C112.728 20.9269 112.368 19.3035 112.368 17.4925C112.368 15.4746 112.728 13.7542 113.448 12.3313C114.168 10.9085 115.161 9.82836 116.424 9.09105C117.688 8.35373 119.116 7.98507 120.708 7.98507C122.275 7.98507 123.691 8.30845 124.955 8.95522C126.218 9.60199 127.217 10.5139 127.95 11.691C128.683 12.8682 129.049 14.2199 129.049 15.7463C129.049 16.2378 129.024 16.794 128.973 17.4149L128.897 18.191H117.486C117.486 20.6488 117.852 22.4403 118.585 23.5657C119.318 24.6911 120.342 25.2537 121.656 25.2537C122.869 25.2537 123.887 24.9756 124.708 24.4194C125.53 23.8632 126.319 23.0677 127.078 22.0328L128.253 22.9254C127.52 24.0896 126.604 25.0597 125.504 25.8358C124.405 26.6119 122.933 27 121.087 27ZM123.931 16.4448C123.931 14.0129 123.653 12.2861 123.097 11.2642C122.541 10.2423 121.745 9.73134 120.708 9.73134C119.748 9.73134 118.971 10.2552 118.377 11.303C117.783 12.3508 117.486 14.0647 117.486 16.4448H123.931ZM133.068 12.8358C132.461 11.3871 131.893 10.3652 131.362 9.77015C130.831 9.17512 130.224 8.85174 129.542 8.8V8.06269L131.362 7.98507C133.03 7.98507 134.388 8.33433 135.437 9.03284C136.486 9.73135 137.428 10.999 138.262 12.8358L141.484 20.2478L144.025 14.0388L143.494 12.8358C142.887 11.4388 142.319 10.4299 141.788 9.80896C141.257 9.18806 140.714 8.85174 140.157 8.8V8.06269L141.598 7.98507C143.317 7.98507 144.758 8.34079 145.92 9.05224C147.083 9.76369 148.069 11.0249 148.877 12.8358L152.365 20.6358L156.991 8.37314H159L152.024 27H150.28L145.351 16.0955L140.954 27H139.248L133.068 12.8358Z" fill="#FF492D" stroke="#FF492D" stroke-width="0.3"/>
<path fill-rule="evenodd" clip-rule="evenodd" d="M77.0494 38.0448C77.0494 36.7254 76.8715 35.7488 76.5157 35.1149C76.16 34.4811 75.4485 34.1642 74.3812 34.1642H74V33H78.5741C79.4889 33 80.1877 33.1552 80.6705 33.4657C81.1534 33.7761 81.4964 34.2871 81.6997 34.9985C81.903 35.71 82.0046 36.7254 82.0046 38.0448V44.4478H92.2963V33H97.2516V53.5672C97.2516 54.8866 97.4295 55.8632 97.7852 56.497C98.141 57.1308 98.8525 57.4478 99.9198 57.4478H100.301V58.6119H95.7269C94.8121 58.6119 94.1132 58.4632 93.6304 58.1657C93.1476 57.8682 92.8045 57.3637 92.6013 56.6522C92.398 55.9408 92.2963 54.9124 92.2963 53.5672V46.194H82.0046V58.6119H77.0494V38.0448ZM111.05 59C109.195 59 107.575 58.5796 106.19 57.7388C104.805 56.898 103.744 55.7597 103.007 54.3239C102.27 52.8881 101.902 51.2776 101.902 49.4925C101.902 47.7075 102.27 46.097 103.007 44.6612C103.744 43.2254 104.805 42.0871 106.19 41.2463C107.575 40.4055 109.195 39.9851 111.05 39.9851C112.905 39.9851 114.525 40.4055 115.91 41.2463C117.295 42.0871 118.356 43.2254 119.093 44.6612C119.83 46.097 120.198 47.7075 120.198 49.4925C120.198 51.2776 119.83 52.8881 119.093 54.3239C118.356 55.7597 117.295 56.898 115.91 57.7388C114.525 58.5796 112.905 59 111.05 59ZM111.05 57.2537C112.346 57.2537 113.337 56.5423 114.023 55.1194C114.709 53.6965 115.052 51.8209 115.052 49.4925C115.052 47.1642 114.709 45.2886 114.023 43.8657C113.337 42.4428 112.346 41.7313 111.05 41.7313C109.754 41.7313 108.763 42.4428 108.077 43.8657C107.391 45.2886 107.048 47.1642 107.048 49.4925C107.048 51.8209 107.391 53.6965 108.077 55.1194C108.763 56.5423 109.754 57.2537 111.05 57.2537ZM124.62 45.4179C124.62 44.0985 124.448 43.1219 124.105 42.4881C123.762 41.8542 123.057 41.5373 121.99 41.5373H121.609V40.3731H125.382C127.034 40.3731 128.114 40.8647 128.622 41.8478H128.775C130.172 40.606 131.773 39.9851 133.577 39.9851C134.823 39.9851 135.909 40.2244 136.836 40.703C137.764 41.1816 138.431 41.6796 138.838 42.197C139.447 41.5244 140.172 40.9876 141.01 40.5866C141.849 40.1856 142.929 39.9851 144.25 39.9851C148.697 39.9851 150.921 42.3651 150.921 47.1254V58.6119H145.966V47.0866C145.966 45.3015 145.686 43.995 145.127 43.1672C144.568 42.3393 143.831 41.9254 142.916 41.9254C142.23 41.9254 141.595 42.0612 141.01 42.3328C140.426 42.6045 139.968 42.9602 139.638 43.4C139.689 43.5035 139.791 43.7881 139.943 44.2537C140.146 45.0299 140.248 45.9871 140.248 47.1254V58.6119H135.293V47.0866C135.293 45.3015 135.013 43.995 134.454 43.1672C133.895 42.3393 133.158 41.9254 132.243 41.9254C131.71 41.9254 131.157 42.0871 130.585 42.4104C130.013 42.7338 129.588 43.0896 129.308 43.4776L129.423 44.0209C129.524 44.3313 129.575 44.8358 129.575 45.5343V58.6119H124.62V45.4179ZM163.233 59C161.479 59 159.942 58.5861 158.62 57.7582C157.299 56.9303 156.276 55.7985 155.552 54.3627C154.828 52.9269 154.466 51.3035 154.466 49.4925C154.466 47.4746 154.828 45.7542 155.552 44.3313C156.276 42.9085 157.274 41.8284 158.544 41.091C159.815 40.3537 161.251 39.9851 162.852 39.9851C164.427 39.9851 165.85 40.3085 167.121 40.9552C168.391 41.602 169.395 42.5139 170.132 43.691C170.869 44.8682 171.237 46.2199 171.237 47.7463C171.237 48.2378 171.212 48.794 171.161 49.4149L171.085 50.191H159.612C159.612 52.6488 159.98 54.4403 160.717 55.5657C161.454 56.6911 162.483 57.2537 163.804 57.2537C165.024 57.2537 166.047 56.9756 166.873 56.4194C167.699 55.8632 168.493 55.0677 169.255 54.0328L170.437 54.9254C169.7 56.0896 168.779 57.0597 167.673 57.8358C166.568 58.6119 165.088 59 163.233 59ZM166.091 48.4448C166.091 46.0129 165.812 44.2861 165.253 43.2642C164.694 42.2423 163.893 41.7313 162.852 41.7313C161.886 41.7313 161.104 42.2552 160.507 43.303C159.91 44.3508 159.612 46.0647 159.612 48.4448H166.091ZM181.186 59C178.213 59 176.167 58.4697 175.049 57.409C174.642 57.0209 174.388 56.4711 174.287 55.7597C174.185 55.0483 174.134 54.0587 174.134 52.791H175.468C175.697 54.1363 176.218 55.2164 177.031 56.0313C177.844 56.8463 178.975 57.2537 180.424 57.2537C182.965 57.2537 184.235 56.3741 184.235 54.6149C184.235 53.9423 183.962 53.3861 183.416 52.9463C182.869 52.5065 181.999 52.0149 180.805 51.4716L178.823 50.6179C177.196 49.8935 175.977 49.1045 175.163 48.2507C174.35 47.397 173.944 46.3622 173.944 45.1463C173.944 43.5164 174.611 42.2488 175.945 41.3433C177.279 40.4378 179.026 39.9851 181.186 39.9851C184.159 39.9851 186.205 40.5154 187.323 41.5761C187.729 41.9642 187.984 42.5075 188.085 43.206C188.187 43.9045 188.238 44.9005 188.238 46.194H186.904C186.675 44.8487 186.154 43.7687 185.341 42.9537C184.528 42.1388 183.397 41.7313 181.948 41.7313C180.856 41.7313 180.042 41.9706 179.509 42.4493C178.975 42.9279 178.708 43.5682 178.708 44.3701C178.708 45.0169 178.931 45.5537 179.375 45.9806C179.82 46.4075 180.5 46.8279 181.415 47.2418L183.702 48.2119C185.582 49.0139 186.935 49.8224 187.761 50.6373C188.587 51.4522 189 52.5194 189 53.8388C189 55.4945 188.282 56.7687 186.846 57.6612C185.411 58.5537 183.524 59 181.186 59Z" fill="#55488D" stroke="#55488D" stroke-width="0.3"/>
</svg>
