<svg width="177" height="62" viewBox="0 0 177 62" fill="none" xmlns="http://www.w3.org/2000/svg">
<path fill-rule="evenodd" clip-rule="evenodd" d="M0 7.12779V14.2556H4.0183H8.0366L7.88481 30.9346L7.73301 47.6137L3.8665 47.7824L0 47.9507V54.4826V61.0139H21.1942H42.3884V54.4826V47.9507L38.5218 47.7824L34.6553 47.6137L34.5035 30.9346L34.3517 14.2556H38.37H42.3884V7.12779V0H21.1942H0V7.12779ZM44.8045 20.9449L44.966 27.6558L47.6869 27.8298L50.4078 28.0037V37.9512V47.8988H47.5437H44.6796V54.4563V61.0139H61.2913H77.9029V54.4563V47.8988H74.7524H71.6019V40.9044C71.6019 32.8968 72.3288 30.7544 75.6472 28.9827C78.0152 27.7186 81.9464 27.6342 84.2102 28.7997C86.5622 30.0103 87.1671 32.6459 86.958 40.771L86.7816 47.6137L83.7743 47.7859L80.767 47.9586V54.4951V61.0316L96.949 60.8805L113.131 60.7288L113.294 54.8663L113.458 49.0033L115.325 51.4399C119.427 56.7937 126.118 60.2589 134.918 61.5876C142.21 62.6881 150.856 61.5362 156.379 58.7285C160.776 56.4926 164.922 50.9255 165.847 46.0142L166.244 43.9072H157.393H148.541L147.846 46.2155C146.95 49.1937 144.509 50.7448 140.714 50.7476C134.602 50.7522 132.655 47.8018 132.626 38.4901C132.603 31.0823 133.598 28.323 136.903 26.6266C139.36 25.3658 143.292 25.6241 145.025 27.1609C146.622 28.5779 147.786 31.4284 147.786 33.926V35.956L151.653 35.57C153.779 35.3578 157.839 34.9017 160.675 34.5561L165.83 33.9283L165.628 32.225C165.209 28.6925 163.137 24.4774 160.488 21.7706C155.858 17.0394 149.509 14.8258 140.568 14.8258C131.331 14.8258 123.355 17.5925 117.871 22.6995C114.348 25.9794 112.482 29.5524 111.592 34.7175C110.932 38.5477 111.217 41.8875 112.612 46.6523C112.978 47.9062 112.872 47.9626 110.486 47.7927L107.976 47.6137L107.688 36.4943C107.375 24.4073 107.022 22.8443 103.903 19.7303C102.993 18.8214 100.83 17.4163 99.0971 16.6078C96.3029 15.3048 95.2334 15.1394 89.6456 15.1491C81.9098 15.1622 78.2695 16.3854 73.9505 20.422L71.0727 23.1117L70.9077 18.8259L70.7427 14.5407L57.6928 14.3873L44.6429 14.2339L44.8045 20.9449ZM167.195 48.4017C165.206 50.381 164.971 50.917 164.971 53.4567C164.971 59.0324 170.5 62.639 175.541 60.3519C176.972 59.703 177 59.573 177 53.601C177 47.6291 176.972 47.499 175.541 46.8501C174.739 46.4858 173.033 46.1881 171.75 46.1881C169.805 46.1881 169.049 46.5553 167.195 48.4017Z" fill="#1D1D1F"/>
</svg>
