<svg width="159" height="56" viewBox="0 0 159 56" fill="none" xmlns="http://www.w3.org/2000/svg">
<path fill-rule="evenodd" clip-rule="evenodd" d="M0 6.43801V12.876H3.60966H7.21932L7.08296 27.941L6.9466 43.0059L3.4733 43.1583L0 43.3103V49.2101V55.1093H19.0388H38.0777V49.2101V43.3103L34.6044 43.1583L31.1311 43.0059L30.9947 27.941L30.8583 12.876H34.468H38.0777V6.43801V0H19.0388H0V6.43801ZM40.2481 18.918L40.3932 24.9795L42.8374 25.1366L45.2816 25.2936V34.2785V43.2634H42.7087H40.1359V49.1864V55.1093H55.0583H69.9806V49.1864V43.2634H67.1505H64.3204V36.9459C64.3204 29.7132 64.9734 27.7782 67.9542 26.178C70.0814 25.0361 73.6129 24.9599 75.6464 26.0126C77.7592 27.1061 78.3026 29.4866 78.1148 36.8254L77.9563 43.0059L75.2549 43.1614L72.5534 43.3175V49.2214V55.1253L87.0898 54.9888L101.626 54.8518L101.773 49.5567L101.92 44.261L103.597 46.4618C107.282 51.2975 113.292 54.4274 121.197 55.6275C127.748 56.6215 135.515 55.5811 140.476 53.0451C144.426 51.0256 148.15 45.9972 148.981 41.5612L149.338 39.6581H141.386H133.435L132.811 41.743C132.006 44.4331 129.813 45.834 126.404 45.8366C120.914 45.8407 119.165 43.1758 119.139 34.7652C119.118 28.0743 120.012 25.5821 122.981 24.0498C125.188 22.9111 128.719 23.1444 130.277 24.5324C131.712 25.8123 132.757 28.387 132.757 30.6429V32.4764L136.231 32.1277C138.141 31.9361 141.788 31.5241 144.335 31.212L148.966 30.6449L148.784 29.1065C148.408 25.9158 146.547 22.1086 144.167 19.6637C140.008 15.3904 134.305 13.3911 126.273 13.3911C117.975 13.3911 110.81 15.89 105.884 20.5027C102.72 23.4652 101.043 26.6925 100.244 31.3577C99.6508 34.8173 99.9071 37.8338 101.16 42.1375C101.489 43.2701 101.394 43.3211 99.2505 43.1676L96.9951 43.0059L96.7363 32.9626C96.4554 22.0453 96.1384 20.6336 93.3366 17.8209C92.519 16.9999 90.576 15.7309 89.0194 15.0006C86.5094 13.8237 85.5487 13.6743 80.5291 13.6831C73.5799 13.6949 70.3099 14.7997 66.4301 18.4457L63.8449 20.8751L63.6967 17.0041L63.5485 13.1335L51.8258 12.995L40.103 12.8564L40.2481 18.918ZM150.192 43.7177C148.406 45.5054 148.194 45.9895 148.194 48.2835C148.194 53.3196 153.161 56.5772 157.689 54.5114C158.975 53.9253 159 53.8078 159 48.4138C159 43.0198 158.975 42.9024 157.689 42.3162C156.969 41.9871 155.436 41.7183 154.284 41.7183C152.537 41.7183 151.858 42.05 150.192 43.7177Z" fill="white"/>
</svg>
