<svg width="189" height="93" viewBox="0 0 189 93" fill="none" xmlns="http://www.w3.org/2000/svg">
<path fill-rule="evenodd" clip-rule="evenodd" d="M20.5861 36.569C20.0836 37.0573 20 38.471 20 46.4857C20 56.6622 20.0153 56.7368 22.1172 56.7368C24.0008 56.7368 24.1038 56.1953 24.1038 46.2796C24.1038 36.3767 24.0284 36 22.0519 36C21.5684 36 20.9088 36.2561 20.5861 36.569ZM30.3683 40.6334C26.3713 44.5146 25.596 45.444 25.596 46.3557C25.596 47.2725 26.3866 48.2041 30.6045 52.2594C34.9276 56.4155 35.7316 57.0403 36.4803 56.8237C37.62 56.4944 38.2804 55.64 38.2807 54.4943C38.2807 53.7883 37.3693 52.731 34.4568 50.0583L30.6325 46.5491L34.4564 42.7759C38.4852 38.8006 38.9851 37.818 37.598 36.5995C36.1669 35.3419 35.3488 35.7982 30.3683 40.6334ZM44.7688 36.4691C44.3804 36.6752 43.9394 37.0207 43.7887 37.237C43.638 37.4532 43.5123 41.7204 43.5089 46.7197C43.5037 55.0699 43.5589 55.8584 44.1856 56.409C44.9019 57.0385 46.0182 57.1808 46.7117 56.7313C47.8205 56.0127 47.9801 54.7149 47.9801 46.4274C47.9801 39.5761 47.876 37.8281 47.4321 37.2123C46.7527 36.2709 45.6973 35.9765 44.7688 36.4691ZM53.1617 36.6864L52.2704 37.3895L55.5523 46.9856C57.6213 53.0357 59.0457 56.6607 59.4068 56.7951C60.3671 57.1529 61.2964 57.0349 61.7561 56.4973C61.9967 56.2159 63.3229 52.9835 64.7037 49.3143L67.214 42.6426L69.6271 49.1477C70.9541 52.7256 72.2602 55.9576 72.5292 56.3307C73.144 57.1834 74.5486 57.2055 75.2943 56.3746C75.8353 55.7715 81.9294 38.4797 81.9294 37.5477C81.9294 36.732 80.2502 35.9493 79.275 36.3101C78.5184 36.59 78.0517 37.622 76.1602 43.1968C74.9366 46.803 73.8211 49.6341 73.6819 49.4874C73.5428 49.3407 72.3616 46.3905 71.057 42.9313C69.126 37.81 68.525 36.5821 67.8218 36.3206C66.2135 35.7236 65.7192 36.4477 63.2931 42.9556C62.0083 46.4013 60.8447 49.3396 60.707 49.4849C60.5693 49.6298 59.4762 46.8588 58.2783 43.3272C57.08 39.7953 55.9936 36.8016 55.8638 36.6744C55.2005 36.025 53.9936 36.0304 53.1617 36.6864ZM87.8585 36.4944L86.9658 36.9265L86.8662 46.2981C86.7774 54.6352 86.8352 55.7439 87.3903 56.3391C88.1861 57.1932 89.4732 57.1961 90.2656 56.3459C90.8054 55.7668 90.883 54.5465 90.883 46.6353C90.883 37.3221 90.7979 36.7469 89.3508 36.263C89.0214 36.1529 88.3499 36.2568 87.8585 36.4944ZM130.398 36.3716C125.336 37.187 121.848 41.3202 121.848 46.5042C121.848 51.8128 125.587 56.1043 130.85 56.8371C134.709 57.3746 139.755 55.2535 139.755 53.0943C139.755 51.0533 138.254 50.6831 135.838 52.128C132.982 53.8358 128.982 53.0842 127.228 50.5107C125.283 47.6579 125.795 43.6818 128.393 41.468C130.472 39.6953 133.933 39.5124 136.09 41.0609C137.958 42.4018 139.755 41.8501 139.755 39.9365C139.755 37.6767 134.568 35.7001 130.398 36.3716ZM151.663 36.3702C146.403 37.2217 142.969 41.1525 142.969 46.3231C142.969 52.3993 147.245 56.639 153.372 56.639C159.425 56.639 164.047 52.0805 163.988 46.1666C163.944 41.6784 160.232 37.175 156.057 36.5455C155.196 36.4155 154.239 36.2608 153.932 36.2014C153.624 36.142 152.603 36.2181 151.663 36.3702ZM168.726 37.0247C168.186 37.6032 168.108 38.8144 168.108 46.5973C168.108 56.2532 168.189 56.6462 170.166 56.6462C171.802 56.6462 172.21 55.4629 172.227 50.6795L172.241 46.3231L174.824 51.5086L177.406 56.6944L178.633 56.5796C179.968 56.455 180.13 56.2097 183.595 49.0397L185.083 45.9609L185.187 50.8269C185.248 53.6583 185.462 55.8921 185.699 56.1695C186.325 56.9019 188.165 56.7607 188.614 55.9457C188.85 55.5172 189 51.7958 189 46.3727C189 36.6516 188.9 36.1978 186.808 36.4332C185.936 36.5314 185.443 37.3058 182.301 43.5159C180.361 47.3511 178.682 50.4849 178.57 50.481C178.459 50.4766 176.954 47.5836 175.227 44.0517C173.499 40.5197 171.836 37.3449 171.531 36.9961C170.812 36.1735 169.506 36.1869 168.726 37.0247ZM157.182 41.0504C158.899 42.2844 159.715 44.1042 159.709 46.686C159.698 50.6085 157.121 53.2055 153.293 53.1519C149.13 53.0936 146.215 49.2038 147.186 45.0043C147.609 43.1784 148.524 41.9074 150.235 40.7675C151.952 39.624 155.391 39.7638 157.182 41.0504Z" fill="white"/>
<path fill-rule="evenodd" clip-rule="evenodd" d="M50.3021 0.197045C30.4801 1.57954 12.0972 12.7427 4.48153 28.0215C1.36196 34.2799 0 39.9048 0 46.532C0 57.8664 4.63552 68.3886 13.4285 77.0141C22.5339 85.9462 36.6424 91.9537 50.6258 92.8538C67.9079 93.9656 84.2333 88.7041 96.171 78.1744C99.9627 74.8302 103.132 70.6932 103.132 69.0882C103.132 67.5206 101.728 65.9773 100.303 65.9773C98.8035 65.9773 97.5993 66.9006 94.4403 70.4729C80.4873 86.2514 53.4951 91.1886 32.2804 81.8436C19.6661 76.2871 10.8623 66.8374 7.50031 55.2457C6.28636 51.0601 6.27024 42.0558 7.46959 37.9311C11.3854 24.4619 22.5661 13.8746 37.904 9.11125C45.7557 6.67272 55.8402 5.86798 63.605 7.05939C76.5404 9.04468 87.4758 14.5167 94.3527 22.4452C97.9859 26.6338 98.5472 27.0866 100.108 27.0866C102.668 27.0866 104.087 24.2969 102.645 22.1011C100.204 18.3822 94.2009 12.7535 89.3608 9.64525C86.2622 7.65509 78.7117 4.12987 75.2182 3.04205C70.9371 1.70855 65.5815 0.613999 62.1045 0.361584C56.0684 -0.0763107 54.527 -0.0980007 50.3021 0.197045ZM106.275 44.2808C105.103 44.7531 103.881 46.4867 103.881 47.6755C103.881 48.9974 105.441 50.8724 106.747 51.1214C109.007 51.5526 111 49.9222 111 47.6422C111 45.9998 110.386 45.0541 108.921 44.4435C107.488 43.8459 107.371 43.8388 106.275 44.2808Z" fill="#00A991"/>
</svg>
