<svg width="30" height="16" viewBox="0 0 30 16" fill="none" xmlns="http://www.w3.org/2000/svg">
<path d="M14.9773 5.66821e-08C14.765 2.88516e-08 14.5528 0.0872593 14.4315 0.203623L0.212229 13.7309C0.060637 13.8763 2.55592e-07 14.0509 2.28889e-07 14.2545C2.02185e-07 14.4582 0.0909552 14.6327 0.212229 14.7782L1.27337 15.7673C1.57655 16.0582 2.06165 16.0582 2.36483 15.7673L14.9773 3.78182L27.62 15.7963C27.7716 15.9418 27.9535 16 28.1657 16C28.378 16 28.5599 15.9127 28.7115 15.7963L29.7726 14.8073C30.0758 14.5164 30.0758 14.0509 29.7726 13.76L15.5533 0.232707C15.3714 0.0872527 15.1895 8.45124e-08 14.9773 5.66821e-08Z" fill="white"/>
<path d="M14.5012 1.25481L1.19953 14.8448C1.06651 14.9807 1 15.1846 1 15.3205C1 15.4564 1.06651 15.6602 1.19953 15.7961C1.46556 16.0679 1.93112 16.0679 2.19715 15.7961L15.0333 2.68176L27.8694 15.7962C28.0024 15.9321 28.2019 16 28.3349 16C28.4679 16 28.6675 15.9321 28.8005 15.7962C28.9335 15.6603 29 15.4564 29 15.3205C29 15.1846 28.9335 14.9128 28.8005 14.8449L15.4988 1.25481C15.1663 0.915063 14.7672 0.915063 14.5012 1.25481Z" fill="white"/>
</svg>
