<svg width="8" height="9" viewBox="0 0 8 9" fill="none" xmlns="http://www.w3.org/2000/svg">
<path d="M4.06411 8.47869C4.09616 8.46774 4.14744 8.44428 4.17629 8.42551C4.25481 8.37858 7.91668 4.79513 7.94552 4.73882C7.9952 4.64185 8.01283 4.50577 7.99039 4.39941C7.97918 4.34622 7.95994 4.28053 7.94552 4.25394C7.9327 4.22891 7.08815 3.3921 6.06892 2.39574C4.68911 1.04745 4.19391 0.573515 4.13462 0.542232C4.0625 0.504692 4.03686 0.5 3.89424 0.5C3.66186 0.5 3.63943 0.514077 3.26763 0.875394C3.09295 1.04276 2.94712 1.19917 2.92789 1.23515C2.91026 1.26956 2.88782 1.34151 2.87661 1.39312C2.85417 1.50261 2.8734 1.62775 2.92789 1.73567C2.94872 1.77634 3.29488 2.12671 3.90065 2.71639L4.84135 3.6361L0.384616 3.64392L0.29327 3.68772C0.185898 3.73934 0.0993592 3.82849 0.0416668 3.94737L8.26595e-08 4.03496L0 4.9578L0.0528847 5.0626C0.11218 5.18148 0.184295 5.2503 0.3125 5.30817L0.400641 5.34884L4.83815 5.35666L3.89904 6.27638C3.26443 6.89734 2.94872 7.21642 2.92629 7.26178C2.84776 7.41194 2.84936 7.60433 2.92789 7.75762C2.94712 7.79359 3.09616 7.95314 3.27564 8.12675C3.55609 8.40048 3.59936 8.43645 3.6827 8.46774C3.79007 8.50528 3.97116 8.51153 4.06411 8.47869Z" fill="white"/>
</svg>
