<svg width="25" height="25" viewBox="0 0 25 25" fill="none" xmlns="http://www.w3.org/2000/svg">
<path d="M11.572 0.0292416C11.4792 0.0390072 11.1912 0.0731869 10.9373 0.0976009C9.32593 0.273382 7.5437 0.878851 6.10327 1.73823C4.27222 2.83198 2.78296 4.32123 1.68921 6.15229C0.844482 7.5683 0.253662 9.29194 0.048584 10.9374C-0.0148926 11.4697 -0.0148926 13.5302 0.048584 14.0624C0.517334 17.8613 2.75855 21.2695 6.10327 23.2617C9.37476 25.2148 13.4666 25.5322 17.0652 24.1113C17.6121 23.8964 18.7839 23.3007 19.0232 23.1201C19.2673 22.9345 19.4041 22.6074 19.3699 22.2802C19.3162 21.7871 18.9841 21.455 18.491 21.4013C18.2468 21.3769 18.2078 21.3915 17.5779 21.7187C15.9275 22.5781 14.5164 22.9687 12.8171 23.0322C8.17847 23.2128 3.89624 20.2197 2.44605 15.791C1.9773 14.3554 1.81128 12.9345 1.95288 11.5185C2.11401 9.90717 2.7146 8.12983 3.51538 6.91401C4.93628 4.74116 6.84058 3.2519 9.15991 2.49506C12.2117 1.49897 15.4246 1.90424 18.1492 3.63276C18.3982 3.78901 18.6814 3.93549 18.7839 3.95991C19.5457 4.13569 20.2048 3.32514 19.8777 2.61225C19.7654 2.36811 19.6677 2.28022 19.0916 1.91889C17.5535 0.94721 15.8298 0.336859 13.9646 0.0976009C13.5349 0.0390072 11.8699 -0.00493813 11.572 0.0292416Z" fill="#E9284A"/>
<path d="M23.6474 2.06045C23.5644 2.08975 23.4277 2.16787 23.3447 2.24112C23.2666 2.30947 20.8984 5.23428 18.0859 8.74014C15.2734 12.246 12.9297 15.1513 12.8711 15.1952C12.7051 15.3319 12.4756 15.3563 12.2851 15.2538C12.1924 15.2001 10.9717 14.0771 9.58007 12.7538C8.18358 11.4306 6.99217 10.3075 6.9287 10.2587C6.54296 9.96572 6.02538 10.0048 5.67382 10.3515C5.32225 10.7079 5.27831 11.2401 5.58104 11.6161C5.74706 11.8261 10.5762 16.411 10.9375 16.704C11.9385 17.5146 13.3301 17.4608 14.2383 16.5771C14.5605 16.2646 24.7266 3.6376 24.8389 3.40811C25.2246 2.63662 24.4824 1.7919 23.6474 2.06045Z" fill="white"/>
<path d="M23.242 8.72065C22.7244 8.94526 22.5584 9.40913 22.7293 10.1513C22.9539 11.1035 23.0467 12.4072 22.9539 13.3789C22.7928 15.0683 22.2801 16.5966 21.3866 18.0664C21.0155 18.6816 20.9715 18.9013 21.1571 19.3017C21.2498 19.5068 21.328 19.5996 21.4891 19.6923C21.7723 19.8583 22.0262 19.8974 22.285 19.8242C22.6463 19.7265 22.8514 19.4775 23.4178 18.457C24.8631 15.8398 25.3075 12.666 24.6336 9.73627C24.536 9.31147 24.4774 9.1601 24.3553 9.01362C24.077 8.6767 23.618 8.55463 23.242 8.72065Z" fill="#E9284A"/>
</svg>
