<svg width="25" height="26" viewBox="0 0 25 26" fill="none" xmlns="http://www.w3.org/2000/svg">
<path d="M21.9384 10.1306C21.7716 9.19669 21.2949 8.34188 20.5812 7.69735C19.9761 7.14268 19.2269 6.75942 18.4146 6.58891L18.0433 6.50593L11.4705 6.5C7.84931 6.5 4.77589 6.5 4.6633 6.52075C4.28637 6.57424 3.93392 6.73456 3.64985 6.98172C3.36578 7.22887 3.16264 7.55196 3.06572 7.91074C3.00172 8.59448 2.98444 9.28161 3.01399 9.96758V14.2146C3.01399 14.4369 3.01399 14.7422 3.01399 15.1808C2.99406 15.7386 3.01235 16.297 3.06877 16.8524C3.24537 17.8033 3.73758 18.6715 4.46981 19.3236C5.20204 19.9757 6.13381 20.3757 7.12203 20.4622C7.6576 20.5126 17.3617 20.5126 17.8942 20.4622C18.8808 20.375 19.8106 19.9749 20.5412 19.3234C21.2717 18.6718 21.7626 17.8048 21.9384 16.8553C22.0205 16.4078 22.0205 10.5781 21.9384 10.1306ZM20.5143 17.4836C20.3008 17.9207 19.9911 18.3067 19.6071 18.614C19.2232 18.9213 18.7745 19.1426 18.2929 19.2619L17.9338 19.3597H7.06726L6.70514 19.2619C6.22395 19.1416 5.77567 18.9201 5.39188 18.6128C5.00808 18.3056 4.6981 17.9202 4.48376 17.4836C4.17946 16.8642 4.17946 16.8731 4.15816 15.2638C4.17076 14.7811 4.15246 14.298 4.10338 13.8175C4.13381 13.0084 4.1399 11.2805 4.15511 9.96462C4.17642 7.93742 4.15511 8.04708 4.45941 7.80108C4.5473 7.72756 4.65144 7.67481 4.76371 7.64697C4.83675 7.62919 7.8341 7.61733 11.4248 7.61733H17.9338L18.2929 7.71514C18.7745 7.83448 19.2232 8.05568 19.6071 8.36302C19.9911 8.67036 20.3008 9.05629 20.5143 9.49338C20.8459 10.178 20.8186 9.94091 20.8186 13.4856C20.8186 17.0302 20.8459 16.799 20.5143 17.4836Z" fill="#AE9A9E"/>
<path d="M18.2503 11.1323C18.1772 11.1679 16.8961 12.0778 15.3959 13.1566C12.8703 14.9822 12.6572 15.1186 12.5964 15.0771C12.5355 15.0356 11.2362 14.105 9.66598 12.9728C8.09579 11.8407 6.77513 10.8982 6.7234 10.8982C6.56461 10.8461 6.39132 10.8557 6.23957 10.9249C6.16139 10.9675 6.09466 11.0276 6.04483 11.1001C5.99499 11.1727 5.96345 11.2557 5.95277 11.3423C5.94209 11.429 5.95258 11.5169 5.98338 11.5988C6.01418 11.6808 6.06443 11.7545 6.13002 11.814C6.34303 12.0096 12.5873 16.4967 12.6542 16.4997C12.7211 16.5026 18.9136 12.0541 18.9958 11.9177C19.0388 11.8298 19.0611 11.7336 19.0611 11.6362C19.0611 11.5388 19.0388 11.4426 18.9958 11.3546C18.9239 11.2321 18.8068 11.1409 18.6683 11.0996C18.5297 11.0583 18.3802 11.07 18.2503 11.1323Z" fill="#AE9A9E"/>
</svg>
