<svg width="46" height="65" viewBox="0 0 46 65" fill="none" xmlns="http://www.w3.org/2000/svg">
<path d="M29.9484 28.8754C29.8652 28.4472 29.4768 28.0945 29.0053 28.0189C28.8389 27.9937 18.091 27.9937 17.9384 28.0189C17.4808 28.1071 17.1063 28.4472 17.0092 28.8754C16.9676 29.0392 16.9676 35.9545 17.0092 36.1183C17.0924 36.5465 17.4808 36.8992 17.9523 36.9748C18.0494 36.9874 20.7675 37 23.4719 37C26.1762 37 28.8944 36.9874 28.9915 36.9748C29.463 36.8992 29.8513 36.5465 29.9345 36.1183C29.99 35.9545 29.99 29.0392 29.9484 28.8754ZM29.1163 32.5031V35.6648L25.6353 32.4906L27.3966 30.8908C28.2426 30.1225 28.8944 29.5304 29.1163 29.3289C29.1163 29.6942 29.1163 30.8782 29.1163 32.5031ZM21.35 32.478L17.8413 35.6648V29.3289L17.8691 29.3415C17.9245 29.3919 18.7705 30.1477 19.6858 30.9664L21.35 32.478ZM20.1851 34.6571C21.0865 33.8383 21.8215 33.1833 21.9741 33.0448C22.0573 33.1204 22.2931 33.3219 22.5843 33.5864C22.8894 33.8635 23.25 34.1784 23.3193 34.2162C23.4441 34.2792 23.5689 34.2792 23.6938 34.2288C23.7631 34.2036 24.1653 33.8383 24.4288 33.6116L25.0251 33.07L28.5061 36.2316H18.4654L20.1851 34.6571ZM23.1806 33.0322C22.9865 32.8558 21.7938 31.7978 20.5873 30.7019L18.4515 28.7747H28.4922L23.4996 33.3093L23.1806 33.0322Z" fill="#FFAFBD"/>
</svg>
