<svg width="30" height="31" viewBox="0 0 30 31" fill="none" xmlns="http://www.w3.org/2000/svg">
<g clip-path="url(#clip0_2329_1847)">
<path d="M5.71875 0.361328C5.63086 0.419922 5.50195 0.548828 5.44336 0.636719C5.33789 0.800781 5.33203 0.994141 5.33203 5.14258V9.47852L2.83594 11.9688C1.46484 13.3398 0.263672 14.5645 0.169922 14.6875L0 14.916V22.3047C0 29.4414 0.00585938 29.6992 0.111328 29.8633C0.169922 29.9512 0.298828 30.0801 0.386719 30.1387C0.550781 30.2441 0.949219 30.25 15 30.25C29.0508 30.25 29.4492 30.2441 29.6133 30.1387C29.7012 30.0801 29.8301 29.9512 29.8887 29.8633C29.9941 29.6992 30 29.4414 30 22.3047V14.916L29.8301 14.6875C29.7363 14.5645 28.5352 13.3398 27.1641 11.9688L24.668 9.47852V5.14258C24.668 0.994141 24.6621 0.800781 24.5566 0.636719C24.498 0.548828 24.3691 0.419922 24.2812 0.361328C24.1172 0.255859 23.8301 0.25 15 0.25C6.16992 0.25 5.88281 0.255859 5.71875 0.361328ZM10.6641 2.40039C10.6582 3.52539 10.4297 4.1875 9.84961 4.76758C9.26953 5.34766 8.60742 5.57617 7.48828 5.58203H7.08984V3.79492V2.00781H8.87695H10.6641V2.40039ZM14.0742 2.95703C14.0977 3.80078 14.1211 3.96484 14.2559 4.3457C14.5195 5.07812 14.8008 5.51172 15.375 6.08008C16.2949 6.98828 17.1914 7.33984 18.6152 7.33984H19.3945V14.7168V22.0938L18.9434 22.2168C16.6758 22.8203 14.0039 22.8789 11.6895 22.3633C10.1836 22.0293 8.34961 21.3203 7.3125 20.6641L7.08984 20.5234V13.9316V7.33984H7.86914C8.8125 7.33984 9.3457 7.22266 10.0781 6.85938C10.4824 6.66016 10.6816 6.50781 11.1328 6.05078C11.5898 5.59961 11.7422 5.40039 11.9414 4.99609C12.3047 4.26367 12.4219 3.73047 12.4219 2.78711V2.00781H13.2363H14.0508L14.0742 2.95703ZM19.3945 3.79492V5.58203H19.002C17.877 5.57617 17.2148 5.34766 16.6348 4.76758C16.0547 4.1875 15.8262 3.52539 15.8203 2.40039V2.00781H17.6074H19.3945V3.79492ZM22.9102 3.79492V5.58203H22.0312H21.1523V3.79492V2.00781H22.0312H22.9102V3.79492ZM22.9102 13.9316V20.5234L22.6875 20.6641C22.5586 20.7402 22.166 20.9512 21.8086 21.1328L21.1523 21.4609V14.4004V7.33984H22.0312H22.9102V13.9316ZM5.33203 15.6953V19.2402L5.15625 19.1172C4.83984 18.8945 3.73242 17.7461 3.26367 17.1543C3.00586 16.832 2.61914 16.3105 2.41406 15.9941L2.02734 15.4199L3.66797 13.7793C4.56445 12.8828 5.30859 12.1445 5.31445 12.1445C5.32617 12.1445 5.33203 13.7441 5.33203 15.6953ZM27.5918 15.9941C27.3809 16.3105 26.9941 16.832 26.7363 17.1543C26.2734 17.7344 25.1484 18.9004 24.832 19.123L24.668 19.2402V15.6777V12.1152L26.3203 13.7676L27.9727 15.4199L27.5918 15.9941ZM3.10547 19.709C4.54102 21.1328 6.3457 22.3574 8.20312 23.1484C13.4883 25.416 19.7051 24.8711 24.4043 21.7363C25.6348 20.916 26.9883 19.7207 27.8848 18.6602L28.2422 18.2324V23.3652V28.4922H15H1.75781V23.3652V18.2324L2.12109 18.6602C2.32031 18.8945 2.75977 19.3691 3.10547 19.709Z" fill="#AE9A9E"/>
<path d="M12.2754 10.967C11.0684 11.3186 10.1309 12.2795 9.82031 13.4748C9.76758 13.6741 9.72656 14.0725 9.72656 14.3713C9.72656 14.6702 9.76758 15.0686 9.82031 15.2678C10.1309 16.4748 11.1387 17.4827 12.3398 17.7932C12.8027 17.9104 13.6758 17.9162 14.1387 17.7932C15.3574 17.4768 16.3477 16.4866 16.6641 15.2678C16.7871 14.8108 16.7871 13.9319 16.6641 13.4748C16.3477 12.2561 15.3574 11.2659 14.1387 10.9494C13.6582 10.8264 12.7324 10.8323 12.2754 10.967ZM13.8516 12.7659C14.1738 12.8772 14.625 13.2932 14.7949 13.6389C14.8828 13.8147 14.9121 13.9963 14.9121 14.3713C14.9121 14.9514 14.8125 15.2034 14.4434 15.5725C14.0742 15.9416 13.8223 16.0412 13.2422 16.0412C12.6621 16.0412 12.4102 15.9416 12.041 15.5725C11.7188 15.2561 11.584 14.9455 11.5547 14.4768C11.502 13.6623 11.9004 13.0588 12.6855 12.7483C12.9434 12.6487 13.5293 12.6604 13.8516 12.7659Z" fill="#AE9A9E"/>
</g>
<defs>
<clipPath id="clip0_2329_1847">
<rect width="30" height="30" fill="white" transform="translate(0 0.25)"/>
</clipPath>
</defs>
</svg>
