<svg width="30" height="31" viewBox="0 0 30 31" fill="none" xmlns="http://www.w3.org/2000/svg">
<g clip-path="url(#clip0_2329_1984)">
<path d="M11.8829 0.337891C11.5372 0.466797 11.1446 0.765625 10.9278 1.05859C10.5352 1.59766 10.5469 1.43945 10.5469 5.79883V9.74219H9.64459H8.74225L8.5899 9.25586C8.37311 8.55859 8.07428 8.08984 7.47076 7.48633C7.04889 7.06445 6.84381 6.90625 6.44537 6.70703C5.75982 6.36719 5.16803 6.22656 4.41217 6.22656C3.62701 6.22656 3.09381 6.34375 2.4024 6.67773C1.92193 6.91211 1.76959 7.02344 1.28326 7.50977C0.796934 7.99609 0.685606 8.14844 0.451231 8.62891C-0.0409565 9.6543 -0.00580024 8.93945 0.0117779 18.4141L0.029356 26.8223L0.187559 27.2559C0.46295 28 0.73834 28.4219 1.31256 28.9902C1.92193 29.5996 2.51373 29.9336 3.30475 30.1328C3.76178 30.25 3.99029 30.25 14.7891 30.25C25.4883 30.25 25.8165 30.2441 25.9805 30.1387C26.3555 29.8867 26.3672 29.8457 26.3672 28.2109V26.7344H27.9083C29.6016 26.7344 29.6368 26.7285 29.8887 26.3477C29.9942 26.1836 30.0001 25.9199 30.0001 18.2383C30.0001 10.5566 29.9942 10.293 29.8887 10.1289C29.8301 10.041 29.7012 9.91211 29.6133 9.85352C29.4493 9.74805 29.2032 9.74219 22.6348 9.74219H15.8204V7.63281V5.52344H16.4063H16.9922V6.70703C16.9922 8.01367 17.0157 8.10156 17.379 8.3418C17.6075 8.49414 18.1348 8.49414 18.3633 8.3418C18.7501 8.08398 18.7501 8.08398 18.7501 6.10938C18.7501 4.45703 18.7383 4.31055 18.6387 4.15234C18.3985 3.78906 18.3106 3.76562 17.0098 3.76562H15.8262L15.8087 2.72266C15.7911 1.76172 15.7794 1.66211 15.6446 1.39258C15.5684 1.22852 15.3809 0.982422 15.2344 0.835938C15.0879 0.689453 14.8419 0.501953 14.6778 0.425781C14.4024 0.285156 14.3262 0.279297 13.2422 0.267578C12.3809 0.255859 12.0469 0.273438 11.8829 0.337891ZM13.9571 2.11328C14.0098 2.16602 14.0391 2.42969 14.0508 2.97461L14.0743 3.76562H13.1895H12.3047V3.06836C12.3047 2.31836 12.3516 2.0957 12.5215 2.04883C12.7442 1.98438 13.8809 2.03711 13.9571 2.11328ZM14.045 10.5449C14.0215 15.3965 14.0157 15.5957 13.8985 16.1523C13.7169 16.9902 13.3008 18.1797 13.1837 18.1797C13.084 18.1797 12.709 17.1719 12.5333 16.4219C12.3399 15.6074 12.3106 14.6816 12.3047 9.98828V5.52344H13.1895H14.0743L14.045 10.5449ZM5.46686 8.25977C6.28131 8.64648 6.85553 9.4375 6.97272 10.334C7.00201 10.5859 7.03131 13.1758 7.03131 16.5273V22.293L6.84381 22.1699C6.51568 21.9531 6.13482 21.7715 5.74225 21.6367C5.19732 21.4492 4.05475 21.4082 3.42193 21.5488C2.9649 21.6484 2.31451 21.918 1.95123 22.1641L1.75787 22.293V16.5273C1.75787 13.1758 1.78717 10.5859 1.81647 10.334C1.8985 9.73047 2.13873 9.23242 2.56647 8.81055C3.14654 8.22461 3.62701 8.03711 4.48248 8.06055C5.00397 8.07227 5.11529 8.0957 5.46686 8.25977ZM10.5587 13.7969C10.5821 16.082 10.5821 16.1055 10.7462 16.8027C11.0157 17.957 11.4669 19.0586 12.0469 19.9551L12.3047 20.3535V20.9219C12.3047 21.3789 12.3282 21.5254 12.4161 21.6602C12.5977 21.9297 12.8204 22.0469 13.1837 22.0469C13.5469 22.0469 13.7696 21.9297 13.9512 21.6602C14.0391 21.5254 14.0626 21.3789 14.0626 20.9219V20.3535L14.3204 19.9551C14.9004 19.0586 15.3516 17.957 15.6212 16.8027C15.7852 16.1055 15.7852 16.082 15.8087 13.7969L15.8262 11.5H22.0372H28.2422V18.2383V24.9766H18.5157H8.78912V18.2383V11.5H9.66217H10.5411L10.5587 13.7969ZM5.46686 23.4941C6.31647 23.8984 6.86139 24.6719 6.97857 25.6562C7.04889 26.2363 7.1485 26.4531 7.41803 26.623C7.59967 26.7344 7.80475 26.7344 16.1075 26.7344H24.6094V27.6133V28.4922H14.5782C8.47272 28.4922 4.37115 28.4688 4.10748 28.4336C3.211 28.3164 2.41998 27.7422 2.03326 26.9277C1.85748 26.5527 1.84576 26.4941 1.84576 25.8555C1.84576 25.2168 1.85748 25.1582 2.03326 24.7832C2.25006 24.3262 2.76568 23.7754 3.16412 23.5703C3.63873 23.3242 3.86725 23.2773 4.48248 23.2949C5.00397 23.3066 5.11529 23.3301 5.46686 23.4941Z" fill="#AE9A9E"/>
<path d="M17.9648 13.3691C17.6953 13.5508 17.5781 13.7734 17.5781 14.1367C17.5781 14.5 17.6953 14.7227 17.9648 14.9043C18.1289 15.0098 18.3105 15.0156 21.9727 15.0156C25.6348 15.0156 25.8164 15.0098 25.9805 14.9043C26.25 14.7227 26.3672 14.5 26.3672 14.1367C26.3672 13.7734 26.25 13.5508 25.9805 13.3691C25.8164 13.2637 25.6348 13.2578 21.9727 13.2578C18.3105 13.2578 18.1289 13.2637 17.9648 13.3691Z" fill="#AE9A9E"/>
<path d="M17.9648 16.8848C17.6953 17.0664 17.5781 17.2891 17.5781 17.6523C17.5781 18.0156 17.6953 18.2383 17.9648 18.4199C18.1289 18.5254 18.3105 18.5312 21.9727 18.5312C25.6348 18.5312 25.8164 18.5254 25.9805 18.4199C26.25 18.2383 26.3672 18.0156 26.3672 17.6523C26.3672 17.2891 26.25 17.0664 25.9805 16.8848C25.8164 16.7793 25.6348 16.7734 21.9727 16.7734C18.3105 16.7734 18.1289 16.7793 17.9648 16.8848Z" fill="#AE9A9E"/>
<path d="M21.4805 21.5723C21.2109 21.7539 21.0938 21.9766 21.0938 22.3398C21.0938 22.7031 21.2109 22.9258 21.4805 23.1074C21.6387 23.2129 21.791 23.2188 23.7305 23.2188C25.6699 23.2188 25.8223 23.2129 25.9805 23.1074C26.25 22.9258 26.3672 22.7031 26.3672 22.3398C26.3672 21.9766 26.25 21.7539 25.9805 21.5723C25.8223 21.4668 25.6699 21.4609 23.7305 21.4609C21.791 21.4609 21.6387 21.4668 21.4805 21.5723Z" fill="#AE9A9E"/>
</g>
<defs>
<clipPath id="clip0_2329_1984">
<rect width="30" height="30" fill="white" transform="translate(0 0.25)"/>
</clipPath>
</defs>
</svg>
