<svg width="30" height="31" viewBox="0 0 30 31" fill="none" xmlns="http://www.w3.org/2000/svg">
<g clip-path="url(#clip0_2329_1832)">
<path d="M14.5019 0.349609C14.4081 0.402344 14.1679 0.589844 13.9746 0.771484C11.373 3.18555 8.27924 4.39258 4.27729 4.55664C3.16401 4.60352 3.08198 4.62109 2.83588 4.83203C2.41987 5.20117 2.43745 5.07812 2.40229 8.10156C2.34956 12.4141 2.43745 14.3359 2.78901 16.5391C3.55659 21.3438 5.69526 24.9766 9.25776 27.5078C10.4765 28.375 12.0058 29.1953 13.623 29.8457C14.4843 30.1914 14.5956 30.2207 14.9999 30.2207C15.3984 30.2207 15.5156 30.1914 16.289 29.875C17.3085 29.4648 18.3867 28.9551 19.1191 28.5449C23.6953 25.9434 26.332 22.0293 27.2109 16.5332C27.5624 14.3359 27.6503 12.4082 27.5976 8.10156C27.5624 5.07812 27.58 5.20117 27.164 4.83203C26.9179 4.62109 26.8359 4.60352 25.7226 4.55664C21.7324 4.39844 18.6152 3.17969 16.0488 0.794922C15.8437 0.601562 15.5917 0.396484 15.4863 0.34375C15.246 0.226562 14.7304 0.226562 14.5019 0.349609ZM15.5683 3.24414C18.0878 5.26562 21.2578 6.44336 24.791 6.66602L25.4121 6.70703L25.4531 9.0625C25.5234 13.2109 25.33 15.5723 24.7265 17.9629C23.83 21.543 21.873 24.2383 18.7382 26.2422C18.0527 26.6816 16.2773 27.5664 15.5156 27.8535L14.9999 28.041L14.4902 27.8535C13.5937 27.5195 11.7831 26.5938 10.957 26.043C8.00385 24.0742 6.14643 21.4375 5.27338 17.9629C4.66987 15.5723 4.47651 13.2109 4.54682 9.0625L4.58784 6.70703L5.20893 6.66602C7.23627 6.53711 9.45112 6.01562 11.0976 5.27734C12.2343 4.76758 13.6992 3.85938 14.5312 3.15625C14.7421 2.98047 14.9414 2.83398 14.9824 2.83398C15.0234 2.82812 15.2871 3.01562 15.5683 3.24414Z" fill="#AE9A9E"/>
<path d="M18.9256 11.3593C18.7967 11.412 17.7596 12.4081 16.1307 14.037L13.535 16.6269L12.3514 15.4433C11.0565 14.1601 11.033 14.1425 10.4471 14.2128C9.83773 14.2773 9.43929 14.9101 9.60921 15.5488C9.66781 15.7714 9.87874 16.0116 11.2674 17.412C12.2987 18.4491 12.9432 19.0527 13.0955 19.123C13.3826 19.2577 13.7049 19.2636 13.992 19.1464C14.1385 19.082 15.1463 18.1152 17.1854 16.082C20.4491 12.8241 20.5018 12.7597 20.4256 12.2206C20.326 11.4999 19.5819 11.078 18.9256 11.3593Z" fill="#AE9A9E"/>
</g>
<defs>
<clipPath id="clip0_2329_1832">
<rect width="30" height="30" fill="white" transform="translate(0 0.25)"/>
</clipPath>
</defs>
</svg>
