<svg width="30" height="31" viewBox="0 0 30 31" fill="none" xmlns="http://www.w3.org/2000/svg">
<g clip-path="url(#clip0_2241_5584)">
<path d="M3.5918 0.367188C2.80664 0.648438 2.20312 1.25781 1.92773 2.05469C1.82227 2.37109 1.81641 2.69922 1.81641 13.4922C1.81641 24.2852 1.82227 24.6133 1.92773 24.9297C2.20312 25.7383 2.8125 26.3477 3.61523 26.623C3.86719 26.7109 4.10156 26.7344 4.64062 26.7344H5.33203V27.4258C5.33203 27.959 5.35547 28.1992 5.44336 28.4453C5.71875 29.2539 6.32812 29.8633 7.13086 30.1387C7.45312 30.2441 7.69922 30.25 16.7578 30.25C25.8164 30.25 26.0625 30.2441 26.3848 30.1387C27.1875 29.8633 27.7969 29.2539 28.0723 28.4453C28.1777 28.1289 28.1836 27.8008 28.1836 17.0078C28.1836 6.15039 28.1836 5.88672 28.0723 5.56445C27.7969 4.76172 27.1875 4.15234 26.3789 3.87695C26.1328 3.78906 25.8926 3.76562 25.3594 3.76562H24.668V3.07422C24.668 2.54102 24.6445 2.30078 24.5566 2.05469C24.2812 1.24609 23.6719 0.636719 22.8691 0.361328C22.5469 0.25 22.3066 0.25 13.2188 0.255859C4.28906 0.255859 3.88477 0.261719 3.5918 0.367188ZM22.4297 2.1543C22.7578 2.35352 22.8633 2.59375 22.8984 3.21484L22.9277 3.76562H16.459C9.45117 3.76562 9.80859 3.75391 9.13477 4.08789C8.68359 4.31641 5.88281 7.11719 5.6543 7.56836C5.31445 8.24805 5.33203 7.7207 5.33203 16.709V24.9941L4.78711 24.9648C4.16016 24.9297 3.93164 24.8359 3.73242 24.5078L3.60352 24.3027V13.4922V2.68164L3.73242 2.47656C3.87305 2.24805 4.04297 2.125 4.30664 2.06055C4.40625 2.03711 8.47852 2.02539 13.3594 2.02539C22.125 2.03711 22.2363 2.03711 22.4297 2.1543ZM10.6055 7.28125V9.03906H8.84766H7.08984L7.11914 8.89258C7.13672 8.81055 7.16016 8.6875 7.17773 8.61133C7.18945 8.54102 7.8457 7.83789 8.63672 7.05273C10.0957 5.59961 10.084 5.60547 10.5645 5.5293C10.5879 5.5293 10.6055 6.31445 10.6055 7.28125ZM25.957 5.68164C26.0684 5.75195 26.2148 5.89844 26.2793 6.00391C26.3965 6.19727 26.3965 6.30273 26.3965 17.0078V27.8184L26.2676 28.0234C26.1973 28.1348 26.0508 28.2812 25.9453 28.3457C25.752 28.4629 25.6465 28.4629 16.7578 28.4629C7.86914 28.4629 7.76367 28.4629 7.57031 28.3457C7.46484 28.2812 7.31836 28.1348 7.24805 28.0234L7.11914 27.8184L7.10156 19.3047L7.08984 10.7969H9.44531C11.6602 10.7969 11.8184 10.791 11.9766 10.6855C12.0645 10.627 12.1934 10.498 12.252 10.4102C12.3574 10.252 12.3633 10.0938 12.3633 7.87891V5.52344L19.0605 5.53516L25.752 5.55273L25.957 5.68164Z" fill="#AE9A9E"/>
<path d="M9.23438 12.7832C8.96484 12.9648 8.84766 13.1875 8.84766 13.5508C8.84766 13.9141 8.96484 14.1367 9.23438 14.3184C9.39844 14.4238 9.65039 14.4297 16.7578 14.4297C23.8652 14.4297 24.1172 14.4238 24.2812 14.3184C24.5508 14.1367 24.668 13.9141 24.668 13.5508C24.668 13.1875 24.5508 12.9648 24.2812 12.7832C24.1172 12.6777 23.8652 12.6719 16.7578 12.6719C9.65039 12.6719 9.39844 12.6777 9.23438 12.7832Z" fill="#AE9A9E"/>
<path d="M9.23438 16.2988C8.96484 16.4805 8.84766 16.7031 8.84766 17.0664C8.84766 17.4297 8.96484 17.6523 9.23438 17.834C9.39844 17.9395 9.65039 17.9453 16.7578 17.9453C23.8652 17.9453 24.1172 17.9395 24.2812 17.834C24.5508 17.6523 24.668 17.4297 24.668 17.0664C24.668 16.7031 24.5508 16.4805 24.2812 16.2988C24.1172 16.1934 23.8652 16.1875 16.7578 16.1875C9.65039 16.1875 9.39844 16.1934 9.23438 16.2988Z" fill="#AE9A9E"/>
<path d="M9.23438 19.8145C8.96484 19.9961 8.84766 20.2188 8.84766 20.582C8.84766 20.9453 8.96484 21.168 9.23438 21.3496C9.39844 21.4551 9.65039 21.4609 16.7578 21.4609C23.8652 21.4609 24.1172 21.4551 24.2812 21.3496C24.5508 21.168 24.668 20.9453 24.668 20.582C24.668 20.2188 24.5508 19.9961 24.2812 19.8145C24.1172 19.709 23.8652 19.7031 16.7578 19.7031C9.65039 19.7031 9.39844 19.709 9.23438 19.8145Z" fill="#AE9A9E"/>
<path d="M9.23438 23.3301C8.96484 23.5117 8.84766 23.7344 8.84766 24.0977C8.84766 24.4609 8.96484 24.6836 9.23438 24.8652C9.39844 24.9707 9.65039 24.9766 16.7578 24.9766C23.8652 24.9766 24.1172 24.9707 24.2812 24.8652C24.5508 24.6836 24.668 24.4609 24.668 24.0977C24.668 23.7344 24.5508 23.5117 24.2812 23.3301C24.1172 23.2246 23.8652 23.2188 16.7578 23.2188C9.65039 23.2188 9.39844 23.2246 9.23438 23.3301Z" fill="#AE9A9E"/>
</g>
<defs>
<clipPath id="clip0_2241_5584">
<rect width="30" height="30" fill="white" transform="translate(0 0.25)"/>
</clipPath>
</defs>
</svg>
