<svg width="46" height="65" viewBox="0 0 46 65" fill="none" xmlns="http://www.w3.org/2000/svg">
<path d="M27.9245 25.2505C27.7961 24.659 27.4108 24.2028 26.9257 24.0507C26.6974 23.9831 20.2337 23.9831 20.0054 24.0507C19.5202 24.2028 19.1493 24.659 19.0208 25.2336C18.9638 25.504 18.9638 39.4791 19.0208 39.7495C19.1493 40.341 19.5345 40.7972 20.0196 40.9493C20.1623 41 20.6189 41 23.4727 41C26.3264 41 26.783 41 26.9257 40.9493C27.4108 40.7972 27.7961 40.341 27.9245 39.7495C27.9959 39.496 27.9959 25.5209 27.9245 25.2505ZM22.2028 25.3181V25.1491H24.7569V25.335H22.2028V25.3181ZM21.3038 26.1799C21.3466 26.2475 21.4037 26.332 21.4465 26.3658C21.5321 26.4503 21.5321 26.4503 23.4727 26.4503C25.4132 26.4503 25.4132 26.4503 25.4988 26.3658C25.5416 26.332 25.613 26.2306 25.6558 26.1799C25.7129 26.0785 25.7271 26.0109 25.7271 25.5716V25.1491L26.2265 25.166C26.8258 25.1829 26.8258 25.1829 26.9542 25.3857L27.0113 25.4702V39.5805L26.9542 39.665C26.9257 39.7157 26.8686 39.7833 26.8258 39.8171C26.7545 39.8847 26.6403 39.8847 23.4869 39.8847C20.3336 39.8847 20.2051 39.8847 20.1481 39.8171C20.1053 39.7833 20.0482 39.7157 20.0196 39.665L19.9626 39.5805L19.9483 32.6183C19.9483 28.5964 19.9483 25.6223 19.9626 25.5378C19.9768 25.4195 20.091 25.2674 20.1909 25.2167C20.2622 25.1829 20.5191 25.1829 20.7759 25.166H21.2468V25.6054C21.2325 26.0109 21.2325 26.0785 21.3038 26.1799Z" fill="#FFAFBD"/>
</svg>
