<svg width="25" height="26" viewBox="0 0 25 26" fill="none" xmlns="http://www.w3.org/2000/svg">
<path d="M18.9287 3.26541C18.7574 2.43042 18.2438 1.78628 17.5969 1.57157C17.2925 1.47614 8.6742 1.47614 8.3698 1.57157C7.72295 1.78628 7.2283 2.43042 7.05707 3.24155C6.98098 3.62326 6.98098 23.3529 7.05707 23.7346C7.2283 24.5696 7.74197 25.2137 8.38882 25.4284C8.57907 25.5 9.18787 25.5 12.9929 25.5C16.7979 25.5 17.4067 25.5 17.5969 25.4284C18.2438 25.2137 18.7574 24.5696 18.9287 23.7346C19.0238 23.3767 19.0238 3.64712 18.9287 3.26541ZM11.2996 3.36084V3.12227H14.7051V3.38469H11.2996V3.36084ZM10.1011 4.57753C10.1581 4.67296 10.2342 4.79225 10.2913 4.83996C10.4055 4.95924 10.4055 4.95924 12.9929 4.95924C15.5803 4.95924 15.5803 4.95924 15.6944 4.83996C15.7515 4.79225 15.8466 4.64911 15.9037 4.57753C15.9798 4.43439 15.9988 4.33897 15.9988 3.71869V3.12227L16.6647 3.14612C17.4637 3.16998 17.4637 3.16998 17.635 3.45626L17.7111 3.57555V23.496L17.635 23.6153C17.5969 23.6869 17.5208 23.7823 17.4637 23.83C17.3686 23.9254 17.2164 23.9254 13.0119 23.9254C8.80737 23.9254 8.63615 23.9254 8.56005 23.83C8.50297 23.7823 8.42687 23.6869 8.38882 23.6153L8.31272 23.496L8.2937 13.667C8.2937 7.98907 8.2937 3.79026 8.31272 3.67097C8.33175 3.50398 8.48395 3.28926 8.61712 3.21769C8.71225 3.16998 9.0547 3.16998 9.39715 3.14612H10.025V3.7664C10.0059 4.33897 10.0059 4.43439 10.1011 4.57753Z" fill="#AE9A9E"/>
</svg>
