<svg width="60" height="51" viewBox="0 0 60 51" fill="none" xmlns="http://www.w3.org/2000/svg">
<path d="M58.4951 1.55299L58.5632 1.06982L58.0818 0.98994C49.7157 -0.398353 43.3702 1.15406 39.1983 5.80289C35.0692 10.3444 33.0457 16.9893 33.0457 25.6521V50V50.5H33.5457H58H58.5V50V25.6521V25.1521H58H45.8491C45.5102 22.523 45.6507 20.2377 46.2496 18.2837C46.9365 16.1777 48.1266 14.608 49.8156 13.543L49.8157 13.5431L49.8254 13.5366C51.5024 12.4235 53.7175 11.9536 56.5202 12.1861L56.9907 12.2252L57.0566 11.7576L58.4951 1.55299ZM25.9494 1.55299L26.0175 1.06982L25.5361 0.98994C17.17 -0.398341 10.8245 1.15403 6.65263 5.80277C2.52348 10.3443 0.5 16.9892 0.5 25.6521V50V50.5H1H25.4543H25.9543V50V25.6521V25.1521H25.4543H13.3033C12.9645 22.523 13.105 20.2377 13.7039 18.2837C14.3907 16.1777 15.5809 14.608 17.2698 13.543L17.2699 13.5431L17.2797 13.5366C18.9567 12.4235 21.1718 11.9536 23.9744 12.1861L24.445 12.2252L24.5109 11.7576L25.9494 1.55299Z" stroke="#EB8B9C"/>
</svg>
