<svg width="36" height="35" viewBox="0 0 36 35" fill="none" xmlns="http://www.w3.org/2000/svg">
<path d="M16.3121 0.0367147C12.6057 0.406394 9.21581 1.78242 6.45888 4.02104C2.84393 6.95794 0.537114 11.1545 0.0588714 15.6522C-0.0606892 16.8161 0.00964054 19.3901 0.199531 20.4102C0.537114 22.2449 1.02239 23.703 1.82415 25.2845C2.76657 27.1397 3.86371 28.5979 5.43207 30.0834C8.189 32.7054 11.3538 34.2458 15.2923 34.8824C15.9182 34.9851 16.4387 35.0057 18.0703 34.9988C19.913 34.9988 20.1591 34.9851 21.0945 34.814C24.9556 34.1362 28.24 32.4384 30.9407 29.7206C33.789 26.859 35.5191 23.2581 35.9411 19.3148C36.0607 18.1784 35.9904 15.707 35.8005 14.6664C35.6106 13.5711 35.3011 12.4347 34.9424 11.4831C34.415 10.066 33.36 8.12174 32.8326 7.57407C32.6145 7.34815 32.5372 7.31392 32.2629 7.31392C32.0097 7.31392 31.9042 7.355 31.7565 7.49192C31.4189 7.82737 31.4752 8.12859 32.0449 9.01856C33.2897 10.9491 34.1055 13.174 34.422 15.4811C34.5627 16.5422 34.5627 18.4865 34.415 19.5818C33.5148 26.4277 28.0642 32.0551 21.1015 33.3284C19.5684 33.6091 17.7257 33.6844 16.2558 33.5269C13.1613 33.2052 10.1793 32.014 7.69669 30.1245C6.96526 29.57 5.3758 27.9749 4.80613 27.2355C3.37844 25.3734 2.30239 23.1211 1.83118 21.0058C1.34591 18.7945 1.34591 16.2341 1.83118 14.0229C2.21096 12.3114 3.17448 10.1071 4.18723 8.64888C6.44482 5.37653 9.78548 3.00784 13.5552 2.00149C15.3064 1.53597 15.9182 1.46066 18 1.46066C20.0255 1.46751 20.5037 1.51543 22.0862 1.90565C23.6897 2.30271 25.3213 2.98046 26.742 3.84989C27.3468 4.21957 27.5367 4.30172 27.7758 4.30172C28.1908 4.30172 28.4791 4.02104 28.4791 3.61028C28.4791 3.36383 28.4369 3.28852 28.2119 3.0763C27.7055 2.61078 25.9402 1.68658 24.5758 1.15944C23.1903 0.632309 21.4884 0.2284 19.9552 0.0640983C19.3292 -0.00436081 16.8958 -0.0248986 16.3121 0.0367147Z" fill="#A29B9C"/>
<path d="M29.8506 5.13692C29.3231 5.41761 29.3442 6.20489 29.8787 6.42396C30.3921 6.62933 30.9055 6.29388 30.9055 5.7599C30.9055 5.49976 30.8704 5.42445 30.6734 5.2533C30.4343 5.04108 30.1108 4.99316 29.8506 5.13692Z" fill="#A29B9C"/>
<path d="M12.0501 7.71099C11.9727 7.7726 11.8321 7.94375 11.7477 8.08067C11.3046 8.79949 9.88394 9.51146 8.89229 9.51146C8.67427 9.51146 8.39295 9.47723 8.25932 9.43616C7.92174 9.32662 7.55603 9.44985 7.37317 9.73738C7.11998 10.1344 7.26064 10.5657 7.71075 10.778C8.05537 10.9354 9.12438 10.9902 9.72218 10.8738C11.4453 10.5452 13.2176 9.21024 13.2176 8.23812C13.2176 7.86844 12.9081 7.58776 12.5002 7.58776C12.3174 7.58776 12.1415 7.63568 12.0501 7.71099Z" fill="#A29B9C"/>
<path d="M22.9864 7.78629C22.1846 8.56673 23.9077 10.2851 26.0035 10.8122C26.6013 10.9559 27.5438 10.9833 28.022 10.867C28.4018 10.7711 28.669 10.5247 28.7323 10.2234C28.8308 9.70999 28.3033 9.27186 27.7688 9.42931C27.4031 9.53885 26.735 9.52515 26.2919 9.39508C25.4198 9.14863 24.4844 8.52565 24.182 7.99852C23.9147 7.53984 23.3521 7.43715 22.9864 7.78629Z" fill="#A29B9C"/>
<path d="M11.4945 12.1745C10.7068 12.4278 10.0387 13.0987 9.83471 13.8449C9.79251 14.0024 9.77141 14.6117 9.78548 15.3168C9.80658 16.3779 9.82768 16.5628 9.9613 16.8434C10.1723 17.2953 10.6787 17.795 11.1569 18.0346C11.5297 18.2126 11.6281 18.2332 12.2681 18.2332C13.105 18.2332 13.4356 18.1099 13.9982 17.6033C14.6804 16.9872 14.8703 16.3505 14.8211 14.8992C14.793 14.1735 14.7578 13.9065 14.6312 13.5985C14.16 12.421 12.7393 11.7706 11.4945 12.1745ZM12.8941 13.708C13.2809 13.9887 13.3793 14.3447 13.3512 15.3168C13.3301 16.0151 13.302 16.1657 13.1754 16.33C12.676 16.9872 11.7969 16.994 11.389 16.3368C11.2694 16.1383 11.2483 15.9877 11.2483 15.1593C11.2483 14.0572 11.3187 13.8655 11.8321 13.6122C12.2048 13.4342 12.5705 13.4616 12.8941 13.708Z" fill="#A29B9C"/>
<path d="M23.0567 12.1334C22.3956 12.3046 21.7626 12.8043 21.4532 13.3863C21.2281 13.8244 21.1437 14.42 21.1789 15.44C21.2 16.3231 21.2141 16.4121 21.418 16.8297C21.6782 17.3637 22.1143 17.795 22.6418 18.0483C22.9864 18.2126 23.113 18.2332 23.7319 18.2332C24.4 18.2332 24.4563 18.2195 24.8783 18.0004C25.3776 17.7334 25.7785 17.3295 26.0246 16.8434C26.1794 16.5491 26.1934 16.4121 26.2145 15.2894C26.2356 14.1667 26.2286 14.0229 26.0879 13.6669C25.6308 12.4689 24.3156 11.798 23.0567 12.1334ZM24.189 13.6327C24.6743 13.8792 24.7517 14.0982 24.7517 15.1867C24.7517 15.9877 24.7306 16.1383 24.611 16.3368C24.2031 16.994 23.324 16.9872 22.8246 16.33C22.691 16.152 22.6769 16.0425 22.6769 15.1593C22.6769 14.2078 22.684 14.1804 22.8668 13.9408C23.0778 13.6738 23.4295 13.4821 23.7037 13.4752C23.8022 13.4752 24.0202 13.5437 24.189 13.6327Z" fill="#A29B9C"/>
<path d="M16.7763 22.3133C14.9547 22.5598 13.1543 23.3608 11.825 24.5314C11.3609 24.9422 11.2202 25.1886 11.2835 25.5035C11.3468 25.8527 11.6211 26.0717 11.9938 26.0717C12.2611 26.0717 12.3455 26.0238 12.7393 25.6884C13.7661 24.8052 14.8563 24.237 16.1644 23.8947C16.7622 23.7441 16.9802 23.7236 18 23.7236C19.0268 23.7236 19.2378 23.7441 19.8426 23.9016C21.1297 24.237 22.2409 24.8121 23.2607 25.6884C23.7319 26.0923 23.978 26.1607 24.3578 25.9964C24.5336 25.9143 24.7517 25.5651 24.7517 25.3529C24.7517 25.127 24.5266 24.8326 24.0343 24.4219C22.8317 23.4155 21.3969 22.7309 19.7934 22.4092C19.1253 22.2722 17.4585 22.2175 16.7763 22.3133Z" fill="#A29B9C"/>
</svg>
