<svg width="9" height="13" viewBox="0 0 9 13" fill="none" xmlns="http://www.w3.org/2000/svg">
<path d="M4.98153 12.8019L8.85884 8.84C9.04705 8.65429 9.04705 8.34476 8.85884 8.15905C8.75845 8.06 8.62042 8.02286 8.52004 8.02286C8.39456 8.02286 8.28163 8.07238 8.18125 8.15905L4.99407 11.4276L4.99407 0.470482C4.99407 0.18572 4.74312 -1.86074e-07 4.51725 -1.95947e-07C4.26629 -2.06917e-07 4.04043 0.222863 4.04043 0.470482L4.04043 11.4276L0.790518 8.14667C0.690135 8.04763 0.589752 8.01049 0.464272 8.01049C0.338793 8.01049 0.225862 8.06001 0.138027 8.14667C0.0501906 8.23334 -3.65302e-07 8.35714 -3.71255e-07 8.49333C-3.77208e-07 8.62952 0.0501905 8.74095 0.138027 8.84L4.01534 12.8019C4.14082 12.9257 4.32903 13 4.49216 13C4.68038 13 4.8435 12.9257 4.98153 12.8019Z" fill="#E9284A"/>
</svg>
