<svg width="40" height="40" viewBox="0 0 40 40" fill="none" xmlns="http://www.w3.org/2000/svg">
<path d="M18.0031 0.0238003C12.7486 0.587397 7.98747 3.1001 4.63587 7.09224C2.27878 9.89456 0.814409 13.0726 0.164448 16.7986C0.0156617 17.6518 0 18.0667 0 20.008C0 21.9493 0.0156617 22.3641 0.164448 23.2174C0.900548 27.4443 2.67032 30.9433 5.59123 33.9727C8.59045 37.0881 12.3728 39.0607 16.7894 39.8356C17.6429 39.9843 18.0579 40 20 40C22.4511 40 23.1872 39.9217 25.1135 39.4286C32.0204 37.6439 37.6429 32.0235 39.4283 25.1195C39.9217 23.1939 40 22.4581 40 20.008C40 17.5579 39.9217 16.8221 39.4283 14.8965C37.6429 8.00025 32.0204 2.37212 25.1135 0.587397C23.3359 0.133389 22.498 0.0316281 20.3132 0.00814489C19.2169 -0.00751056 18.1754 0.000317167 18.0031 0.0238003ZM22.9366 1.99639C26.7972 2.65392 30.1253 4.37602 32.8818 7.13138C35.2388 9.48752 36.8363 12.2507 37.6507 15.3896C38.1128 17.1822 38.2067 17.9415 38.2067 20.008C38.2067 22.0745 38.1128 22.8338 37.6507 24.6263C36.8363 27.7653 35.2388 30.5285 32.8818 32.8846C30.0783 35.6869 26.6797 37.4169 22.7016 38.0666C21.4879 38.2622 18.5121 38.2622 17.2984 38.0666C13.3203 37.4169 9.92169 35.6869 7.11825 32.8846C4.3148 30.0823 2.58418 26.685 1.93422 22.7086C1.73845 21.4953 1.73845 18.5207 1.93422 17.3074C2.58418 13.3309 4.3148 9.9337 7.11825 7.13138C10.1879 4.06291 13.7666 2.37212 18.3555 1.81635C18.5043 1.80069 19.3892 1.79287 20.3132 1.80852C21.5662 1.82418 22.2396 1.87114 22.9366 1.99639Z" fill="#E9284A"/>
<path d="M11.8794 14.0198C9.99217 14.5286 8.49648 16.5246 8.66092 18.3015C8.71574 18.8417 9.02897 19.1469 9.53015 19.1469C10.1096 19.1469 10.3837 18.826 10.4777 18.0354C10.7126 16.1176 12.7486 15.1157 14.3774 16.1176C15.0509 16.5246 15.4111 17.1117 15.5756 18.0745C15.6695 18.6147 15.7244 18.7477 15.928 18.9278C16.2647 19.2409 16.7659 19.233 17.1182 18.9199C17.3688 18.6929 17.3767 18.6773 17.3688 18.0354C17.361 16.2037 15.9984 14.4973 14.166 14.0198C13.5944 13.871 12.4276 13.871 11.8794 14.0198Z" fill="#E9284A"/>
<path d="M25.8027 14.0276C23.9937 14.5129 22.639 16.2194 22.6312 18.0354C22.6233 18.6773 22.6312 18.6929 22.8818 18.9199C23.2341 19.233 23.7353 19.2409 24.072 18.9278C24.2756 18.7477 24.3305 18.6147 24.4244 18.0745C24.5889 17.1117 24.9491 16.5246 25.6226 16.1176C27.2514 15.1157 29.2874 16.1176 29.5223 18.0354C29.6163 18.826 29.8904 19.1469 30.4699 19.1469C30.971 19.1469 31.2843 18.8417 31.3391 18.3015C31.5114 16.509 30 14.5129 28.0893 14.0198C27.5255 13.871 26.3587 13.8789 25.8027 14.0276Z" fill="#E9284A"/>
<path d="M11.8168 24.4228C11.3547 24.6263 11.1511 25.0647 11.3078 25.5344C11.4252 25.8788 12.6938 27.0764 13.5395 27.64C14.863 28.5246 16.6249 29.2212 18.1989 29.4874C18.52 29.5422 19.3344 29.5891 20 29.5891C20.6656 29.5891 21.48 29.5422 21.8011 29.4874C24.2287 29.0725 26.5309 27.8827 28.2067 26.1762C28.935 25.4248 28.9193 24.7359 28.1519 24.415C27.7369 24.235 27.4785 24.3524 26.758 25.0256C24.7925 26.8807 22.592 27.7731 20 27.7731C17.4237 27.7731 15.1605 26.8572 13.2655 25.049C12.5059 24.3211 12.2788 24.2193 11.8168 24.4228Z" fill="#E9284A"/>
</svg>
