<svg width="46" height="65" viewBox="0 0 46 65" fill="none" xmlns="http://www.w3.org/2000/svg">
<path d="M30.9424 31.5927C30.8084 30.5492 30.466 29.5356 29.945 28.6859C29.29 27.5828 28.3969 26.6884 27.2953 26.0325C26.4468 25.5257 25.4345 25.1828 24.4222 25.0487C24.1692 25.0189 23.142 24.9891 22.9485 25.004L22.8741 25.0189C22.7996 25.0338 22.6805 25.0487 22.5615 25.0487C21.5939 25.1381 20.5369 25.5108 19.6586 26.0325C18.5571 26.6884 17.6639 27.5828 17.0089 28.6859C16.5028 29.5356 16.1604 30.5492 16.0115 31.5927C15.9669 31.9653 15.9669 33.0535 16.0115 33.4113C16.2497 35.2299 17.0535 36.7951 18.4231 38.0621C19.1674 38.7628 20.1052 39.3143 21.1324 39.6422C21.9362 39.9106 22.5614 40 23.4844 40C24.1692 40 24.452 39.9702 25.0474 39.8509C27.0869 39.4335 28.8732 38.1516 29.9599 36.3181C30.466 35.4684 30.8084 34.4547 30.9573 33.4113C30.987 33.0535 30.9871 31.9504 30.9424 31.5927ZM21.3557 30.0275C21.6087 29.1778 22.2488 28.6114 23.1718 28.4325C23.2164 28.4325 23.2611 28.4176 23.3355 28.4176C23.5588 28.4176 23.9161 28.4474 24.0798 28.4921C24.8093 28.7008 25.3749 29.2673 25.5982 30.0126C25.7024 30.3405 25.7024 30.8324 25.6131 31.1604C25.3452 32.1442 24.4967 32.815 23.4695 32.815C22.4424 32.815 21.5938 32.1591 21.3259 31.1604C21.2515 30.8474 21.2663 30.3554 21.3557 30.0275ZM19.3609 37.3317C19.6289 35.8411 20.6858 34.6038 22.1298 34.097C22.7699 33.8734 23.3653 33.8138 24.0798 33.9032C24.973 34.0225 25.762 34.4249 26.4468 35.0957C26.9678 35.6175 27.2804 36.1243 27.4888 36.7802C27.5632 37.0038 27.6525 37.4361 27.6674 37.5404C27.6525 37.5553 27.6377 37.5553 27.6228 37.5702L27.4888 37.6746C26.5956 38.3752 25.5238 38.8075 24.318 38.9864C23.9905 39.0311 23.008 39.0311 22.6657 38.9864C21.4599 38.8075 20.3881 38.3752 19.4949 37.6746L19.3758 37.5851C19.3609 37.5702 19.3311 37.5553 19.3311 37.5404C19.3311 37.5106 19.3311 37.451 19.3609 37.3317ZM25.3601 33.2175L25.3749 33.2026C25.5685 33.0684 26.0151 32.5914 26.1193 32.4125C26.5361 31.7567 26.7147 31.056 26.6403 30.3256C26.5361 29.2523 25.896 28.2983 24.9284 27.8064C23.9905 27.3145 22.8741 27.3294 21.9511 27.8362C21.0133 28.343 20.4029 29.2822 20.2839 30.3405C20.2243 30.9219 20.3434 31.5331 20.5965 32.0548C20.8049 32.4871 21.1621 32.9045 21.5045 33.1728C21.5343 33.2026 21.5641 33.2175 21.5939 33.2473C21.5641 33.2622 21.5194 33.2771 21.445 33.3069C20.656 33.62 19.8522 34.261 19.3014 34.9914C18.9739 35.4237 18.6761 36.0199 18.5273 36.5268C18.4975 36.6013 18.4826 36.6758 18.4677 36.7205C18.3635 36.6013 18.1402 36.3032 18.0063 36.1094C17.8276 35.8411 17.5001 35.215 17.3662 34.887C17.1429 34.3057 16.994 33.6498 16.9494 32.9343C16.8005 30.8623 17.7234 28.7604 19.3758 27.4486C20.5518 26.5095 21.9809 26.0027 23.4546 26.0027C23.6481 26.0027 23.8566 26.0176 24.0501 26.0325C25.7322 26.1816 27.3697 27.0462 28.4266 28.3132C29.8408 29.9977 30.3172 32.174 29.7366 34.2908C29.5133 35.0957 29.1114 35.8858 28.5904 36.5566C28.5308 36.6311 28.4862 36.6907 28.4564 36.7205C28.4415 36.6758 28.4117 36.6013 28.3968 36.5268C28.1438 35.692 27.5632 34.7976 26.8933 34.2013C26.4765 33.8287 25.896 33.4709 25.3749 33.2622L25.3601 33.2175Z" fill="white"/>
</svg>
