<svg width="52" height="55" viewBox="0 0 52 55" fill="none" xmlns="http://www.w3.org/2000/svg">
<path d="M13.3299 0.959756C12.3663 1.38292 11.8904 2.16594 11.8166 3.42135L11.7744 4.28876L7.4678 4.32041L3.17168 4.35206L2.59967 4.66972C1.91159 5.05068 1.29855 5.72469 1.03364 6.39401C0.854293 6.86992 0.843727 7.89676 0.812078 29.1661C0.790979 44.319 0.822653 51.6722 0.896501 52.1598C1.03365 53.0975 1.28801 53.577 1.95147 54.1701C2.93494 55.0586 1.18953 54.9847 21.9502 54.9847C42.5948 54.9847 40.9549 55.048 41.8961 54.2228C42.2003 53.938 42.4606 53.6098 42.6686 53.2487C42.9441 52.7201 42.9546 52.6568 42.9863 50.6148L43.0284 48.5295H45.8956C47.5578 48.5295 48.9433 48.4768 49.1661 48.424C49.8002 48.2447 50.4249 47.6937 50.7848 46.9951L51.1025 46.3715V38.2271C51.1025 30.7779 51.092 30.0371 50.922 29.6772C50.6577 29.0351 50.1637 28.5145 49.5364 28.2167L48.9011 27.899H39.6209V5.965L39.9913 6.0283C40.2375 6.07007 40.4703 6.16945 40.6708 6.31837C40.8712 6.46729 41.0337 6.66152 41.1448 6.88518C41.2936 7.21339 41.3147 8.15582 41.3147 16.197C41.3147 22.5269 41.3464 25.2123 41.432 25.3929C41.4851 25.5133 41.5669 25.6188 41.6704 25.7001C41.7739 25.7815 41.8958 25.8361 42.0254 25.8593C42.155 25.8825 42.2882 25.8734 42.4134 25.833C42.5387 25.7925 42.6521 25.7219 42.7436 25.6273L43.0085 25.3729V16.1666C43.0085 7.01411 43.0085 6.95081 42.7858 6.34713C42.6215 5.9364 42.3756 5.56328 42.0629 5.25038C41.7502 4.93747 41.3772 4.69128 40.9666 4.52672C40.3805 4.31572 40.1835 4.30519 36.2368 4.30519H32.1095V3.90311C32.1095 2.52696 31.6547 1.5857 30.7545 1.09924L30.2258 0.813232H21.9408C15.3343 0.82261 13.5772 0.843709 13.3299 0.959756ZM29.8366 2.5469C30.3547 2.76962 30.4403 3.20331 30.3981 5.42578C30.3653 7.19227 30.3547 7.25558 30.1121 7.52049L29.8577 7.79594H21.9959C17.6787 7.79594 14.0602 7.76432 13.9641 7.73267C13.5725 7.57325 13.4881 7.13952 13.4881 5.16086C13.4881 4.11293 13.5303 3.14003 13.5936 2.98061C13.8163 2.39451 13.7425 2.40975 21.9326 2.39451C28.2226 2.3992 29.5237 2.42031 29.8308 2.5469H29.8366ZM4.17628 26.8323C4.17628 41.7625 4.20793 47.7512 4.2935 47.995C4.34864 48.1675 4.45542 48.3189 4.59943 48.4287C4.7272 48.492 11.3512 48.5342 23.0544 48.5342H41.3182V50.3757C41.3182 52.1 41.3077 52.2278 41.0744 52.556C40.9141 52.7853 40.7087 52.9795 40.4707 53.1269C40.1003 53.3496 40.0687 53.3496 21.9502 53.3496C5.29454 53.3496 3.78124 53.339 3.48585 53.1796C3.30013 53.0715 3.12916 52.9399 2.97714 52.7881C2.46958 52.2278 2.49063 53.1796 2.49063 29.6467C2.49063 6.11387 2.46958 7.06569 2.97714 6.50421C3.1893 6.26157 3.69685 6.0072 3.99341 5.99665C4.15987 5.99196 4.17039 7.05513 4.17039 26.8323H4.17628ZM11.7955 6.61087C11.7955 7.8909 12.2643 8.74777 13.1915 9.21313L13.7425 9.4886H21.8376C27.2227 9.4886 30.0805 9.4464 30.3442 9.37138C30.874 9.22252 31.5621 8.5989 31.8153 8.03742C31.9559 7.63776 32.0449 7.22178 32.0802 6.79958L32.1435 5.99547H37.9318V27.8884L34.1538 27.9201C29.9632 27.9529 30.0594 27.9412 29.2763 28.682C28.6516 29.2681 28.4827 29.73 28.43 30.9361L28.3867 32.0263H23.0591C18.0644 32.0263 17.7362 32.0368 17.5779 32.2162C17.2603 32.5678 17.2391 33.0109 17.5357 33.359L17.7994 33.6662L23.1012 33.6978L28.4019 33.7294V40.7028H23.1329C17.3974 40.7028 17.5064 40.6922 17.3552 41.2959C17.2602 41.6769 17.4502 42.1317 17.7784 42.2794C17.9589 42.365 19.5988 42.3966 23.2173 42.3966H28.4019V44.3436C28.4019 45.422 28.4453 46.4172 28.5086 46.5649L28.6141 46.8404H5.86422V5.99195H11.7896L11.7955 6.61087ZM48.8367 29.7733C49.4392 30.125 49.4228 29.8261 49.4228 38.2131C49.4228 46.6528 49.4439 46.3715 48.8202 46.6892C48.5764 46.8158 47.1053 46.8369 39.6772 46.8369H30.8318L30.472 46.477L30.1121 46.1172V30.3664L30.3337 30.0804C30.4549 29.9206 30.6108 29.7904 30.7897 29.6995C30.9069 29.6467 34.9579 29.6045 39.7733 29.6045C47.7664 29.594 48.5495 29.6045 48.8249 29.7733H48.8367Z" fill="#211D1E"/>
<path d="M10.6047 12.4389C10.1077 12.5444 9.75839 12.7777 9.38797 13.2536C9.11251 13.624 9.09138 13.7295 9.05973 14.8196C9.03863 15.4761 9.07032 16.1524 9.13362 16.3751C9.28131 16.8616 9.94827 17.4758 10.4875 17.6235C11.0595 17.7817 32.847 17.7817 33.4284 17.6235C33.9688 17.4758 34.5924 16.851 34.7413 16.3118C34.8901 15.7726 34.8889 14.3191 34.7413 13.7717C34.5713 13.1481 33.9477 12.5995 33.2491 12.46C32.8575 12.3756 30.2647 12.3428 24.8679 12.3651L17.0588 12.3967L16.8056 12.6921C16.4984 13.052 16.4773 13.3954 16.7739 13.7611L16.9849 14.0366H24.8679C30.1064 14.0366 32.8259 14.0683 32.9631 14.1421C33.133 14.2371 33.1646 14.3765 33.1646 15.0201C33.1646 15.4889 33.1119 15.8406 33.0369 15.9203C32.8575 16.0997 11.0384 16.0997 10.8579 15.9203C10.7841 15.8453 10.7313 15.4866 10.7313 15.0201C10.7313 14.3754 10.7629 14.2371 10.9329 14.1421C11.0501 14.0894 11.8003 14.0366 12.615 14.0366C14.0122 14.0366 14.0966 14.0261 14.3076 13.7928C14.7308 13.3485 14.562 12.6816 13.9689 12.4495C13.6524 12.3346 11.2201 12.3217 10.6047 12.4389Z" fill="#E9284A"/>
<path d="M10.3713 21.5937C9.8743 21.7847 9.37731 22.229 9.18624 22.6838C9.0913 22.9065 9.03857 23.4352 9.03857 24.1443C9.03857 25.3165 9.13348 25.6787 9.60939 26.1863C10.0536 26.6833 10.2975 26.736 12.1601 26.736C14.0649 26.736 14.2443 26.6938 14.7729 26.1335C15.1972 25.6893 15.2816 25.3505 15.2816 24.0494C15.2816 22.9276 15.2711 22.842 14.9745 22.3872C14.4986 21.6253 14.1388 21.5093 12.3184 21.4776C11.1966 21.4565 10.6784 21.4882 10.3713 21.5937ZM13.419 23.2019C13.5561 23.2546 13.5878 23.4363 13.5878 24.1021C13.5878 25.1278 13.5562 25.1489 12.1601 25.1489C10.764 25.1489 10.7312 25.1172 10.7312 24.1654C10.7312 23.6966 10.784 23.3449 10.8578 23.2652C10.9961 23.128 13.1013 23.0858 13.419 23.2019Z" fill="#E9284A"/>
<path d="M17.8522 23.3509C17.3025 23.5724 17.1654 24.2886 17.578 24.747C17.7362 24.9275 18.2754 24.938 26.0857 24.938H34.4293L34.6403 24.6626C34.9369 24.2922 34.9158 23.9534 34.6086 23.5935L34.3555 23.2981L26.2182 23.277C21.6408 23.2653 17.98 23.2981 17.8522 23.3509Z" fill="#211D1E"/>
<path d="M10.1497 30.3559C9.75216 30.5806 9.43116 30.9195 9.22837 31.3288C9.04902 31.6804 9.02793 31.9008 9.05958 32.9698C9.09123 34.0916 9.11236 34.2511 9.35617 34.6004C9.54321 34.8502 9.77636 35.0619 10.0431 35.2239C10.4346 35.4467 10.5834 35.4678 12.16 35.4678C14.1598 35.4678 14.4775 35.3623 14.9733 34.5792C15.2699 34.1233 15.2804 34.0389 15.2804 32.9171C15.2804 31.616 15.196 31.276 14.7717 30.8329C14.243 30.2715 14.0684 30.2293 12.1378 30.2293C11.0488 30.2281 10.2822 30.2809 10.1497 30.3559ZM13.3873 31.9219C13.5561 32.0168 13.5878 32.1563 13.5878 32.8597C13.5878 33.5266 13.5561 33.706 13.4189 33.7587C13.1013 33.8759 10.9961 33.8338 10.8578 33.6954C10.7839 33.6216 10.7311 33.2617 10.7311 32.7963C10.7311 32.1821 10.7628 32.0133 10.9222 31.9289C11.1543 31.7801 13.1224 31.7801 13.3873 31.9219Z" fill="#E9284A"/>
<path d="M10.1497 39.0746C9.22834 39.5716 9.00676 40.1225 9.05951 41.7308C9.09116 42.7787 9.12281 42.9264 9.37717 43.3179C9.86363 44.0482 10.3149 44.1959 12.1389 44.1959C14.1492 44.1959 14.6146 44.0271 15.0799 43.1163C15.2393 42.7998 15.2815 42.4927 15.2815 41.5291C15.2815 40.1542 15.1643 39.8049 14.509 39.2868L14.0964 38.9585L12.2866 38.9374C10.7733 38.9163 10.4134 38.9374 10.1497 39.0746ZM13.5349 41.5503V42.447L12.3709 42.4786C10.6678 42.5208 10.7299 42.5525 10.7299 41.5573C10.7299 41.1025 10.7616 40.7004 10.8038 40.6582C10.846 40.616 11.4707 40.6055 12.201 40.616L13.5338 40.6477L13.5349 41.5503Z" fill="#E9284A"/>
<path d="M35.6929 31.2656C35.3204 31.4399 35.0104 31.7242 34.8045 32.0802C34.5079 32.5667 34.4868 32.6734 34.4129 34.08C34.3707 35.0177 34.148 36.8522 33.8092 39.0325C33.5138 40.9373 33.27 42.7249 33.27 43.0003C33.3006 43.6291 33.5347 44.231 33.937 44.7153C34.1658 44.9166 34.4224 45.084 34.6989 45.2123L35.2276 45.4654H39.6714C42.2854 45.4654 44.2746 45.4233 44.4973 45.36C44.9837 45.2228 45.714 44.598 45.9578 44.101C46.3376 43.3497 46.3165 43.1058 45.6507 38.9797C45.2275 36.313 45.0154 34.7259 45.0154 34.1011C45.0154 32.9054 44.8677 32.3557 44.4023 31.8048C43.699 30.9901 43.6298 30.969 39.7136 30.969H36.2544L35.6929 31.2656ZM43.1 32.9371C43.2458 33.1368 43.3239 33.3779 43.3227 33.6252V34.0378H36.1267V33.5619C36.1267 33.2231 36.19 33.0227 36.3388 32.8738C36.5393 32.6734 36.6905 32.6628 39.7136 32.6628H42.889L43.1 32.9371ZM43.4282 35.8054C43.4282 35.8582 43.6826 37.477 43.9991 39.424C44.3906 41.8152 44.55 43.032 44.4867 43.1914C44.264 43.7775 44.2523 43.7775 39.6924 43.7775H35.4843L35.2299 43.5126C35.0806 43.3699 34.9867 43.1788 34.965 42.9734C34.965 42.7389 35.748 37.3551 35.9707 36.0739L36.034 35.7351H39.7276C41.7673 35.7304 43.4282 35.7656 43.4282 35.8054Z" fill="#211D1E"/>
<path d="M39.5867 38.8133C38.9736 39.4697 38.561 40.0734 38.561 40.3266C38.561 40.6337 38.8459 41.0146 39.153 41.1307C39.5761 41.3007 39.9887 41.0568 40.6135 40.2738C41.291 39.4169 41.3649 39.0571 40.9418 38.6445C40.5397 38.2272 40.0943 38.2811 39.5867 38.8133Z" fill="#211D1E"/>
</svg>
