<svg width="60" height="60" viewBox="0 0 60 60" fill="none" xmlns="http://www.w3.org/2000/svg">
<path d="M34.3805 7.10467C30.0258 10.5697 26.4096 13.5189 26.3393 13.6689C26.1517 14.0675 26.1869 14.3242 26.4565 14.6759C26.6792 14.9689 26.7495 14.9806 27.7459 14.9806H28.788V27.0366H28.0389C27.3591 27.0366 27.2548 27.0717 27.0438 27.3413C26.8093 27.6344 26.7976 27.8102 26.7976 29.8697C26.7976 32.0594 26.7976 32.0828 27.0906 32.363L27.3708 32.656H42.6362C57.4902 32.656 57.9122 32.6443 58.1806 32.4333C58.449 32.2223 58.4619 32.1637 58.4971 29.9401C58.5323 27.7751 58.5205 27.6578 58.2861 27.3531C58.0517 27.0483 57.9708 27.0366 57.2206 27.0366H56.4129V14.9818H57.5019C58.415 14.9818 58.6378 14.9466 58.7913 14.7708C59.0363 14.5012 59.1653 13.8928 59.0363 13.6584C58.9777 13.5646 55.3498 10.6271 50.9716 7.15038C44.4156 1.94117 42.9527 0.820557 42.6596 0.820557C42.3666 0.820557 40.9201 1.90602 34.3805 7.10467ZM49.0598 8.09986L55.2642 13.0512L49.0012 13.0864C45.5479 13.0981 39.871 13.0981 36.3826 13.0864L30.0258 13.0512L36.2771 8.05298C39.7186 5.31358 42.6069 3.0782 42.6913 3.11336C42.7757 3.14853 45.6335 5.38273 49.0551 8.09869L49.0598 8.09986ZM32.8836 21.0115V27.0389H30.7737V14.9818H32.8836V21.0115ZM39.6729 21.0115V27.0389H34.7568V14.9818H39.6729V21.0115ZM43.7756 21.0115V27.0389H41.5484V14.9818H43.7756V21.0115ZM50.5649 21.0115V27.0389H45.6335V14.9818H50.5567L50.5649 21.0115ZM54.5503 21.0115V27.0389H52.4404V14.9818H54.5503V21.0115ZM56.6603 29.8487V30.7864H28.6637V28.9109H56.6403L56.6603 29.8487Z" fill="#211D1E"/>
<path d="M42.0428 5.74507C41.3935 5.85643 40.7933 6.16263 40.3221 6.62303C39.736 7.18568 39.5261 7.65339 39.4558 8.49854C39.3738 9.51717 39.6668 10.3131 40.3572 11.0035C42.3242 12.9704 45.7493 11.6365 45.7493 8.89358C45.7458 8.53151 45.7065 8.17069 45.6321 7.81634C45.2382 6.42495 43.5878 5.46374 42.0428 5.74507ZM43.4834 7.88783C43.787 8.1926 43.8808 8.37899 43.8808 8.71892C43.8808 9.05886 43.787 9.24525 43.4834 9.55001C43.1798 9.85478 42.9911 9.94737 42.6512 9.94737C42.0546 9.94737 41.4228 9.32729 41.4228 8.75409C41.4345 8.2735 41.6572 7.85266 42.0194 7.65339C42.5351 7.37324 43.0544 7.45646 43.4834 7.88783V7.88783Z" fill="#211D1E"/>
<path d="M19.627 2.52616C19.2754 2.71371 19.1112 3.1228 19.2285 3.55651C19.2754 3.73234 20.083 4.52826 21.3583 5.64067L23.419 7.4306L15.2489 7.45404C7.06584 7.48921 7.06584 7.4892 6.85485 7.73536C6.66847 7.96979 6.65674 8.69538 6.65674 19.2545V30.5379L6.97206 30.7841C7.06942 30.8708 7.18601 30.9329 7.31219 30.9656C7.43837 30.9982 7.5705 31.0003 7.69764 30.9717C8.5299 30.8427 8.47129 31.6855 8.50646 19.9531L8.52989 9.35885H15.9041C19.9658 9.35885 23.2784 9.37058 23.2784 9.39402C23.2784 9.41746 22.377 10.2146 21.2857 11.1617C19.2836 12.9059 19.0726 13.1544 19.2249 13.7487C19.3304 14.1472 20.0091 14.4743 20.3971 14.3219C20.6316 14.2399 25.4071 10.1079 26.5183 9.04706C26.8817 8.70712 26.8817 8.0753 26.53 7.68848C26.3788 7.52437 24.9616 6.26075 23.3651 4.86701C21.3865 3.14624 20.3807 2.33862 20.2002 2.33862C19.9986 2.3626 19.8038 2.42634 19.627 2.52616V2.52616Z" fill="#E9284A"/>
<path d="M9.15017 33.4883C4.8541 36.9064 1.23672 39.8088 1.10778 39.9494C0.955397 40.137 0.908504 40.3245 0.955391 40.6527C1.04917 41.3795 1.16639 41.4381 2.39602 41.4381H3.49553V53.4941H2.68789C1.93886 53.4941 1.85681 53.5175 1.62355 53.8106C1.39028 54.1036 1.37738 54.2326 1.41255 56.3976C1.44771 58.6247 1.44771 58.6681 1.72786 58.8908C2.00801 59.1136 2.41946 59.1135 17.2734 59.1135H32.5377L32.819 58.8205C33.112 58.5392 33.112 58.5169 33.112 56.3589C33.112 53.5609 33.0769 53.4906 31.859 53.4906H31.1217V41.4369H32.1532C32.996 41.4369 33.2304 41.4018 33.3817 41.226C33.5099 41.0765 33.5933 40.894 33.6223 40.6992C33.6513 40.5045 33.6248 40.3056 33.5457 40.1253C33.4637 39.9377 30.3152 37.339 25.5632 33.5469C18.9133 28.2322 17.6614 27.2722 17.3449 27.2722C17.0285 27.2722 15.7754 28.2322 9.15017 33.4883ZM23.6537 34.4952L29.9835 39.5052L23.6396 39.5403C20.1629 39.5521 14.4508 39.5521 10.9624 39.5403L4.61731 39.5052L10.8686 34.507C14.3101 31.7676 17.1773 29.5087 17.2242 29.5087C17.2711 29.5087 20.1769 31.7441 23.6537 34.4952ZM7.47745 47.4643V53.4929H5.36751V41.4369H7.47745V47.4643ZM14.2668 47.4643V53.4929H9.35061V41.4369H14.2668V47.4643ZM18.3636 47.4643V53.4929H16.1364V41.4369H18.3636V47.4643ZM25.1529 47.4643V53.4929H20.2367V41.4369H25.1529V47.4643ZM29.1383 47.4643V53.4929H27.0284V41.4369H29.1383V47.4643ZM31.2483 56.3026V57.2404H3.26227V55.3649H31.2389L31.2483 56.3026Z" fill="#211D1E"/>
<path d="M16.3135 32.1533C15.9044 32.2471 15.0381 32.8918 14.7216 33.3361C14.3008 33.9327 14.1484 34.4485 14.1484 35.2209C14.1602 37.7493 17.1797 39.2005 19.2053 37.6555C20.3294 36.801 20.7033 35.0568 20.0481 33.7346C19.51 32.6456 18.55 32.0724 17.3087 32.0842C16.9757 32.0843 16.6432 32.1074 16.3135 32.1533ZM18.0811 34.2258C18.3624 34.5071 18.4797 34.7286 18.4797 34.9982C18.4797 35.7472 17.9756 36.2747 17.2618 36.2876C16.9101 36.2876 16.7355 36.2056 16.419 35.8891C15.9395 35.4097 15.8809 34.847 16.2666 34.3652C16.7823 33.7135 17.5079 33.6526 18.087 34.2258H18.0811Z" fill="#211D1E"/>
<path d="M49.278 34.6125C49.0904 34.7989 47.8257 36.1926 46.4647 37.7259C44.2376 40.2308 43.9949 40.5473 43.9949 40.9212C43.9949 41.6351 44.6854 42.104 45.2843 41.7875C45.4016 41.7289 46.1975 40.8744 47.052 39.8909C47.9065 38.9074 48.7024 37.9955 48.8197 37.8665C49.0189 37.6438 49.0307 37.9134 49.0307 46.4469V55.2489H42.382C36.1893 55.2489 35.7099 55.2606 35.5458 55.4482C35.0769 55.9979 35.2293 56.7833 35.826 56.9931C36.33 57.169 49.9086 57.169 50.4115 56.9931C50.5919 56.9359 50.7511 56.8261 50.8686 56.6778C50.9155 56.5723 50.9859 52.2997 51.021 47.196L51.0796 37.9134L52.7207 39.8088C53.6104 40.8392 54.4532 41.764 54.5822 41.8578C54.9795 42.1274 55.541 42.0688 55.8106 41.7172C56.3135 41.0736 56.256 40.9681 53.4111 37.7259C51.96 36.0637 50.6365 34.6125 50.4607 34.507C50.0153 34.214 49.6754 34.2491 49.278 34.6125Z" fill="#E9284A"/>
</svg>
