<svg width="46" height="56" viewBox="0 0 46 56" fill="none" xmlns="http://www.w3.org/2000/svg">
<path d="M5.59267 5.08345L0.736328 9.92926V29.0359C0.736328 45.0035 0.757432 48.2024 0.887545 48.5048C1.11612 49.0581 1.70803 49.6653 2.30819 49.9361C2.80637 50.1705 3.00216 50.1963 4.56351 50.1963H6.26553V51.9007C6.26553 53.4726 6.28663 53.6589 6.52458 54.1559C6.7882 54.7647 7.27842 55.2469 7.89137 55.5004C8.379 55.7173 8.50907 55.7278 25.6594 55.7278C38.462 55.7278 43.0476 55.695 43.3512 55.5977C43.9467 55.4243 44.6301 54.8065 44.9232 54.1665L45.1833 53.6132V30.8517C45.1833 15.5018 45.1506 7.95648 45.0744 7.6857C44.9009 7.06796 44.3265 6.39628 43.6759 6.05869C43.1121 5.76682 43.0476 5.75511 41.3773 5.75511H39.6541V4.15154C39.6541 1.86342 39.34 1.11559 38.1151 0.508393L37.5512 0.227051H10.4385L5.59267 5.08345ZM37.3883 2.38742L37.6485 2.59372L37.6813 24.9684C37.6919 37.2624 37.6814 47.4416 37.6485 47.5823C37.5939 47.7528 37.5013 47.9087 37.3778 48.0383C37.1609 48.2552 36.9441 48.2551 20.1947 48.2551H3.21899L2.95879 47.9832L2.68801 47.723V11.4039L6.29718 11.3711C9.74459 11.3382 9.91809 11.3277 10.3307 11.1003C10.8822 10.7846 11.336 10.3231 11.6424 9.76634C11.8264 9.41468 11.8475 9.0513 11.8768 5.7809L11.9096 2.18228H24.5177C36.7811 2.17877 37.1386 2.18931 37.3883 2.3839V2.38742ZM9.95089 6.20404V8.81568L9.63672 9.13099L9.32261 9.44516H4.04776L6.97823 6.51469C8.58179 4.89941 9.91573 3.58422 9.92628 3.58422C9.93683 3.58422 9.95089 4.75873 9.95089 6.20052V6.20404ZM42.9609 7.9811L43.2317 8.24132V53.2534L42.9609 53.5136L42.7007 53.7844H8.66034L8.44347 53.503C8.23834 53.2428 8.21607 53.0693 8.21607 51.7143V50.2069L22.9926 50.1858L37.7622 50.1529L38.271 49.8493C38.8785 49.4707 39.3288 48.8854 39.5393 48.2012C39.626 47.8871 39.6565 42.0332 39.6565 27.7348V7.70914H41.1803C42.6467 7.70914 42.7112 7.71735 42.9609 7.97758V7.9811Z" fill="#211D1E"/>
<path d="M33.5191 11.4365C33.4019 11.5233 32.4993 12.6286 31.5264 13.8864L29.7482 16.1733L29.3801 15.7396C29.0542 15.3387 28.9675 15.2954 28.5338 15.2954C27.916 15.2954 27.5151 15.6529 27.5151 16.1956C27.5151 16.4875 27.6781 16.77 28.2853 17.5612C28.6967 18.1028 29.141 18.5904 29.25 18.656C29.4315 18.7438 29.6345 18.7772 29.8346 18.7523C30.0347 18.7273 30.2232 18.645 30.3776 18.5154C30.5183 18.3853 31.6237 17.0079 32.8158 15.4677C34.7347 12.9955 34.9949 12.6052 34.9949 12.2699C34.9843 11.8362 34.8437 11.5971 34.4862 11.4131C34.3384 11.3279 34.1699 11.285 33.9993 11.2891C33.8287 11.2932 33.6626 11.3442 33.5191 11.4365Z" fill="#E9284A"/>
<path d="M6.7566 15.0998C6.62528 15.1747 6.51288 15.2788 6.42806 15.404C6.34325 15.5292 6.28829 15.6722 6.26735 15.8219C6.2464 15.9717 6.26007 16.1242 6.3073 16.2679C6.35452 16.4115 6.43401 16.5424 6.53973 16.6506C6.77417 16.885 6.89138 16.9214 7.67792 16.9214C8.46446 16.9214 8.57698 16.8885 8.81611 16.6506C9.15253 16.3247 9.18421 15.653 8.88062 15.285C8.69658 15.0505 8.56646 15.0247 7.81861 14.9919C7.29464 14.9767 6.88319 15.013 6.7566 15.0998Z" fill="#E9284A"/>
<path d="M11.328 15.0939C11.0466 15.2569 10.8298 15.8312 10.8942 16.2005C10.9529 16.3999 11.0701 16.5772 11.2307 16.7092C11.4909 16.9155 11.6867 16.926 17.3987 16.926H23.3078L23.6219 16.6119C24.045 16.1782 24.045 15.7234 23.6219 15.2897L23.3078 14.9744H17.4105C13.4309 14.9767 11.4569 15.013 11.328 15.0939Z" fill="#E9284A"/>
<path d="M33.1827 20.1087C32.9553 20.3689 32.0879 21.4637 31.2638 22.5375L29.7459 24.488L29.345 24.0437C28.9934 23.6534 28.8902 23.5889 28.4881 23.5889C27.7297 23.5889 27.2854 24.3145 27.6324 24.9768C27.9032 25.4855 29.1504 26.9929 29.3661 27.0574C29.5588 27.1 29.7581 27.1036 29.9522 27.068C30.2769 27.0035 30.5805 26.6565 32.6623 23.9898C34.8191 21.2035 34.9926 20.9538 34.9926 20.5424C34.9926 19.9563 34.6573 19.6316 34.0548 19.6316C33.6598 19.6316 33.5508 19.6855 33.1827 20.1087Z" fill="#E9284A"/>
<path d="M6.53646 23.5889C6.44337 23.673 6.37062 23.7772 6.32371 23.8935C6.2768 24.0099 6.25695 24.1354 6.26568 24.2606C6.27623 24.9873 6.66657 25.2687 7.6723 25.2687C8.36624 25.2687 8.89721 25.0741 9.01677 24.781C9.16798 24.3801 9.08127 23.8491 8.81049 23.5889C8.57606 23.3545 8.45884 23.3181 7.6723 23.3181C6.88577 23.3181 6.77441 23.3498 6.53646 23.5889Z" fill="#E9284A"/>
<path d="M11.2298 23.5338C11.069 23.6656 10.9517 23.8429 10.8934 24.0425C10.8183 24.4657 11.0786 25.0295 11.4138 25.1596C11.5873 25.2241 13.9188 25.2674 17.4963 25.2674H23.3068L23.621 24.9533C24.0219 24.5524 24.0324 24.0964 23.6538 23.6522L23.3713 23.3169H17.4307C11.6858 23.3181 11.49 23.3286 11.2298 23.5338Z" fill="#E9284A"/>
<path d="M33.6925 27.988C33.5296 28.042 32.695 29.0172 31.5826 30.4496L29.7505 32.8128L29.3062 32.3439C28.7424 31.7578 28.3087 31.7156 27.8316 32.1927C27.4963 32.5291 27.4307 32.9194 27.6476 33.3203C27.875 33.754 29.0542 35.1841 29.2886 35.313C29.4253 35.3981 29.583 35.4432 29.744 35.4432C29.905 35.4432 30.0628 35.3981 30.1994 35.313C30.3166 35.238 31.4572 33.8607 32.7149 32.2349C34.8073 29.5576 35.0019 29.2646 35.0019 28.8742C35.0061 28.7167 34.9706 28.5607 34.8987 28.4205C34.8267 28.2804 34.7205 28.1606 34.59 28.0723C34.4596 27.984 34.3089 27.93 34.1521 27.9152C33.9952 27.9005 33.8372 27.9256 33.6925 27.988Z" fill="#E9284A"/>
<path d="M6.53623 31.936C6.17871 32.2877 6.1787 32.8468 6.5245 33.2583C6.77417 33.5408 6.83983 33.5619 7.65216 33.5619C8.42228 33.5619 8.5524 33.5291 8.80208 33.3017C8.89283 33.2129 8.96509 33.1071 9.01477 32.9903C9.06445 32.8735 9.09054 32.748 9.09152 32.621C9.0925 32.4941 9.06836 32.3683 9.02049 32.2507C8.97262 32.1331 8.90198 32.0262 8.81261 31.936C8.57817 31.7016 8.46096 31.6653 7.67442 31.6653C6.88788 31.6653 6.77418 31.6969 6.53623 31.936Z" fill="#E9284A"/>
<path d="M11.1538 31.9255C11.0172 32.0958 10.9323 32.3018 10.9092 32.5189C10.8861 32.736 10.9259 32.9552 11.0237 33.1504C11.2582 33.6052 11.4692 33.6275 17.588 33.5947L23.4196 33.5619L23.6799 33.2583C23.8214 33.0967 23.912 32.8969 23.9401 32.6839C23.9401 32.3323 23.6693 31.8165 23.4525 31.7297C23.3552 31.6969 20.6017 31.6653 17.3383 31.6653H11.3977L11.1538 31.9255Z" fill="#E9284A"/>
<path d="M33.6701 36.2942C33.5623 36.3153 32.6292 37.4429 31.5777 38.7874C30.5263 40.1319 29.6811 41.1834 29.6811 41.1318C29.6811 41.0802 29.5077 40.8505 29.3013 40.6336C28.7914 40.1132 28.2933 40.0804 27.8267 40.5469C27.3391 41.0345 27.4047 41.3674 28.1526 42.3685C29.0083 43.4961 29.2146 43.7013 29.496 43.713C29.9414 43.7341 30.1688 43.6802 30.3751 43.5067C30.5369 43.3543 33.1825 39.9901 34.595 38.1404C35.1693 37.3926 35.1482 36.6881 34.5516 36.3821C34.4205 36.3026 34.2733 36.2534 34.1208 36.2382C33.9682 36.223 33.8143 36.2422 33.6701 36.2942Z" fill="#E9284A"/>
<path d="M6.9479 39.969C6.33015 40.1097 6.06994 41.031 6.4931 41.5737C6.69823 41.8445 6.76388 41.8551 7.66529 41.8551C8.52099 41.8551 8.64056 41.834 8.84687 41.6054C9.18211 41.2479 9.17157 40.5657 8.8246 40.2398C8.6183 40.0452 8.40142 39.9796 7.87042 39.9585C7.56313 39.9373 7.25462 39.9408 6.9479 39.969Z" fill="#E9284A"/>
<path d="M11.6203 39.9795C10.9486 40.1096 10.6661 41.0849 11.1514 41.5948L11.3858 41.855H17.3698C23.961 41.855 23.7441 41.8773 23.8743 41.1716C23.9716 40.6524 23.777 40.2398 23.3316 40.0663C23.0174 39.9256 22.0421 39.9033 17.4026 39.9151C14.3526 39.9256 11.7398 39.9584 11.6203 39.9795Z" fill="#E9284A"/>
</svg>
