<svg width="50" height="52" viewBox="0 0 50 52" fill="none" xmlns="http://www.w3.org/2000/svg">
<path d="M38.0737 0.597381C37.8651 0.807202 37.8147 0.956076 37.8147 1.33587C37.8147 1.71565 37.8651 1.86453 38.0737 2.07435L38.3434 2.3334H42.4542L37.565 7.22259L32.677 12.1106L30.7804 10.2152C29.743 9.17781 28.7548 8.27991 28.5954 8.22247C28.4026 8.15947 28.1971 8.14579 27.9976 8.18264C27.7632 8.22249 25.6532 10.2679 18.6283 17.2812C13.6394 22.2606 9.49932 26.4512 9.41961 26.6001C9.30755 26.7878 9.26129 27.0076 9.28826 27.2246C9.31522 27.4416 9.41387 27.6434 9.56848 27.798C9.81816 28.077 9.9283 28.1274 10.3175 28.1274H10.7735L19.5039 19.397L28.2391 10.663L30.2142 12.6393L32.1894 14.6039H33.1775L38.5356 9.24697L43.903 3.87836V5.605C43.903 7.43009 43.9733 7.78994 44.3918 8.01969C44.6919 8.17911 45.3296 8.13691 45.564 7.93999C45.9837 7.60005 46.0036 7.45002 46.0036 4.22767C46.0036 1.00533 45.9837 0.855269 45.564 0.516507C45.3741 0.357089 45.0155 0.337158 41.8529 0.337158H38.3434L38.0737 0.597381Z" fill="#E9284A"/>
<path d="M6.30613 29.8213C5.91697 30.1401 5.82784 30.5399 6.02711 31.0087C6.09615 31.1672 6.20484 31.3053 6.34265 31.4097C6.48046 31.5141 6.64282 31.5813 6.8141 31.6049C6.98538 31.6284 7.15982 31.6075 7.32069 31.5442C7.48156 31.4808 7.62343 31.3772 7.73268 31.2432C8.53094 30.2996 7.24388 29.023 6.30613 29.8213Z" fill="#E9284A"/>
<path d="M37.5952 15.0447C37.1399 15.1815 36.7282 15.4348 36.4009 15.7796C36.0736 16.1244 35.842 16.5486 35.729 17.0104C35.6493 17.3492 35.6201 22.4881 35.6201 33.4621V49.4261H30.1318L30.1119 40.2573L30.0826 31.0884L29.7134 30.5598C28.9245 29.4321 28.3759 29.2821 25.034 29.2704C23.7446 29.2704 22.42 29.3196 22.1036 29.3794C21.659 29.4535 21.24 29.6375 20.8847 29.9147C20.5293 30.1918 20.2487 30.5534 20.0686 30.9665C19.8693 31.4049 19.8588 31.5749 19.8588 40.4144V49.4238H14.3718V44.7046C14.3718 39.4063 14.3718 39.4168 13.6685 38.6186C13.4033 38.3418 13.0929 38.1123 12.7507 37.9399C12.2314 37.7054 12.1716 37.7054 9.17782 37.7054H6.13013L5.56161 37.9844C4.92277 38.2939 4.5547 38.6877 4.24524 39.3512C4.0448 39.7802 4.03542 39.9701 4.01081 44.626L3.9815 49.432H2.68505C1.21865 49.432 0.988888 49.5117 0.800165 50.0908C0.650125 50.5198 0.809543 51.0485 1.15182 51.263C1.37102 51.4036 3.63569 51.4236 24.9473 51.4236C46.2588 51.4236 48.5235 51.4036 48.7427 51.263C49.0826 51.0438 49.242 50.5151 49.0943 50.0908C48.9056 49.5223 48.6654 49.432 47.2493 49.432H46.0021V33.3824C46.0021 15.3834 46.0513 16.6811 45.273 15.8324C44.4947 14.9837 44.3751 14.9544 41.0133 14.9345C38.8518 14.9146 37.9445 14.945 37.5952 15.0447ZM43.6413 17.2097L43.9004 17.409V49.4261H37.7147V17.4887L37.9644 17.2542L38.1989 17.0046H40.7835C43.2522 16.9999 43.3916 17.0104 43.6413 17.2097ZM27.6175 31.4776C27.7131 31.5088 27.7999 31.5621 27.871 31.6332C27.9421 31.7043 27.9954 31.7911 28.0266 31.8867C28.1063 32.0953 28.1368 34.9344 28.1368 40.8059V49.4261H21.95V40.616C21.95 32.345 21.9605 31.787 22.1305 31.6464C22.2236 31.5585 22.3315 31.4878 22.4493 31.4377C22.7388 31.3381 27.301 31.3674 27.6175 31.4776ZM12.0825 40.0346C12.263 40.2538 12.2724 40.4835 12.2724 44.8405V49.4203H6.0844L6.09379 44.9003C6.09379 42.427 6.13361 40.3112 6.17346 40.201C6.34343 39.7825 6.59316 39.7427 9.30678 39.772C11.8938 39.7978 11.8938 39.7978 12.0825 40.0381V40.0346Z" fill="#211D1E"/>
</svg>
