<svg width="52" height="60" viewBox="0 0 52 60" fill="none" xmlns="http://www.w3.org/2000/svg">
<path d="M0.843743 0.246142C0.632749 0.49113 0.621024 0.911952 0.621024 15.9898V31.4885L0.902352 31.7112C1.27628 32.0148 1.8612 32.0031 2.17769 31.6643L2.43441 31.3947V1.75476H38.5777V42.2152L35.1162 42.2492L31.6535 42.2844L31.3734 42.6126L31.0921 42.9396V49.8297H2.43441V42.0394C2.43441 37.1853 2.38752 34.1787 2.31719 34.038C2.16598 33.7461 1.5576 33.5586 1.20595 33.6863C0.52842 33.9442 0.550701 33.5926 0.585867 42.7286L0.621024 51.1027L0.890633 51.3723L1.15907 51.6408L6.29442 51.6759L11.4415 51.7111V55.536C11.4415 59.233 11.4532 59.3842 11.6759 59.6304L11.9221 59.8871H43.3168L47.3292 55.8759L51.3287 51.8635V36.1784C51.3287 24.691 51.2936 20.3996 51.201 20.1886C50.9314 19.6166 49.867 19.5697 49.5751 20.1194C49.5048 20.2589 49.4579 25.8034 49.4579 35.4306V50.519L45.9414 50.5542L42.4248 50.5893L42.2021 50.8706C41.9911 51.1274 41.9794 51.3735 41.9794 54.6369V58.1347H13.3123V51.7006H22.7285C30.6713 51.7006 32.2033 51.6771 32.4729 51.5376C32.6476 51.4438 34.5078 49.6422 36.6248 47.5252L40.4497 43.6769V10.0597H49.4568V17.5101L49.7252 17.7563C49.8987 17.9085 50.12 17.9953 50.3507 18.0017C50.5814 18.0081 50.8071 17.9338 50.9888 17.7915L51.269 17.5688V8.78438L51.0005 8.51594L50.7309 8.24633L45.5967 8.21119L40.4497 8.17602V4.35115C40.4497 0.655239 40.4379 0.502863 40.2152 0.257876L39.9691 0H1.06646L0.843743 0.246142ZM37.2918 44.1329C37.2918 44.1446 36.3212 45.1269 35.1279 46.3202L32.9641 48.4841V44.0977H35.1279C36.3212 44.0977 37.2918 44.1095 37.2918 44.1329ZM48.0525 52.4378C48.0525 52.4496 47.1053 53.4084 45.9425 54.5666L43.8326 56.6765V52.4027H45.9425C47.1053 52.4027 48.0525 52.4144 48.0525 52.4378Z" fill="#211D1E"/>
<path d="M18.7395 6.55019C16.8235 6.72091 14.9695 7.31636 13.3123 8.29325C12.0499 9.04228 11.7685 9.58266 12.2714 10.2238C12.6465 10.6927 13.1494 10.6329 14.1903 10.0011C16.2604 8.74924 18.4477 8.23465 20.9163 8.44564C22.2139 8.56286 22.8692 8.71407 24.0742 9.20522C25.8876 9.94253 27.7935 11.4511 28.9399 13.0418C31.01 15.9312 31.5363 19.7444 30.3196 23.207C29.1474 26.5759 26.2029 29.2192 22.5538 30.2014C21.7579 30.4124 21.2433 30.4593 19.975 30.4593C18.0104 30.471 16.8171 30.1897 15.0975 29.3598C12.1495 27.9204 10.1497 25.4916 9.19088 22.1661C8.81578 20.8439 8.81578 18.0482 9.19088 16.692C9.5062 15.5573 10.2201 14.0135 10.8402 13.1238C11.1555 12.6913 11.3196 12.3174 11.3196 12.0829C11.3196 11.3116 10.4768 10.8779 9.89304 11.3351C9.29639 11.8145 8.17342 13.7557 7.68227 15.1834C7.06219 16.9839 6.82776 19.3939 7.10909 21.2659C7.728 25.5819 10.6256 29.477 14.5126 31.2189C23.1681 35.1024 32.8421 28.8745 32.8421 19.429C32.8674 18.1578 32.6857 16.8909 32.3041 15.678C30.8189 10.7654 26.326 7.02142 21.4379 6.61232C20.9925 6.57716 20.431 6.53028 20.2095 6.50684C19.9879 6.48339 19.3245 6.49979 18.7395 6.55019Z" fill="#E9284A"/>
<path d="M24.9508 13.7557L24.3647 13.8612C23.9439 13.9315 23.5934 14.2468 21.0544 16.7624L18.2236 19.5756L17.1944 18.5687C16.6329 18.0072 15.9777 17.4692 15.7444 17.3649C14.8559 17.0015 13.604 17.2477 12.9956 17.9029C12.3873 18.5582 12.188 19.8558 12.5748 20.6751C12.8315 21.2132 16.7033 25.0263 17.2636 25.283C17.8596 25.5418 18.5338 25.5544 19.1391 25.3182C19.6888 25.0837 26.906 17.9146 27.2565 17.2594C27.444 16.896 27.4792 16.6393 27.444 16.0192C27.3972 15.1424 27.1158 14.6044 26.4723 14.1706C26.1324 13.9432 25.2204 13.6854 24.9508 13.7557ZM25.4537 15.8141C25.5432 15.9187 25.593 16.0515 25.5943 16.1891C25.5943 16.4693 18.5061 23.6279 18.2248 23.6279C18.1322 23.6279 17.1956 22.7745 16.1547 21.7336C14.2722 19.8499 14.0448 19.5463 14.3882 19.2064C14.7047 18.891 15.0317 19.0774 16.354 20.4114C17.7688 21.8379 18.0853 22.0138 18.6585 21.7102C18.8331 21.6164 20.2995 20.2238 21.9101 18.6097C24.7984 15.698 25.1032 15.4636 25.4537 15.8141Z" fill="#E9284A"/>
<path d="M9.16062 35.5011C9.06807 35.5811 8.99382 35.6801 8.94293 35.7913C8.89205 35.9025 8.86572 36.0234 8.86572 36.1458C8.86572 36.2681 8.89205 36.389 8.94293 36.5002C8.99382 36.6115 9.06807 36.7105 9.16062 36.7905L9.44076 37.0835H32.0394L32.3207 36.7905C32.4122 36.7098 32.4856 36.6106 32.5358 36.4995C32.586 36.3883 32.6119 36.2677 32.6119 36.1458C32.6119 36.0238 32.586 35.9032 32.5358 35.792C32.4856 35.6809 32.4122 35.5817 32.3207 35.5011L32.0394 35.208H9.44076L9.16062 35.5011Z" fill="#E9284A"/>
<path d="M9.39394 39.4382C8.79847 39.7535 8.68124 40.4791 9.13723 40.9117L9.40566 41.1684H25.3474L25.5819 40.8648C25.9792 40.3619 25.828 39.6715 25.2783 39.4265C24.8809 39.2553 9.72215 39.2554 9.39394 39.4382Z" fill="#E9284A"/>
</svg>
