<svg width="60" height="56" viewBox="0 0 60 56" fill="none" xmlns="http://www.w3.org/2000/svg">
<path d="M2.28782 0.989092C1.78729 1.19109 1.34154 1.50838 0.98674 1.91514C-0.0916738 3.05216 0.00205545 1.09459 0.00205545 23.2021C0.00205545 40.8318 0.0255107 42.7894 0.189617 43.2934C0.447499 44.0436 1.36182 45.0165 2.13546 45.3682L2.7567 45.6495L18.1476 45.6847L33.5384 45.7081L33.8197 45.4268C33.911 45.3448 33.9841 45.2445 34.0341 45.1324C34.084 45.0203 34.1098 44.8989 34.1098 44.7762C34.1098 44.6535 34.084 44.5321 34.0341 44.4201C33.9841 44.308 33.911 44.2076 33.8197 44.1256C33.5501 43.8443 33.4915 43.8326 31.7684 43.8326H30.0101V41.1014C30.0101 37.2918 29.846 36.5299 28.8028 35.5218C28.3104 35.0295 27.9236 34.8419 24.4657 33.4001C23.4693 32.9781 22.6956 32.5796 22.6253 32.4624C22.555 32.3451 22.5081 31.8528 22.5081 31.3722C22.5081 30.7041 22.555 30.4579 22.7074 30.3407C23.0825 30.0242 23.6803 28.9575 23.9851 28.0432C24.2664 27.211 24.3016 26.9296 24.3484 24.8431C24.4188 22.2409 24.3015 21.1507 23.8678 20.1896C23.1176 18.5837 21.5586 17.3646 19.5776 16.8605C18.7454 16.6613 16.7761 16.6496 15.9438 16.8605C14.0097 17.3411 12.4155 18.6071 11.6185 20.2716C11.3137 20.9046 11.3137 20.9632 11.2785 23.8819C11.2551 25.7223 11.2902 27.082 11.3723 27.4689C11.6125 28.4416 12.0559 29.3524 12.6734 30.1415C13.072 30.6103 13.1306 30.7627 13.1306 31.2667C13.1306 32.1224 12.943 32.5562 12.439 32.8023C12.2046 32.9195 11.091 33.4001 9.96566 33.869C7.49234 34.8888 7.0821 35.1115 6.47256 35.8031C5.67547 36.7057 5.62856 36.987 5.62856 40.6442V43.8561L4.35089 43.8092C3.27247 43.7857 3.01463 43.7388 2.74502 43.5278C2.30237 43.224 1.99212 42.7629 1.87756 42.2384C1.80723 41.9806 1.76034 35.3929 1.76034 26.8593V11.9491H50.6406V26.9414L50.9454 27.1758C51.508 27.6212 52.2114 27.3985 52.4106 26.7304C52.4927 26.449 52.5162 22.6277 52.4927 14.9381L52.4575 3.56791L52.1528 2.9232C51.9262 2.42283 51.5942 1.97732 51.1794 1.6172C50.7647 1.25707 50.277 0.990852 49.7498 0.83673C49.3864 0.731233 43.7247 0.696045 26.1302 0.696045H2.99114L2.28782 0.989092ZM49.5388 2.81772C49.8509 2.96859 50.1177 3.19904 50.3124 3.48586C50.5703 3.90785 50.582 4.02508 50.6172 6.99072L50.6523 10.0736H1.75215L1.7873 7.04933C1.81074 4.5174 1.85763 3.97817 2.02173 3.68513C2.25617 3.25142 2.66647 2.85288 3.05329 2.7005C3.24085 2.63017 11.3055 2.58328 26.1923 2.58328L49.05 2.57155L49.5388 2.81772ZM18.8978 18.6423C20.3513 18.9588 21.5821 19.8379 22.1095 20.9515C22.4143 21.5845 22.4378 21.7251 22.4847 23.6123C22.5784 27.4454 22.2268 28.3597 19.9996 30.2001C19.4721 30.6338 19.6714 31.6887 20.3044 31.7825C20.5271 31.806 20.5857 31.9114 20.656 32.3803C20.7498 33.0485 21.207 33.8807 21.6641 34.1972C21.84 34.3261 23.1411 34.9122 24.5594 35.5101C25.9778 36.1079 27.2672 36.694 27.4079 36.8346C28.0526 37.4324 28.076 37.5731 28.1112 40.8084L28.1463 43.8326H7.50406V40.7498C7.50406 37.9131 7.52751 37.6552 7.7385 37.3035C8.06671 36.7526 8.58248 36.4713 11.2551 35.3811C14.3145 34.1269 14.6661 33.8221 14.9475 32.1928C14.9944 31.8997 15.0764 31.759 15.2054 31.759C15.557 31.759 15.8266 31.3957 15.8266 30.9034C15.8266 30.5283 15.7563 30.3876 15.4633 30.1297C14.2325 29.0865 13.9277 28.7465 13.5643 28.0198L13.1892 27.2579L13.154 24.4212C13.1189 21.6782 13.1189 21.5727 13.3885 21.0218C14.2325 19.2049 16.6472 18.1617 18.8978 18.6399V18.6423Z" fill="#211D1E"/>
<path d="M4.01063 5.65447C3.24871 6.46328 4.24508 7.70581 5.13594 7.07283C5.30508 6.96542 5.4343 6.80547 5.5038 6.61755C5.5733 6.42963 5.57923 6.2241 5.52068 6.03249C5.46213 5.84087 5.34233 5.67375 5.17967 5.55677C5.01701 5.43979 4.82048 5.37939 4.62019 5.38486C4.50554 5.38566 4.39227 5.41 4.28742 5.45638C4.18257 5.50276 4.08835 5.57018 4.01063 5.65447Z" fill="#211D1E"/>
<path d="M6.82436 5.61917C6.4141 6.00599 6.43753 6.60383 6.87124 6.99065C7.72694 7.7643 8.87567 6.52175 8.0903 5.67778C7.92914 5.50393 7.70616 5.40036 7.46935 5.3894C7.23255 5.37843 7.0009 5.46095 6.82436 5.61917Z" fill="#211D1E"/>
<path d="M9.6376 5.6192C9.25078 5.98258 9.28593 6.69763 9.68448 7.01413C10.083 7.33062 10.4699 7.33062 10.8333 6.99069C11.478 6.41631 11.1145 5.38477 10.2588 5.38477C10.0317 5.39273 9.81341 5.4751 9.6376 5.6192Z" fill="#211D1E"/>
<path d="M13.3884 5.65437C13.0133 6.05292 13.0367 6.69763 13.4352 7.01413L13.7518 7.26027H30.8423C43.3612 7.26027 48.0149 7.22512 48.2258 7.13134C48.7885 6.87346 48.8471 5.94743 48.3196 5.54889C48.1555 5.41995 44.8382 5.39649 30.8775 5.38477H13.6345L13.3884 5.65437Z" fill="#211D1E"/>
<path d="M29.0256 15.9698C28.2403 16.4152 28.1348 16.7552 28.1348 18.9823C28.1348 21.2446 28.2286 21.5494 29.0843 21.9949L29.5883 22.2645L37.6178 22.241L45.659 22.2058L46.0458 21.9363C46.7492 21.4205 46.8312 21.1392 46.8312 18.9823C46.8312 16.8489 46.7491 16.5442 46.0341 16.005C45.7059 15.7588 45.6238 15.7588 37.5944 15.7354L29.4828 15.7002L29.0256 15.9698ZM45.0143 18.9823V20.389H30.0103V17.5757H45.0143V18.9823Z" fill="#211D1E"/>
<path d="M29.377 24.3836C29.1426 24.5712 29.0723 24.7235 29.0723 25.0752C29.0723 25.4269 29.1426 25.5793 29.377 25.7668C29.6818 26.013 29.799 26.013 35.531 26.013C39.6454 26.013 41.4506 25.9778 41.6616 25.884C42.2243 25.6261 42.2829 24.7001 41.7554 24.3016C41.603 24.1726 40.3019 24.1492 35.6248 24.1375C29.7991 24.1398 29.6818 24.1398 29.377 24.3836Z" fill="#211D1E"/>
<path d="M29.377 28.1346C29.1426 28.3221 29.0723 28.4745 29.0723 28.8262C29.0723 29.1778 29.1426 29.3302 29.377 29.5178C29.6818 29.7522 29.8225 29.7639 33.1867 29.7639C35.5428 29.7639 36.7736 29.7171 36.9729 29.635C37.156 29.5263 37.2997 29.362 37.3831 29.1661C37.5355 28.709 37.348 28.1932 36.9729 28.0174C36.7736 27.9353 35.5428 27.8884 33.1867 27.8884C29.8225 27.8908 29.6818 27.9002 29.377 28.1346Z" fill="#211D1E"/>
<path d="M41.5212 29.5319C38.9775 30.4228 36.809 31.2433 36.6801 31.3605C36.176 31.8177 36.6214 32.9313 37.3013 32.9313C37.4537 32.9313 39.5519 32.2397 41.9549 31.4074C44.3579 30.5752 46.3975 29.8836 46.4795 29.8836C46.6436 29.8836 58.0256 33.8339 58.1194 33.9159C58.1428 33.9511 58.0842 34.5137 57.967 35.1819C57.0292 40.9373 54.1105 46.4349 49.9844 50.2445C48.906 51.2409 46.6905 52.9757 46.503 52.9757C46.3506 52.9757 45.4128 52.3076 44.4516 51.5339C41.9384 49.5053 39.817 47.0343 38.1922 44.2429C36.5042 41.3945 35.2968 37.7841 34.8748 34.3965C34.7811 33.6229 34.699 32.9547 34.699 32.9078C34.699 32.6851 34.195 32.3452 33.8668 32.3452C33.0111 32.3452 32.8235 32.7672 32.9642 34.2793C33.2221 37.0925 34.2887 40.7146 35.6954 43.5396C37.9225 48.0408 40.9937 51.5925 45.0612 54.3706C46.4561 55.3201 46.5264 55.3201 48.1323 54.1948C54.1925 49.9632 58.1545 43.8443 59.6666 36.4244C59.9714 34.924 60.1004 33.0719 59.9128 32.732C59.7604 32.4272 60.0535 32.5445 52.6101 29.9539C49.3397 28.8169 46.5499 27.9026 46.3975 27.9026C46.2451 27.9026 44.0531 28.6411 41.5212 29.5319Z" fill="#E9284A"/>
<path d="M51.2268 37.1161C51.133 37.1513 49.7967 38.4289 48.2729 39.941L45.483 42.7191L43.7482 40.9843C42.283 39.5308 41.9665 39.2612 41.6734 39.2612C41.5228 39.2592 41.3741 39.2944 41.2402 39.3635C41.1063 39.4325 40.9915 39.5335 40.9058 39.6574C40.8201 39.7813 40.7662 39.9243 40.7488 40.0739C40.7314 40.2236 40.751 40.3752 40.806 40.5154C40.9818 40.996 44.7563 44.747 45.2017 44.8877C45.4085 44.9677 45.6369 44.9718 45.8464 44.8994C46.2332 44.747 52.3521 38.5696 52.4576 38.2297C52.6568 37.5381 51.9301 36.8699 51.2268 37.1161Z" fill="#E9284A"/>
</svg>
