<svg width="54" height="54" viewBox="0 0 54 54" fill="none" xmlns="http://www.w3.org/2000/svg">
<path d="M0.713521 2.35224C0.516594 2.87269 0.516602 3.32518 0.516602 26.9881C0.516602 50.6511 0.516594 51.1036 0.713521 51.6252C0.924515 52.2031 1.53407 52.883 2.14127 53.2088L2.51754 53.4069L26.4865 53.4374C50.017 53.4585 50.4671 53.4585 50.9992 53.2616C51.727 52.9758 52.3536 52.4806 52.7997 51.8386C53.2465 51.1772 53.4768 50.3933 53.4587 49.5953C53.4407 48.7974 53.1752 48.0247 52.6989 47.3842L52.2476 46.77L52.6989 46.157C53.1857 45.4887 53.448 44.6833 53.448 43.8565C53.448 43.0298 53.1857 42.2243 52.6989 41.5561L52.2476 40.9419L52.6989 40.3276C53.1857 39.6594 53.448 38.854 53.448 38.0272C53.448 37.2005 53.1857 36.395 52.6989 35.7268L52.2476 35.1126L52.6989 34.4983C53.1753 33.8579 53.4409 33.0853 53.459 32.2873C53.477 31.4893 53.2467 30.7054 52.7997 30.044C52.3537 29.4014 51.7266 28.906 50.9981 28.621C50.4753 28.4229 50.2678 28.4241 44.9519 28.4452L39.4661 28.4756L38.805 28.8015C36.9201 29.7287 36.1816 31.9113 37.0854 33.8783C37.2235 34.1783 37.3963 34.4611 37.6 34.7211L37.995 35.1149L37.5941 35.531C36.9799 36.1746 36.5778 37.6035 36.7349 38.587C36.8427 39.2492 37.2448 40.1647 37.5965 40.5468L37.995 40.9442L37.5941 41.3603C36.9799 42.0039 36.5778 43.4316 36.7349 44.4162C36.8427 45.0774 37.2448 45.9928 37.5965 46.375L37.995 46.7724L37.5941 47.1885C37.2425 47.5471 36.8451 48.4697 36.7361 49.1648C36.6329 49.7942 36.749 50.7296 36.9166 51.0555C36.9857 51.1767 37.031 51.31 37.0502 51.4482V51.5314L36.9858 51.5853C36.9166 51.6428 36.8838 51.6686 31.6605 51.7026C28.6796 51.7213 24.6414 51.7354 20.2902 51.7412C14.1691 51.7495 3.70965 51.7412 3.33572 51.6744C3.08302 51.6043 2.85125 51.4735 2.66054 51.2935L2.34875 50.9817V3.0075L2.66054 2.69571C2.8489 2.51707 3.07775 2.38675 3.32751 2.31592C3.5725 2.2749 11.2656 2.2491 18.3046 2.2491H33.0941V5.90867C33.0941 9.14157 33.107 9.40178 33.2898 9.88472C33.5348 10.5318 34.1678 11.187 34.8664 11.5164L35.4045 11.7708L38.8835 11.8013L42.5654 11.8446V20.8494L42.7681 21.0698C42.9059 21.217 43.0878 21.3153 43.2863 21.35C43.4849 21.3847 43.6894 21.3538 43.8688 21.262C44.3799 20.9936 44.3998 20.983 44.3998 15.7656C44.3998 13.1047 44.367 10.8424 44.3389 10.6631C44.2943 10.4122 42.9956 9.07357 39.3606 5.42923L34.4597 0.516602L18.6597 0.527162C9.86833 0.527162 2.95241 0.568179 2.56559 0.605689C2.15223 0.751712 1.77395 0.982503 1.45501 1.28327C1.13607 1.58405 0.883509 1.94815 0.713521 2.35224ZM40.0217 30.2902C40.6887 30.1132 49.275 30.0851 50.017 30.2574C50.9758 30.4731 51.6205 31.2479 51.6205 32.188C51.6205 33.1281 50.9758 33.904 50.0158 34.1186C49.6841 34.1947 47.3936 34.2358 45.1008 34.2358C42.808 34.2358 40.5293 34.1971 40.1671 34.1186C39.1695 33.904 38.5494 33.1632 38.5494 32.188C38.5506 31.2549 39.1015 30.5457 40.0217 30.2902ZM40.0217 36.1195C40.6887 35.9413 49.2738 35.9132 50.017 36.0867C50.9758 36.3012 51.6205 37.0772 51.6205 38.0173C51.6205 38.9574 50.9758 39.7333 50.0158 39.9478C49.6841 40.024 47.3936 40.0651 45.1008 40.0651C42.808 40.0651 40.5293 40.0276 40.1671 39.9478C39.1695 39.7322 38.5494 38.9925 38.5494 38.0173C38.5506 37.0889 39.1015 36.375 40.0217 36.1242V36.1195ZM40.0217 41.9476C40.6887 41.7706 49.2738 41.7425 50.017 41.9148C50.9758 42.1305 51.6205 42.9053 51.6205 43.8454C51.6205 44.7855 50.9758 45.5615 50.0158 45.776C49.6841 45.8522 47.3948 45.8932 45.1008 45.8932C42.8068 45.8932 40.5293 45.8545 40.1671 45.776C39.1695 45.5603 38.5494 44.8206 38.5494 43.8442C38.5506 42.9123 39.1015 42.2031 40.0217 41.9523V41.9476ZM40.0217 47.7769C40.6887 47.5987 49.275 47.5706 50.017 47.7441C50.9758 47.9586 51.6205 48.7346 51.6205 49.6747C51.6205 50.6148 50.9758 51.3908 50.0158 51.6053C49.6841 51.6815 47.3948 51.7225 45.1008 51.7225C42.8068 51.7225 40.5293 51.685 40.1671 51.6053C39.1695 51.3896 38.5494 50.65 38.5494 49.6747C38.5506 48.7416 39.1015 48.0324 40.0217 47.7816V47.7769ZM34.9274 3.71316L41.14 9.92576L38.6221 9.96211C38.1193 9.97031 37.6996 9.97616 37.3456 9.97616C35.8897 9.97616 35.5662 9.88357 35.2286 9.49675L34.925 9.12046L34.9274 3.71316Z" fill="#211D1E"/>
<path d="M8.37268 14.4915C8.62939 14.7389 8.62938 14.7389 9.59878 14.7389H10.8132L10.846 18.9587C10.8765 22.725 10.8882 22.9641 11.0628 23.2091C11.1388 23.3108 11.2359 23.3948 11.3474 23.4555C11.4588 23.5162 11.5821 23.5521 11.7087 23.5608C11.8478 23.569 11.9869 23.5471 12.1168 23.4967C12.2466 23.4464 12.3641 23.3687 12.4613 23.2689L12.6594 23.0708V14.7342H13.9183C14.9358 14.7342 14.9358 14.7342 15.1972 14.4657C15.5711 14.0918 15.5758 13.6452 15.2124 13.2373L14.9627 12.9525L11.9819 12.9419H10.7721C9.55776 12.9419 8.83685 12.9548 8.74191 12.9724H8.73607C8.43599 13.0286 8.1195 13.5022 8.1195 13.8926C8.11144 14.0053 8.13018 14.1183 8.17419 14.2224C8.21819 14.3265 8.28621 14.4187 8.37268 14.4915Z" fill="#E9284A"/>
<path d="M27.5087 23.4598C27.6154 23.4036 27.9553 23.0214 28.2413 22.5561C28.3749 22.3439 28.5437 22.0778 28.7102 21.8106C28.9001 21.5128 29.09 21.2139 29.2271 20.99L29.8554 20.0066L31.0135 21.8329C32.0521 23.4634 32.2103 23.5829 32.7179 23.5829C33.0531 23.5829 33.5724 23.0765 33.5724 22.7483C33.5724 22.4201 33.4095 22.1177 32.1224 20.0957L30.9584 18.2741L32.2572 16.2122C32.9852 15.0646 33.5091 14.1632 33.5466 14.046C33.5714 13.8973 33.5595 13.7448 33.5119 13.6018C33.4643 13.4588 33.3825 13.3296 33.2735 13.2255C33.1906 13.1266 33.084 13.0504 32.9637 13.0039C32.8434 12.9574 32.7133 12.942 32.5855 12.9594C32.1166 13.0567 31.9665 13.1856 30.9796 14.7435C30.0113 16.2673 29.9176 16.2743 29.8343 16.2825L29.7499 16.2919L29.6866 16.231C29.6526 16.197 29.5694 16.0715 28.7055 14.7235C27.5333 12.8586 27.2473 12.7812 26.6659 13.0309C26.4929 13.1172 26.3509 13.2549 26.2592 13.4251C26.1675 13.5952 26.1306 13.7896 26.1536 13.9815C26.1841 14.114 26.6483 14.9603 27.443 16.2087L28.7524 18.2589L27.5685 20.1425C26.8956 21.1975 26.3482 22.0872 26.2673 22.2583C26.1728 22.423 26.1354 22.6143 26.1611 22.8024C26.1868 22.9905 26.274 23.1648 26.4092 23.2981C26.5497 23.4414 26.7332 23.5348 26.9317 23.564C27.1303 23.5932 27.3329 23.5566 27.5087 23.4598Z" fill="#E9284A"/>
<path d="M19.5952 13.3707C19.3174 13.8103 15.8278 22.1692 15.7129 22.6709C15.7124 22.8447 15.7615 23.015 15.8542 23.162C15.947 23.309 16.0798 23.4265 16.2369 23.5008C16.3857 23.5732 16.5525 23.6007 16.7167 23.5799C16.881 23.559 17.0356 23.4908 17.1617 23.3836C17.2906 23.2781 17.5356 22.8924 17.7584 22.3579L18.1452 21.4061H22.4916L22.8808 22.3145C23.2395 23.1749 23.5982 23.5922 23.978 23.5922C24.5242 23.5922 24.9275 23.2265 24.9368 22.7236C24.9028 22.1645 21.2632 13.611 20.8811 13.1961C20.6572 13.005 20.2516 12.9616 19.9023 13.1058C19.7806 13.1688 19.6753 13.2595 19.5952 13.3707ZM20.3348 16.7162C20.3981 16.7162 20.5294 16.7162 20.7275 17.212C20.8072 17.4218 21.0428 17.9774 21.255 18.4522L21.7239 19.5634H18.9352L19.5694 18.07C20.1449 16.7162 20.2293 16.7162 20.3348 16.7162Z" fill="#E9284A"/>
<path d="M43.638 25.6297C43.8114 25.5977 43.9707 25.5129 44.0943 25.3871C44.2178 25.2612 44.2996 25.1004 44.3284 24.9264C44.3635 24.7505 44.3433 24.568 44.2707 24.4039C44.1981 24.2398 44.0766 24.1022 43.9228 24.0098C43.6146 23.8187 43.4258 23.8035 43.08 23.9394C42.9231 24.0026 42.7895 24.1128 42.6976 24.2549C42.6057 24.3969 42.5599 24.5639 42.5666 24.733C42.5613 24.8704 42.5868 25.0072 42.6414 25.1334C42.696 25.2596 42.7782 25.3719 42.8819 25.4621C42.9875 25.5446 43.1102 25.6025 43.241 25.6315C43.3718 25.6605 43.5075 25.6599 43.638 25.6297Z" fill="#211D1E"/>
<path d="M8.36412 28.872C8.23847 28.9906 8.15188 29.1446 8.11586 29.3136C8.07985 29.4825 8.09612 29.6585 8.16251 29.818C8.23419 29.9815 8.35326 30.1197 8.50435 30.2148C8.65544 30.3099 8.83159 30.3574 9.01 30.3513C9.18365 30.3576 9.35511 30.311 9.50165 30.2177C9.6482 30.1243 9.7629 29.9886 9.83053 29.8285C9.89801 29.659 9.91297 29.4732 9.87346 29.2951C9.83395 29.117 9.74182 28.9549 9.609 28.8298C9.28782 28.5122 8.71578 28.5321 8.36412 28.872Z" fill="#E9284A"/>
<path d="M30.0581 29.7204C30.0976 29.5625 30.095 29.3969 30.0503 29.2404C30.0057 29.0838 29.9206 28.9417 29.8037 28.8284L29.5892 28.6221H12.9863L12.7367 28.8717C12.6467 28.9449 12.5766 29.0395 12.5328 29.1468C12.489 29.2541 12.4728 29.3708 12.4858 29.486C12.4858 29.786 12.5304 29.8951 12.7367 30.1014L12.9863 30.351H29.5892L29.8084 30.14C29.9206 30.0196 30.0057 29.8765 30.0581 29.7204Z" fill="#E9284A"/>
<path d="M29.8061 34.6577L29.5904 34.4502H8.61527L8.36441 34.701C8.15928 34.9062 8.11475 35.0152 8.11475 35.3153C8.11475 35.6154 8.15928 35.7244 8.36441 35.9295L8.61527 36.1803H29.5892L29.8085 35.9693C29.8975 35.8848 29.9684 35.783 30.0168 35.6702C30.0651 35.5573 30.09 35.4358 30.0897 35.313C30.0895 35.1902 30.0642 35.0688 30.0155 34.9561C29.9667 34.8434 29.8955 34.7419 29.8061 34.6577Z" fill="#E9284A"/>
<path d="M8.36412 40.5292C8.23847 40.6478 8.15188 40.8018 8.11586 40.9707C8.07985 41.1397 8.09612 41.3156 8.16251 41.4751C8.23419 41.6386 8.35326 41.7769 8.50435 41.872C8.65544 41.967 8.83159 42.0146 9.01 42.0085C9.18365 42.0148 9.35511 41.9682 9.50165 41.8748C9.6482 41.7815 9.7629 41.6458 9.83053 41.4857C9.89801 41.3162 9.91297 41.1304 9.87346 40.9523C9.83395 40.7742 9.74182 40.612 9.609 40.487C9.28782 40.1705 8.71578 40.1881 8.36412 40.5292Z" fill="#E9284A"/>
<path d="M30.0581 40.9196C30.0053 40.7567 29.9168 40.6078 29.799 40.4835L29.5869 40.2795H12.9863L12.7367 40.5292C12.6467 40.6024 12.5766 40.6969 12.5328 40.8043C12.489 40.9116 12.4728 41.0283 12.4858 41.1435C12.4858 41.4435 12.5304 41.5526 12.7367 41.7589L12.9863 42.0085H29.5892L29.8084 41.7975C29.9226 41.6854 30.0057 41.5455 30.0494 41.3916C30.0932 41.2376 30.0962 41.075 30.0581 40.9196Z" fill="#E9284A"/>
<path d="M29.806 46.3151L29.5903 46.1077H8.72416L8.47332 46.3585C8.26702 46.5637 8.22363 46.6727 8.22363 46.9728C8.22363 47.2728 8.26702 47.3818 8.47332 47.587L8.72416 47.8378H29.5891L29.8083 47.6268C29.8974 47.5423 29.9683 47.4405 30.0166 47.3276C30.065 47.2148 30.0898 47.0933 30.0896 46.9705C30.0894 46.8477 30.0641 46.7263 30.0154 46.6136C29.9666 46.5009 29.8954 46.3993 29.806 46.3151Z" fill="#E9284A"/>
</svg>
