<svg width="60" height="58" viewBox="0 0 60 58" fill="none" xmlns="http://www.w3.org/2000/svg">
<path d="M59.6766 10.9313C58.692 7.25058 56.5351 4.3084 53.3937 2.36257C52.2128 1.63947 50.928 1.10181 49.584 0.768379C48.1423 0.393279 45.247 0.287776 43.77 0.55738C39.3391 1.37791 35.4357 4.4256 33.5602 8.52826L33.1031 9.52462H8.65122L8.38161 9.79423C8.11201 10.0638 8.10029 10.1107 8.02996 13.4046C7.99479 15.2332 7.92447 22.9931 7.8893 30.6475L7.81896 44.5731H4.30239C0.5045 44.5731 0.188021 44.62 0.0356365 45.2061C0.000470875 45.3585 -0.0112453 46.8706 0.0121985 48.5702C0.059086 51.571 0.059086 51.6883 0.363855 52.4502C0.749087 53.5145 1.36103 54.4824 2.15731 55.2869C3.01301 56.166 3.96248 56.7521 5.205 57.1976L6.14275 57.5258H39.3157L40.1362 57.2562C42.4689 56.4825 44.2389 54.7477 45.0946 52.4033L45.4111 51.5476L45.4462 39.814L45.4697 28.0804L47.0287 28.0101C48.1657 27.9632 48.8808 27.8694 49.7482 27.6349C52.3052 26.948 54.6135 25.5468 56.403 23.5954C58.1925 21.644 59.389 19.2232 59.8524 16.6164C60.0986 15.1629 60.0048 12.1738 59.6766 10.9313ZM19.6464 55.5729C6.78745 55.5377 6.72882 55.5377 6.00207 55.2916C5.05381 54.9708 4.20271 54.4142 3.52876 53.674C2.33313 52.408 1.98148 51.271 1.98148 48.528V46.6877H30.0905L30.1374 49.1141C30.1726 51.2827 30.2078 51.6343 30.4539 52.3142C30.7821 53.2637 31.4737 54.4359 32.095 55.104L32.5521 55.6081L19.6464 55.5729ZM43.477 38.9513C43.477 46.1368 43.4301 50.298 43.348 50.7904C42.9143 53.4864 40.5465 55.4908 37.7918 55.5026C36.4712 55.493 35.1948 55.0248 34.1813 54.178C33.1678 53.3313 32.48 52.1586 32.2357 50.8607C32.1653 50.4739 32.1067 49.0438 32.1067 47.6724C32.1067 45.3983 32.0833 45.1639 31.884 44.9177L31.6613 44.6364L20.7365 44.6012L9.82341 44.5778L9.88202 40.2055C9.92891 37.8142 9.98751 30.3708 10.0227 23.6776L10.093 11.522H32.599L32.5287 11.8385C32.3646 12.6004 32.3177 14.9097 32.4467 15.8826C32.599 17.0548 32.9624 18.52 33.2789 19.2233L33.5016 19.7274H23.9248L23.6201 20.0907C23.2332 20.5479 23.2332 20.8996 23.6201 21.3567L23.9248 21.7201H34.5449L35.0723 22.4586C36.772 24.8381 39.5032 26.7488 42.3399 27.5459L43.477 27.8624V38.9513ZM54.5072 22.5523C49.8888 27.1708 42.5509 27.1825 37.9091 22.5875C36.4438 21.134 35.4006 19.3288 34.7793 17.1954C34.5449 16.3984 34.5097 15.9998 34.5097 14.2767C34.5097 12.5536 34.5449 12.1433 34.7793 11.2876C35.3572 9.14233 36.5207 7.20021 38.1396 5.67861C39.7585 4.157 41.7689 3.11596 43.9458 2.67201C45.036 2.4493 47.4038 2.46103 48.4822 2.68375C50.2463 3.03964 51.9057 3.79386 53.3339 4.88884C54.762 5.98382 55.9211 7.39061 56.7227 9.00183C58.9967 13.5804 58.1293 18.9256 54.5072 22.5477V22.5523Z" fill="#211D1E"/>
<path d="M18.3334 23.8065C19.2711 23.7479 19.9041 23.4665 20.455 22.8687C21.088 22.2006 21.2638 21.7551 21.2638 20.7822C21.2638 19.8093 21.088 19.3639 20.455 18.6957C19.8806 18.0745 19.2711 17.8166 18.2748 17.7697C17.5246 17.7345 17.3018 17.7697 16.8095 18.0041C14.8989 18.9185 14.3948 21.2394 15.778 22.775C16.4813 23.5556 17.255 23.8721 18.3334 23.8065ZM17.3135 20.161C17.7941 19.7273 18.2747 19.6804 18.8257 20.032C19.4235 20.4071 19.2945 21.298 18.6147 21.6379C18.1575 21.8607 17.7355 21.7786 17.3135 21.4035C17.0322 21.1526 17.0322 20.4071 17.3135 20.1563V20.161Z" fill="#E9284A"/>
<path d="M17.9584 32.2464C18.9313 32.305 19.6229 32.0705 20.2911 31.4727C21.0178 30.8163 21.2523 30.2536 21.264 29.2221C21.264 28.4719 21.2171 28.2609 20.9475 27.7921C20.5582 27.1257 19.9489 26.6159 19.2244 26.3503C18.6734 26.1627 17.7123 26.1276 17.2199 26.2799C15.0397 26.9481 14.2543 29.7144 15.8016 31.3086C16.3994 31.9135 17.0206 32.1831 17.9584 32.2464ZM17.3958 28.5422C17.8295 28.1789 18.5445 28.1906 18.9196 28.5774C19.4119 29.058 19.2713 29.7731 18.6148 30.113C17.5833 30.6358 16.5283 29.2878 17.3958 28.5376V28.5422Z" fill="#E9284A"/>
<path d="M23.7489 30.0379C24.0537 30.2723 24.1709 30.2723 30.9696 30.2489L37.8738 30.2137L38.0965 29.9324C38.3192 29.6628 38.3896 29.0649 38.2489 28.6898C38.0496 28.1741 37.8855 28.1624 30.8524 28.1624C25.7182 28.1624 24.1241 28.1975 23.9013 28.3147C23.2566 28.643 23.1746 29.5807 23.7489 30.0379Z" fill="#211D1E"/>
<path d="M16.9383 34.844C16.1677 35.1634 15.5504 35.7681 15.2152 36.5319C15.0159 37.0008 14.9807 37.2704 15.0159 37.8917C15.0862 38.7591 15.2972 39.2397 15.8716 39.8258C16.446 40.4119 16.9383 40.6111 17.8292 40.6815C18.8724 40.7518 19.5523 40.5526 20.2204 39.9665C20.5233 39.7182 20.7737 39.412 20.9568 39.0658C21.14 38.7196 21.2523 38.3404 21.2871 37.9503C21.5216 35.6879 19.1303 33.9883 16.9383 34.844ZM18.931 38.3254C18.2394 39.1342 16.7859 38.384 17.1258 37.3876C17.372 36.6843 18.3332 36.485 18.9076 37.0125C19.2944 37.3759 19.3061 37.88 18.931 38.3254V38.3254Z" fill="#E9284A"/>
<path d="M38.0145 36.9657C37.7097 36.7195 37.6042 36.7195 30.8758 36.7195C24.2178 36.7195 24.042 36.7195 23.7489 36.9539C23.5719 37.1059 23.4418 37.3051 23.3738 37.5283C23.2918 37.9151 23.5497 38.5247 23.8427 38.6419C23.9482 38.6771 27.1366 38.7122 30.9227 38.7122H37.8152L38.0613 38.4426C38.4482 38.0324 38.413 37.2868 38.0145 36.9657Z" fill="#211D1E"/>
<path d="M50.7082 9.28333C50.2114 8.91075 49.6259 8.67436 49.0097 8.59758C48.8114 8.56608 48.6113 8.54651 48.4107 8.53898C48.2313 8.53898 48.1118 8.53076 48.0508 8.53076H43.5473V14.3987H42.3657V16.1008H43.5473V17.2495H42.3657V18.8109H43.5473V20.4308H45.54V18.8109H49.4153V17.2495H45.54V16.1008H48.052C48.1129 16.1008 48.2325 16.1008 48.4119 16.0879C48.5912 16.075 48.7905 16.0621 49.0109 16.0351C50.0268 15.8788 50.7844 15.4791 51.2837 14.836C51.7831 14.1928 52.0335 13.3778 52.0351 12.3908C52.042 11.7841 51.9313 11.1819 51.7092 10.6173C51.4996 10.0918 51.1541 9.63148 50.7082 9.28333V9.28333ZM49.72 13.6204C49.5161 13.9533 49.1855 14.1831 48.7283 14.3097C48.5869 14.3508 48.4415 14.3772 48.2946 14.3882C48.1657 14.3964 48.0602 14.4011 47.9688 14.4011H45.5388V10.4016H47.9688C48.0403 10.4016 48.1493 10.4016 48.2946 10.4098C48.4413 10.4147 48.5868 10.4367 48.7283 10.4754C49.0239 10.5411 49.2929 10.6938 49.5008 10.9138C49.6903 11.1202 49.8292 11.3678 49.9064 11.6371C49.9841 11.9012 50.0236 12.1752 50.0236 12.4506C50.0333 12.8604 49.9281 13.2648 49.72 13.6181V13.6204Z" fill="#E9284A"/>
</svg>
