<svg width="58" height="60" viewBox="0 0 58 60" fill="none" xmlns="http://www.w3.org/2000/svg">
<path d="M57.4403 28.6484C57.0773 27.8751 56.4553 27.2531 55.682 26.8901L55.0842 26.6088H44.7104V18.72C44.7104 11.429 44.6986 10.8077 44.5111 10.4678C44.2297 9.97545 35.4031 0.937864 34.9343 0.668261C34.5943 0.48071 33.7504 0.468994 21.6768 0.468994C9.9784 0.468994 8.74757 0.492432 8.39591 0.668261C8.12693 0.81856 7.89473 1.02675 7.71607 1.27779C7.45818 1.66462 7.43475 1.81701 7.43475 3.01264V4.33839H6.19222C4.16433 4.33839 3.66026 4.74865 3.57821 6.41316L3.54306 7.38608H2.5514C1.36748 7.38608 0.875177 7.57362 0.453189 8.19488L0.171875 8.61688V56.7001L0.441456 57.0986C0.623689 57.3512 0.845334 57.5728 1.09789 57.755L1.49643 58.0246H32.2664L32.6532 58.3997C32.953 58.652 33.2839 58.8647 33.6379 59.0327L34.224 59.314H55.0889L55.6867 59.0327C56.46 58.6697 57.082 58.0477 57.445 57.2744L57.7263 56.6766V29.2474L57.4403 28.6484ZM37.0442 4.94675C38.1929 6.11894 39.8575 7.81862 40.7249 8.70949L42.3074 10.3388L40.0802 10.2919C37.982 10.2451 37.8179 10.2333 37.2083 9.94029C36.3885 9.56553 35.731 8.90806 35.3563 8.08822C35.0749 7.47868 35.0515 7.30285 35.0046 5.12258L34.946 2.78993L37.0442 4.94675ZM31.5818 55.7377V56.6168H2.14817L1.85512 56.3238L1.57381 56.0425L1.59722 32.587C1.63238 9.51829 1.63241 9.11974 1.85512 8.95563C1.99578 8.85013 2.37086 8.79153 2.82802 8.79153H3.56653V53.534L3.83611 53.9325C4.01834 54.1851 4.23999 54.4067 4.49255 54.5889L4.89108 54.8586H31.5818V55.7377ZM31.5818 52.3383V53.4519H5.54752L5.2662 53.1589L4.97316 52.8776V29.6682C4.97316 15.4144 5.02003 6.35339 5.07864 6.16584C5.2193 5.81419 5.37168 5.77902 6.53214 5.75558L7.43475 5.74384V27.863C7.43475 49.7361 7.43475 49.994 7.66919 50.3808C7.82928 50.6229 8.03657 50.8302 8.27869 50.9903C8.65379 51.2248 8.89996 51.2248 20.1295 51.2248H31.5818V52.3383ZM31.8632 28.6484C31.5935 29.2345 31.5818 29.3166 31.5818 32.7042V49.8181H20.4695C11.0568 49.8181 9.32196 49.7947 9.12269 49.654C8.89998 49.4899 8.89995 49.0914 8.86479 26.1751C8.85307 13.3631 8.86482 2.69615 8.89999 2.48515C8.94688 2.23899 9.06407 2.06317 9.22818 1.99284C9.36884 1.93423 14.843 1.88735 21.5244 1.88735L33.5628 1.87562L33.598 5.00536L33.6332 8.14683L33.9614 8.81497C34.3482 9.60034 35.1922 10.5733 35.8369 10.9835C36.8918 11.6517 37.349 11.722 40.4553 11.722H43.3037V26.6088H38.772C34.2357 26.6088 34.2239 26.6088 33.6261 26.8901C32.8511 27.2522 32.2273 27.8743 31.8632 28.6484ZM56.4088 46.8525L56.3736 56.2066L56.0806 56.7341C55.8819 57.0734 55.5994 57.3559 55.2601 57.5546L54.7326 57.8476H44.8276C39.3769 57.8476 34.7819 57.8125 34.6061 57.7539C34.1958 57.6484 33.5042 57.0388 33.2463 56.57C33.0588 56.2417 33.047 55.3978 33.0119 46.8525L32.9767 37.5102H56.4439L56.4088 46.8525ZM44.7104 36.1035H32.965L33.0119 32.9035C33.047 30.184 33.0822 29.6682 33.2463 29.3517C33.4925 28.8946 34.1958 28.2733 34.5475 28.203C34.6881 28.1678 34.9109 28.1209 35.0398 28.0858C35.1687 28.0506 39.6582 28.0506 45.0034 28.0623L54.7326 28.074L55.2601 28.3671C55.5994 28.5658 55.8819 28.8483 56.0806 29.1876C56.3736 29.7151 56.3736 29.7503 56.4088 32.9035L56.4557 36.1035H44.7104Z" fill="#211D1E"/>
<path d="M11.9827 5.46258C11.9247 5.40317 11.8554 5.35596 11.7789 5.32372C11.7024 5.29149 11.6203 5.2749 11.5373 5.2749C11.4543 5.2749 11.3721 5.29149 11.2956 5.32372C11.2191 5.35596 11.1498 5.40317 11.0918 5.46258C10.8574 5.62668 10.8222 5.73218 10.8574 6.24794C10.8925 6.7637 10.9394 6.88092 11.2207 7.0333C11.5021 7.18568 11.5724 7.18568 11.8655 7.0333C12.1351 6.88092 12.1819 6.7637 12.2171 6.24794C12.2523 5.73218 12.2171 5.62786 11.9827 5.46258Z" fill="#E9284A"/>
<path d="M34.6178 11.9446C32.5079 8.81488 28.628 7.06833 24.7832 7.50204C23.5601 7.67772 22.3705 8.03736 21.2549 8.56874C18.7816 9.81126 16.7771 12.2728 15.9683 15.0627C15.7339 15.8715 15.6987 16.27 15.6987 17.8759C15.6987 19.4818 15.7339 19.8804 15.9683 20.6657C16.5007 22.5103 17.5248 24.1752 18.931 25.4823C20.3372 26.7894 22.0725 27.6893 23.9509 28.0857C25.2872 28.3436 27.6316 28.2615 28.8859 27.8981C35.7314 25.9171 38.6267 17.8642 34.6178 11.9446ZM25.1349 8.99071C25.8499 8.89694 27.4792 9.03762 28.3232 9.27205C29.3551 9.58317 30.3321 10.0538 31.2185 10.6669L31.7343 11.042L28.8859 13.8905L26.0374 16.7389L23.8806 13.574C22.6967 11.8391 21.7003 10.3505 21.6652 10.2684C21.5479 9.97537 23.7282 9.16654 25.1349 8.99071ZM33.9849 21.7441C33.4152 22.9263 32.5895 23.9667 31.5676 24.7899C30.5457 25.6131 29.3533 26.1983 28.077 26.5032C26.6 26.8783 24.6425 26.7845 23.2241 26.2922C20.2468 25.249 18.1486 22.9632 17.3867 19.9155C17.035 18.5558 17.1171 16.5279 17.5508 15.1799C17.9493 13.9842 18.723 12.6479 19.5552 11.7805C20.1296 11.171 20.2351 11.1124 20.3758 11.253C20.4578 11.3468 21.63 13.0348 22.9663 15.004C24.3026 16.9733 25.4631 18.6144 25.5334 18.6613C25.6037 18.7082 27.7371 18.755 30.269 18.755C34.5709 18.755 34.864 18.7668 34.864 18.9543C34.8523 19.5052 34.4538 20.7947 33.9849 21.7441ZM31.2701 17.3496H27.6597L30.2386 14.7708L32.8174 12.1802L33.1338 12.5671C33.4398 12.9706 33.7068 13.4023 33.931 13.8565C34.4233 14.7942 34.8687 16.2712 34.8687 16.9628V17.3496H31.2701Z" fill="#E9284A"/>
<path d="M11.9945 8.52198C11.9361 8.45906 11.8654 8.40889 11.7867 8.37457C11.708 8.34024 11.6231 8.32251 11.5373 8.32251C11.4515 8.32251 11.3665 8.34024 11.2879 8.37457C11.2092 8.40889 11.1385 8.45906 11.0801 8.52198C10.834 8.73297 10.834 8.75642 10.8574 13.832L10.8926 18.931L11.2208 19.0834C11.4787 19.2123 11.5959 19.2123 11.8655 19.0834L12.182 18.931L12.2172 13.832C12.2406 8.75642 12.2406 8.73297 11.9945 8.52198Z" fill="#E9284A"/>
<path d="M14.7843 37.4866C15.5228 37.4514 15.5931 37.4279 15.7338 37.1232C15.8627 36.8653 15.8627 36.7481 15.7338 36.4785C15.5931 36.1854 15.5228 36.162 14.7609 36.1268C14.2217 36.1034 13.8934 36.1385 13.7879 36.244C13.6004 36.4316 13.6121 37.2169 13.8114 37.3811C13.9216 37.4631 14.292 37.5112 14.7843 37.4866Z" fill="#E9284A"/>
<path d="M25.5453 36.1621L21.4309 36.1269C17.5627 36.1035 17.3048 36.1152 17.129 36.3145C16.8711 36.5958 16.8711 37.0764 17.1407 37.3225C17.34 37.4984 17.7737 37.5101 21.4543 37.4867L25.5453 37.4515L25.6977 37.1233C25.8266 36.8654 25.8266 36.7482 25.6977 36.4786L25.5453 36.1621Z" fill="#E9284A"/>
<path d="M17.9258 42.1403L15.9331 42.1051C14.4795 42.0816 13.8934 42.1168 13.7879 42.2223C13.6004 42.4099 13.6121 43.1952 13.8114 43.3593C13.9169 43.4531 14.585 43.4883 15.9447 43.4648L17.9258 43.4297L18.0781 43.1014C18.2071 42.8436 18.2071 42.7263 18.0781 42.4567L17.9258 42.1403Z" fill="#E9284A"/>
<path d="M24.4785 42.1404L22.1341 42.1052C19.9773 42.0817 19.7663 42.0935 19.5905 42.2927C19.3326 42.5858 19.3326 43.0546 19.6139 43.3008C19.8015 43.4649 20.1062 43.4884 22.1575 43.4649L24.4785 43.4298L24.6661 43.1015C24.8185 42.8202 24.8185 42.7499 24.6661 42.4568L24.4785 42.1404Z" fill="#E9284A"/>
<path d="M35.1216 29.68C34.9223 29.8792 34.9223 34.7087 35.1216 34.9079C35.3209 35.1072 54.2166 35.1072 54.4159 34.9079C54.6151 34.7087 54.6151 29.8792 54.4159 29.68C54.2166 29.4807 35.3209 29.4807 35.1216 29.68ZM53.0327 32.294V33.6431H36.3876V30.9471H53.0327V32.294Z" fill="#211D1E"/>
<path d="M36.7981 43.7578C37.4546 44.1094 38.7205 44.1094 39.3886 43.7578C39.8548 43.511 40.2464 43.1438 40.5226 42.6944C40.7989 42.245 40.9497 41.7298 40.9594 41.2024C40.9594 40.4053 40.7015 39.8309 40.0803 39.2097C39.166 38.2954 38.0406 38.0844 36.9036 38.6118C34.7351 39.6211 34.6694 42.6207 36.7981 43.7578ZM36.9036 40.6515C37.267 39.9013 38.111 39.6434 38.7791 40.0771C39.6934 40.6866 39.6231 41.9174 38.6384 42.3863C37.56 42.9032 36.3879 41.7416 36.9036 40.6515Z" fill="#211D1E"/>
<path d="M42.038 40.2765C41.8323 40.9338 41.8639 41.6424 42.1274 42.2787C42.3909 42.915 42.8696 43.4385 43.4798 43.7579C43.8315 43.9455 44.1597 44.0041 44.7692 44.0041C45.3787 44.0041 45.707 43.9455 46.0586 43.7579C46.6545 43.4445 47.1243 42.9355 47.3891 42.3164C47.6538 41.6973 47.6972 41.0059 47.5121 40.3586C47.3128 39.6318 46.3868 38.6823 45.6952 38.4713C45.0647 38.3051 44.4013 38.3092 43.7728 38.4831C43.1985 38.6706 42.2138 39.6787 42.038 40.2765ZM45.4139 40.0538C46.211 40.5227 46.3165 41.5073 45.6366 42.152C44.6285 43.1249 42.9875 41.9293 43.5853 40.6516C43.9369 39.9249 44.7505 39.6552 45.4139 40.0538Z" fill="#211D1E"/>
<path d="M50.1494 43.7581C50.8175 44.1097 52.0835 44.1097 52.7399 43.7581C54.0762 43.043 54.6623 41.4606 54.0879 40.1125C53.4667 38.659 51.8842 37.9909 50.3721 38.5301C49.7625 38.7411 48.9068 39.6437 48.7193 40.3001C48.5155 40.9527 48.547 41.6562 48.8083 42.288C49.0696 42.9198 49.5441 43.44 50.1494 43.7581ZM50.29 40.5697C50.6885 39.8898 51.4622 39.6788 52.1069 40.0539C52.8688 40.5111 52.9743 41.5192 52.3179 42.1522C52.0366 42.4218 51.8608 42.4921 51.4388 42.4921C50.9699 42.4921 50.8527 42.4335 50.501 42.0584C50.0556 41.5543 49.9852 41.0855 50.29 40.5697Z" fill="#211D1E"/>
<path d="M37.0911 44.6957C36.8684 44.7661 36.4113 45.0943 36.083 45.4225C35.6142 45.8914 35.4501 46.1492 35.3329 46.6415C35.0046 48.0247 35.5673 49.3142 36.7981 49.9706C37.1497 50.1581 37.478 50.2167 38.0875 50.2167C39.3417 50.2167 40.1974 49.6658 40.7132 48.5288C41.2055 47.4504 40.9711 46.3133 40.0802 45.4225C39.2597 44.5902 38.2164 44.3441 37.0911 44.6957ZM38.6384 48.5991C37.56 49.1149 36.3878 47.9544 36.9036 46.8643C36.9752 46.6968 37.0813 46.5462 37.2149 46.4224C37.3486 46.2986 37.5068 46.2043 37.6793 46.1457C37.8518 46.0871 38.0347 46.0655 38.2161 46.0823C38.3975 46.099 38.5734 46.1538 38.7322 46.243C39.6817 46.7353 39.6348 48.1302 38.6384 48.5991Z" fill="#211D1E"/>
<path d="M45.6947 44.684C45.0363 44.4977 44.3366 44.5182 43.6902 44.7426C43.0807 44.9536 42.225 45.8562 42.0374 46.5126C41.8331 47.1665 41.8656 47.8715 42.1293 48.5038C42.3929 49.1362 42.8709 49.6555 43.4793 49.9706C43.8309 50.1581 44.1591 50.2167 44.7687 50.2167C45.3782 50.2167 45.7064 50.1581 46.0581 49.9706C46.654 49.6572 47.1238 49.1481 47.3885 48.529C47.6532 47.9099 47.6967 47.2186 47.5116 46.5712C47.3123 45.8445 46.391 44.8962 45.6947 44.684ZM45.6361 48.3647C44.628 49.3376 42.9869 48.142 43.5847 46.8643C43.9364 46.1375 44.7452 45.8679 45.4134 46.2664C46.2105 46.7353 46.3159 47.72 45.6361 48.3647Z" fill="#211D1E"/>
<path d="M50.1494 49.9705C50.8175 50.3221 52.0835 50.3221 52.7399 49.9705C54.0762 49.2554 54.6623 47.673 54.0879 46.3249C53.4667 44.8714 51.8842 44.2033 50.3721 44.7425C49.7625 44.9535 48.9068 45.8561 48.7193 46.5125C48.5155 47.1651 48.547 47.8686 48.8083 48.5004C49.0696 49.1322 49.5441 49.6524 50.1494 49.9705ZM50.29 46.7821C50.6885 46.1022 51.4622 45.8912 52.1069 46.2663C52.8688 46.7235 52.9743 47.7316 52.3179 48.3646C52.0366 48.6342 51.8608 48.7045 51.4388 48.7045C50.9699 48.7045 50.8527 48.6459 50.501 48.2708C50.0556 47.7667 49.9852 47.2979 50.29 46.7821Z" fill="#211D1E"/>
<path d="M37.0134 50.9553C36.3101 51.2014 35.5248 52.104 35.3372 52.8777C35.009 54.2374 35.5834 55.5386 36.8025 56.1833C37.1541 56.3708 37.4823 56.4294 38.0919 56.4294C39.3461 56.4294 40.2018 55.8785 40.7176 54.7415C41.2099 53.663 40.9754 52.526 40.0846 51.6117C39.2476 50.7677 38.1856 50.5333 37.0134 50.9553ZM39.0413 54.4836C38.6896 54.8587 38.5724 54.9173 38.1035 54.9173C37.6816 54.9173 37.5057 54.847 37.2244 54.5774C36.0991 53.499 37.3534 51.7407 38.7366 52.4557C39.5055 52.8542 39.6461 53.8049 39.0366 54.4836H39.0413Z" fill="#211D1E"/>
<path d="M45.6947 50.8966C45.0363 50.7104 44.3366 50.7308 43.6902 50.9552C43.0807 51.1662 42.225 52.0688 42.0374 52.7253C41.8331 53.3792 41.8656 54.0842 42.1293 54.7165C42.3929 55.3488 42.8709 55.8681 43.4793 56.1832C43.8309 56.3708 44.1591 56.4294 44.7687 56.4294C45.3782 56.4294 45.7064 56.3708 46.0581 56.1832C46.654 55.8698 47.1238 55.3608 47.3885 54.7417C47.6532 54.1226 47.6967 53.4312 47.5116 52.7839C47.3123 52.0571 46.391 51.1088 45.6947 50.8966ZM43.9012 54.5773C42.7876 53.5106 44.0302 51.7406 45.4016 52.4439C45.6228 52.5881 45.8042 52.7857 45.9291 53.0183C46.6254 54.2843 44.9327 55.5737 43.9012 54.5773Z" fill="#211D1E"/>
<path d="M52.3768 50.8966C51.7184 50.7104 51.0187 50.7308 50.3724 50.9552C49.7628 51.1662 48.9071 52.0688 48.7196 52.7253C48.5153 53.3792 48.5478 54.0842 48.8114 54.7165C49.0751 55.3488 49.5531 55.8681 50.1614 56.1832C50.513 56.3708 50.8413 56.4294 51.4508 56.4294C52.0603 56.4294 52.3885 56.3708 52.7402 56.1832C53.3361 55.8698 53.8059 55.3608 54.0707 54.7417C54.3354 54.1226 54.3788 53.4312 54.1937 52.7839C53.9944 52.0571 53.0731 51.1088 52.3768 50.8966ZM52.3182 54.5773C52.0369 54.8469 51.8611 54.9172 51.4391 54.9172C50.9702 54.9172 50.853 54.8586 50.5013 54.4835C50.0559 53.9795 49.9855 53.5106 50.2903 52.9949C50.6888 52.315 51.4625 52.104 52.1072 52.4791C52.8691 52.9362 52.9746 53.9443 52.3182 54.5773Z" fill="#211D1E"/>
</svg>
