<svg width="56" height="56" viewBox="0 0 56 56" fill="none" xmlns="http://www.w3.org/2000/svg">
<g clip-path="url(#clip0_2303_3208)">
<path d="M11.3312 0.284379L11.0469 0.579691V28V55.4203L11.3312 55.7156C11.5609 55.9453 11.725 56 12.1297 56C12.6109 56 12.7203 55.9234 14.4703 54.5781C15.4766 53.7906 16.3406 53.1563 16.3844 53.1563C16.4391 53.1563 17.1062 53.7906 17.8719 54.5781C19.6656 56.4156 19.4906 56.3938 22.0391 55.0156L23.8547 54.0313L25.7141 55.0156C28.2734 56.3719 28.0219 56.4047 30.275 54.5234L32.0469 53.0469L33.7531 54.5234C35.9406 56.4047 35.7328 56.3828 38.1719 55.0266L39.9219 54.0422L41.6719 55.0266C43.1266 55.8359 43.5094 56 43.9031 56C44.2641 56 44.4391 55.9344 44.6687 55.7156L44.9531 55.4203V44.1656C44.9531 34.0266 44.9312 32.8891 44.7781 32.6484C44.5594 32.3094 43.9797 32.1453 43.4875 32.2766C42.7219 32.4844 42.7656 31.8172 42.7437 42.9188L42.7109 52.9375L41.5297 52.2813C39.9547 51.4063 39.8672 51.4063 38.1391 52.3797C37.4062 52.7844 36.6516 53.2 36.4656 53.2984L36.1266 53.4734L34.3437 51.9531C31.9266 49.8859 32.1781 49.8859 29.7062 51.9531C28.7109 52.7953 27.8578 53.4844 27.8359 53.4844C27.8141 53.4844 27.0047 53.0688 26.0422 52.5547C24.6969 51.8438 24.1828 51.625 23.8547 51.625C23.5266 51.625 23.0344 51.8328 21.7219 52.5438L20.0266 53.4625L18.5391 51.9422L17.0516 50.4219H16.5375C16.0562 50.4219 15.9359 50.4875 14.6891 51.4609C13.9562 52.0297 13.3328 52.5 13.3 52.5C13.2672 52.5 13.2344 41.1797 13.2344 27.3438V2.1875H28H42.7656V13.1141V24.0406L43.1047 24.325C43.5641 24.7078 44.1547 24.7078 44.6141 24.325L44.9531 24.0406V12.3047V0.579691L44.6687 0.284379L44.3734 4.00556e-06H28H11.6266L11.3312 0.284379Z" fill="#191717"/>
<path d="M22.2687 4.65938C22.0391 4.88907 21.9844 5.05313 21.9844 5.46876C21.9844 5.88438 22.0391 6.04845 22.2687 6.27813L22.5641 6.56251H28H33.4359L33.7312 6.27813C33.9609 6.04845 34.0156 5.88438 34.0156 5.46876C34.0156 5.05313 33.9609 4.88907 33.7312 4.65938L33.4359 4.37501H28H22.5641L22.2687 4.65938Z" fill="#E9284A"/>
<path d="M17.3469 9.03438C17.1172 9.26407 17.0625 9.42813 17.0625 9.84375C17.0625 10.2594 17.1172 10.4234 17.3469 10.6531L17.6422 10.9375H21.8203H25.9984L26.2938 10.6531C26.6984 10.2375 26.6984 9.45 26.2938 9.03438L25.9984 8.75H21.8203H17.6422L17.3469 9.03438Z" fill="#E9284A"/>
<path d="M29.5969 9.03438C29.3672 9.26407 29.3125 9.42813 29.3125 9.84375C29.3125 10.2594 29.3672 10.4234 29.5969 10.6531L29.8922 10.9375H34.125H38.3578L38.6531 10.6531C38.8828 10.4234 38.9375 10.2594 38.9375 9.84375C38.9375 9.42813 38.8828 9.26407 38.6531 9.03438L38.3578 8.75H34.125H29.8922L29.5969 9.03438Z" fill="#E9284A"/>
<path d="M20.7594 13.0812C20.3328 13.3109 20.2344 13.5516 20.2344 14.4594V15.2578L19.6437 15.5094C18.9109 15.8266 18.1344 16.5922 17.7406 17.3906C17.4781 17.9156 17.4453 18.1234 17.4453 19.0312C17.4453 19.9281 17.4891 20.1578 17.7406 20.6937C18.3641 22.0391 19.4359 22.7937 20.9672 22.9797C21.9406 23.1 22.3672 23.3187 22.7172 23.8437C23.2203 24.5766 22.9359 25.5828 22.1047 26.075C21.7875 26.2609 21.4594 26.3047 20.0922 26.3594C18.4734 26.4141 18.4625 26.4141 18.2 26.7203C17.8172 27.1687 17.8391 27.8031 18.2547 28.2297C18.55 28.525 18.6375 28.5469 19.4031 28.5469H20.2344V29.3672C20.2344 30.1 20.2672 30.2312 20.4969 30.4609C20.9891 30.9531 21.6672 30.9531 22.1594 30.4609C22.3891 30.2312 22.4219 30.1 22.4219 29.3453V28.4922L23.0234 28.2297C23.7344 27.9234 24.6203 27.0266 24.9703 26.2828C25.1672 25.8562 25.2109 25.5609 25.2109 24.7187C25.2109 23.8219 25.1672 23.5922 24.9156 23.0562C24.2922 21.7109 23.2203 20.9562 21.6891 20.7703C20.7156 20.65 20.2891 20.4312 19.9391 19.9062C19.4359 19.1734 19.7203 18.1672 20.5516 17.675C20.8687 17.4891 21.1969 17.4453 22.5641 17.3906C24.1828 17.3359 24.1937 17.3359 24.4562 17.0297C24.8391 16.5812 24.8172 15.9469 24.4016 15.5203C24.1062 15.225 24.0187 15.2031 23.2531 15.2031H22.4219V14.4266C22.4219 13.5406 22.3234 13.3 21.875 13.0703C21.4812 12.8625 21.1422 12.8625 20.7594 13.0812Z" fill="#E9284A"/>
<path d="M27.3 14.5031C27.0703 14.7328 27.0156 14.8969 27.0156 15.3125C27.0156 15.7281 27.0703 15.8922 27.3 16.1219L27.5953 16.4062H32.9766H38.3578L38.6531 16.1219C39.0578 15.7063 39.0578 14.9188 38.6531 14.5031L38.3578 14.2188H32.9766H27.5953L27.3 14.5031Z" fill="#E9284A"/>
<path d="M27.3 18.8781C27.0703 19.1078 27.0156 19.2719 27.0156 19.6875C27.0156 20.1031 27.0703 20.2672 27.3 20.4969L27.5953 20.7812H32.9766H38.3578L38.6531 20.4969C39.0578 20.0813 39.0578 19.2938 38.6531 18.8781L38.3578 18.5938H32.9766H27.5953L27.3 18.8781Z" fill="#E9284A"/>
<path d="M27.3 23.2531C27.0703 23.4828 27.0156 23.6469 27.0156 24.0625C27.0156 24.4781 27.0703 24.6422 27.3 24.8719L27.5953 25.1562H32.9766H38.3578L38.6531 24.8719C39.0578 24.4563 39.0578 23.6688 38.6531 23.2531L38.3578 22.9688H32.9766H27.5953L27.3 23.2531Z" fill="#E9284A"/>
<path d="M43.4766 27.3547C43.0062 27.4859 42.7656 27.8578 42.7656 28.4594C42.7656 28.8969 42.8094 29.0062 43.1047 29.2469C43.3344 29.4437 43.5641 29.5312 43.8594 29.5312C44.1547 29.5312 44.3844 29.4437 44.6141 29.2469C44.9094 29.0062 44.9531 28.8969 44.9531 28.4484C44.9531 28.0437 44.8875 27.8578 44.6797 27.6281C44.5375 27.475 44.3406 27.3437 44.2531 27.3437C44.1656 27.3437 44.0344 27.3219 43.9469 27.3C43.8703 27.2781 43.6625 27.3 43.4766 27.3547Z" fill="#191717"/>
<path d="M27.3 27.6281C27.0703 27.8578 27.0156 28.0219 27.0156 28.4375C27.0156 28.8531 27.0703 29.0172 27.3 29.2469L27.5953 29.5312H32.9766H38.3578L38.6531 29.2469C39.0578 28.8313 39.0578 28.0438 38.6531 27.6281L38.3578 27.3438H32.9766H27.5953L27.3 27.6281Z" fill="#E9284A"/>
<path d="M17.3469 33.2063L17.0625 33.5016V36.2031V38.9047L17.3469 39.2L17.6422 39.4844H28H38.3578L38.6531 39.2L38.9375 38.9047V36.2031V33.5016L38.6531 33.2063L38.3578 32.9219H28H17.6422L17.3469 33.2063ZM36.75 36.2031V37.2969H28H19.25V36.2031V35.1094H28H36.75V36.2031Z" fill="#E9284A"/>
<path d="M17.3469 41.9563C17.1172 42.1859 17.0625 42.35 17.0625 42.7656C17.0625 43.1813 17.1172 43.3453 17.3469 43.575L17.6422 43.8594H21.875H26.1078L26.4031 43.575C26.6328 43.3453 26.6875 43.1813 26.6875 42.7656C26.6875 42.35 26.6328 42.1859 26.4031 41.9563L26.1078 41.6719H21.875H17.6422L17.3469 41.9563Z" fill="#E9284A"/>
<path d="M29.7062 41.9563C29.4766 42.1859 29.4219 42.35 29.4219 42.7656C29.4219 43.1813 29.4766 43.3453 29.7062 43.575L30.0016 43.8594H34.1797H38.3578L38.6531 43.575C38.8828 43.3453 38.9375 43.1813 38.9375 42.7656C38.9375 42.35 38.8828 42.1859 38.6531 41.9563L38.3578 41.6719H34.1797H30.0016L29.7062 41.9563Z" fill="#E9284A"/>
<path d="M17.3469 46.3313C17.1172 46.5609 17.0625 46.725 17.0625 47.1406C17.0625 47.5563 17.1172 47.7203 17.3469 47.95L17.6422 48.2344H20.6172H23.5922L23.8875 47.95C24.1172 47.7203 24.1719 47.5563 24.1719 47.1406C24.1719 46.725 24.1172 46.5609 23.8875 46.3313L23.5922 46.0469H20.6172H17.6422L17.3469 46.3313Z" fill="#E9284A"/>
<path d="M27.1906 46.3313C26.9609 46.5609 26.9062 46.725 26.9062 47.1406C26.9062 47.8625 27.2781 48.2344 28 48.2344C28.7219 48.2344 29.0937 47.8625 29.0937 47.1406C29.0937 46.725 29.0391 46.5609 28.8094 46.3313C28.5797 46.1016 28.4156 46.0469 28 46.0469C27.5844 46.0469 27.4203 46.1016 27.1906 46.3313Z" fill="#E9284A"/>
<path d="M32.1125 46.3313C31.8828 46.5609 31.8281 46.725 31.8281 47.1406C31.8281 47.5563 31.8828 47.7203 32.1125 47.95L32.4078 48.2344H35.3828H38.3578L38.6531 47.95C38.8828 47.7203 38.9375 47.5563 38.9375 47.1406C38.9375 46.725 38.8828 46.5609 38.6531 46.3313L38.3578 46.0469H35.3828H32.4078L32.1125 46.3313Z" fill="#E9284A"/>
</g>
<defs>
<clipPath id="clip0_2303_3208">
<rect width="56" height="56" fill="white"/>
</clipPath>
</defs>
</svg>
