<svg width="60" height="60" viewBox="0 0 60 60" fill="none" xmlns="http://www.w3.org/2000/svg">
<path d="M51.8086 2.00391C49.0781 2.32031 46.1719 3.42188 43.7695 5.03906C41.6836 6.44531 39.0703 9.21094 36.8789 12.3164L36.3281 13.1016L33.7734 13.1484C31.4297 13.207 31.1484 13.2305 30.1758 13.5234C28.8164 13.9336 27.3398 14.7188 26.2852 15.5977C25.4297 16.2891 25.2305 16.6289 25.3594 17.1328C25.3945 17.2852 26.3672 18.3398 27.5156 19.4766L29.6016 21.5625H30.8555C31.6758 21.5625 32.1094 21.6094 32.1094 21.6914C32.1094 21.7617 30.9141 23.0391 29.4609 24.5273C25.3477 28.7227 22.1367 32.4844 19.2539 36.4688C18.5625 37.4297 17.9531 38.2031 17.8945 38.2031C17.8477 38.2031 17.625 38.0742 17.4258 37.9219C16.4062 37.1367 14.5781 36.5625 13.125 36.5625C10.7695 36.5625 8.25 37.8633 7.00781 39.7383L6.60938 40.3359L5.54297 40.3594C4.58203 40.3711 4.40625 40.418 3.62109 40.8047C3.14062 41.0391 2.61328 41.3906 2.42578 41.5781L2.10938 41.918L2.8125 42.5273L3.51562 43.1367L3.94922 42.7969C4.45312 42.4102 5.02734 42.1875 5.54297 42.1875C5.80078 42.1875 5.87109 42.2344 5.8125 42.3633C5.77734 42.457 5.71875 42.8789 5.67188 43.3008L5.58984 44.0625H6.51562H7.45312L7.57031 43.2539C8.08594 39.9961 11.332 37.8047 14.4492 38.6133C15.2109 38.8125 15.9258 39.1523 16.4883 39.5625L16.8633 39.8438L16.3242 40.6992C15.1289 42.5625 14.0508 43.5938 12.5742 44.2734C11.7305 44.6602 10.4414 45 9.76172 45H9.375V45.9492V46.9102L10.2188 46.8281C12.5039 46.6172 14.707 45.5508 16.2422 43.9336C16.5586 43.582 17.543 42.2461 18.3984 40.957C21.668 36.1055 25.2891 31.582 29.0742 27.6094L29.9883 26.6602L31.6523 28.3242L33.3281 29.9883L31.9219 31.4297C30.0469 33.3516 29.2852 34.4883 28.7344 36.2109C27.8906 38.8242 28.125 41.6602 29.3672 44.0625C29.8242 44.9297 30.8906 46.3945 31.1367 46.4883C31.3008 46.5586 32.4609 45.5273 32.4609 45.3281C32.4609 45.2695 32.2266 44.9414 31.9336 44.5781C31.1602 43.6289 30.5039 42.2578 30.293 41.1211C30.2227 40.7227 30.2344 40.6875 30.6094 40.5352C30.832 40.4414 31.3828 40.3711 31.9336 40.3711C32.7656 40.3828 32.9531 40.418 33.6094 40.7695C34.3711 41.1914 34.8281 41.6719 35.2617 42.5039C35.6133 43.2188 35.5898 43.3125 34.9219 43.5352L34.3477 43.7227L34.582 44.332C34.7227 44.6719 34.875 45.0703 34.9336 45.2227C35.0156 45.4219 35.0977 45.4688 35.25 45.4102C35.8477 45.1406 37.043 44.9766 37.9102 45.0352C39.5273 45.1406 41.0039 45.8086 42.1289 46.9336C43.1602 47.9648 43.8516 49.3945 44.0156 50.8477L44.0977 51.5625H45.0352H45.9727L45.8789 50.7188C45.6914 48.7734 44.8828 47.1094 43.418 45.6445C41.9297 44.1562 40.2539 43.3477 38.2852 43.1719L37.4062 43.0898L37.3359 42.7031C37.2891 42.4922 37.0781 41.9531 36.8555 41.5078C35.7422 39.3047 33.082 38.0156 30.7148 38.5664C30.4336 38.625 30.1875 38.6602 30.1523 38.6367C30.0117 38.4844 30.5508 36.5977 31.0195 35.625C31.5586 34.5234 31.5938 34.4766 34.8516 31.1953C36.668 29.3789 38.2148 27.8906 38.2969 27.8906C38.4023 27.8906 38.4375 28.2188 38.4375 29.1445V30.3984L40.5234 32.4844C41.6602 33.6328 42.7148 34.6055 42.8555 34.6406C43.3594 34.7695 43.7109 34.5703 44.4141 33.7148C45.2578 32.6953 46.207 30.8672 46.5469 29.5898C46.7461 28.8164 46.8047 28.2188 46.8516 26.168L46.8984 23.6719L48.0469 22.8516C50.7305 20.9414 53.4023 18.4102 54.75 16.5234C56.1797 14.5078 57.2344 12.0938 57.7734 9.55078C57.9844 8.60156 58.043 7.82812 58.0898 5.42578L58.1602 2.48438L57.8555 2.17969L57.5508 1.875L55.1133 1.88672C53.7773 1.89844 52.2891 1.94531 51.8086 2.00391ZM56.25 5.41406C56.25 6.98438 56.0508 8.83594 55.7812 9.84375L55.6641 10.2891L54.9375 10.125C53.7891 9.85547 52.8984 9.31641 51.7969 8.20312C50.6836 7.10156 50.1445 6.21094 49.875 5.0625L49.7109 4.33594L50.168 4.21875C51.1992 3.9375 52.7695 3.77344 54.4688 3.76172L56.25 3.75V5.41406ZM48.4336 6.67969C49.0195 8.17969 50.6953 10.1016 52.2188 11.0156C52.5938 11.2383 53.3789 11.5898 53.9766 11.7773L55.0547 12.1406L54.6562 13.0078C54.0352 14.3438 52.8281 16.0664 51.6445 17.3086C48.5039 20.5898 43.8281 23.6953 39.2344 25.5469L37.793 26.1328L35.8359 24.1758L33.8906 22.2305L34.043 21.8086C34.8047 19.6406 36.4805 16.3242 37.875 14.2266C40.7461 9.89062 43.9688 6.75 46.9922 5.34375L47.8711 4.93359L48.0234 5.48438C48.1055 5.78906 48.293 6.32812 48.4336 6.67969ZM34.2188 16.7812C33.7266 17.7656 33.2109 18.8203 33.0938 19.125L32.8711 19.6875H31.6406H30.4102L29.0156 18.293L27.6328 16.9102L28.0195 16.6055C28.5352 16.2305 29.6602 15.668 30.4453 15.4219C31.3711 15.1055 32.0273 15.0234 33.6562 15.0117L35.1328 15L34.2188 16.7812ZM34.5117 25.5469L36.1523 27.1875L35.4141 27.9141L34.6875 28.6523L33.0234 26.9883L31.3477 25.3125L32.0508 24.6094C32.4375 24.2227 32.7773 23.9062 32.8125 23.9062C32.8477 23.9062 33.6094 24.6445 34.5117 25.5469ZM44.9648 26.6836C44.918 28.1484 44.8594 28.6992 44.6484 29.3555C44.3438 30.3047 43.8164 31.4062 43.3945 31.9805L43.0898 32.3672L41.707 30.9844L40.3125 29.5898V28.3594V27.1289L41.1094 26.8008C41.543 26.625 42.5859 26.1094 43.418 25.6758C44.2617 25.2305 44.9648 24.8555 44.9883 24.8555C45.0117 24.8438 45 25.6758 44.9648 26.6836Z" fill="#211D1E"/>
<path d="M42.6681 10.5C39.7033 11.2969 37.8634 14.3789 38.6134 17.2852C39.3986 20.2852 42.4689 22.1484 45.4103 21.3867C48.1877 20.6602 50.0158 17.9766 49.6056 15.1875C49.1369 11.8711 45.8322 9.64453 42.6681 10.5ZM45.6447 12.5508C46.383 12.9023 47.0861 13.6055 47.4611 14.3555C47.6955 14.8359 47.7541 15.1172 47.7541 15.9375C47.7423 16.8398 47.7072 17.0039 47.3556 17.6719C46.9103 18.4922 46.5353 18.8555 45.6564 19.3125C45.1525 19.5703 44.9064 19.6172 44.0627 19.6172C43.2423 19.6289 42.9611 19.5703 42.4806 19.3359C39.4338 17.8359 39.6916 13.5352 42.8908 12.375C43.6291 12.1055 44.883 12.1875 45.6447 12.5508Z" fill="#E9284A"/>
<path d="M28.6406 29.4375C28.125 29.9766 27.5391 30.6211 27.3398 30.8906C26.918 31.4297 25.8984 33.1172 25.8984 33.2695C25.8984 33.3516 27.3281 34.1016 27.4805 34.1016C27.4922 34.1016 27.7852 33.6445 28.125 33.0703C28.5117 32.4492 29.1914 31.6055 29.8711 30.9023L30.9844 29.7539L30.3516 29.1211C30 28.7695 29.6836 28.4766 29.6484 28.4766C29.6016 28.4766 29.1562 28.9102 28.6406 29.4375Z" fill="#E9284A"/>
<path d="M25.0195 35.5312C24.9492 35.7187 24.6094 37.1719 24.6094 37.2773C24.6094 37.3242 24.8555 37.3945 25.1719 37.4297C25.4766 37.4766 25.8867 37.5352 26.0859 37.5703C26.4492 37.6406 26.4609 37.6289 26.5898 37.0195C26.6719 36.668 26.7539 36.2812 26.7891 36.1406C26.8477 35.918 26.7656 35.8594 26.0391 35.6367C25.0781 35.3437 25.0898 35.3437 25.0195 35.5312Z" fill="#E9284A"/>
<path d="M25.1953 46.957C24.2227 47.1211 22.6055 47.8477 22.1602 48.3281L21.9141 48.5859L22.5117 49.2539L23.1094 49.9219L23.4375 49.6875C23.625 49.5586 24.082 49.3008 24.457 49.125C25.043 48.8555 25.2891 48.8086 26.2617 48.8086C27.3164 48.8086 27.4219 48.832 28.2656 49.2422C29.332 49.7695 30 50.4609 30.5039 51.5391C30.8086 52.1953 30.8672 52.4531 30.8672 53.2617C30.8789 53.7773 30.8438 54.3867 30.7852 54.6211L30.7031 55.0312L31.5 55.2891C31.9453 55.4297 32.332 55.5469 32.3672 55.5469C32.5664 55.5469 32.7539 54.5508 32.7539 53.4375C32.7539 52.0898 32.5898 51.4453 31.9453 50.2266C30.7617 47.9531 27.7969 46.5234 25.1953 46.957Z" fill="#E9284A"/>
<path d="M13.0077 47.8828C11.3788 48.1992 9.84366 49.1133 8.91788 50.3203L8.43741 50.9414L7.82803 50.7891C7.03116 50.5781 6.07022 50.5781 5.23819 50.8008C4.52335 50.9883 3.46866 51.4805 3.33975 51.6797C3.26944 51.7969 3.50382 52.207 4.07803 52.9453L4.28897 53.2148L4.92178 52.8867C5.48428 52.6055 5.69522 52.5586 6.56241 52.5586C7.38272 52.5586 7.66397 52.6172 8.14444 52.8516C9.26944 53.4023 10.078 54.4922 10.2538 55.6992L10.3358 56.25H11.2616H12.1874V55.9219C12.1874 54.8906 11.5077 53.3438 10.6523 52.4414L10.078 51.832L10.6171 51.2227C10.9804 50.8125 11.4374 50.4844 12.0468 50.1914C12.8905 49.7695 12.996 49.7461 14.0507 49.7461C14.9648 49.7461 15.2812 49.8047 15.7499 50.0156C16.4296 50.3203 16.4296 50.3203 16.9804 49.3242L17.3437 48.668L17.0273 48.5156C16.1132 48.1055 15.3398 47.9062 14.3554 47.8711C13.7812 47.8477 13.1718 47.8594 13.0077 47.8828Z" fill="#E9284A"/>
</svg>

