<svg width="60" height="60" viewBox="0 0 60 60" fill="none" xmlns="http://www.w3.org/2000/svg">
<path d="M22.0897 5.47266C21.9022 5.49609 21.2342 5.58984 20.6249 5.69531C12.3631 7.01953 5.17955 12.6914 1.93346 20.4492C-0.668106 26.6602 -0.632949 33.6211 2.03893 39.7852C5.75377 48.3633 14.1796 54.2227 23.3319 54.5742C25.6874 54.668 25.5467 54.8555 25.5467 51.7852C25.5467 50.4844 25.4999 49.3477 25.4296 49.2187C25.2538 48.8906 24.7147 48.75 24.2928 48.9258C23.7889 49.1367 23.6717 49.5937 23.6717 51.3047V52.7695L22.6874 52.6875C21.3046 52.582 19.0194 52.1133 17.6366 51.6445C16.1717 51.1523 14.1796 50.2852 14.1796 50.1445C14.1796 50.0742 14.5194 49.4297 14.9413 48.7031C15.3631 47.9766 15.703 47.2383 15.703 47.0625C15.703 46.4062 14.7772 45.9258 14.2616 46.3125C14.1561 46.3945 13.7108 47.0859 13.2655 47.8477L12.4569 49.2305L11.5077 48.5508C10.16 47.5781 8.76549 46.3594 7.8983 45.3984C7.03111 44.4258 5.50768 42.4219 5.50768 42.2461C5.50768 42.1875 6.01158 41.8477 6.63268 41.4961C8.19127 40.6172 8.43736 40.3945 8.43736 39.8555C8.43736 39.5508 8.35533 39.3398 8.20299 39.1992C7.79283 38.8242 7.30065 38.9297 6.19908 39.5742C5.63658 39.9023 5.01549 40.2656 4.81627 40.3594L4.46471 40.5469L4.23033 40.1133C4.11314 39.8672 3.7733 39.0469 3.46861 38.2852C2.66002 36.2227 2.16783 34.043 1.94518 31.4883L1.8983 30.9375H3.59752C5.22643 30.9375 5.29674 30.9258 5.56627 30.6445C5.95299 30.2695 5.95299 29.7305 5.56627 29.3555C5.29674 29.0742 5.22643 29.0625 3.59752 29.0625H1.8983L1.94518 28.5C2.16783 25.957 2.66002 23.7773 3.46861 21.7148C3.7733 20.9531 4.11314 20.1328 4.23033 19.8867L4.46471 19.4531L4.81627 19.6406C5.01549 19.7344 5.61315 20.0742 6.14049 20.3906C7.3358 21.0937 7.64049 21.1875 8.03893 20.9297C8.42565 20.6719 8.57799 20.25 8.42565 19.8281C8.32018 19.5117 7.85143 19.1836 6.01158 18.1523C5.73033 18 5.50768 17.8125 5.50768 17.7539C5.50768 17.4844 7.44127 15.082 8.54283 13.9805C9.55065 12.9609 11.6249 11.2617 12.2811 10.9102C12.4686 10.8047 12.5858 10.957 13.2421 12.0937C13.6522 12.8086 14.0858 13.5 14.203 13.6172C14.6952 14.1094 15.703 13.6523 15.703 12.9258C15.703 12.7383 15.3749 12.0469 14.9413 11.2852C14.5194 10.5586 14.1796 9.92578 14.1796 9.86718C14.1796 9.71484 16.1717 8.84765 17.6366 8.35547C19.0897 7.86328 21.3163 7.40625 22.7225 7.30078L23.7889 7.23047V8.89453C23.7889 9.80859 23.8358 10.6641 23.9061 10.7812C24.2342 11.3789 25.2889 11.2266 25.535 10.5469C25.6991 10.0547 25.7108 6.65625 25.5467 6.07031C25.4764 5.82422 25.3241 5.57812 25.1952 5.50781C24.996 5.40234 22.8866 5.36719 22.0897 5.47266Z" fill="#211D1E"/>
<path d="M30.5857 6.17578C29.531 6.55078 29.7419 7.96875 30.8435 7.96875C31.3239 7.96875 31.7575 7.54687 31.7575 7.07812C31.7575 6.57422 31.0427 6.01172 30.5857 6.17578Z" fill="#E9284A"/>
<path d="M35.8827 8.82421C35.3906 9.35156 35.6484 10.2187 36.3281 10.3711C37.0429 10.5234 37.6523 9.78515 37.371 9.11718C37.1132 8.49609 36.3281 8.34375 35.8827 8.82421Z" fill="#E9284A"/>
<path d="M40.805 12.5742C40.0081 13.4297 41.1331 14.6953 42.0003 13.9101C42.6448 13.3242 42.2815 12.3047 41.4261 12.3047C41.1917 12.3047 40.969 12.3984 40.805 12.5742Z" fill="#E9284A"/>
<path d="M24.1172 17.3906C23.6953 17.707 23.6719 18.1055 23.6719 23.8828L23.6602 29.5898L20.5547 31.7578C18.8438 32.9531 17.3438 34.0547 17.2149 34.207C16.7461 34.793 17.1446 35.625 17.8946 35.625C18.2461 35.625 18.8086 35.2852 21.4336 33.4453C23.1446 32.2383 24.7735 31.0781 25.0547 30.8555L25.5469 30.457V24.0938V17.7305L25.2774 17.4844C24.9727 17.1914 24.4219 17.1562 24.1172 17.3906Z" fill="#211D1E"/>
<path d="M44.5548 17.4961C44.0392 18.0469 44.3321 18.9141 45.0821 19.0547C45.3985 19.1133 45.5157 19.0664 45.8321 18.7617C46.1368 18.4453 46.1837 18.3281 46.1251 18.0117C45.9845 17.25 45.0587 16.957 44.5548 17.4961Z" fill="#E9284A"/>
<path d="M46.8869 23.2734C46.5705 23.6836 46.5822 24.0469 46.9103 24.4453C47.1096 24.6797 47.2971 24.7617 47.5783 24.7617C47.8596 24.7617 48.0471 24.6797 48.2463 24.4453C48.5744 24.0469 48.5861 23.6836 48.2697 23.2734C48.0822 23.0391 47.9299 22.9688 47.5783 22.9688C47.2267 22.9688 47.0744 23.0391 46.8869 23.2734Z" fill="#E9284A"/>
<path d="M47.7538 29.3555C46.9452 30.1523 48.0233 31.4062 48.9491 30.7617C49.4296 30.4219 49.3944 29.6133 48.8788 29.2148C48.5741 28.9805 48.0585 29.0391 47.7538 29.3555Z" fill="#E9284A"/>
<path d="M49.9453 35.707C49.5703 36.0234 45.211 47.1328 45.3047 47.5078C45.5039 48.3398 46.6641 48.4453 47.0274 47.6602C47.543 46.5703 51.4453 36.5859 51.4453 36.3516C51.4453 35.6836 50.461 35.2734 49.9453 35.707Z" fill="#E9284A"/>
<path d="M31.2188 36.1055C29.8711 36.6211 28.957 37.875 28.8516 39.375C28.8047 40.1133 28.8164 40.1953 29.0977 40.4766C29.4727 40.8516 29.8945 40.8633 30.3047 40.5117C30.5508 40.3008 30.6445 40.0781 30.7149 39.5508C30.8789 38.3555 31.5703 37.7344 32.7539 37.7344C33.6563 37.7344 34.1602 38.0273 34.5469 38.7891C34.8281 39.3633 34.8633 39.6914 34.6875 40.3359C34.5 41.0039 34.1367 41.3437 32.4961 42.457C30.4688 43.8164 29.7422 44.4844 29.2969 45.3984C28.8633 46.2656 28.7109 47.3203 28.9453 47.7656C29.2031 48.2461 29.6953 48.3047 33.1289 48.2578C36.2461 48.2227 36.3281 48.2227 36.5859 47.9648C36.9492 47.6016 36.9375 46.9219 36.5742 46.6289C36.3281 46.4297 36.0703 46.4062 33.6211 46.4062C31.6172 46.4062 30.9375 46.3711 30.9375 46.2656C30.9375 45.9961 32.1914 44.9297 33.7734 43.8516C35.5899 42.6211 36.0938 42.0586 36.4688 40.8633C37.0899 38.918 36.0938 36.7852 34.2539 36.0937C33.4102 35.7773 32.0391 35.7891 31.2188 36.1055Z" fill="#E9284A"/>
<path d="M42.2815 35.9766C42.094 36.0937 36.6448 43.6875 36.3401 44.2734C36.1643 44.6133 36.258 45.0469 36.5627 45.3516C36.7854 45.5742 36.9612 45.5859 39.3166 45.5859H41.8362V46.6172C41.8362 47.5664 41.8596 47.6719 42.1291 47.9297C42.5393 48.3164 43.0784 48.293 43.4416 47.8828C43.676 47.6016 43.7112 47.4492 43.7112 46.5703V45.5859H44.3323C44.8479 45.5859 45.012 45.5391 45.2346 45.293C45.8909 44.5898 45.3635 43.7109 44.2854 43.7109H43.7112V40.0781V36.4336L43.4182 36.1523C43.1252 35.8477 42.633 35.7773 42.2815 35.9766ZM41.801 43.6758C41.7659 43.6992 41.133 43.6992 40.383 43.6875L39.0237 43.6523L40.3948 41.7187L41.7776 39.7969L41.8127 41.707C41.8245 42.7617 41.8245 43.6523 41.801 43.6758Z" fill="#E9284A"/>
<path d="M52.1718 36.1758C51.9257 36.2695 51.6679 36.8906 51.7499 37.207C51.7851 37.3711 51.9608 37.6055 52.1132 37.7344C52.3944 37.9453 52.5937 37.9687 54.7382 37.9687C56.0273 37.9687 57.0702 37.9922 57.0702 38.0156C57.0702 38.0391 56.7421 38.5781 56.3554 39.2109C55.4882 40.5703 54.5155 42.5977 54.0937 43.875C53.789 44.8125 53.3202 46.8867 53.3202 47.332C53.3202 47.7422 53.8124 48.1992 54.2577 48.1875C54.8905 48.1758 55.0663 47.8711 55.3944 46.3359C56.0038 43.418 56.8944 41.6016 59.5898 37.8047C60.0702 37.1367 60.1054 36.7734 59.7069 36.3867L59.4257 36.0937L55.8749 36.1055C53.9179 36.1055 52.2538 36.1406 52.1718 36.1758Z" fill="#E9284A"/>
</svg>
