<svg width="59" height="60" viewBox="0 0 59 60" fill="none" xmlns="http://www.w3.org/2000/svg">
<path d="M27.8982 0.117188C26.5974 0.445312 25.2732 1.55859 24.6755 2.8125C24.406 3.38672 24.3708 3.59766 24.3825 4.6875C24.3825 5.36719 24.4177 6.01172 24.4411 6.11719C24.4763 6.26953 23.0115 7.17188 17.6325 10.2773L10.7771 14.25L10.1911 13.7695C8.89036 12.7266 7.27317 12.3984 5.71458 12.8789C2.4802 13.875 1.33176 17.9766 3.59348 20.4492C4.23801 21.1523 4.87083 21.5742 5.7263 21.8672L6.26536 22.0547V30V37.9453L5.7263 38.1328C4.39036 38.5898 3.19505 39.6914 2.73801 40.875C1.48411 44.1562 3.96848 47.5547 7.43723 47.3086C8.49192 47.2383 9.18333 46.9688 10.1091 46.2773C10.6365 45.8789 10.7888 45.8086 10.9997 45.9141C11.1286 45.9727 14.2224 47.7539 17.8669 49.8516C23.0583 52.8633 24.4763 53.7305 24.4411 53.8828C24.4177 53.9883 24.3825 54.6328 24.3825 55.3125C24.3708 56.4023 24.406 56.6133 24.6755 57.1875C25.1443 58.1836 25.9411 58.9922 26.9841 59.4961C27.8279 59.918 27.9333 59.9414 28.9997 59.9414C30.0661 59.9414 30.1716 59.918 31.0154 59.4961C32.0466 58.9922 32.7966 58.2422 33.3005 57.2109C33.5935 56.6133 33.6286 56.4141 33.6286 55.3711C33.6286 54.7266 33.5935 54.0938 33.5349 53.9531C33.4529 53.7305 33.7458 53.543 36.4646 51.9727C38.1286 51.0117 41.1638 49.2656 43.2029 48.082C45.2419 46.8984 46.9997 45.9023 47.0935 45.8672C47.1872 45.832 47.5271 45.9961 47.8904 46.2773C48.8044 46.9688 49.5193 47.2383 50.5505 47.3086C52.5896 47.4492 54.2771 46.4414 55.1794 44.543C55.5075 43.8398 55.5427 43.6641 55.5427 42.6562C55.531 41.25 55.2497 40.4648 54.406 39.5508C53.7615 38.8477 53.1286 38.4258 52.2732 38.1328L51.7341 37.9453V30V22.0547L52.2732 21.8672C53.6091 21.4102 54.8044 20.3086 55.2615 19.125C56.5036 15.8555 54.0544 12.4805 50.574 12.6797C49.5427 12.7383 48.488 13.1719 47.7029 13.8516L47.2458 14.25L43.3669 12.0117C41.2341 10.7812 38.1286 8.98828 36.4646 8.02734C33.7458 6.45703 33.4529 6.26953 33.5349 6.04688C33.5935 5.90625 33.6286 5.27344 33.6286 4.62891C33.6286 3.60938 33.5818 3.375 33.324 2.8125C32.5622 1.20703 30.9919 0.140625 29.281 0.0585938C28.7654 0.0234375 28.156 0.0585938 27.8982 0.117188ZM30.4529 2.15625C31.4958 2.76562 31.988 3.71484 31.906 4.96875C31.8005 6.66797 30.2185 7.93359 28.531 7.66406C27.781 7.54688 26.8904 6.9375 26.4802 6.28125C26.199 5.8125 26.1286 5.55469 26.0935 4.875C26.0583 4.14844 26.0935 3.96094 26.3865 3.41016C26.7497 2.70703 27.324 2.17969 28.0154 1.92188C28.695 1.67578 29.8083 1.76953 30.4529 2.15625ZM25.6599 8.08594C25.9763 8.4375 26.9138 9 27.5115 9.21094L28.0388 9.38672L28.0857 11.25C28.1325 13.3711 28.2146 13.5938 28.9997 13.5938C29.7497 13.5938 29.8083 13.4297 29.8435 11.3086L29.8786 9.45703L30.6755 9.12891C31.1208 8.95312 31.7419 8.58984 32.0583 8.32031L32.6325 7.83984L39.488 11.8008L46.3552 15.7617L46.2615 16.3477C46.1443 17.0977 46.1443 17.7305 46.2615 18.4102L46.3552 18.9609L44.9724 19.7461C43.2615 20.7305 43.0622 20.9062 43.0622 21.3984C43.0622 21.8203 43.4958 22.2656 43.9177 22.2656C44.0466 22.2656 44.8435 21.8672 45.6872 21.375C46.6365 20.8242 47.2693 20.5195 47.3513 20.5898C47.4216 20.6367 47.738 20.8828 48.0544 21.1172C48.5349 21.4805 49.0857 21.75 49.8357 21.9844C49.9529 22.0195 49.9763 23.6836 49.9529 30L49.9177 37.9805L49.3318 38.1797C48.7224 38.3906 48.1482 38.7422 47.6091 39.2344L47.2927 39.5273L45.7224 38.625C44.8552 38.1328 44.0232 37.7344 43.8943 37.7344C43.531 37.7344 43.0622 38.25 43.0622 38.6484C43.0622 39.082 43.2966 39.2812 44.9724 40.2422L46.3552 41.0391L46.2615 41.5898C46.1443 42.2695 46.1443 42.9023 46.2615 43.6523L46.3552 44.2383L39.4997 48.1992L32.6325 52.1484L31.9997 51.6328C31.6482 51.3398 31.0388 51 30.6521 50.8594L29.9607 50.6016L29.9138 48.75C29.8669 46.6289 29.7849 46.4062 28.9997 46.4062C28.2146 46.4062 28.1325 46.6289 28.0857 48.75L28.0388 50.6016L27.3474 50.8594C26.9607 51 26.3513 51.3398 26.0115 51.6328L25.3669 52.1484L18.4997 48.1992L11.6443 44.2383L11.738 43.6523C11.8552 42.9023 11.8552 42.2695 11.738 41.5898L11.6443 41.0391L13.0271 40.2422C14.7029 39.2812 14.9372 39.082 14.9372 38.6484C14.9372 38.2383 14.4685 37.7344 14.0935 37.7344C13.9411 37.7344 13.1443 38.1328 12.3005 38.625C11.3747 39.1641 10.7302 39.4688 10.6482 39.4102C10.5779 39.3633 10.2615 39.1172 9.94505 38.8828C9.46458 38.5078 8.84348 38.2148 8.17551 38.0156C7.95286 37.957 7.95286 22.043 8.17551 21.9844C8.90208 21.75 9.46458 21.4805 9.94505 21.1172C10.2615 20.8828 10.5779 20.6367 10.6482 20.5898C10.7302 20.5195 11.363 20.8242 12.3122 21.375C13.156 21.8672 13.9529 22.2656 14.0818 22.2656C14.5036 22.2656 14.9372 21.8203 14.9372 21.3984C14.9372 20.9062 14.738 20.7305 13.0271 19.7461L11.6443 18.9609L11.738 18.4102C11.8552 17.7305 11.8552 17.0977 11.738 16.3477L11.6443 15.7617L14.5505 14.0977C16.1443 13.1719 19.2263 11.4023 21.3825 10.1484C23.5388 8.88281 25.3435 7.86328 25.3786 7.85156C25.4138 7.85156 25.5427 7.95703 25.6599 8.08594ZM8.07005 14.5547C8.83176 14.7891 9.71067 15.7266 9.95676 16.5586C10.3786 18.0234 9.65208 19.5 8.19895 20.0977C7.64817 20.332 6.54661 20.3438 6.00755 20.1211C4.21458 19.3711 3.6052 17.1094 4.77708 15.5625C5.52708 14.5898 6.82786 14.1914 8.07005 14.5547ZM52.2146 14.7422C54.0779 15.7148 54.3943 18.1875 52.8474 19.5586C52.238 20.0859 51.7224 20.2852 50.9255 20.2852C49.7654 20.2969 48.8396 19.7578 48.3122 18.7969C47.7497 17.7422 47.7966 16.6172 48.4646 15.6562C49.2615 14.4844 50.9372 14.0742 52.2146 14.7422ZM8.5388 40.0664C9.76926 40.7109 10.3435 42.0938 9.95676 43.4414C9.80442 43.9805 9.62864 44.25 9.15989 44.707C8.17551 45.668 6.94505 45.8672 5.78489 45.2578C4.37864 44.5312 3.76926 42.8672 4.40208 41.4844C5.15208 39.832 6.94505 39.2109 8.5388 40.0664ZM52.0388 39.9023C52.613 40.1367 53.2693 40.793 53.5622 41.4258C54.2302 42.8555 53.6443 44.5078 52.2146 45.2578C51.0544 45.8672 49.824 45.668 48.8396 44.707C47.7849 43.6758 47.6208 42.375 48.3825 41.1094C49.1325 39.8555 50.6677 39.3516 52.0388 39.9023ZM30.4177 52.6875C31.4138 53.2383 31.9294 54.1172 31.9294 55.2773C31.9177 58.3945 27.6638 59.3672 26.3513 56.543C25.5779 54.8906 26.4568 52.9336 28.2263 52.3828C28.824 52.207 29.7497 52.3359 30.4177 52.6875Z" fill="#211D1E"/>
<path d="M21.6521 15.8672C18.9099 16.5352 17.0701 19.207 17.4803 21.9258C17.6326 22.8633 18.1365 24.0234 18.6638 24.6211L19.0271 25.043L18.3826 25.4883C17.3748 26.1797 16.5076 27.2227 15.9334 28.418C15.3592 29.625 15.1599 30.375 15.1365 31.4766C15.1131 32.1563 15.1482 32.2734 15.3943 32.4727C15.9685 32.9414 16.8123 32.5547 16.8123 31.8047C16.824 31.1484 17.1638 29.8125 17.5271 29.0742C17.9842 28.1484 19.0857 27.0234 19.9881 26.5547L20.6443 26.2031L21.3474 26.4023C21.7342 26.5195 22.4607 26.6016 22.9763 26.6016H23.9138L24.0545 26.9766C24.1248 27.1875 24.406 27.6328 24.6521 27.9727L25.1209 28.582L24.3474 29.1445C22.5076 30.4922 21.2771 32.8477 21.2654 35.0039C21.2654 35.8594 21.4998 36.2109 22.074 36.2109C22.6951 36.2109 22.9178 35.8945 23.0232 34.8633C23.1287 33.8672 23.3982 33.0117 23.8787 32.2031C24.2888 31.5117 25.4373 30.4453 26.1756 30.0586C26.8084 29.7422 26.8084 29.7422 27.4763 29.9297C28.3201 30.1641 29.6795 30.1641 30.5232 29.9297C31.1912 29.7422 31.1912 29.7422 31.8123 30.0586C33.0076 30.668 34.2615 32.1211 34.6834 33.3867C34.7771 33.7031 34.9178 34.3711 34.9646 34.875C35.0467 35.6016 35.1287 35.8359 35.3279 36C35.6795 36.2812 36.2068 36.2695 36.5115 35.9648C36.7459 35.7305 36.7576 35.625 36.699 34.6992C36.5701 32.4492 35.3162 30.2813 33.3709 28.9336L32.8787 28.5938L33.3357 27.9727C33.5935 27.6445 33.8748 27.1875 33.9451 26.9766L34.0857 26.6016H35.0232C35.5388 26.6016 36.2654 26.5195 36.6521 26.4023L37.3553 26.2031L38.0115 26.5547C38.9138 27.0234 40.0154 28.1484 40.4724 29.0742C40.8357 29.8242 41.1756 31.1484 41.1873 31.8281C41.1873 32.5547 42.031 32.9414 42.6053 32.4727C42.8513 32.2734 42.8865 32.1563 42.8631 31.4766C42.8396 30.375 42.6404 29.625 42.0662 28.418C41.492 27.2227 40.6248 26.1797 39.617 25.4883L38.9724 25.043L39.3357 24.6211C39.8631 24.0234 40.367 22.8633 40.5193 21.9258C41.0584 18.4219 37.824 15.2227 34.3201 15.7969C32.6326 16.0781 30.9803 17.2734 30.2771 18.7148L29.9959 19.2891H28.9881H27.9803L27.7224 18.7266C27.3123 17.8359 26.2928 16.8281 25.3201 16.3477C24.0428 15.7148 22.8943 15.5625 21.6521 15.8672ZM24.3592 17.8008C25.0388 18.0938 25.742 18.75 26.0818 19.3945C26.3631 19.9336 26.3631 19.9336 26.1287 20.0625C25.9998 20.1445 25.5896 20.4844 25.2146 20.8359C24.4529 21.5742 23.7849 22.7813 23.6678 23.6484C23.6326 23.9531 23.5623 24.3516 23.5271 24.5391L23.4685 24.8672L22.6248 24.8203C20.8084 24.7031 19.4138 23.3672 19.2029 21.5508C19.0623 20.3438 19.6951 18.9023 20.6678 18.2344C21.8045 17.4492 23.199 17.2852 24.3592 17.8008ZM36.6521 17.8477C38.9959 18.9141 39.5467 22.1367 37.6717 23.8359C36.9568 24.4805 36.3123 24.7617 35.3748 24.8203L34.531 24.8672L34.4724 24.5391C34.4373 24.3516 34.367 23.9531 34.3318 23.6484C34.2146 22.7813 33.5467 21.5742 32.7849 20.8359C32.4099 20.4844 31.9998 20.1445 31.8709 20.0742C31.6482 19.9453 31.6482 19.9219 31.8357 19.5352C32.6795 17.7656 34.8357 17.0156 36.6521 17.8477ZM30.3474 21.293C31.1678 21.5625 32.1756 22.582 32.4568 23.4258C33.0428 25.207 32.3513 27.0586 30.7342 27.9609C30.1717 28.2656 30.0076 28.3008 28.9998 28.3008C27.992 28.3008 27.8279 28.2656 27.2654 27.9609C25.2146 26.8242 24.6873 24.0586 26.199 22.3359C27.2888 21.0938 28.6951 20.7422 30.3474 21.293Z" fill="#E9284A"/>
<path d="M33.465 39.1406C32.8557 39.3984 32.6799 40.0664 33.1017 40.5234C33.3361 40.7695 33.4533 40.7812 35.0353 40.7812C36.5822 40.7812 36.758 40.7578 36.9689 40.5469C37.2619 40.2539 37.2736 39.7148 36.9807 39.3633C36.7697 39.0938 36.676 39.082 35.2463 39.0586C34.426 39.0352 33.6174 39.082 33.465 39.1406Z" fill="#E9284A"/>
<path d="M20.9844 39.3984C20.5508 40.0195 20.9258 40.7812 21.6641 40.7812C22.0977 40.7812 22.5547 40.3594 22.5547 39.9609C22.5547 39.8438 22.4492 39.6211 22.3086 39.4453C21.9922 39.0352 21.2539 39.0117 20.9844 39.3984Z" fill="#E9284A"/>
<path d="M24.0313 39.3984C23.5977 40.0195 23.9727 40.7812 24.7109 40.7812C25.1445 40.7812 25.6016 40.3594 25.6016 39.9609C25.6016 39.8438 25.4961 39.6211 25.3555 39.4453C25.0391 39.0352 24.3008 39.0117 24.0313 39.3984Z" fill="#E9284A"/>
<path d="M27.0781 39.3984C26.9727 39.5391 26.8906 39.7969 26.8906 39.9609C26.8906 40.4766 27.1953 40.7812 27.7109 40.7812C28.0625 40.7812 28.2148 40.7109 28.4023 40.4766C28.543 40.3008 28.6484 40.0781 28.6484 39.9609C28.6484 39.8438 28.543 39.6211 28.4023 39.4453C28.0859 39.0352 27.3477 39.0117 27.0781 39.3984Z" fill="#E9284A"/>
<path d="M21.0548 42.8086C20.6915 43.1953 20.715 43.7461 21.1017 44.0508C21.4064 44.2969 21.5001 44.2969 29.0001 44.2969C36.5001 44.2969 36.5939 44.2969 36.8986 44.0508C37.297 43.7344 37.3204 43.1484 36.9337 42.7969L36.6642 42.5391H28.9884H21.3009L21.0548 42.8086Z" fill="#E9284A"/>
</svg>

