<svg width="60" height="60" viewBox="0 0 60 60" fill="none" xmlns="http://www.w3.org/2000/svg">
<path d="M12.9609 2.00391C12.2344 2.1797 11.168 2.80079 10.6523 3.36329C10.3945 3.64454 10.0078 4.23048 9.80859 4.66407L9.43359 5.44923V28.1367V50.8125L9.86719 51.7031C10.6172 53.2148 12 54.1875 13.6289 54.3398C14.3437 54.3984 14.4141 54.3867 14.6953 54.1055C15.3047 53.4961 14.8945 52.5 14.0273 52.5C13.0781 52.5 11.9883 51.832 11.5312 50.9531C11.0156 49.9688 11.2617 48.5273 12.082 47.707C12.9844 46.8164 11.5781 46.875 31.1953 46.875H48.75V49.3945C48.75 51.9258 48.75 51.9258 48.457 52.207L48.1758 52.5H38.4375H28.6992L28.418 52.793C28.0312 53.168 28.0312 53.707 28.418 54.082L28.6992 54.375H38.4492C45.7617 54.375 48.3164 54.3398 48.6797 54.2344C49.3242 54.0469 50.2969 53.0742 50.4844 52.4297C50.6953 51.7266 50.6953 4.52345 50.4844 3.82032C50.2969 3.17579 49.3242 2.20313 48.6797 2.01563C48.082 1.83985 13.6992 1.82813 12.9609 2.00391ZM48.457 4.04298L48.75 4.32423V24.6563V45L30.8437 45.0234L12.9375 45.0586L12.0937 45.4805L11.25 45.8906L11.2734 25.793C11.3086 6.89063 11.3203 5.66016 11.5195 5.3086C11.8242 4.7461 12.5039 4.13673 13.0547 3.93751C13.4648 3.79688 15.9258 3.76173 30.8555 3.76173L48.1758 3.75001L48.457 4.04298Z" fill="#211D1E"/>
<path d="M29.3555 13.418C29.0859 13.6758 29.0625 13.793 29.0625 14.8242C29.0625 15.4336 29.0508 15.9375 29.0391 15.9375C27.9844 16.0898 26.918 16.3828 25.875 16.8164C24.3164 17.4727 23.2148 17.8008 22.5352 17.8008C21.9258 17.8125 20.7422 17.4492 20.3203 17.1211C20.1445 16.9922 19.8516 16.875 19.6758 16.875C19.0547 16.875 18.5742 17.6719 18.8555 18.1992C19.043 18.5508 19.7461 19.0195 20.4492 19.2773C20.7773 19.3945 21.0586 19.5117 21.082 19.5234C21.1055 19.5469 20.3672 21.2578 19.4531 23.3203L17.7773 27.0937L17.9062 27.8555C18.0586 28.7578 18.5742 29.9062 19.1016 30.5039C19.3125 30.75 19.8633 31.125 20.3672 31.3711C21.2344 31.8047 21.293 31.8164 22.4883 31.8047C23.8125 31.793 24.3164 31.6641 25.1836 31.125C26.1914 30.4805 27 29.0625 27.1406 27.668C27.2109 27.0234 27.1875 26.9648 25.5586 23.2852C24.6445 21.2461 23.9062 19.5469 23.9062 19.5117C23.9062 19.4766 24.0234 19.4531 24.1523 19.4531C24.293 19.4531 25.0898 19.1602 25.9219 18.8086C28.9219 17.543 30.8789 17.4844 33.4922 18.5859C34.0547 18.8203 34.8516 19.1367 35.2734 19.2891C35.7305 19.4531 36.0234 19.6289 36 19.7109C35.9766 19.793 35.25 21.4922 34.3711 23.4727L32.7656 27.082L32.9062 27.9141C33.1055 29.0391 33.5625 29.9414 34.2891 30.668C35.0391 31.3945 35.9062 31.7578 37.1484 31.8398C39.7617 32.0273 41.6484 30.5273 42.0938 27.9141L42.2344 27.082L40.5703 23.3437C39.6562 21.2812 38.9062 19.5703 38.9062 19.5234C38.9062 19.4883 38.9883 19.4531 39.0938 19.4531C39.3984 19.4531 40.5117 18.8789 40.8867 18.5273C41.3438 18.1055 41.3672 17.625 40.957 17.1797C40.582 16.7812 40.1484 16.793 39.5156 17.2266C38.4375 17.9531 36.9492 17.9766 35.2852 17.2734C33.6328 16.5703 32.5312 16.1953 31.9219 16.1133C30.8789 15.9727 30.9375 16.0547 30.9375 14.8125C30.9375 13.793 30.9141 13.6758 30.6445 13.418C30.4688 13.2305 30.2227 13.125 30 13.125C29.7773 13.125 29.5312 13.2305 29.3555 13.418ZM23.6602 23.6367C24.2461 24.9844 24.7266 26.1094 24.7266 26.1562C24.7266 26.2617 20.2734 26.2852 20.2734 26.1797C20.2734 26.0273 22.4297 21.2109 22.5 21.2109C22.5469 21.2109 23.0625 22.3008 23.6602 23.6367ZM38.6484 23.6367C39.2461 24.9844 39.7266 26.1094 39.7266 26.1562C39.7266 26.2148 38.7305 26.25 37.5 26.25C36.2812 26.25 35.2734 26.2148 35.2734 26.1562C35.2734 26.0039 37.4297 21.2109 37.5 21.2109C37.5352 21.2109 38.0508 22.3008 38.6484 23.6367ZM25.0078 28.5C24.3984 29.7187 23.0508 30.2578 21.6211 29.8711C21.0469 29.707 20.4375 29.2734 20.1445 28.7812C19.7344 28.1133 19.6875 28.125 22.5586 28.125H25.207L25.0078 28.5ZM40.0781 28.2539C40.0781 28.7578 39.2344 29.6133 38.5078 29.8242C37.3828 30.1641 36.1758 29.9297 35.543 29.2734C35.168 28.875 34.9219 28.4648 34.9219 28.2539C34.9219 28.1602 35.7539 28.125 37.5 28.125C39.2461 28.125 40.0781 28.1602 40.0781 28.2539Z" fill="#E9284A"/>
<path d="M29.3555 19.9805L29.0625 20.2617V27.0117V33.75H27.0117C24.9844 33.75 24.9492 33.75 24.668 34.043C24.4805 34.2188 24.375 34.4648 24.375 34.6875C24.375 34.9102 24.4805 35.1562 24.668 35.332L24.9492 35.625H30H35.0508L35.332 35.332C35.7188 34.957 35.7188 34.418 35.332 34.043C35.0508 33.75 35.0156 33.75 32.9883 33.75H30.9375V27.0117V20.2617L30.6445 19.9805C30.4688 19.793 30.2227 19.6875 30 19.6875C29.7773 19.6875 29.5312 19.793 29.3555 19.9805Z" fill="#E9284A"/>
<path d="M13.418 49.043C13.2305 49.2188 13.125 49.4648 13.125 49.6875C13.125 49.9102 13.2305 50.1562 13.418 50.332L13.6992 50.625H19.043H24.375V52.7578V54.8906L23.1562 53.6953C21.5391 52.1016 21.5859 52.1016 19.9688 53.6953L18.75 54.8906V53.9766C18.75 53.1797 18.7148 53.0391 18.457 52.793C18.2812 52.6055 18.0352 52.5 17.8125 52.5C17.5898 52.5 17.3438 52.6055 17.168 52.793C16.875 53.0742 16.875 53.0977 16.875 55.3125C16.875 57.5273 16.875 57.5508 17.168 57.832C17.3438 58.0195 17.5781 58.125 17.8242 58.125C18.1523 58.125 18.4219 57.9141 19.8867 56.4609L21.5625 54.7969L23.2383 56.4609C24.7031 57.9141 24.9727 58.125 25.3008 58.125C25.5469 58.125 25.7812 58.0195 25.957 57.832L26.25 57.5508V54.082V50.625H36.2695H46.3008L46.582 50.332C46.9688 49.957 46.9688 49.418 46.582 49.043L46.3008 48.75H30H13.6992L13.418 49.043Z" fill="#211D1E"/>
</svg>
