<svg width="60" height="60" viewBox="0 0 60 60" fill="none" xmlns="http://www.w3.org/2000/svg">
<path d="M36.4453 3.16406C35.1211 3.35156 33.4219 3.75 32.1914 4.17188C30.5391 4.73438 28.1602 5.94141 26.836 6.87891C25.4649 7.86328 23.3789 9.92578 22.4649 11.2148C21.0117 13.2539 19.9922 15.75 19.6055 18.1523L19.4063 19.4297L18.4688 19.5C14.4492 19.8398 10.0782 21.5391 6.73831 24.0703C3.31643 26.6602 0.855496 30.5391 0.175808 34.3828C-0.058567 35.7539 -0.058567 38.3203 0.187527 39.7383C0.667996 42.5391 2.01565 45.375 3.92581 47.625L4.6055 48.4219L4.66409 49.5586C4.74612 51.3984 4.16018 53.0977 2.94143 54.5508C2.41409 55.1719 2.34378 55.3008 2.34378 55.793C2.34378 56.2266 2.40237 56.4023 2.64846 56.6484C2.94143 56.9297 3.03518 56.9531 4.03128 56.9531C6.62112 56.9531 9.51565 55.8633 11.7305 54.082L12.5391 53.4258L13.3242 53.6602C15.7735 54.3867 18.1992 54.6562 21.3282 54.5742C23.2735 54.5273 24 54.457 25.1485 54.2109C33.3399 52.4766 39.4219 46.5234 40.4414 39.2109L40.5703 38.25L42.0586 38.1094C43.6407 37.957 45.3867 37.6289 46.6758 37.2539L47.461 37.0195L48.2696 37.6758C50.4844 39.457 53.3789 40.5469 55.9688 40.5469C56.9649 40.5469 57.0586 40.5234 57.3516 40.2422C57.5977 39.9961 57.6563 39.8203 57.6563 39.3867C57.6563 38.8945 57.586 38.7656 57.0586 38.1445C55.8399 36.6914 55.2539 34.9922 55.336 33.1523L55.3946 32.0156L56.0742 31.2188C58.0196 28.9219 59.3438 26.1094 59.8242 23.2148C60.1289 21.4453 60.0235 18.5391 59.6133 16.957C58.8633 14.1094 57.3867 11.5664 55.1953 9.375C52.1836 6.35156 48.2578 4.32422 43.6172 3.38672C42.6094 3.1875 41.8594 3.12891 39.7852 3.09375C38.3672 3.08203 36.8672 3.10547 36.4453 3.16406ZM42.3399 5.69531C49.9453 6.75 56.0625 11.918 57.375 18.3984C57.668 19.8516 57.5508 22.5 57.1289 24.0234C56.5664 26.0625 55.5 28.0195 53.9766 29.8125C53.0391 30.9258 52.9102 31.3594 52.9102 33.5156C52.9102 35.1445 53.0742 36.0703 53.5664 37.2305C53.8242 37.8516 53.7891 37.8516 52.5586 37.3477C51.4102 36.8906 50.2617 36.1289 49.125 35.1094C48.1641 34.2305 48.0117 34.1953 46.9219 34.582C45.7969 34.9688 43.9805 35.3789 42.5625 35.5664C40.418 35.8477 40.6172 35.9414 40.3946 34.5352C39.7969 30.8906 38.0157 27.5977 35.2149 24.9844L34.3125 24.1406H42.1641H50.0039L50.3203 23.8359C50.7539 23.3906 50.7539 22.5469 50.3203 22.1016L50.0039 21.7969H40.3711H30.7383L29.7539 21.3398C27.7852 20.4375 25.043 19.7109 22.8282 19.5117C21.7852 19.418 21.8321 19.5 22.1016 18.1875C22.6875 15.3164 24 12.9258 26.1914 10.7227C30.2227 6.67969 36.1407 4.82812 42.3399 5.69531ZM22.3242 21.9609C23.5547 22.0312 25.1953 22.3594 26.5899 22.793C32.5547 24.6914 36.8789 29.1914 37.8985 34.5703C38.1328 35.7539 38.1328 38.168 37.9219 39.375C37.4297 42.1289 36.0117 44.7305 33.8086 46.9336C30.4102 50.332 25.8047 52.1602 20.625 52.1602C17.9883 52.1602 15.375 51.7617 13.2305 51.0352C11.9649 50.6016 11.8594 50.625 10.875 51.5156C9.73831 52.5352 8.63675 53.2617 7.46487 53.7422C6.93753 53.9531 6.44534 54.1406 6.37503 54.1406C6.31643 54.1406 6.44534 53.6016 6.668 52.9336C7.06643 51.7852 7.07815 51.668 7.08987 50.0391C7.08987 47.7539 6.97268 47.3438 6.02346 46.2188C4.96878 44.9883 4.39456 44.1094 3.73831 42.7266C2.87112 40.8984 2.56643 39.668 2.49612 37.5469C2.40237 35.0859 2.7305 33.5625 3.77346 31.418C6.02346 26.8359 11.1446 23.25 16.9336 22.1953C18 22.0078 20.2735 21.8203 20.918 21.8789C21.1172 21.8906 21.75 21.9375 22.3242 21.9609Z" fill="#191717"/>
<path d="M29.1328 15.0703C28.8867 15.3164 28.8281 15.4922 28.8281 15.9375C28.8281 16.3828 28.8867 16.5586 29.1328 16.8047C29.3789 17.0508 29.5547 17.1094 30 17.1094C30.4453 17.1094 30.6211 17.0508 30.8672 16.8047C31.1133 16.5586 31.1719 16.3828 31.1719 15.9375C31.1719 15.4922 31.1133 15.3164 30.8672 15.0703C30.6211 14.8242 30.4453 14.7656 30 14.7656C29.5547 14.7656 29.3789 14.8242 29.1328 15.0703Z" fill="#E9284A"/>
<path d="M33.8203 15.0703C33.5742 15.3164 33.5156 15.4922 33.5156 15.9375C33.5156 16.3828 33.5742 16.5586 33.8203 16.8047L34.1367 17.1094H42.0703H50.0039L50.3203 16.8047C50.5664 16.5586 50.625 16.3828 50.625 15.9375C50.625 15.4922 50.5664 15.3164 50.3203 15.0703L50.0039 14.7656H42.0703H34.1367L33.8203 15.0703Z" fill="#E9284A"/>
<path d="M9.67969 33.8203C9.43359 34.0664 9.375 34.2422 9.375 34.6875C9.375 35.4609 9.77344 35.8594 10.5469 35.8594C10.9922 35.8594 11.168 35.8008 11.4141 35.5547C11.8477 35.1094 11.8477 34.2656 11.4141 33.8203C11.168 33.5742 10.9922 33.5156 10.5469 33.5156C10.1016 33.5156 9.92578 33.5742 9.67969 33.8203Z" fill="#E9284A"/>
<path d="M14.3672 33.8203C13.9336 34.2656 13.9336 35.1094 14.3672 35.5547L14.6836 35.8594H22.6172H30.5508L30.8672 35.5547C31.1133 35.3086 31.1719 35.1328 31.1719 34.6875C31.1719 34.2422 31.1133 34.0664 30.8672 33.8203L30.5508 33.5156H22.6172H14.6836L14.3672 33.8203Z" fill="#E9284A"/>
<path d="M9.67969 40.8516C9.24609 41.2969 9.24609 42.1406 9.67969 42.5859L9.99609 42.8906H20.2734H30.5508L30.8672 42.5859C31.3008 42.1406 31.3008 41.2969 30.8672 40.8516L30.5508 40.5469H20.2734H9.99609L9.67969 40.8516Z" fill="#E9284A"/>
</svg>
