<svg width="128" height="128" viewBox="0 0 128 128" fill="none" xmlns="http://www.w3.org/2000/svg">
<g clip-path="url(#clip0)">
<path d="M38.554 74.7693C38.0155 74.579 37.4645 74.3793 36.9153 74.1713V65.4003C38.2958 65.7308 39.1185 66.4288 39.1918 66.4925C39.9453 67.175 41.1095 67.1238 41.8003 66.375C42.4948 65.622 42.4473 64.4485 41.6943 63.754C41.5888 63.6568 39.8168 62.06 36.9153 61.6248V59.8335C36.9153 58.8093 36.0848 57.9788 35.0605 57.9788C34.0363 57.9788 33.2058 58.8093 33.2058 59.8335V61.7673C32.9305 61.8278 32.6513 61.8975 32.3658 61.9838C29.7125 62.783 27.73 65.0538 27.1918 67.9098C26.7013 70.5138 27.5353 73.0248 29.369 74.463C30.3405 75.225 31.5498 75.923 33.206 76.6603V87.7815C31.7733 87.676 30.7808 87.3263 29.1545 86.2623C28.2973 85.7013 27.1475 85.9418 26.587 86.799C26.0263 87.6563 26.2665 88.8058 27.1238 89.3665C29.4948 90.9175 31.1148 91.38 33.206 91.4978V93.5035C33.206 94.5278 34.0365 95.3583 35.0608 95.3583C36.085 95.3583 36.9155 94.5278 36.9155 93.5035V91.3503C41.0768 90.5338 43.5075 87.1025 44.0463 83.8973C44.7385 79.7765 42.583 76.1935 38.554 74.7693ZM31.6578 71.5443C30.9183 70.964 30.6035 69.8348 30.8368 68.5968C31.0458 67.4875 31.778 66.1548 33.2055 65.6158V72.5335C32.623 72.2175 32.0963 71.888 31.6578 71.5443ZM40.3875 83.2825C40.102 84.9805 38.9195 86.7803 36.915 87.4975V78.1228C37.0488 78.1708 37.1798 78.2183 37.3175 78.267C40.745 79.4783 40.534 82.412 40.3875 83.2825Z" fill="#742AD2"/>
<path d="M127.898 72.3825C127.579 70.933 126.557 69.7622 125.164 69.2502L119.855 67.299C118.894 66.9457 117.828 67.4385 117.475 68.4C117.121 69.3615 117.614 70.4275 118.576 70.7807L123.884 72.732C124.161 72.8335 124.248 73.056 124.275 73.1795C124.302 73.303 124.317 73.5412 124.108 73.7495L76.7193 121.138C76.5105 121.347 76.272 121.332 76.149 121.305C76.0255 121.278 75.8033 121.191 75.7018 120.914L69.042 102.795C68.603 101.601 67.6665 100.664 66.4727 100.226L48.3532 93.5662C48.0767 93.4645 47.99 93.2422 47.9627 93.1187C47.9355 92.9952 47.921 92.757 48.1292 92.5487L95.5185 45.1597C95.727 44.9512 95.9648 44.966 96.0885 44.993C96.212 45.0202 96.4342 45.107 96.5358 45.3835L103.195 63.503C103.634 64.6972 104.571 65.6335 105.765 66.0722L110.373 67.766C111.335 68.1197 112.401 67.6265 112.754 66.665C113.107 65.7035 112.614 64.6375 111.653 64.2842L107.044 62.5902C106.874 62.5277 106.74 62.394 106.677 62.2235L100.018 44.104C99.506 42.711 98.3353 41.6892 96.886 41.3702C95.4372 41.051 93.9453 41.4875 92.8955 42.5367L91.1015 44.3307V25.9292C91.1015 23.543 89.16 21.6015 86.7738 21.6015H67.8828C69.611 18.2415 69.071 14.007 66.2595 11.1957C63.8525 8.78873 60.362 7.99798 57.2347 8.99798C56.027 5.49448 52.699 2.96948 48.7905 2.96948C44.8823 2.96948 41.5545 5.49398 40.3465 8.99698C37.2195 7.99523 33.7325 8.78448 31.3218 11.1955C29.6348 12.8822 28.7057 15.125 28.7057 17.5107C28.7057 18.9577 29.0497 20.3515 29.6952 21.6012H28.1392C27.115 21.6012 26.2845 22.4317 26.2845 23.456C26.2845 24.4802 27.115 25.3107 28.1392 25.3107H41.3568V42.8655C39.3047 42.492 37.2158 42.2987 35.1155 42.2987C31.2495 42.2987 27.6115 42.9012 24.13 44.0607L10.1895 44.0612V25.929C10.1895 25.588 10.4668 25.3107 10.8077 25.3107H19.264C20.2882 25.3107 21.1187 24.4802 21.1187 23.456C21.1187 22.4317 20.2882 21.6012 19.264 21.6012H10.8073C8.421 21.6012 6.4795 23.5427 6.4795 25.929V57.075C6.4795 57.0862 6.481 57.0972 6.48125 57.1087C2.40125 62.8452 0 69.8545 0 77.414C0 84.9565 2.3655 92.15 6.84075 98.217C7.2045 98.71 7.76575 98.9707 8.33475 98.9707C8.71725 98.9707 9.103 98.853 9.43425 98.6085C10.2587 98.0005 10.434 96.8392 9.82575 96.0147C5.82425 90.5902 3.70925 84.158 3.70925 77.4137C3.70925 60.0967 17.7978 46.0085 35.1147 46.0085C49.6297 46.0085 62.1075 55.7875 65.5947 69.837L62.4548 72.977C61.5155 67.1455 58.736 61.7747 54.4255 57.5772C49.2205 52.5092 42.3625 49.718 35.1147 49.718C19.8433 49.718 7.41875 62.1422 7.41875 77.4137C7.41875 92.6852 19.843 105.11 35.1147 105.11C41.4178 105.11 47.5228 102.952 52.4277 99.016L56.4033 100.477C50.624 105.807 43.009 108.819 35.1147 108.819C27.9497 108.819 20.9365 106.332 15.367 101.816C14.5715 101.171 13.4035 101.293 12.7583 102.089C12.113 102.884 12.235 104.052 13.0308 104.698C19.2588 109.748 27.1017 112.529 35.1147 112.529C44.5695 112.529 53.6647 108.667 60.2627 101.896L65.193 103.707C65.3635 103.77 65.4973 103.904 65.5598 104.075L72.2193 122.194C72.7313 123.587 73.902 124.609 75.351 124.928C75.6635 124.996 75.978 125.03 76.2895 125.03C77.423 125.03 78.5182 124.585 79.3418 123.761L126.731 76.3725C127.78 75.3232 128.217 73.8317 127.898 72.3825ZM10.189 52.706V47.7712H16.3105C14.0882 49.186 12.0355 50.8432 10.189 52.706ZM87.3917 25.9292V44.0615H56.2243V25.311H86.7735C87.1145 25.311 87.3917 25.5885 87.3917 25.9292ZM63.6365 13.8187C65.6722 15.8547 65.6722 19.1675 63.6367 21.203C63.5555 21.2845 63.3978 21.4195 63.124 21.6015H54.0872C56.7795 16.5372 57.4775 14.0592 57.6577 12.8142C59.6447 11.8427 62.0452 12.2275 63.6365 13.8187ZM48.7902 6.67898C51.6695 6.67898 54.012 9.02148 54.012 11.9005C54.012 12.4365 53.707 14.7095 49.8623 21.6012H47.7185C43.8745 14.7112 43.5687 12.4375 43.5687 11.9005C43.5687 9.02148 45.911 6.67898 48.7902 6.67898ZM33.9445 21.2032C32.9582 20.217 32.415 18.9057 32.415 17.511C32.415 16.1162 32.9582 14.805 33.9445 13.8187C35.5385 12.2247 37.9355 11.8422 39.923 12.8152C40.1035 14.0607 40.801 16.5375 43.4933 21.6015H34.457C34.1833 21.4197 34.026 21.2847 33.9445 21.2032ZM45.0658 25.311H52.5148V44.0615H46.0925C46.0842 44.0615 46.0765 44.0625 46.0682 44.0627C45.7357 43.9532 45.4012 43.8502 45.0658 43.7507V25.311ZM57.0617 50.02C56.0527 49.2102 55.001 48.4605 53.9142 47.7712H87.392V48.0402L80.212 55.2202H62.3008C60.7472 53.317 58.9927 51.57 57.0617 50.02ZM64.9498 58.9297H76.5023L68.5977 66.8342C67.716 64.0582 66.486 61.4012 64.9498 58.9297ZM35.115 101.4C21.8888 101.4 11.1287 90.6403 11.1287 77.4142C11.1287 64.1882 21.889 53.428 35.115 53.428C47.8478 53.428 58.519 63.68 59.0765 76.356L45.5065 89.926C44.4572 90.9753 44.021 92.467 44.34 93.9162C44.659 95.3655 45.681 96.5362 47.0737 97.0482L48.243 97.478C44.3587 100.024 39.7998 101.4 35.115 101.4Z" fill="#742AD2"/>
<path d="M90.9459 98.7749C91.1794 98.7749 91.4174 98.7304 91.6469 98.6364C92.5951 98.2489 93.0496 97.1659 92.6619 96.2176L81.9824 70.0916C81.5951 69.1436 80.5124 68.6884 79.5636 69.0766C78.6154 69.4641 78.1609 70.5471 78.5486 71.4954L89.2281 97.6214C89.5219 98.3399 90.2146 98.7749 90.9459 98.7749Z" fill="#742AD2"/>
<path d="M68.8939 77.8262C67.5944 79.1257 66.9589 80.9102 67.1044 82.851C67.2422 84.687 68.0742 86.4545 69.4469 87.8272C70.8199 89.2002 72.5872 90.0322 74.4234 90.1697C74.6054 90.1835 74.7862 90.1902 74.9652 90.1902C76.6947 90.1902 78.2704 89.5577 79.4481 88.3802C80.7476 87.0807 81.3831 85.2962 81.2376 83.3555C81.0999 81.5192 80.2679 79.752 78.8951 78.379C77.5222 77.006 75.7549 76.174 73.9187 76.0365C71.9764 75.8902 70.1932 76.5267 68.8939 77.8262ZM76.2722 81.0022C77.0174 81.7477 77.4674 82.682 77.5387 83.633C77.6022 84.4792 77.3486 85.2337 76.8249 85.7575C76.3014 86.281 75.5462 86.5335 74.7007 86.471C73.7497 86.3997 72.8154 85.95 72.0699 85.2045C71.3247 84.459 70.8747 83.5247 70.8034 82.574C70.7399 81.7277 70.9934 80.9732 71.5172 80.4495C71.9879 79.9787 72.6452 79.7265 73.3884 79.7265C73.4717 79.7265 73.5562 79.7297 73.6414 79.736C74.5924 79.807 75.5267 80.2567 76.2722 81.0022C76.2719 81.0022 76.2719 81.0022 76.2722 81.0022Z" fill="#742AD2"/>
<path d="M97.9778 92.342C99.7076 92.342 101.283 91.7095 102.461 90.532C105.066 87.9273 104.818 83.4408 101.908 80.5308C101.908 80.5308 101.908 80.5308 101.908 80.5308C98.9983 77.621 94.5118 77.3733 91.9068 79.9778C89.3021 82.5825 89.5501 87.069 92.4598 89.9788C93.8328 91.3518 95.6001 92.1838 97.4363 92.3213C97.6186 92.3353 97.7991 92.342 97.9778 92.342ZM94.5301 82.601C95.0213 82.1098 95.6876 81.8715 96.4041 81.8715C97.3768 81.8715 98.4421 82.3113 99.2848 83.154C100.748 84.6175 100.996 86.7508 99.8376 87.9093C99.3141 88.4325 98.5593 88.686 97.7136 88.6228C96.7626 88.5515 95.8281 88.1018 95.0828 87.3563C93.6196 85.8925 93.3716 83.7595 94.5301 82.601Z" fill="#742AD2"/>
</g>
<defs>
<clipPath id="clip0">
<rect width="128" height="128" fill="white"/>
</clipPath>
</defs>
</svg>
