<svg viewBox="0 0 116 116" fill="none" xmlns="http://www.w3.org/2000/svg">
<g clip-path="url(#clip0)">
<path d="M111.93 79.4737C111.821 78.7283 111.665 77.9906 111.466 77.2642C111.442 77.1768 111.416 77.0902 111.391 77.0032C110.938 75.4264 110.275 73.9177 109.419 72.5183C114.221 68.3457 116.635 62.0578 115.857 55.7436C115.826 55.4751 115.777 55.2128 115.735 54.9472C115.661 54.4882 115.577 54.0344 115.472 53.587C115.396 53.2594 115.314 52.9358 115.221 52.6144C115.119 52.2639 115.001 51.9211 114.88 51.5788C114.751 51.2104 114.629 50.8411 114.478 50.4827L114.475 50.4754C114.027 49.428 113.487 48.4228 112.859 47.4719C112.781 47.3512 112.707 47.2275 112.626 47.1085C112.337 46.6862 112.03 46.2802 111.708 45.8815C111.6 45.7487 111.49 45.6196 111.379 45.4895C111.047 45.101 110.711 44.7181 110.348 44.3556C110.278 44.2851 110.201 44.2224 110.129 44.153C109.508 43.5538 108.848 42.9969 108.153 42.486C107.852 42.2624 107.551 42.039 107.236 41.8326C107.117 41.7551 107.013 41.662 106.892 41.5868C107.808 39.442 108.275 37.1326 108.266 34.8004C108.266 34.2198 108.235 33.6466 108.179 33.0804C108.16 32.8924 108.124 32.7102 108.099 32.5237C108.05 32.1499 108.002 31.7766 107.929 31.4104C107.885 31.1893 107.825 30.975 107.772 30.7568C107.695 30.4337 107.62 30.1102 107.524 29.7944C107.456 29.5658 107.372 29.344 107.294 29.1192C107.192 28.8252 107.091 28.5313 106.973 28.2445C106.88 28.0159 106.775 27.7936 106.672 27.57C106.548 27.2988 106.422 27.0288 106.284 26.7653C106.167 26.5417 106.042 26.3242 105.915 26.1062C105.77 25.8563 105.622 25.6092 105.466 25.3674C105.326 25.1515 105.18 24.941 105.03 24.7317C104.867 24.5026 104.7 24.2777 104.526 24.057C104.363 23.8511 104.197 23.649 104.026 23.4507C103.847 23.2434 103.662 23.0418 103.473 22.8431C103.289 22.6489 103.103 22.4577 102.91 22.2724C102.718 22.0871 102.518 21.909 102.317 21.7325C102.111 21.5522 101.905 21.3727 101.692 21.2021C101.488 21.0397 101.277 20.8872 101.066 20.7341C100.839 20.5689 100.613 20.4028 100.378 20.2485C100.165 20.1094 99.9453 19.9826 99.7264 19.8525C99.4793 19.7055 99.235 19.5555 98.9801 19.4205C98.7586 19.3031 98.5284 19.2009 98.3014 19.0929C98.0368 18.9671 97.776 18.8357 97.5046 18.7233C97.2735 18.6275 97.0335 18.55 96.7977 18.4642C96.519 18.3627 96.2447 18.2523 95.9597 18.1649C95.6826 18.0799 95.3958 18.0183 95.1128 17.9467C94.6633 17.8332 94.2077 17.7376 93.7459 17.6594C93.4242 17.6053 93.1055 17.5425 92.7783 17.5063C92.3927 9.14803 86.402 2.10883 78.213 0.391963C70.024 -1.32513 61.7104 2.71488 57.9999 10.2142C54.2904 2.7151 45.977 -1.32513 37.7878 0.391736C29.5986 2.1086 23.6077 9.14758 23.2221 17.5058C22.7769 17.5547 22.3405 17.6313 21.9062 17.7133C21.8115 17.7312 21.7139 17.7389 21.6196 17.7584C21.0748 17.8706 20.5401 18.0101 20.0149 18.1721C19.8357 18.2274 19.6646 18.299 19.4879 18.3599C19.144 18.4784 18.7996 18.5958 18.4657 18.7349C18.2609 18.8203 18.0647 18.9209 17.8637 19.014C17.5697 19.1502 17.2744 19.2841 16.9897 19.4356C16.7817 19.5464 16.5828 19.6697 16.38 19.7884C16.1145 19.944 15.8489 20.0983 15.5927 20.2673C15.392 20.3994 15.1996 20.5422 15.0045 20.6822C14.7601 20.858 14.5168 21.0347 14.2821 21.2227C14.0931 21.3741 13.9114 21.5329 13.729 21.6917C13.5038 21.8879 13.2818 22.0862 13.0672 22.2935C12.8923 22.4622 12.7235 22.636 12.5559 22.8121C12.3506 23.0271 12.1506 23.2461 11.9566 23.4716C11.7976 23.6562 11.6429 23.8438 11.492 24.0348C11.3071 24.2686 11.1295 24.5072 10.9564 24.7505C10.8157 24.9485 10.6773 25.1477 10.5445 25.3518C10.3807 25.6039 10.2266 25.8618 10.0758 26.1225C9.95477 26.3319 9.83401 26.5405 9.72141 26.7553C9.57891 27.0267 9.44931 27.305 9.32131 27.5848C9.22207 27.8013 9.12058 28.0163 9.02995 28.2377C8.91055 28.5297 8.80702 28.829 8.70325 29.1288C8.62668 29.3494 8.54511 29.5674 8.47737 29.7923C8.38131 30.1111 8.30496 30.4376 8.22703 30.7638C8.1756 30.9791 8.11556 31.1904 8.07228 31.4086C7.99911 31.7768 7.9504 32.1524 7.90101 32.5285C7.87676 32.7134 7.84051 32.8944 7.82216 33.0809C7.76643 33.6473 7.73494 34.2207 7.73494 34.8013C7.72588 37.1331 8.19349 39.4422 9.10947 41.5868C8.98555 41.6638 8.87816 41.759 8.75627 41.8385C8.45177 42.0383 8.16064 42.2552 7.86861 42.4715C7.15585 42.9937 6.47957 43.564 5.84475 44.1786C5.78313 44.2387 5.71607 44.2928 5.65535 44.3538C5.29013 44.7183 4.95234 45.103 4.61907 45.4938C4.51032 45.6218 4.40134 45.7487 4.29577 45.8794C3.97269 46.2793 3.66389 46.6869 3.37458 47.1103C3.29437 47.2277 3.22187 47.3498 3.14394 47.469C2.3068 48.7533 1.62735 50.1342 1.12054 51.581C0.99978 51.9224 0.882196 52.2645 0.780244 52.6146C0.687808 52.9363 0.60534 53.2596 0.529443 53.5874C0.424319 54.0351 0.340039 54.4889 0.266634 54.9477C0.224947 55.2132 0.175557 55.4753 0.144745 55.744C-0.63326 62.0587 1.77937 68.3469 6.5813 72.5205C5.72558 73.9198 5.06267 75.428 4.61023 77.0044C4.58486 77.0914 4.55925 77.1782 4.53501 77.2656C4.33519 77.992 4.18022 78.7301 4.07102 79.4755C4.05335 79.5969 4.04202 79.7197 4.02684 79.8418C3.92557 80.613 3.87233 81.3897 3.8678 82.1677C3.82973 90.7235 9.73342 98.1603 18.0749 100.064C18.1304 100.279 18.2054 100.485 18.2672 100.697C18.3277 100.903 18.388 101.109 18.4546 101.313C18.6066 101.78 18.777 102.238 18.9596 102.69C19.0183 102.834 19.0713 102.981 19.1329 103.124C19.9139 104.939 20.9452 106.635 22.1965 108.164C22.2742 108.259 22.3564 108.35 22.4357 108.443C22.7701 108.838 23.1163 109.221 23.4776 109.59C23.5986 109.713 23.7221 109.834 23.846 109.955C24.1827 110.282 24.5296 110.597 24.8868 110.901C25.0334 111.026 25.1787 111.152 25.3284 111.274C25.6911 111.566 26.0656 111.842 26.4469 112.11C26.5969 112.216 26.7421 112.328 26.8951 112.43C27.4168 112.778 27.9511 113.107 28.5027 113.408C28.6142 113.469 28.7322 113.519 28.8451 113.578C29.2946 113.813 29.7499 114.037 30.2169 114.24C30.4557 114.344 30.7017 114.432 30.9448 114.528C31.2989 114.666 31.6542 114.801 32.0167 114.921C32.2822 115.008 32.5507 115.087 32.8207 115.164C33.1841 115.268 33.5509 115.363 33.9209 115.448C34.1855 115.509 34.4499 115.568 34.7182 115.619C35.1344 115.698 35.5553 115.758 35.979 115.812C36.208 115.841 36.4346 115.878 36.6661 115.899C37.3268 115.962 37.9929 116.001 38.6673 116.001C46.9943 115.988 54.5489 111.12 58.0003 103.542C61.4519 111.12 69.0063 115.988 77.3333 116.001C78.0078 116.001 78.6739 115.962 79.3345 115.899C79.5658 115.878 79.7924 115.841 80.0217 115.812C80.4451 115.758 80.8663 115.698 81.2825 115.619C81.5507 115.568 81.8151 115.509 82.0797 115.448C82.4501 115.363 82.8169 115.268 83.1799 115.164C83.45 115.087 83.7184 115.008 83.9842 114.921C84.3467 114.801 84.7019 114.666 85.056 114.528C85.2994 114.432 85.5452 114.344 85.784 114.24C86.2507 114.037 86.7061 113.813 87.1558 113.578C87.2684 113.519 87.3867 113.469 87.4981 113.408C88.0498 113.107 88.584 112.778 89.1058 112.43C89.2585 112.328 89.4037 112.216 89.5539 112.11C89.9352 111.842 90.3095 111.566 90.6724 111.274C90.8224 111.152 90.9677 111.026 91.114 110.901C91.4711 110.597 91.8182 110.281 92.1548 109.955C92.2787 109.834 92.4022 109.713 92.5232 109.59C92.8848 109.221 93.2308 108.838 93.5652 108.443C93.6444 108.35 93.7267 108.259 93.8044 108.164C95.0557 106.635 96.0868 104.939 96.8679 103.124C96.9296 102.981 96.9826 102.834 97.0413 102.69C97.2239 102.238 97.394 101.78 97.5463 101.313C97.6129 101.109 97.6729 100.903 97.7336 100.697C97.7955 100.485 97.8705 100.279 97.926 100.064C106.268 98.1609 112.172 90.7239 112.133 82.1677C112.129 81.3901 112.075 80.6135 111.974 79.8423C111.959 79.7188 111.948 79.5958 111.93 79.4737ZM56.0673 19.3344H51.8445C50.9029 16.6712 48.1796 15.0737 45.3955 15.5513C42.6113 16.0289 40.5763 18.4429 40.5763 21.2676C40.5763 24.0923 42.6113 26.5063 45.3955 26.9839C48.1796 27.4615 50.9029 25.864 51.8445 23.2008H56.0673V30.3155L47.6733 42.0667L40.5722 38.951C40.577 38.8549 40.6008 38.7645 40.6008 38.6671C40.6291 35.8372 38.6308 33.3915 35.8521 32.8552C33.0733 32.3189 30.3084 33.8457 29.2819 36.4829C28.2553 39.12 29.2606 42.1142 31.6707 43.5977C34.0808 45.0813 37.2067 44.6299 39.0989 42.5257L46.1195 45.6064C46.6062 45.8203 47.1323 45.9306 47.664 45.9302C48.9148 45.9315 50.0898 45.3296 50.8188 44.313L56.0675 36.9652V52.2H40.2449C39.3033 49.5368 36.58 47.9393 33.7958 48.4169C31.0117 48.8945 28.9767 51.3085 28.9767 54.1332C28.9767 56.9579 31.0117 59.3719 33.7958 59.8495C36.58 60.3271 39.3033 58.7296 40.2449 56.0664H56.0675V63.7996H51.8447C50.9031 61.1364 48.1799 59.5389 45.3957 60.0165C42.6115 60.4941 40.5765 62.9081 40.5765 65.7328C40.5765 68.5576 42.6115 70.9716 45.3957 71.4491C48.1799 71.9267 50.9031 70.3293 51.8447 67.6661H56.0675V75.3992H40.2519C38.4104 75.4037 36.8258 76.7028 36.4609 78.5078L35.0972 85.33C32.4202 86.1451 30.7162 88.7664 31.0581 91.5438C31.4 94.3212 33.6889 96.4511 36.4837 96.5925C39.2786 96.7339 41.7707 94.8462 42.3913 92.1172C43.0118 89.3883 41.5813 86.6085 39.0001 85.5273L40.2519 79.2657H56.0675V94.7322C56.0567 104.337 48.273 112.121 38.6678 112.132C38.1059 112.132 37.5515 112.1 37.003 112.048C36.8048 112.029 36.6104 111.995 36.4137 111.969C36.0694 111.924 35.7257 111.877 35.3879 111.812C35.1547 111.767 34.9257 111.711 34.6957 111.657C34.4005 111.588 34.1069 111.515 33.8176 111.431C33.5808 111.361 33.3468 111.286 33.1139 111.207C32.8364 111.114 32.5622 111.013 32.2913 110.906C32.0665 110.817 31.8427 110.726 31.6225 110.628C31.3431 110.504 31.0699 110.369 30.7987 110.231C30.6016 110.13 30.4027 110.033 30.2096 109.925C29.8952 109.749 29.5904 109.559 29.2882 109.365C29.1518 109.277 29.0111 109.196 28.8772 109.105C27.985 108.496 27.1511 107.807 26.3858 107.045C26.3568 107.016 26.3305 106.984 26.3019 106.955C25.9528 106.602 25.6189 106.235 25.2999 105.853C25.241 105.782 25.1859 105.708 25.1281 105.636C24.8479 105.289 24.5789 104.932 24.3257 104.564C24.2609 104.469 24.1992 104.373 24.1363 104.277C23.9024 103.922 23.6815 103.559 23.4731 103.187C23.4104 103.074 23.3487 102.961 23.288 102.847C23.0943 102.481 22.9151 102.107 22.7474 101.726C22.6922 101.601 22.6353 101.476 22.5827 101.349C22.4248 100.966 22.2846 100.575 22.1536 100.179C22.1108 100.049 22.0628 99.9211 22.0229 99.7899C21.8913 99.3574 21.7809 98.9161 21.6828 98.4702C21.6618 98.3746 21.6341 98.2819 21.6146 98.1856C20.6284 93.3194 21.7683 88.2637 24.7475 84.2917C25.3889 83.4378 25.2163 82.2254 24.3624 81.5843C23.5085 80.9431 22.2961 81.1155 21.655 81.9694C18.8817 85.6451 17.3877 90.1276 17.4013 94.7322C17.4013 95.1151 17.4387 95.488 17.4589 95.8661C11.6179 93.8531 7.70775 88.3437 7.73494 82.1659C7.73471 81.37 7.79928 80.5754 7.92774 79.7899C7.94269 79.6975 7.9769 79.6119 7.99367 79.5201C8.40148 77.267 9.34713 75.1455 10.75 73.3357C10.7625 73.3198 10.7645 73.2988 10.7763 73.2827C12.6017 70.919 15.1147 69.1795 17.9698 68.3034C18.9906 67.9896 19.5636 66.9075 19.2498 65.8867C18.936 64.8658 17.854 64.2928 16.8331 64.6066C13.8384 65.5244 11.1283 67.1935 8.96108 69.4547C5.72558 66.5242 3.8764 62.365 3.86825 57.9997C3.87323 57.351 3.91832 56.7033 4.00328 56.0603C4.02888 55.8553 4.06286 55.6527 4.09662 55.4502C4.16889 55.0104 4.26382 54.5779 4.3728 54.15C4.42853 53.9334 4.4752 53.7134 4.54022 53.5007C4.70108 52.9705 4.89026 52.4494 5.10753 51.9397C5.23395 51.6435 5.38144 51.359 5.52576 51.0728C5.64561 50.8334 5.76976 50.5964 5.90185 50.3637C6.07947 50.0526 6.2614 49.7441 6.45941 49.4468C6.57337 49.2755 6.70047 49.1133 6.82122 48.9466C7.19754 48.4282 7.60535 47.9336 8.04238 47.4653C8.21343 47.2825 8.38222 47.0981 8.56279 46.9234C8.79954 46.6932 9.04468 46.4721 9.29548 46.2573C9.57188 46.0219 9.86007 45.7981 10.1546 45.581C10.3877 45.4082 10.6195 45.2351 10.8621 45.0754C11.3112 44.7822 11.7749 44.5121 12.2514 44.2661C14.4391 43.1281 16.8687 42.5336 19.3346 42.5331C20.4023 42.5331 21.2678 41.6677 21.2678 40.5999C21.2678 39.5321 20.4021 38.6667 19.3346 38.6667C17.0336 38.6712 14.7524 39.0894 12.5994 39.9012C11.934 38.2831 11.5948 36.5495 11.6012 34.8C11.603 30.0092 14.1368 25.5761 18.2641 23.1431C22.3911 20.71 27.4968 20.6396 31.6895 22.9575C32.6225 23.4693 33.7936 23.1308 34.3101 22.2006C34.8267 21.2703 34.4941 20.0974 33.5663 19.5763C31.5697 18.4759 29.3761 17.7793 27.1103 17.526C27.5598 9.69562 34.1579 3.64422 41.9977 3.87214C49.8376 4.10006 56.0732 10.5239 56.0675 18.3672V19.3344H56.0673ZM48.3342 21.2678C48.3342 22.3356 47.4685 23.2011 46.4009 23.2011C45.3334 23.2011 44.4677 22.3354 44.4677 21.2678C44.4677 20.2001 45.3331 19.3346 46.4009 19.3346C47.468 19.3355 48.333 20.2005 48.3342 21.2678ZM36.7343 38.6676C36.7343 39.7354 35.8686 40.6008 34.8011 40.6008C33.7333 40.6008 32.8679 39.7354 32.8679 38.6676C32.8679 37.5998 33.7335 36.7344 34.8011 36.7344C35.8682 36.7353 36.7332 37.6003 36.7343 38.6676ZM36.7343 54.1339C36.7343 55.2017 35.8686 56.0671 34.8011 56.0671C33.7333 56.0671 32.8679 55.2017 32.8679 54.1339C32.8679 53.0661 33.7335 52.2007 34.8011 52.2007C35.8682 52.2018 36.7332 53.0666 36.7343 54.1339ZM48.3342 65.7337C48.3342 66.8015 47.4685 67.667 46.4009 67.667C45.3334 67.667 44.4677 66.8015 44.4677 65.7337C44.4677 64.666 45.3331 63.8005 46.4009 63.8005C47.468 63.8016 48.333 64.6664 48.3342 65.7337ZM38.6675 90.8669C38.6675 91.9346 37.8021 92.8001 36.7343 92.8001C35.6665 92.8001 34.8011 91.9346 34.8011 90.8669C34.8011 89.7991 35.6665 88.9336 36.7343 88.9336C37.8016 88.9345 38.6666 89.7996 38.6675 90.8669ZM98.5427 95.8675C98.5628 95.4896 98.6002 95.1162 98.6002 94.7333C98.6138 90.1287 97.1199 85.6463 94.3465 81.9706C93.7054 81.1167 92.4931 80.9442 91.6392 81.5854C90.7853 82.2266 90.6129 83.4389 91.254 84.2928C94.2333 88.2648 95.3731 93.3205 94.3869 98.1868C94.3674 98.2828 94.3398 98.3757 94.3187 98.4713C94.2206 98.9172 94.1103 99.3585 93.9786 99.791C93.9385 99.9224 93.8907 100.05 93.8479 100.181C93.7172 100.576 93.5772 100.966 93.4195 101.349C93.3667 101.477 93.3091 101.603 93.2534 101.729C93.0858 102.109 92.9072 102.483 92.7137 102.848C92.6532 102.962 92.5916 103.075 92.5286 103.188C92.3207 103.56 92.0998 103.923 91.8655 104.278C91.8025 104.374 91.7409 104.47 91.6761 104.565C91.4228 104.933 91.1539 105.29 90.8736 105.637C90.8156 105.709 90.7608 105.783 90.7019 105.854C90.3836 106.236 90.0496 106.603 89.6998 106.956C89.6711 106.985 89.6448 107.017 89.616 107.046C88.8507 107.808 88.0167 108.498 87.1245 109.106C86.9906 109.198 86.8499 109.278 86.7135 109.366C86.4115 109.56 86.1066 109.75 85.7921 109.926C85.5989 110.034 85.4 110.132 85.2026 110.232C84.9317 110.37 84.6586 110.505 84.38 110.629C84.1593 110.727 83.9348 110.818 83.7098 110.907C83.4391 111.014 83.1652 111.114 82.8879 111.208C82.655 111.287 82.4209 111.363 82.1842 111.432C81.8951 111.516 81.6015 111.589 81.306 111.658C81.0763 111.712 80.847 111.768 80.6139 111.813C80.2761 111.878 79.9324 111.925 79.588 111.97C79.3914 111.996 79.1972 112.03 78.9987 112.049C78.4505 112.101 77.8961 112.133 77.3342 112.133C67.729 112.122 59.9453 104.339 59.9344 94.7333V87.6187L68.3285 75.8675L75.4295 78.9832C75.4248 79.0792 75.401 79.1696 75.401 79.2668C75.3727 82.0968 77.3709 84.5425 80.1497 85.0785C82.9284 85.6148 85.6933 84.088 86.7199 81.4508C87.7464 78.8137 86.7412 75.8195 84.331 74.336C81.9209 72.8525 78.7951 73.3038 76.9028 75.408L69.8824 72.3273C68.2068 71.598 66.2496 72.1367 65.1832 73.6207L59.9344 80.9683V65.7337H75.7574C76.6989 68.3969 79.4224 69.9942 82.2064 69.5166C84.9903 69.039 87.0253 66.6248 87.0253 63.8003C87.0253 60.9758 84.9901 58.5618 82.2061 58.0842C79.4222 57.6066 76.6989 59.2041 75.7574 61.8673H59.9347V54.1339H64.1577C65.0993 56.7971 67.8228 58.3943 70.6068 57.9167C73.3907 57.4389 75.4257 55.0249 75.4257 52.2004C75.4257 49.3757 73.3905 46.9619 70.6065 46.4843C67.8226 46.0067 65.0993 47.6042 64.1577 50.2674H59.9349V40.6008H66.0842C67.9257 40.5963 69.5102 39.2972 69.8752 37.4922L71.2391 30.67C73.9166 29.8551 75.6207 27.2336 75.2791 24.456C74.9374 21.6784 72.6485 19.548 69.8534 19.4064C67.0584 19.2648 64.5658 21.1527 63.9452 23.8816C63.3245 26.6105 64.755 29.3909 67.3364 30.4723L66.0844 36.7341H59.9351V18.3676C59.9306 10.5246 66.1671 4.10142 74.007 3.87486C81.8468 3.6483 88.444 9.70061 88.8924 17.5307C86.5232 17.7944 84.2336 18.543 82.1663 19.7299C81.2464 20.2669 80.9338 21.4466 81.4673 22.3687C82.0009 23.2905 83.1794 23.6075 84.1034 23.0774C88.2913 20.6627 93.4489 20.6647 97.6351 23.0823C101.821 25.5002 104.4 29.9668 104.401 34.8009C104.408 36.5504 104.069 38.284 103.403 39.9021C101.25 39.0903 98.9688 38.6721 96.6679 38.6676C95.6001 38.6676 94.7346 39.533 94.7346 40.6008C94.7346 41.6686 95.6001 42.534 96.6679 42.534C99.134 42.5345 101.564 43.129 103.751 44.267C104.228 44.513 104.691 44.7833 105.141 45.0763C105.383 45.236 105.615 45.4093 105.848 45.5819C106.143 45.799 106.431 46.0228 106.707 46.2582C106.958 46.473 107.203 46.6941 107.44 46.9243C107.62 47.099 107.789 47.2834 107.96 47.4662C108.397 47.9345 108.805 48.4291 109.181 48.9475C109.302 49.1142 109.429 49.2765 109.543 49.4477C109.741 49.745 109.923 50.0533 110.101 50.3646C110.233 50.5973 110.357 50.834 110.477 51.0737C110.621 51.3599 110.768 51.6447 110.895 51.9406C111.112 52.4503 111.302 52.9714 111.462 53.5016C111.527 53.7143 111.574 53.9343 111.63 54.1509C111.739 54.5788 111.834 55.0113 111.906 55.4511C111.94 55.6536 111.974 55.856 111.999 56.0612C112.084 56.7042 112.129 57.3519 112.134 58.0006C112.126 62.3659 110.277 66.5253 107.042 69.4557C104.874 67.1944 102.164 65.5253 99.1696 64.6075C98.1487 64.2937 97.0668 64.8667 96.7528 65.8876C96.4388 66.9084 97.012 67.9903 98.0329 68.3043C100.885 69.1795 103.396 70.917 105.221 73.2775C105.234 73.2961 105.237 73.3196 105.251 73.3377C106.666 75.1604 107.617 77.2998 108.021 79.5717C108.035 79.6458 108.062 79.7147 108.074 79.789C108.203 80.5752 108.268 81.3704 108.267 82.167C108.294 88.345 104.384 93.8547 98.5427 95.8675ZM79.267 79.267C79.267 78.1992 80.1324 77.3338 81.2002 77.3338C82.268 77.3338 83.1335 78.1992 83.1335 79.267C83.1335 80.3348 82.268 81.2003 81.2002 81.2003C80.1331 81.1991 79.2681 80.3341 79.267 79.267ZM79.267 63.8005C79.267 62.7327 80.1324 61.8673 81.2002 61.8673C82.268 61.8673 83.1335 62.733 83.1335 63.8005C83.1335 64.868 82.268 65.7337 81.2002 65.7337C80.1331 65.7326 79.2681 64.8678 79.267 63.8005ZM67.6672 52.2007C67.6672 51.1329 68.5326 50.2674 69.6004 50.2674C70.6682 50.2674 71.5336 51.1329 71.5336 52.2007C71.5336 53.2684 70.6682 54.1339 69.6004 54.1339C68.5333 54.1328 67.6683 53.268 67.6672 52.2007ZM67.6672 25.1343C67.6672 24.0665 68.5326 23.2011 69.6004 23.2011C70.6682 23.2011 71.5336 24.0665 71.5336 25.1343C71.5336 26.2021 70.6682 27.0675 69.6004 27.0675C68.5333 27.0666 67.6683 26.2016 67.6672 25.1343Z" fill="#4CDCA8"/>
</g>
<defs>
<clipPath id="clip0">
<rect width="116" height="116" fill="white"/>
</clipPath>
</defs>
</svg>
