<svg width="116" height="116" viewBox="0 0 116 116" fill="none" xmlns="http://www.w3.org/2000/svg">
<g clip-path="url(#clip0)">
<path d="M60.3939 65.7141C56.0602 65.6939 51.7547 65.015 47.6252 63.7005C41.027 61.493 36.1262 55.9072 34.7959 49.0779C33.3403 42.0667 35.9931 34.6533 42.0724 28.7392C42.7247 28.104 43.4026 27.4954 44.1059 26.9136C50.3305 21.7024 58.7225 19.8914 66.5422 22.0718C74.1127 24.4881 79.3437 31.4066 79.6054 39.349C79.8888 43.9208 78.3987 48.4259 75.445 51.9271C73.167 54.7967 69.476 56.1521 65.8822 55.4388C64.4124 55.1338 63.1302 54.2437 62.3305 52.9734C61.613 51.7395 61.4289 50.2666 61.8208 48.8941C63.5115 42.5032 65.2305 32.7911 65.2475 32.6927C65.3676 32.0124 65.8415 31.4478 66.4907 31.2116C67.14 30.9754 67.8659 31.1035 68.3951 31.5477C68.9242 31.9919 69.1762 32.6846 69.0562 33.3649C68.9844 33.769 67.2918 43.3355 65.5595 49.8824C65.4359 50.2452 65.4669 50.6428 65.6454 50.9821C65.9127 51.352 66.3161 51.6005 66.7667 51.673C68.9667 52.0402 71.1889 51.1576 72.5375 49.3811C74.8312 46.637 75.9805 43.1152 75.7468 39.5464C75.5578 33.2244 71.412 27.7048 65.3931 25.7617C58.823 23.9546 51.7844 25.4984 46.5738 29.8894C45.9526 30.405 45.3485 30.9448 44.7689 31.5093C41.7633 34.4329 36.9638 40.4993 38.581 48.2907C39.6676 53.7339 43.5553 58.1949 48.7989 60.0154C57.8662 62.9078 70.8953 63.256 77.7602 54.7203C78.4347 53.9081 79.636 53.7871 80.4589 54.4486C81.2818 55.11 81.4218 56.3093 80.7735 57.1426C75.6972 63.4555 67.9723 65.7141 60.3939 65.7141Z" fill="#FF8540"/>
<path d="M53.775 55.6902C51.7314 55.7253 49.7381 55.0552 48.1308 53.7926C44.42 50.8228 44.3179 45.6637 45.3582 42.1503C45.7086 40.9802 46.179 39.8495 46.762 38.7762C48.2126 35.8494 50.5322 33.4422 53.4032 31.8841C56.9786 30.0289 61.347 30.7324 64.1591 33.6164C65.5543 35.1453 66.6051 36.9557 67.2408 38.9255C67.5775 39.9251 67.0509 41.01 66.0573 41.3639C65.0637 41.7177 63.9698 41.2099 63.5988 40.2226C63.1405 38.7673 62.3786 37.4259 61.3635 36.2869C59.724 34.6102 57.1693 34.2287 55.1115 35.3533C52.9584 36.5675 51.228 38.4112 50.1525 40.6369C49.7005 41.4708 49.3355 42.3489 49.0631 43.2575C48.3118 45.7989 48.4769 49.1155 50.55 50.7757C52.8164 52.5957 56.64 51.8262 58.7912 49.9704C60.3944 48.5271 61.7719 46.8514 62.8777 44.9992C63.2358 44.3992 63.8898 44.0391 64.5883 44.0574C65.2868 44.0756 65.9212 44.4693 66.2475 45.0872C66.5738 45.7051 66.5412 46.451 66.1624 47.0381C64.8526 49.2206 63.222 51.1936 61.3252 52.8909C59.2112 54.6746 56.5409 55.6647 53.775 55.6902Z" fill="#FF8540"/>
<path d="M110.2 116H5.8C2.59821 115.997 0.00351617 113.402 0 110.2V38.6667C3.0392e-05 37.917 0.433486 37.2349 1.11221 36.9165C1.79094 36.5981 2.59257 36.7008 3.16912 37.18L50.6075 76.6055C54.8998 80.1504 61.1043 80.1493 65.3954 76.6028L112.829 37.18C113.406 36.6998 114.208 36.5965 114.887 36.9151C115.567 37.2336 116 37.9164 116 38.6667V110.2C115.996 113.402 113.402 115.997 110.2 116ZM3.86667 42.7873V110.2C3.86805 111.267 4.73282 112.132 5.8 112.133H110.2C111.267 112.132 112.132 111.267 112.133 110.2V42.7873L67.8641 79.5786C62.1402 84.3089 53.8641 84.3101 48.1388 79.5815L3.86667 42.7873Z" fill="#FF8540"/>
<path d="M1.93523 40.6001C1.09312 40.6008 0.347389 40.0564 0.0915332 39.2541C-0.164322 38.4518 0.12856 37.5762 0.815632 37.0893L18.2156 24.7547C19.0868 24.1509 20.2816 24.3611 20.8944 25.2259C21.5072 26.0908 21.3094 27.2877 20.451 27.9095L3.05095 40.2441C2.72514 40.476 2.33511 40.6004 1.93523 40.6001Z" fill="#FF8540"/>
<path d="M114.065 40.6001C113.665 40.6004 113.275 40.476 112.949 40.2441L95.5495 27.9095C94.691 27.2877 94.4932 26.0908 95.106 25.2259C95.7188 24.3611 96.9136 24.1509 97.7848 24.7547L115.185 37.0893C115.872 37.5762 116.165 38.4518 115.909 39.2541C115.653 40.0564 114.907 40.6008 114.065 40.6001Z" fill="#FF8540"/>
<path d="M75.8628 13.5335C75.4626 13.5337 75.0722 13.4093 74.7459 13.1775L65.5046 6.62353C61.2147 2.9985 54.9461 2.96074 50.6129 6.53382L41.2556 13.1777C40.692 13.5774 39.9581 13.646 39.3302 13.3578C38.7023 13.0695 38.2759 12.4682 38.2115 11.7804C38.1472 11.0925 38.4548 10.4226 39.0183 10.0229L48.2596 3.46891C53.97 -1.20016 62.1895 -1.16302 67.8574 3.55745L76.9828 10.0221C77.6704 10.5089 77.9637 11.385 77.7077 12.1876C77.4516 12.9903 76.7053 13.5347 75.8628 13.5335Z" fill="#FF8540"/>
<path d="M3.19 114.956C2.37523 114.957 1.64747 114.447 1.37029 113.681C1.09312 112.914 1.32603 112.057 1.95267 111.536L46.0713 74.8799C46.6015 74.4292 47.333 74.2981 47.9867 74.5367C48.6404 74.7753 49.1154 75.3468 49.2305 76.0331C49.3455 76.7195 49.0829 77.4147 48.5427 77.8534L4.42405 114.509C4.07766 114.798 3.64096 114.956 3.19 114.956Z" fill="#FF8540"/>
<path d="M112.807 114.956C112.357 114.956 111.92 114.798 111.574 114.509L67.4556 77.8534C66.9155 77.4147 66.6528 76.7195 66.7679 76.0331C66.8829 75.3468 67.3579 74.7753 68.0116 74.5367C68.6653 74.2981 69.3968 74.4292 69.927 74.8799L114.044 111.536C114.671 112.057 114.904 112.914 114.627 113.681C114.35 114.447 113.622 114.957 112.807 114.956V114.956Z" fill="#FF8540"/>
<path d="M96.6671 55.0615C95.5993 55.0615 94.7337 54.1959 94.7337 53.1281V13.5486C94.7281 13.5892 94.6506 13.5344 94.5211 13.5335H21.4797C21.3943 13.5282 21.3104 13.5583 21.2477 13.6166L21.2671 53.1281C21.2671 54.1959 20.4015 55.0615 19.3337 55.0615C18.266 55.0615 17.4004 54.1959 17.4004 53.1281V13.5335C17.4628 11.3409 19.2869 9.6118 21.4797 9.6668H94.5211C96.7138 9.61202 98.5378 11.341 98.6004 13.5335V53.1281C98.6004 54.1959 97.7348 55.0615 96.6671 55.0615Z" fill="#FF8540"/>
</g>
<defs>
<clipPath id="clip0">
<rect width="116" height="116" fill="white"/>
</clipPath>
</defs>
</svg>
