<svg width="116" height="116" viewBox="0 0 116 116" fill="none" xmlns="http://www.w3.org/2000/svg">
<g clip-path="url(#clip0)">
<path d="M111.95 47.1711C110.763 45.1776 109.642 43.2944 109.033 41.4184C108.386 39.426 108.168 37.1702 107.939 34.7817C107.571 30.9653 107.191 27.0188 104.925 23.9045C102.635 20.7578 98.9831 19.1779 95.4517 17.65C93.2647 16.7039 91.1991 15.8101 89.5323 14.5971C87.897 13.4069 86.4295 11.734 84.8757 9.96295C82.3228 7.05298 79.6832 4.04401 75.9268 2.82442C72.3328 1.6574 68.4971 2.50769 64.7876 3.32966C62.5113 3.83421 60.1576 4.35576 58 4.35576C55.8427 4.35576 53.4887 3.83398 51.2124 3.32966C47.5029 2.50769 43.667 1.6574 40.073 2.82465C36.3168 4.04423 33.6772 7.05321 31.1243 9.96318C29.5707 11.734 28.103 13.4069 26.4677 14.5971C25.8922 15.016 25.2357 15.4206 24.4604 15.8341C23.6323 16.2757 23.3192 17.3049 23.7607 18.133C24.2023 18.9611 25.2316 19.274 26.0599 18.8324C26.9757 18.344 27.7634 17.8573 28.4676 17.3446C30.4085 15.932 32.0713 14.0368 33.6792 12.2041C36.0327 9.52161 38.2555 6.98773 41.1229 6.05656C43.8369 5.17569 47.0625 5.89049 50.4774 6.64744C52.9323 7.19141 55.4709 7.75397 58.0005 7.75397C60.53 7.75397 63.0684 7.19141 65.5235 6.64721C68.9389 5.89049 72.1649 5.17569 74.8778 6.05634C77.7451 6.98728 79.9682 9.52116 82.3217 12.2039C83.9296 14.0365 85.5921 15.9317 87.5333 17.3444C89.5044 18.779 91.8421 19.7903 94.103 20.7684C97.3589 22.1769 100.434 23.5075 102.178 25.9037C103.898 28.2676 104.218 31.5897 104.557 35.1069C104.794 37.5721 105.039 40.1211 105.801 42.4674C106.528 44.7054 107.8 46.8426 109.031 48.9093C110.867 51.9948 112.602 54.9087 112.602 58.0001C112.602 61.0915 110.867 64.0056 109.03 67.0907C107.799 69.1574 106.527 71.2943 105.8 73.5321C105.038 75.8784 104.793 78.4274 104.556 80.8929C104.217 84.4098 103.897 87.7321 102.177 90.0961C100.433 92.4922 97.358 93.8226 94.1021 95.2311C91.8412 96.2092 89.5035 97.2206 87.5324 98.6552C85.5915 100.068 83.9287 101.963 82.3208 103.796C79.9673 106.478 77.7445 109.012 74.8771 109.943C72.1636 110.824 68.938 110.109 65.5226 109.352C63.0675 108.808 60.5291 108.246 57.9998 108.246C55.4702 108.246 52.9318 108.808 50.4768 109.352C47.0616 110.109 43.836 110.824 41.1222 109.943C38.2549 109.012 36.0318 106.478 33.6785 103.795C32.0706 101.963 30.4081 100.068 28.4669 98.6549C26.4958 97.2203 24.1579 96.209 21.8973 95.2309C18.6416 93.8223 15.5662 92.4917 13.8224 90.0958C12.1021 87.7319 11.7824 84.4098 11.4437 80.8927C11.2065 78.4274 10.9611 75.8784 10.1994 73.5321C9.47281 71.2943 8.20043 69.1572 6.96997 67.0907C5.13345 64.0056 3.39844 61.0915 3.39844 58.0001C3.39844 54.9087 5.13345 51.9948 6.97042 48.9097C8.20088 46.843 9.47326 44.7059 10.1998 42.4681C10.9618 40.1218 11.2069 37.5725 11.4444 35.1073C11.7828 31.5902 12.1025 28.2681 13.823 25.9041C14.8142 24.5423 16.2991 23.4146 18.6379 22.2481C19.4778 21.8292 19.819 20.8087 19.4001 19.9691C18.9812 19.1292 17.9607 18.788 17.1211 19.2069C15.2008 20.1648 12.7781 21.5645 11.0751 23.9047C8.80852 27.019 8.42881 30.9653 8.06132 34.782C7.83159 37.1704 7.61431 39.4263 6.96748 41.4189C6.35848 43.2948 5.23722 45.1778 4.05026 47.1713C2.059 50.5154 0 53.9736 0 58.0001C0 62.0268 2.059 65.485 4.05026 68.8293C5.23722 70.8229 6.35848 72.7058 6.96748 74.5817C7.61431 76.5741 7.83136 78.83 8.06132 81.2182C8.42858 85.0349 8.80852 88.9814 11.0751 92.0957C13.3651 95.2424 17.0169 96.8223 20.5483 98.3502C22.7353 99.2963 24.8011 100.19 26.4677 101.403C28.103 102.593 29.5705 104.266 31.1243 106.037C33.6772 108.947 36.3171 111.956 40.0732 113.176C41.339 113.587 42.6343 113.747 43.9438 113.747C46.3529 113.747 48.8093 113.203 51.2124 112.671C53.4887 112.166 55.8427 111.644 58 111.644C60.1576 111.644 62.5113 112.166 64.7876 112.671C68.4971 113.493 72.3328 114.343 75.927 113.176C79.6832 111.956 82.3228 108.947 84.8755 106.037C86.4293 104.266 87.897 102.593 89.5323 101.403C91.1989 100.19 93.2647 99.2963 95.4517 98.35C98.9831 96.822 102.635 95.2422 104.925 92.0955C107.191 88.9812 107.571 85.0347 107.939 81.2182C108.168 78.8298 108.386 76.5739 109.033 74.5815C109.642 72.7056 110.763 70.8226 111.95 68.8291C113.941 65.4848 116 62.0266 116 58.0001C116 53.9736 113.941 50.5154 111.95 47.1711Z" fill="#2AC826"/>
<path d="M16.3252 44.4593C15.8426 45.9458 14.9425 47.457 13.9898 49.0572C12.3533 51.8056 10.6611 54.6476 10.6611 58.0003C10.6611 61.3529 12.3533 64.1949 13.9898 66.9436C14.9425 68.5438 15.8424 70.0552 16.3252 71.5415C16.8388 73.1233 17.013 74.9349 17.1977 76.853C17.4995 79.9897 17.8117 83.2334 19.7008 85.8292C21.6089 88.4512 24.6101 89.7496 27.5124 91.0052C29.2685 91.7651 30.9271 92.4826 32.2494 93.4448C33.5462 94.3887 34.7243 95.7315 35.9716 97.1534C38.0698 99.5453 40.2393 102.018 43.3686 103.034C44.4321 103.38 45.5153 103.514 46.6062 103.514C48.59 103.514 50.6005 103.069 52.5677 102.633C54.4801 102.209 56.2865 101.809 58.0002 101.809C59.714 101.809 61.5203 102.209 63.4328 102.633C66.4823 103.309 69.6349 104.008 72.6319 103.034C75.7609 102.018 77.9305 99.5453 80.0287 97.1534C81.2759 95.7318 82.4543 94.3887 83.7509 93.4448C85.0731 92.4826 86.7318 91.7651 88.4878 91.0052C91.3901 89.7494 94.3914 88.4512 96.2995 85.8292C98.1886 83.2334 98.5006 79.99 98.8026 76.8532C98.9872 74.9351 99.1617 73.1233 99.6753 71.5417C100.158 70.0552 101.058 68.5438 102.011 66.9436C103.647 64.1952 105.339 61.3532 105.339 58.0005C105.339 54.648 103.647 51.8058 102.011 49.0574C101.058 47.4572 100.158 45.9458 99.6753 44.4593C99.1617 42.8777 98.9872 41.0659 98.8026 39.1478C98.5008 36.011 98.1886 32.7675 96.2995 30.1718C94.3914 27.5498 91.3901 26.2514 88.4878 24.9958C86.7318 24.2359 85.0731 23.5184 83.7509 22.5561C82.454 21.6123 81.2759 20.2695 80.0287 18.8475C77.9305 16.4557 75.7609 13.9828 72.6319 12.9667C69.6347 11.9936 66.4821 12.6923 63.4328 13.3681C61.5203 13.792 59.714 14.1924 58.0002 14.1924C56.2865 14.1924 54.4801 13.792 52.5677 13.3681C49.5184 12.6923 46.3653 11.9936 43.3686 12.9667C40.2393 13.9826 38.0698 16.4557 35.9716 18.8475C34.7243 20.2692 33.5462 21.6123 32.2494 22.5561C30.9271 23.5184 29.2685 24.2361 27.5124 24.9958C24.6101 26.2514 21.6089 27.5498 19.7008 30.1718C17.8117 32.7675 17.4997 36.011 17.1977 39.1478C17.013 41.0656 16.8388 42.8772 16.3252 44.4593ZM20.5805 39.4731C20.8506 36.6669 21.1057 34.0166 22.4485 32.1712C23.8104 30.3001 26.264 29.2384 28.862 28.1144C30.7108 27.3146 32.6225 26.4875 34.2492 25.3034C35.8517 24.1373 37.2115 22.5874 38.5265 21.0885C40.4043 18.9479 42.178 16.9261 44.4183 16.1988C46.5341 15.5121 49.1077 16.0821 51.8325 16.6859C53.8394 17.1307 55.9147 17.5906 58.0005 17.5906C60.0862 17.5906 62.1615 17.1307 64.1684 16.6859C66.8928 16.0819 69.4661 15.5114 71.5827 16.1988C73.8229 16.9261 75.5967 18.9479 77.4744 21.0885C78.7894 22.5874 80.1492 24.1373 81.7517 25.3034C83.3784 26.4875 85.2901 27.3146 87.1389 28.1144C89.7367 29.2384 92.1903 30.2998 93.5524 32.1712C94.8953 34.0166 95.1504 36.6669 95.4204 39.4731C95.6144 41.4888 95.8151 43.5732 96.4436 45.5087C97.0437 47.3573 98.0846 49.1052 99.0912 50.7958C100.557 53.2576 101.942 55.5828 101.942 58.0003C101.942 60.4177 100.557 62.7431 99.0912 65.2047C98.0846 66.8951 97.0437 68.6433 96.4436 70.4918C95.8151 72.4273 95.6144 74.5117 95.4204 76.5274C95.1504 79.3336 94.8953 81.9842 93.5524 83.8293C92.1906 85.7005 89.7369 86.7622 87.1389 87.8861C85.2901 88.6859 83.3784 89.5131 81.7517 90.6971C80.1492 91.8632 78.7894 93.4133 77.4744 94.9121C75.5967 97.0526 73.8229 99.0742 71.5827 99.8017C69.4666 100.489 66.893 99.9184 64.1684 99.3146C62.1615 98.8699 60.0862 98.41 58.0005 98.41C55.9147 98.41 53.8394 98.8699 51.8325 99.3146C49.1081 99.9184 46.5344 100.489 44.4183 99.8017C42.178 99.0745 40.4043 97.0526 38.5265 94.9121C37.2115 93.4131 35.8517 91.8632 34.2492 90.6971C32.6225 89.5131 30.7108 88.6861 28.862 87.8861C26.2643 86.7622 23.8106 85.7007 22.4485 83.8293C21.1057 81.9839 20.8506 79.3334 20.5805 76.5274C20.3866 74.5117 20.186 72.4275 19.5576 70.492C18.9574 68.6435 17.9166 66.8956 16.91 65.205C15.4441 62.7431 14.0596 60.4179 14.0596 58.0003C14.0596 55.5828 15.4441 53.2576 16.91 50.7958C17.9163 49.1052 18.9574 47.357 19.5576 45.5087C20.1858 43.5732 20.3866 41.4888 20.5805 39.4731Z" fill="#2AC826"/>
<path d="M51.8785 80.5265C51.7792 80.5265 51.6802 80.525 51.5808 80.5216C49.0687 80.4364 46.7065 79.2791 45.1 77.3461L36.6644 67.1963C34.7945 64.9463 35.1036 61.5945 37.3536 59.7245L39.7184 57.759C41.9686 55.8892 45.3199 56.1983 47.1902 58.4482L51.4401 63.5618C51.6789 63.849 51.9834 63.9009 52.1436 63.9064C52.3022 63.9118 52.6107 63.8808 52.8686 63.61C52.8828 63.5951 52.8973 63.5803 52.9123 63.5658L74.6183 42.3877C75.5934 41.3765 76.9025 40.8015 78.3079 40.7673C79.7225 40.732 81.0701 41.2524 82.0962 42.2298L84.3227 44.3509C86.441 46.3686 86.5226 49.7335 84.5048 51.8519C84.4931 51.8643 84.481 51.8764 84.469 51.8884L72.9345 63.2892C72.2668 63.9492 71.1909 63.9426 70.5316 63.2752C69.8718 62.6077 69.8782 61.5318 70.5454 60.8722L82.0589 49.492C82.7691 48.7296 82.7349 47.5316 81.9787 46.8111L79.752 44.69C79.3832 44.3386 78.8992 44.1506 78.3901 44.1642C77.8808 44.1766 77.4069 44.3864 77.0555 44.7553C77.041 44.7702 77.0265 44.7849 77.0117 44.7994L55.3048 65.9783C54.45 66.8616 53.2533 67.3447 52.0282 67.3019C50.7869 67.2599 49.6199 66.6881 48.8262 65.7329L44.5764 60.6194C43.9042 59.8106 42.6991 59.6996 41.8905 60.3715L39.5254 62.337C38.7166 63.0092 38.6055 64.214 39.2775 65.0229L47.7131 75.1726C48.7003 76.3605 50.1518 77.0717 51.6954 77.1238C53.2376 77.1773 54.7352 76.5649 55.8005 75.4466C55.8123 75.4341 55.8243 75.4221 55.8363 75.4101L65.363 65.9937C66.0307 65.3337 67.1066 65.3403 67.7662 66.0077C68.4259 66.6752 68.4196 67.7511 67.7523 68.4107L58.2428 77.8101C56.5792 79.5469 54.2753 80.5265 51.8785 80.5265Z" fill="#2AC826"/>
</g>
<defs>
<clipPath id="clip0">
<rect width="116" height="116" fill="white"/>
</clipPath>
</defs>
</svg>
