<svg width="128" height="128" viewBox="0 0 128 128" fill="none" xmlns="http://www.w3.org/2000/svg">
<path d="M69.8698 37.0999C70.658 37.1021 71.4389 36.9479 72.167 36.6461C72.8952 36.3443 73.5562 35.901 74.1118 35.3419C75.2366 34.2167 75.8685 32.6909 75.8685 31.0999C75.8685 29.5089 75.2366 27.983 74.1118 26.8579C72.9689 25.7671 71.4497 25.1584 69.8698 25.1584C68.2899 25.1584 66.7707 25.7671 65.6278 26.8579C64.789 27.697 64.2177 28.766 63.9863 29.9297C63.7549 31.0934 63.8737 32.2996 64.3277 33.3958C64.7818 34.492 65.5506 35.429 66.5371 36.0883C67.5235 36.7476 68.6833 37.0996 69.8698 37.0999ZM68.4558 29.6859C68.833 29.3216 69.3382 29.12 69.8626 29.1245C70.387 29.1291 70.8886 29.3394 71.2594 29.7102C71.6303 30.0811 71.8406 30.5827 71.8452 31.1071C71.8497 31.6315 71.6481 32.1367 71.2838 32.5139C70.9033 32.8784 70.3967 33.0819 69.8698 33.0819C69.3429 33.0819 68.8363 32.8784 68.4558 32.5139C68.0809 32.1388 67.8702 31.6302 67.8702 31.0999C67.8702 30.5696 68.0809 30.0609 68.4558 29.6859Z" fill="#C652A5"/>
<path d="M124 104H122C119.348 104 116.804 102.946 114.929 101.071C113.054 99.1956 112 96.6521 112 93.9999C112 91.3478 113.054 88.8042 114.929 86.9289C116.804 85.0535 119.348 83.9999 122 83.9999H124V63.9999H52V46.1419L57.2 40.9419C57.3927 40.7635 57.6189 40.625 57.8654 40.5345C58.112 40.444 58.374 40.4033 58.6364 40.4146C58.8988 40.4259 59.1564 40.4892 59.3942 40.6006C59.632 40.7121 59.8454 40.8695 60.022 41.0639C60.6669 41.6997 61.3722 42.2711 62.128 42.7699C64.2069 44.1484 66.6163 44.9464 69.107 45.0814C71.5977 45.2163 74.0792 44.6834 76.2949 43.5378C78.5106 42.3921 80.38 40.6753 81.7097 38.5649C83.0393 36.4544 83.781 34.0271 83.858 31.5339C83.9198 29.5042 83.5394 27.4852 82.743 25.6172C81.9466 23.7492 80.7533 22.0767 79.246 20.7159C76.499 18.3095 72.9316 17.0519 69.2828 17.2038C65.634 17.3557 62.1834 18.9055 59.646 21.5319L52 29.1719V18.4599C52.0629 14.807 50.7182 11.2699 48.2444 8.5813C45.7707 5.89273 42.3575 4.25877 38.712 4.01794C35.1898 3.84825 31.7333 5.01397 29.0332 7.28215C26.3332 9.55032 24.5886 12.7539 24.148 16.2525C23.7074 19.7512 24.6033 23.2873 26.6567 26.154C28.7101 29.0208 31.7697 31.0071 35.224 31.7159C36.1105 31.899 37.0128 31.9942 37.918 31.9999C38.1875 31.9889 38.4564 32.0324 38.7086 32.128C38.9608 32.2235 39.191 32.3691 39.3855 32.5559C39.58 32.7428 39.7347 32.967 39.8403 33.2151C39.9459 33.4633 40.0002 33.7303 40 33.9999V41.1719L20.02 61.1519C19.2087 61.9713 18.5611 62.9379 18.112 63.9999H4V83.9999H6C8.65216 83.9999 11.1957 85.0535 13.0711 86.9289C14.9464 88.8042 16 91.3478 16 93.9999C16 96.6521 14.9464 99.1956 13.0711 101.071C11.1957 102.946 8.65216 104 6 104H4V124H124V104ZM62.474 24.3539C64.3033 22.4813 66.7735 21.3703 69.3884 21.2441C72.0032 21.118 74.5689 21.9861 76.57 23.6739C78.4404 25.3661 79.6024 27.7025 79.823 30.2151C80.0436 32.7277 79.3065 35.2308 77.7596 37.223C76.2126 39.2151 73.9699 40.5491 71.481 40.9576C68.992 41.3662 66.4406 40.8191 64.338 39.4259C63.8 39.0714 63.2983 38.6648 62.84 38.2119C62.287 37.6422 61.6258 37.1884 60.8953 36.8774C60.1647 36.5664 59.3794 36.4042 58.5854 36.4005C57.7914 36.3968 57.0046 36.5515 56.2712 36.8557C55.5377 37.1599 54.8723 37.6074 54.314 38.1719L52 40.4859V34.8279L62.474 24.3539ZM37.944 27.9999C37.299 27.9959 36.656 27.929 36.024 27.7999C33.5949 27.3067 31.4355 25.9289 29.9647 23.9337C28.4939 21.9385 27.8165 19.4682 28.0639 17.0019C28.3113 14.5356 29.4658 12.249 31.3036 10.5857C33.1413 8.92243 35.5313 8.00093 38.01 7.99994C38.176 7.99994 38.346 7.99994 38.514 8.01194C41.1225 8.23307 43.5507 9.43337 45.3104 11.3716C47.0702 13.3098 48.0311 15.8422 48 18.4599V74.4999C47.9671 75.6762 47.5622 76.8118 46.8435 77.7435C46.1248 78.6753 45.1293 79.3553 44 79.6859V33.9119C43.9954 33.1247 43.8345 32.3462 43.5267 31.6216C43.219 30.897 42.7704 30.2407 42.2071 29.6908C41.6437 29.1409 40.9768 28.7082 40.245 28.418C39.5133 28.1277 38.7311 27.9856 37.944 27.9999ZM40 63.9999H34.142L40 58.1419V63.9999ZM22.848 63.9799L40 46.8279V52.4859L28.486 63.9999H22.834L22.848 63.9799ZM120 120H8V107.858C11.3343 107.379 14.3842 105.715 16.5904 103.169C18.7966 100.624 20.0111 97.3684 20.0111 93.9999C20.0111 90.6315 18.7966 87.376 16.5904 84.8306C14.3842 82.2851 11.3343 80.6205 8 80.1419V67.9999H40V83.9999H42C44.5846 84.0618 47.0884 83.0966 48.9627 81.316C50.8371 79.5353 51.9293 77.0843 52 74.4999V67.9999H120V80.1419C116.666 80.6205 113.616 82.2851 111.41 84.8306C109.203 87.376 107.989 90.6315 107.989 93.9999C107.989 97.3684 109.203 100.624 111.41 103.169C113.616 105.715 116.666 107.379 120 107.858V120Z" fill="#C652A5"/>
<path d="M44 112H40V116H44V112Z" fill="#C652A5"/>
<path d="M44 104H40V108H44V104Z" fill="#C652A5"/>
<path d="M44 96H40V100H44V96Z" fill="#C652A5"/>
<path d="M44 88H40V92H44V88Z" fill="#C652A5"/>
<path d="M92.5853 76.5863L60.5859 108.586L63.4144 111.414L95.4138 79.4147L92.5853 76.5863Z" fill="#C652A5"/>
<path d="M68 92C69.5823 92 71.129 91.5308 72.4446 90.6518C73.7602 89.7727 74.7855 88.5233 75.391 87.0615C75.9965 85.5997 76.155 83.9911 75.8463 82.4393C75.5376 80.8874 74.7757 79.462 73.6569 78.3432C72.538 77.2243 71.1126 76.4624 69.5607 76.1537C68.0089 75.845 66.4003 76.0035 64.9385 76.609C63.4767 77.2145 62.2273 78.2398 61.3482 79.5554C60.4692 80.871 60 82.4178 60 84C60 86.1217 60.8429 88.1566 62.3431 89.6569C63.8434 91.1572 65.8783 92 68 92ZM68 80C68.7911 80 69.5645 80.2346 70.2223 80.6741C70.8801 81.1137 71.3928 81.7384 71.6955 82.4693C71.9983 83.2002 72.0775 84.0045 71.9232 84.7804C71.7688 85.5563 71.3878 86.269 70.8284 86.8284C70.269 87.3879 69.5563 87.7688 68.7804 87.9232C68.0044 88.0775 67.2002 87.9983 66.4693 87.6955C65.7384 87.3928 65.1136 86.8801 64.6741 86.2223C64.2346 85.5645 64 84.7911 64 84C64 82.9391 64.4214 81.9217 65.1716 81.1716C65.9217 80.4214 66.9391 80 68 80Z" fill="#C652A5"/>
<path d="M88 96C86.4178 96 84.871 96.4692 83.5554 97.3482C82.2398 98.2273 81.2145 99.4767 80.609 100.939C80.0035 102.4 79.845 104.009 80.1537 105.561C80.4624 107.113 81.2243 108.538 82.3432 109.657C83.462 110.776 84.8874 111.538 86.4393 111.846C87.9911 112.155 89.5997 111.997 91.0615 111.391C92.5233 110.786 93.7727 109.76 94.6518 108.445C95.5308 107.129 96 105.582 96 104C96 101.878 95.1572 99.8434 93.6569 98.3431C92.1566 96.8429 90.1217 96 88 96ZM88 108C87.2089 108 86.4355 107.765 85.7777 107.326C85.1199 106.886 84.6072 106.262 84.3045 105.531C84.0017 104.8 83.9225 103.996 84.0769 103.22C84.2312 102.444 84.6122 101.731 85.1716 101.172C85.731 100.612 86.4437 100.231 87.2196 100.077C87.9956 99.9225 88.7998 100.002 89.5307 100.304C90.2616 100.607 90.8864 101.12 91.3259 101.778C91.7654 102.436 92 103.209 92 104C92 105.061 91.5786 106.078 90.8284 106.828C90.0783 107.579 89.0609 108 88 108Z" fill="#C652A5"/>
<path d="M38 12C36.8133 12 35.6533 12.3519 34.6666 13.0112C33.6799 13.6705 32.9109 14.6075 32.4567 15.7039C32.0026 16.8003 31.8838 18.0067 32.1153 19.1705C32.3468 20.3344 32.9182 21.4035 33.7574 22.2426C34.5965 23.0818 35.6656 23.6532 36.8295 23.8847C37.9933 24.1162 39.1997 23.9974 40.2961 23.5433C41.3925 23.0891 42.3295 22.3201 42.9888 21.3334C43.6481 20.3467 44 19.1867 44 18C44 16.4087 43.3679 14.8826 42.2426 13.7574C41.1174 12.6321 39.5913 12 38 12ZM38 20C37.6044 20 37.2178 19.8827 36.8889 19.6629C36.56 19.4432 36.3036 19.1308 36.1522 18.7654C36.0009 18.3999 35.9613 17.9978 36.0384 17.6098C36.1156 17.2219 36.3061 16.8655 36.5858 16.5858C36.8655 16.3061 37.2219 16.1156 37.6098 16.0384C37.9978 15.9613 38.3999 16.0009 38.7654 16.1522C39.1308 16.3036 39.4432 16.56 39.6629 16.8889C39.8827 17.2178 40 17.6044 40 18C40 18.5304 39.7893 19.0391 39.4142 19.4142C39.0391 19.7893 38.5304 20 38 20Z" fill="#C652A5"/>
<path d="M47.42 42.5799C47.0332 42.2231 46.5263 42.0249 46 42.0249C45.4737 42.0249 44.9668 42.2231 44.58 42.5799C44.3949 42.7678 44.2518 42.9927 44.16 43.2399C44.0575 43.4804 44.0032 43.7386 44 43.9999C44 44.5304 44.2107 45.0391 44.5858 45.4141C44.9609 45.7892 45.4696 45.9999 46 45.9999C46.5304 45.9999 47.0391 45.7892 47.4142 45.4141C47.7893 45.0391 48 44.5304 48 43.9999C47.9968 43.7386 47.9425 43.4804 47.84 43.2399C47.7434 42.9952 47.6008 42.7711 47.42 42.5799Z" fill="#C652A5"/>
</svg>
