<svg width="116" height="116" viewBox="0 0 116 116" fill="none" xmlns="http://www.w3.org/2000/svg">
<path d="M89.594 104.575C89.591 106.549 88.8056 108.441 87.4099 109.837C86.0142 111.232 84.1221 112.018 82.1483 112.021H37.2352C35.2614 112.018 33.3693 111.232 31.9736 109.837C30.5779 108.441 29.7925 106.549 29.7895 104.575V82.1184H26.0518V104.575C26.0557 107.54 27.2352 110.382 29.3317 112.478C31.4281 114.575 34.2704 115.754 37.2352 115.758H82.1483C85.1131 115.754 87.9554 114.575 90.0518 112.478C92.1483 110.382 93.3278 107.54 93.3317 104.575V97.0695H89.594V104.575Z" fill="#2737CB"/>
<path d="M29.7895 14.8084C29.7925 12.8346 30.5779 10.9425 31.9736 9.54683C33.3693 8.15115 35.2614 7.36574 37.2352 7.36278H82.1483C84.1221 7.36574 86.0142 8.15115 87.4099 9.54683C88.8056 10.9425 89.591 12.8346 89.594 14.8084V52.2161H93.3317V14.8084C93.3278 11.8436 92.1483 9.00136 90.0518 6.90492C87.9554 4.80848 85.1131 3.62896 82.1483 3.625H37.2352C34.2704 3.62896 31.4281 4.80848 29.3317 6.90492C27.2352 9.00136 26.0557 11.8436 26.0518 14.8084V22.3139H29.7895V14.8084Z" fill="#2737CB"/>
<path d="M42.8721 11.1006H46.6098V14.8384H42.8721V11.1006Z" fill="#2737CB"/>
<path d="M50.3477 11.1006H69.0365V14.8384H50.3477V11.1006Z" fill="#2737CB"/>
<path d="M50.3477 102.676C50.3477 104.163 50.9384 105.589 51.9898 106.641C53.0413 107.692 54.4673 108.283 55.9543 108.283H63.4299C64.9168 108.283 66.3429 107.692 67.3944 106.641C68.4458 105.589 69.0365 104.163 69.0365 102.676C69.0365 101.189 68.4458 99.7629 67.3944 98.7115C66.3429 97.66 64.9168 97.0693 63.4299 97.0693H55.9543C54.4673 97.0693 53.0413 97.66 51.9898 98.7115C50.9384 99.7629 50.3477 101.189 50.3477 102.676ZM55.9543 100.807H63.4299C63.9255 100.807 64.4009 101.004 64.7514 101.354C65.1019 101.705 65.2988 102.18 65.2988 102.676C65.2988 103.172 65.1019 103.647 64.7514 103.998C64.4009 104.348 63.9255 104.545 63.4299 104.545H55.9543C55.4587 104.545 54.9833 104.348 54.6328 103.998C54.2823 103.647 54.0854 103.172 54.0854 102.676C54.0854 102.18 54.2823 101.705 54.6328 101.354C54.9833 101.004 55.4587 100.807 55.9543 100.807Z" fill="#2737CB"/>
<path d="M35.396 65.2983H35.9567C40.442 65.2983 42.4305 62.8818 42.7968 60.626C42.9906 59.4971 42.8328 58.3359 42.3448 57.2996C41.8567 56.2634 41.062 55.4021 40.0682 54.8325C39.8134 54.7083 39.5942 54.5217 39.4308 54.29C39.2675 54.0583 39.1653 53.7892 39.1338 53.5075V48.4783C39.1326 46.9715 38.7664 45.4875 38.0667 44.1531C37.3669 42.8187 36.3544 41.6736 35.1157 40.8158C35.3925 39.9738 35.4656 39.0781 35.3292 38.2022C35.1928 37.3264 34.8506 36.4954 34.3308 35.7774C33.811 35.0594 33.1284 34.4748 32.339 34.0717C31.5495 33.6687 30.6758 33.4585 29.7894 33.4585C28.903 33.4585 28.0292 33.6687 27.2397 34.0717C26.4503 34.4748 25.7677 35.0594 25.2479 35.7774C24.7281 36.4954 24.3859 37.3264 24.2495 38.2022C24.1131 39.0781 24.1862 39.9738 24.463 40.8158C23.2243 41.6736 22.2118 42.8187 21.512 44.1531C20.8123 45.4875 20.4461 46.9715 20.4449 48.4783V53.3374C20.462 53.6046 20.408 53.8715 20.2885 54.1112C20.169 54.3508 19.9883 54.5545 19.7646 54.7017C18.7022 55.2437 17.8404 56.1104 17.3043 57.1759C16.7682 58.2413 16.5859 59.4499 16.7838 60.626C17.0389 61.9534 17.7527 63.1487 18.8002 64.0028C19.8477 64.857 21.1623 65.3155 22.5138 65.2983H24.1827C24.1827 66.7852 24.7734 68.2113 25.8248 69.2628C26.8763 70.3142 28.3024 70.9049 29.7894 70.9049C31.2763 70.9049 32.7024 70.3142 33.7539 69.2628C34.8053 68.2113 35.396 66.7852 35.396 65.2983ZM27.9205 39.1338C27.9205 38.6382 28.1174 38.1628 28.4679 37.8123C28.8183 37.4618 29.2937 37.265 29.7894 37.265C30.285 37.265 30.7604 37.4618 31.1109 37.8123C31.4613 38.1628 31.6582 38.6382 31.6582 39.1338C31.6509 39.1968 31.6397 39.2592 31.6246 39.3207C30.4135 39.074 29.1652 39.074 27.9541 39.3207C27.939 39.2592 27.9278 39.1968 27.9205 39.1338ZM22.5138 61.5605C22.0479 61.5774 21.5905 61.4334 21.2185 61.1525C20.8464 60.8717 20.5825 60.4713 20.4711 60.0187C20.4008 59.6236 20.4595 59.2164 20.6385 58.8572C20.8176 58.4981 21.1075 58.2062 21.4653 58.0246C22.307 57.5705 23.0065 56.8922 23.4861 56.0648C23.9658 55.2375 24.2069 54.2934 24.1827 53.3374V48.4783C24.1827 46.9913 24.7734 45.5652 25.8248 44.5138C26.8763 43.4623 28.3024 42.8716 29.7894 42.8716C31.2763 42.8716 32.7024 43.4623 33.7539 44.5138C34.8053 45.5652 35.396 46.9913 35.396 48.4783V53.5112C35.4173 54.4515 35.6882 55.3693 36.1807 56.1705C36.6733 56.9718 37.3699 57.6277 38.1994 58.0713C38.5312 58.2646 38.796 58.5547 38.9584 58.9028C39.1207 59.2508 39.1728 59.6402 39.1076 60.0187C38.8796 61.4091 36.8276 61.5605 35.9548 61.5605H22.5138ZM27.9205 65.2983H31.6582C31.6582 65.7939 31.4613 66.2693 31.1109 66.6198C30.7604 66.9703 30.285 67.1672 29.7894 67.1672C29.2937 67.1672 28.8183 66.9703 28.4679 66.6198C28.1174 66.2693 27.9205 65.7939 27.9205 65.2983Z" fill="#2737CB"/>
<path d="M55.9539 52.2162C55.9539 47.0414 54.4194 41.9827 51.5444 37.68C48.6694 33.3773 44.5831 30.0237 39.8022 28.0434C35.0212 26.0631 29.7604 25.545 24.685 26.5545C19.6096 27.5641 14.9476 30.056 11.2884 33.7152C7.62924 37.3743 5.13731 42.0364 4.12775 47.1118C3.11819 52.1872 3.63634 57.448 5.61666 62.2289C7.59699 67.0098 10.9505 71.0961 15.2533 73.9711C19.556 76.8461 24.6146 78.3806 29.7895 78.3806C36.7264 78.3732 43.3771 75.6142 48.2823 70.7091C53.1875 65.8039 55.9465 59.1532 55.9539 52.2162ZM7.36279 52.2162C7.36279 47.7806 8.67809 43.4447 11.1424 39.7566C13.6066 36.0686 17.1092 33.1941 21.2071 31.4967C25.3051 29.7993 29.8143 29.3551 34.1647 30.2205C38.515 31.0858 42.5111 33.2217 45.6475 36.3582C48.7839 39.4946 50.9199 43.4906 51.7852 47.841C52.6505 52.1913 52.2064 56.7006 50.509 60.7985C48.8116 64.8964 45.9371 68.399 42.249 70.8633C38.561 73.3276 34.225 74.6429 29.7895 74.6429C23.8435 74.6364 18.1429 72.2716 13.9385 68.0671C9.73409 63.8627 7.36922 58.1621 7.36279 52.2162Z" fill="#2737CB"/>
<path d="M110.151 55.9539H65.2981C63.8111 55.9539 62.385 56.5446 61.3336 57.596C60.2821 58.6475 59.6914 60.0735 59.6914 61.5605V87.725C59.6914 89.2119 60.2821 90.638 61.3336 91.6895C62.385 92.7409 63.8111 93.3316 65.2981 93.3316H110.151C111.638 93.3316 113.064 92.7409 114.116 91.6895C115.167 90.638 115.758 89.2119 115.758 87.725V61.5605C115.758 60.0735 115.167 58.6475 114.116 57.596C113.064 56.5446 111.638 55.9539 110.151 55.9539ZM65.2981 59.6916H110.151C110.447 59.6949 110.737 59.7693 110.997 59.9086C111.257 60.0478 111.48 60.2478 111.647 60.4915L88.4723 70.4247C88.2394 70.5237 87.989 70.5747 87.7359 70.5747C87.4829 70.5747 87.2325 70.5237 86.9996 70.4247L63.803 60.4915C63.9695 60.2478 64.1923 60.0478 64.4526 59.9086C64.7129 59.7693 65.0029 59.6949 65.2981 59.6916ZM110.151 89.5938H65.2981C64.8024 89.5938 64.3271 89.3969 63.9766 89.0465C63.6261 88.696 63.4292 88.2206 63.4292 87.725V64.3956L85.5176 73.8615C86.2158 74.1587 86.9668 74.3119 87.7257 74.3119C88.4845 74.3119 89.2355 74.1587 89.9338 73.8615L112.02 64.3956V87.725C112.02 88.2206 111.823 88.696 111.473 89.0465C111.122 89.3969 110.647 89.5938 110.151 89.5938Z" fill="#2737CB"/>
<path d="M59.6914 26.0518H63.4292V29.7895H59.6914V26.0518Z" fill="#2737CB"/>
<path d="M67.167 26.0518H82.1181V29.7895H67.167V26.0518Z" fill="#2737CB"/>
<path d="M59.6914 33.5271H82.1181V37.2649H59.6914V33.5271Z" fill="#2737CB"/>
<path d="M59.6914 41.0027H82.1181V44.7405H59.6914V41.0027Z" fill="#2737CB"/>
</svg>
