<svg width="116" height="116" viewBox="0 0 116 116" fill="none" xmlns="http://www.w3.org/2000/svg">
<g clip-path="url(#clip0)">
<path d="M97.7264 78.4339C99.0715 77.4644 100.746 77.2086 102.319 77.7334L109.29 80.057C110.863 80.5815 112.537 80.3261 113.883 79.3565C115.228 78.3868 116 76.8795 116 75.221V8.49609C116 3.81123 112.189 0 107.504 0H97.0802C95.4218 0 93.9145 0.771445 92.9448 2.117C91.9751 3.46255 91.7197 5.1364 92.2442 6.70965L94.5679 13.6807C95.0924 15.2542 94.837 16.9283 93.8671 18.2736C92.8974 19.6192 91.3901 20.3906 89.7319 20.3906H82.5696C80.9111 20.3906 79.4038 19.6192 78.4343 18.2736C77.4647 16.9283 77.2091 15.2542 77.7336 13.681L80.0574 6.70942C80.5817 5.13617 80.3264 3.46233 79.3567 2.11677C78.3868 0.771445 76.8795 0 75.221 0H8.49609C3.81123 0 0 3.81123 0 8.49609V18.9198C0 20.5782 0.771672 22.0858 2.11723 23.0555C3.46278 24.0249 5.13662 24.2805 6.70987 23.756L13.6812 21.4321C15.2547 20.9076 16.9287 21.1632 18.2739 22.1329C19.619 23.1026 20.3906 24.6099 20.3906 26.2681V33.4304C20.3906 35.0889 19.619 36.5962 18.2736 37.5659C16.9283 38.5353 15.2545 38.7909 13.681 38.2664L6.70987 35.9428C5.13685 35.4183 3.46255 35.6736 2.11723 36.6433C0.771672 37.6132 0 39.1203 0 40.7788V82.7517C0 83.6904 0.760797 84.4509 1.69922 84.4509C2.63764 84.4509 3.39844 83.6904 3.39844 82.7517V59.6992H18.9202C19.473 59.6992 19.9756 59.9564 20.2986 60.4047C20.6217 60.8531 20.7069 61.4111 20.5322 61.9356L18.2084 68.9072C17.3343 71.5294 17.76 74.3195 19.3763 76.5616C20.9924 78.8039 23.5045 80.0898 26.2686 80.0898H33.4309C36.1949 80.0898 38.7071 78.8039 40.3231 76.5616C41.9394 74.3195 42.3651 71.5294 41.4911 68.9069L39.1672 61.9358C38.9925 61.4114 39.0775 60.8533 39.4008 60.4047C39.7241 59.9561 40.2266 59.6992 40.7792 59.6992H56.3008V75.2208C56.3008 76.8792 57.0725 78.3865 58.4178 79.3562C59.7631 80.3259 61.4372 80.5813 63.0104 80.0568L69.9818 77.7331C71.5552 77.2082 73.2291 77.464 74.5744 78.4337C75.9197 79.4034 76.6914 80.9107 76.6914 82.5691V89.7314C76.6914 91.3899 75.9197 92.8972 74.5744 93.8669C73.2291 94.8361 71.555 95.0919 69.9818 94.5674L63.0107 92.2438C61.4374 91.7191 59.7631 91.9746 58.418 92.9443C57.0727 93.914 56.301 95.4213 56.301 97.0798V112.602H40.7792C40.2264 112.602 39.7239 112.344 39.4008 111.896C39.0777 111.448 38.9925 110.89 39.1672 110.365L41.4911 103.394C42.3651 100.771 41.9394 97.9813 40.3231 95.7392C38.7066 93.4969 36.1945 92.2109 33.4307 92.2109H26.2683C23.5043 92.2109 20.9921 93.4969 19.3761 95.7392C17.7598 97.9813 17.3341 100.771 18.2081 103.394L20.5318 110.365C20.7065 110.889 20.6215 111.447 20.2982 111.896C19.9751 112.344 19.4726 112.602 18.9198 112.602H8.49609C5.68513 112.602 3.39844 110.315 3.39844 107.504V89.5486C3.39844 88.61 2.63764 87.8494 1.69922 87.8494C0.760797 87.8494 0 88.61 0 89.5486V107.504C0 112.189 3.81123 116 8.49609 116H18.9198C20.5782 116 22.0855 115.229 23.0552 113.883C24.0249 112.537 24.2802 110.864 23.7558 109.29L21.4321 102.319C20.9076 100.746 21.163 99.0717 22.1329 97.7264C23.1026 96.381 24.6099 95.6094 26.2681 95.6094H33.4304C35.0889 95.6094 36.5962 96.3808 37.5657 97.7264C38.5353 99.0717 38.7909 100.746 38.2664 102.319L35.9426 109.291C35.4183 110.864 35.6736 112.538 36.6433 113.883C37.613 115.229 39.1203 116 40.7788 116H107.504C112.189 116 116 112.189 116 107.504V97.0804C116 95.4222 115.228 93.9147 113.883 92.945C112.538 91.9755 110.863 91.7204 109.29 92.2442L102.319 94.5681C100.746 95.093 99.0717 94.8372 97.7264 93.8673C96.381 92.8977 95.6094 91.3901 95.6094 89.7319V82.5696C95.6094 80.9109 96.381 79.4038 97.7264 78.4339ZM76.5996 4.10395C76.923 4.55232 77.0079 5.11034 76.8332 5.63484L74.5094 12.6064C73.6353 15.2286 74.061 18.0187 75.6773 20.2608C77.2934 22.5031 79.8055 23.7891 82.5693 23.7891H89.7317C92.4957 23.7891 95.0079 22.5031 96.6239 20.2608C98.2402 18.0187 98.6659 15.2286 97.7918 12.6062L95.4682 5.63484C95.2935 5.11057 95.3785 4.55255 95.7018 4.10395C96.0249 3.65559 96.5274 3.39844 97.0802 3.39844H107.504C110.315 3.39844 112.602 5.68536 112.602 8.49609V56.3008H97.0798C96.527 56.3008 96.0244 56.0436 95.7014 55.5953C95.3783 55.1469 95.2931 54.5889 95.4678 54.0644L97.7916 47.0928C98.6657 44.4706 98.24 41.6805 96.6237 39.4384C95.0076 37.1961 92.4955 35.9102 89.7314 35.9102H82.5691C79.8051 35.9102 77.2929 37.1961 75.6769 39.4384C74.0606 41.6805 73.6348 44.4706 74.5089 47.0931L76.8328 54.0642C77.0075 54.5886 76.9225 55.1467 76.5992 55.5953C76.2759 56.0439 75.7734 56.3008 75.2208 56.3008H59.6992V40.7792C59.6992 39.1208 58.9275 37.6135 57.5822 36.6438C56.2369 35.6739 54.5626 35.4185 52.9896 35.9432L46.0182 38.2669C44.4443 38.7914 42.7709 38.536 41.4256 37.5663C40.0803 36.5966 39.3086 35.0893 39.3086 33.4309V26.2686C39.3086 24.6101 40.0803 23.1028 41.4256 22.1331C42.7707 21.1637 44.4445 20.9076 46.0182 21.4326L52.9893 23.7562C54.5626 24.2805 56.2367 24.0254 57.582 23.0557C58.9273 22.086 59.699 20.5784 59.699 18.92V3.39844H75.2208C75.7738 3.39844 76.2763 3.65559 76.5996 4.10395ZM40.7794 56.3008C39.121 56.3008 37.6137 57.0722 36.644 58.4178C35.6743 59.7631 35.419 61.437 35.9432 63.0104L38.2671 69.9815C38.7916 71.555 38.5362 73.2291 37.5663 74.5744C36.5966 75.9197 35.0893 76.6914 33.4311 76.6914H26.2688C24.6104 76.6914 23.103 75.92 22.1336 74.5744C21.1639 73.2291 20.9083 71.555 21.4328 69.9818L23.7567 63.0102C24.2809 61.437 24.0256 59.7631 23.0559 58.4176C22.0862 57.0722 20.5789 56.3006 18.9205 56.3006H3.39844V40.7785C3.39844 40.2259 3.65559 39.7234 4.10418 39.4001C4.55255 39.077 5.11034 38.9916 5.63506 39.1668L12.6062 41.4904C15.2284 42.3642 18.0185 41.9388 20.2608 40.3229C22.5031 38.7068 23.7891 36.1947 23.7891 33.4307V26.2683C23.7891 23.5045 22.5031 20.9921 20.2608 19.3761C18.0185 17.7596 15.2282 17.3338 12.6064 18.2081L5.63506 20.532C5.11102 20.7069 4.553 20.6217 4.10441 20.2986C3.65559 19.9751 3.39844 19.4726 3.39844 18.9198V8.49609C3.39844 5.68536 5.68513 3.39844 8.49609 3.39844H56.3008V18.9202C56.3008 19.473 56.0436 19.9756 55.595 20.2989C55.1467 20.6219 54.5886 20.7074 54.0642 20.5322L47.0931 18.2086C44.4704 17.3341 41.6809 17.7602 39.4384 19.3761C37.1961 20.9924 35.9102 23.5045 35.9102 26.2686V33.4309C35.9102 36.1949 37.1961 38.7071 39.4384 40.3231C41.6807 41.9394 44.4704 42.3652 47.0928 41.4908L54.0642 39.1672C54.5889 38.9923 55.1467 39.0775 55.595 39.4006C56.0434 39.7239 56.3008 40.2262 56.3008 40.779V56.3008H40.7794ZM95.7392 96.6241C97.9813 98.2407 100.771 98.6659 103.394 97.7921L110.365 95.4682C110.889 95.2933 111.447 95.3785 111.896 95.7018C112.344 96.0251 112.602 96.5276 112.602 97.0802V107.504C112.602 110.315 110.315 112.602 107.504 112.602H59.6992V97.0795C59.6992 96.527 59.9564 96.0244 60.405 95.7011C60.8533 95.3778 61.4114 95.2926 61.9358 95.4678L68.9069 97.7914C71.5294 98.6653 74.3191 98.2398 76.5616 96.6239C78.8039 95.0076 80.0898 92.4955 80.0898 89.7314V82.5691C80.0898 79.8051 78.8039 77.2929 76.5616 75.6769C74.3193 74.0603 71.5294 73.6346 68.9072 74.5092L61.9358 76.8328C61.4114 77.0079 60.8533 76.9225 60.405 76.5994C59.9566 76.2761 59.6992 75.7738 59.6992 75.221V59.6992H75.2206C76.879 59.6992 78.3863 58.9278 79.356 57.5822C80.3257 56.2369 80.581 54.563 80.0568 52.9896L77.7329 46.0185C77.2084 44.445 77.4638 42.7709 78.4337 41.4256C79.4034 40.0803 80.9107 39.3086 82.5689 39.3086H89.7312C91.3896 39.3086 92.897 40.08 93.8664 41.4256C94.8361 42.7709 95.0917 44.445 94.5672 46.0182L92.2433 52.9898C91.7191 54.563 91.9744 56.2369 92.9441 57.5824C93.9138 58.9278 95.4211 59.6994 97.0795 59.6994H112.602V75.2215C112.602 75.7741 112.344 76.2766 111.896 76.5999C111.447 76.923 110.889 77.0084 110.365 76.8332L103.394 74.5096C100.771 73.6353 97.9815 74.061 95.7392 75.6771C93.4969 77.2932 92.2109 79.8053 92.2109 82.5693V89.7317C92.2109 92.4957 93.4969 95.0081 95.7392 96.6241Z" fill="#71B7E9"/>
</g>
<defs>
<clipPath id="clip0">
<rect width="116" height="116" fill="white"/>
</clipPath>
</defs>
</svg>
