<svg width="42" height="42" viewBox="0 0 42 42" fill="none" xmlns="http://www.w3.org/2000/svg">
<path d="M21.0021 42C9.40824 41.9873 0.0127322 32.5927 0 21V20.58C0.230879 9.03955 9.7336 -0.151254 21.2765 0.00188625C32.8195 0.155026 42.075 9.59469 41.9995 21.1372C41.9241 32.6798 32.546 41.9977 21.0021 42ZM21.0021 4.20003C11.7228 4.20003 4.20042 11.7216 4.20042 21C4.20042 30.2784 11.7228 37.8 21.0021 37.8C30.2814 37.8 37.8038 30.2784 37.8038 21C37.7934 11.726 30.2771 4.21045 21.0021 4.20003ZM17.9568 31.5L14.9871 28.5285L22.4113 21.105L14.9871 13.6815L17.9568 10.71L28.3528 21.105L17.9589 31.5H17.9568Z" fill="white"/>
</svg>
