<svg width="42" height="42" viewBox="0 0 42 42" fill="none" xmlns="http://www.w3.org/2000/svg">
<path d="M20.9979 1.83606e-06C32.5918 0.0127305 41.9873 9.40729 42 21L42 21.42C41.7691 32.9605 32.2664 42.1513 20.7235 41.9981C9.18053 41.845 -0.0749711 32.4053 0.000455916 20.8628C0.0758791 9.32024 9.45395 0.00231074 20.9979 1.83606e-06ZM20.9979 37.8C30.2772 37.8 37.7996 30.2784 37.7996 21C37.7996 11.7216 30.2772 4.2 20.9979 4.2C11.7186 4.2 4.19622 11.7216 4.19622 21C4.20664 30.274 11.7229 37.7896 20.9979 37.8ZM24.0432 10.5L27.0129 13.4715L19.5887 20.895L27.0129 28.3185L24.0432 31.29L13.6472 20.895L24.0411 10.5L24.0432 10.5Z" fill="white"/>
</svg>
