<svg width="688" height="365" viewBox="0 0 688 365" fill="none" xmlns="http://www.w3.org/2000/svg">
<path d="M3.71348 65H55.7022C57.7531 65 59.4157 66.6588 59.4157 68.7051V83.5256C59.4157 85.5719 57.7531 87.2308 55.7022 87.2308H3.71348C1.66258 87.2308 0 85.5719 0 83.5256V68.7051C0 66.6588 1.66258 65 3.71348 65Z" fill="url(#paint0_radial)"/>
<path d="M3.71348 94.641H55.7022C57.7531 94.641 59.4157 96.2999 59.4157 98.3462V113.167C59.4157 115.213 57.7531 116.872 55.7022 116.872H3.71348C1.66258 116.872 0 115.213 0 113.167V98.3462C0 96.2999 1.66258 94.641 3.71348 94.641Z" fill="url(#paint1_radial)"/>
<path d="M3.71348 124.282H55.7022C57.7531 124.282 59.4157 125.941 59.4157 127.987V142.808C59.4157 144.854 57.7531 146.513 55.7022 146.513H3.71348C1.66258 146.513 0 144.854 0 142.808V127.987C0 125.941 1.66258 124.282 3.71348 124.282Z" fill="url(#paint2_radial)"/>
<path d="M3.71348 153.923H55.7022C57.7531 153.923 59.4157 155.582 59.4157 157.628V172.449C59.4157 174.495 57.7531 176.154 55.7022 176.154H3.71348C1.66258 176.154 0 174.495 0 172.449V157.628C0 155.582 1.66258 153.923 3.71348 153.923Z" fill="url(#paint3_radial)"/>
<path d="M3.71348 183.564H55.7022C57.7531 183.564 59.4157 185.223 59.4157 187.269V202.09C59.4157 204.136 57.7531 205.795 55.7022 205.795H3.71348C1.66258 205.795 0 204.136 0 202.09V187.269C0 185.223 1.66258 183.564 3.71348 183.564Z" fill="url(#paint4_radial)"/>
<path d="M3.71348 213.205H55.7022C57.7531 213.205 59.4157 214.864 59.4157 216.91V231.731C59.4157 233.777 57.7531 235.436 55.7022 235.436H3.71348C1.66258 235.436 0 233.777 0 231.731V216.91C0 214.864 1.66258 213.205 3.71348 213.205Z" fill="url(#paint5_radial)"/>
<path d="M3.71348 242.846H55.7022C57.7531 242.846 59.4157 244.505 59.4157 246.551V261.372C59.4157 263.418 57.7531 265.077 55.7022 265.077H3.71348C1.66258 265.077 0 263.418 0 261.372V246.551C0 244.505 1.66258 242.846 3.71348 242.846Z" fill="url(#paint6_radial)"/>
<path d="M3.71348 272.487H55.7022C57.7531 272.487 59.4157 274.146 59.4157 276.192V291.013C59.4157 293.059 57.7531 294.718 55.7022 294.718H3.71348C1.66258 294.718 0 293.059 0 291.013V276.192C0 274.146 1.66258 272.487 3.71348 272.487Z" fill="url(#paint7_radial)"/>
<path d="M3.71348 302.128H55.7022C57.7531 302.128 59.4157 303.787 59.4157 305.833V320.654C59.4157 322.7 57.7531 324.359 55.7022 324.359H3.71348C1.66258 324.359 0 322.7 0 320.654V305.833C0 303.787 1.66258 302.128 3.71348 302.128Z" fill="url(#paint8_radial)"/>
<path d="M55.7022 331.769H3.71348C1.66258 331.769 0 333.428 0 335.474V350.295C0 352.341 1.66258 354 3.71348 354H55.7022C57.7531 354 59.4157 352.341 59.4157 350.295V335.474C59.4157 333.428 57.7531 331.769 55.7022 331.769Z" fill="url(#paint9_radial)"/>
<path d="M122.545 331.769H70.5562C68.5053 331.769 66.8427 333.428 66.8427 335.474V350.295C66.8427 352.341 68.5053 354 70.5562 354H122.545C124.596 354 126.258 352.341 126.258 350.295V335.474C126.258 333.428 124.596 331.769 122.545 331.769Z" fill="url(#paint10_radial)"/>
<path d="M137.399 331.769H189.388C191.439 331.769 193.101 333.428 193.101 335.474V350.295C193.101 352.341 191.439 354 189.388 354H137.399C135.348 354 133.685 352.341 133.685 350.295V335.474C133.685 333.428 135.348 331.769 137.399 331.769Z" fill="url(#paint11_radial)"/>
<path d="M256.23 331.769H204.242C202.191 331.769 200.528 333.428 200.528 335.474V350.295C200.528 352.341 202.191 354 204.242 354H256.23C258.281 354 259.944 352.341 259.944 350.295V335.474C259.944 333.428 258.281 331.769 256.23 331.769Z" fill="url(#paint12_radial)"/>
<path d="M271.084 331.769H323.073C325.124 331.769 326.787 333.428 326.787 335.474V350.295C326.787 352.341 325.124 354 323.073 354H271.084C269.033 354 267.371 352.341 267.371 350.295V335.474C267.371 333.428 269.033 331.769 271.084 331.769Z" fill="url(#paint13_radial)"/>
<path d="M389.916 331.769H337.927C335.876 331.769 334.214 333.428 334.214 335.474V350.295C334.214 352.341 335.876 354 337.927 354H389.916C391.967 354 393.629 352.341 393.629 350.295V335.474C393.629 333.428 391.967 331.769 389.916 331.769Z" fill="url(#paint14_radial)"/>
<path d="M404.77 331.769H456.758C458.809 331.769 460.472 333.428 460.472 335.474V350.295C460.472 352.341 458.809 354 456.758 354H404.77C402.719 354 401.056 352.341 401.056 350.295V335.474C401.056 333.428 402.719 331.769 404.77 331.769Z" fill="url(#paint15_radial)"/>
<path d="M523.601 331.769H471.612C469.561 331.769 467.899 333.428 467.899 335.474V350.295C467.899 352.341 469.561 354 471.612 354H523.601C525.652 354 527.315 352.341 527.315 350.295V335.474C527.315 333.428 525.652 331.769 523.601 331.769Z" fill="url(#paint16_radial)"/>
<path d="M538.455 331.769H590.444C592.495 331.769 594.157 333.428 594.157 335.474V350.295C594.157 352.341 592.495 354 590.444 354H538.455C536.404 354 534.742 352.341 534.742 350.295V335.474C534.742 333.428 536.404 331.769 538.455 331.769Z" fill="url(#paint17_radial)"/>
<path d="M657.286 331.769H605.298C603.247 331.769 601.584 333.428 601.584 335.474V350.295C601.584 352.341 603.247 354 605.298 354H657.286C659.337 354 661 352.341 661 350.295V335.474C661 333.428 659.337 331.769 657.286 331.769Z" fill="url(#paint18_radial)"/>
<path d="M122.545 302.128H70.5562C68.5053 302.128 66.8427 303.787 66.8427 305.833V320.654C66.8427 322.7 68.5053 324.359 70.5562 324.359H122.545C124.596 324.359 126.258 322.7 126.258 320.654V305.833C126.258 303.787 124.596 302.128 122.545 302.128Z" fill="url(#paint19_radial)"/>
<path d="M137.399 302.128H189.388C191.439 302.128 193.101 303.787 193.101 305.833V320.654C193.101 322.7 191.439 324.359 189.388 324.359H137.399C135.348 324.359 133.685 322.7 133.685 320.654V305.833C133.685 303.787 135.348 302.128 137.399 302.128Z" fill="url(#paint20_radial)"/>
<path d="M256.23 302.128H204.242C202.191 302.128 200.528 303.787 200.528 305.833V320.654C200.528 322.7 202.191 324.359 204.242 324.359H256.23C258.281 324.359 259.944 322.7 259.944 320.654V305.833C259.944 303.787 258.281 302.128 256.23 302.128Z" fill="url(#paint21_radial)"/>
<path d="M271.084 302.128H323.073C325.124 302.128 326.787 303.787 326.787 305.833V320.654C326.787 322.7 325.124 324.359 323.073 324.359H271.084C269.033 324.359 267.371 322.7 267.371 320.654V305.833C267.371 303.787 269.033 302.128 271.084 302.128Z" fill="url(#paint22_radial)"/>
<path d="M389.916 302.128H337.927C335.876 302.128 334.214 303.787 334.214 305.833V320.654C334.214 322.7 335.876 324.359 337.927 324.359H389.916C391.967 324.359 393.629 322.7 393.629 320.654V305.833C393.629 303.787 391.967 302.128 389.916 302.128Z" fill="url(#paint23_radial)"/>
<path d="M404.77 302.128H456.758C458.809 302.128 460.472 303.787 460.472 305.833V320.654C460.472 322.7 458.809 324.359 456.758 324.359H404.77C402.719 324.359 401.056 322.7 401.056 320.654V305.833C401.056 303.787 402.719 302.128 404.77 302.128Z" fill="url(#paint24_radial)"/>
<path d="M523.601 302.128H471.612C469.561 302.128 467.899 303.787 467.899 305.833V320.654C467.899 322.7 469.561 324.359 471.612 324.359H523.601C525.652 324.359 527.315 322.7 527.315 320.654V305.833C527.315 303.787 525.652 302.128 523.601 302.128Z" fill="url(#paint25_radial)"/>
<path d="M538.455 302.128H590.444C592.495 302.128 594.157 303.787 594.157 305.833V320.654C594.157 322.7 592.495 324.359 590.444 324.359H538.455C536.404 324.359 534.742 322.7 534.742 320.654V305.833C534.742 303.787 536.404 302.128 538.455 302.128Z" fill="url(#paint26_radial)"/>
<path d="M657.286 302.128H605.298C603.247 302.128 601.584 303.787 601.584 305.833V320.654C601.584 322.7 603.247 324.359 605.298 324.359H657.286C659.337 324.359 661 322.7 661 320.654V305.833C661 303.787 659.337 302.128 657.286 302.128Z" fill="url(#paint27_radial)"/>
<path d="M122.545 272.487H70.5562C68.5053 272.487 66.8427 274.146 66.8427 276.192V291.013C66.8427 293.059 68.5053 294.718 70.5562 294.718H122.545C124.596 294.718 126.258 293.059 126.258 291.013V276.192C126.258 274.146 124.596 272.487 122.545 272.487Z" fill="url(#paint28_radial)"/>
<path d="M137.399 272.487H189.388C191.439 272.487 193.101 274.146 193.101 276.192V291.013C193.101 293.059 191.439 294.718 189.388 294.718H137.399C135.348 294.718 133.685 293.059 133.685 291.013V276.192C133.685 274.146 135.348 272.487 137.399 272.487Z" fill="url(#paint29_radial)"/>
<path d="M256.23 272.487H204.242C202.191 272.487 200.528 274.146 200.528 276.192V291.013C200.528 293.059 202.191 294.718 204.242 294.718H256.23C258.281 294.718 259.944 293.059 259.944 291.013V276.192C259.944 274.146 258.281 272.487 256.23 272.487Z" fill="url(#paint30_radial)"/>
<path d="M271.084 272.487H323.073C325.124 272.487 326.787 274.146 326.787 276.192V291.013C326.787 293.059 325.124 294.718 323.073 294.718H271.084C269.033 294.718 267.371 293.059 267.371 291.013V276.192C267.371 274.146 269.033 272.487 271.084 272.487Z" fill="url(#paint31_radial)"/>
<path d="M389.916 272.487H337.927C335.876 272.487 334.214 274.146 334.214 276.192V291.013C334.214 293.059 335.876 294.718 337.927 294.718H389.916C391.967 294.718 393.629 293.059 393.629 291.013V276.192C393.629 274.146 391.967 272.487 389.916 272.487Z" fill="url(#paint32_radial)"/>
<path d="M404.77 272.487H456.758C458.809 272.487 460.472 274.146 460.472 276.192V291.013C460.472 293.059 458.809 294.718 456.758 294.718H404.77C402.719 294.718 401.056 293.059 401.056 291.013V276.192C401.056 274.146 402.719 272.487 404.77 272.487Z" fill="url(#paint33_radial)"/>
<path d="M523.601 272.487H471.612C469.561 272.487 467.899 274.146 467.899 276.192V291.013C467.899 293.059 469.561 294.718 471.612 294.718H523.601C525.652 294.718 527.315 293.059 527.315 291.013V276.192C527.315 274.146 525.652 272.487 523.601 272.487Z" fill="url(#paint34_radial)"/>
<path d="M538.455 272.487H590.444C592.495 272.487 594.157 274.146 594.157 276.192V291.013C594.157 293.059 592.495 294.718 590.444 294.718H538.455C536.404 294.718 534.742 293.059 534.742 291.013V276.192C534.742 274.146 536.404 272.487 538.455 272.487Z" fill="url(#paint35_radial)"/>
<path d="M657.286 272.487H605.298C603.247 272.487 601.584 274.146 601.584 276.192V291.013C601.584 293.059 603.247 294.718 605.298 294.718H657.286C659.337 294.718 661 293.059 661 291.013V276.192C661 274.146 659.337 272.487 657.286 272.487Z" fill="url(#paint36_radial)"/>
<path d="M122.545 242.846H70.5562C68.5053 242.846 66.8427 244.505 66.8427 246.551V261.372C66.8427 263.418 68.5053 265.077 70.5562 265.077H122.545C124.596 265.077 126.258 263.418 126.258 261.372V246.551C126.258 244.505 124.596 242.846 122.545 242.846Z" fill="url(#paint37_radial)"/>
<path d="M137.399 242.846H189.388C191.439 242.846 193.101 244.505 193.101 246.551V261.372C193.101 263.418 191.439 265.077 189.388 265.077H137.399C135.348 265.077 133.685 263.418 133.685 261.372V246.551C133.685 244.505 135.348 242.846 137.399 242.846Z" fill="url(#paint38_radial)"/>
<path d="M256.23 242.846H204.242C202.191 242.846 200.528 244.505 200.528 246.551V261.372C200.528 263.418 202.191 265.077 204.242 265.077H256.23C258.281 265.077 259.944 263.418 259.944 261.372V246.551C259.944 244.505 258.281 242.846 256.23 242.846Z" fill="url(#paint39_radial)"/>
<path d="M271.084 242.846H323.073C325.124 242.846 326.787 244.505 326.787 246.551V261.372C326.787 263.418 325.124 265.077 323.073 265.077H271.084C269.033 265.077 267.371 263.418 267.371 261.372V246.551C267.371 244.505 269.033 242.846 271.084 242.846Z" fill="url(#paint40_radial)"/>
<path d="M389.916 242.846H337.927C335.876 242.846 334.214 244.505 334.214 246.551V261.372C334.214 263.418 335.876 265.077 337.927 265.077H389.916C391.967 265.077 393.629 263.418 393.629 261.372V246.551C393.629 244.505 391.967 242.846 389.916 242.846Z" fill="url(#paint41_radial)"/>
<path d="M404.77 242.846H456.758C458.809 242.846 460.472 244.505 460.472 246.551V261.372C460.472 263.418 458.809 265.077 456.758 265.077H404.77C402.719 265.077 401.056 263.418 401.056 261.372V246.551C401.056 244.505 402.719 242.846 404.77 242.846Z" fill="url(#paint42_radial)"/>
<path d="M523.601 242.846H471.612C469.561 242.846 467.899 244.505 467.899 246.551V261.372C467.899 263.418 469.561 265.077 471.612 265.077H523.601C525.652 265.077 527.315 263.418 527.315 261.372V246.551C527.315 244.505 525.652 242.846 523.601 242.846Z" fill="url(#paint43_radial)"/>
<path d="M538.455 242.846H590.444C592.495 242.846 594.157 244.505 594.157 246.551V261.372C594.157 263.418 592.495 265.077 590.444 265.077H538.455C536.404 265.077 534.742 263.418 534.742 261.372V246.551C534.742 244.505 536.404 242.846 538.455 242.846Z" fill="url(#paint44_radial)"/>
<path d="M657.286 242.846H605.298C603.247 242.846 601.584 244.505 601.584 246.551V261.372C601.584 263.418 603.247 265.077 605.298 265.077H657.286C659.337 265.077 661 263.418 661 261.372V246.551C661 244.505 659.337 242.846 657.286 242.846Z" fill="url(#paint45_radial)"/>
<path d="M122.545 213.205H70.5562C68.5053 213.205 66.8427 214.864 66.8427 216.91V231.731C66.8427 233.777 68.5053 235.436 70.5562 235.436H122.545C124.596 235.436 126.258 233.777 126.258 231.731V216.91C126.258 214.864 124.596 213.205 122.545 213.205Z" fill="url(#paint46_radial)"/>
<path d="M137.399 213.205H189.388C191.439 213.205 193.101 214.864 193.101 216.91V231.731C193.101 233.777 191.439 235.436 189.388 235.436H137.399C135.348 235.436 133.685 233.777 133.685 231.731V216.91C133.685 214.864 135.348 213.205 137.399 213.205Z" fill="url(#paint47_radial)"/>
<path d="M256.23 213.205H204.242C202.191 213.205 200.528 214.864 200.528 216.91V231.731C200.528 233.777 202.191 235.436 204.242 235.436H256.23C258.281 235.436 259.944 233.777 259.944 231.731V216.91C259.944 214.864 258.281 213.205 256.23 213.205Z" fill="url(#paint48_radial)"/>
<path d="M271.084 213.205H323.073C325.124 213.205 326.787 214.864 326.787 216.91V231.731C326.787 233.777 325.124 235.436 323.073 235.436H271.084C269.033 235.436 267.371 233.777 267.371 231.731V216.91C267.371 214.864 269.033 213.205 271.084 213.205Z" fill="url(#paint49_radial)"/>
<path d="M389.916 213.205H337.927C335.876 213.205 334.214 214.864 334.214 216.91V231.731C334.214 233.777 335.876 235.436 337.927 235.436H389.916C391.967 235.436 393.629 233.777 393.629 231.731V216.91C393.629 214.864 391.967 213.205 389.916 213.205Z" fill="url(#paint50_radial)"/>
<path d="M404.77 213.205H456.758C458.809 213.205 460.472 214.864 460.472 216.91V231.731C460.472 233.777 458.809 235.436 456.758 235.436H404.77C402.719 235.436 401.056 233.777 401.056 231.731V216.91C401.056 214.864 402.719 213.205 404.77 213.205Z" fill="url(#paint51_radial)"/>
<path d="M523.601 213.205H471.612C469.561 213.205 467.899 214.864 467.899 216.91V231.731C467.899 233.777 469.561 235.436 471.612 235.436H523.601C525.652 235.436 527.315 233.777 527.315 231.731V216.91C527.315 214.864 525.652 213.205 523.601 213.205Z" fill="url(#paint52_radial)"/>
<path d="M538.455 213.205H590.444C592.495 213.205 594.157 214.864 594.157 216.91V231.731C594.157 233.777 592.495 235.436 590.444 235.436H538.455C536.404 235.436 534.742 233.777 534.742 231.731V216.91C534.742 214.864 536.404 213.205 538.455 213.205Z" fill="url(#paint53_radial)"/>
<path d="M657.286 213.205H605.298C603.247 213.205 601.584 214.864 601.584 216.91V231.731C601.584 233.777 603.247 235.436 605.298 235.436H657.286C659.337 235.436 661 233.777 661 231.731V216.91C661 214.864 659.337 213.205 657.286 213.205Z" fill="url(#paint54_radial)"/>
<path d="M122.545 183.564H70.5562C68.5053 183.564 66.8427 185.223 66.8427 187.269V202.09C66.8427 204.136 68.5053 205.795 70.5562 205.795H122.545C124.596 205.795 126.258 204.136 126.258 202.09V187.269C126.258 185.223 124.596 183.564 122.545 183.564Z" fill="url(#paint55_radial)"/>
<path d="M137.399 183.564H189.388C191.439 183.564 193.101 185.223 193.101 187.269V202.09C193.101 204.136 191.439 205.795 189.388 205.795H137.399C135.348 205.795 133.685 204.136 133.685 202.09V187.269C133.685 185.223 135.348 183.564 137.399 183.564Z" fill="url(#paint56_radial)"/>
<path d="M256.23 183.564H204.242C202.191 183.564 200.528 185.223 200.528 187.269V202.09C200.528 204.136 202.191 205.795 204.242 205.795H256.23C258.281 205.795 259.944 204.136 259.944 202.09V187.269C259.944 185.223 258.281 183.564 256.23 183.564Z" fill="url(#paint57_radial)"/>
<path d="M271.084 183.564H323.073C325.124 183.564 326.787 185.223 326.787 187.269V202.09C326.787 204.136 325.124 205.795 323.073 205.795H271.084C269.033 205.795 267.371 204.136 267.371 202.09V187.269C267.371 185.223 269.033 183.564 271.084 183.564Z" fill="url(#paint58_radial)"/>
<path d="M389.916 183.564H337.927C335.876 183.564 334.214 185.223 334.214 187.269V202.09C334.214 204.136 335.876 205.795 337.927 205.795H389.916C391.967 205.795 393.629 204.136 393.629 202.09V187.269C393.629 185.223 391.967 183.564 389.916 183.564Z" fill="url(#paint59_radial)"/>
<path d="M404.77 183.564H456.758C458.809 183.564 460.472 185.223 460.472 187.269V202.09C460.472 204.136 458.809 205.795 456.758 205.795H404.77C402.719 205.795 401.056 204.136 401.056 202.09V187.269C401.056 185.223 402.719 183.564 404.77 183.564Z" fill="url(#paint60_radial)"/>
<path d="M523.601 183.564H471.612C469.561 183.564 467.899 185.223 467.899 187.269V202.09C467.899 204.136 469.561 205.795 471.612 205.795H523.601C525.652 205.795 527.315 204.136 527.315 202.09V187.269C527.315 185.223 525.652 183.564 523.601 183.564Z" fill="url(#paint61_radial)"/>
<path d="M538.455 183.564H590.444C592.495 183.564 594.157 185.223 594.157 187.269V202.09C594.157 204.136 592.495 205.795 590.444 205.795H538.455C536.404 205.795 534.742 204.136 534.742 202.09V187.269C534.742 185.223 536.404 183.564 538.455 183.564Z" fill="url(#paint62_radial)"/>
<path d="M657.286 183.564H605.298C603.247 183.564 601.584 185.223 601.584 187.269V202.09C601.584 204.136 603.247 205.795 605.298 205.795H657.286C659.337 205.795 661 204.136 661 202.09V187.269C661 185.223 659.337 183.564 657.286 183.564Z" fill="url(#paint63_radial)"/>
<path d="M122.545 153.923H70.5562C68.5053 153.923 66.8427 155.582 66.8427 157.628V172.449C66.8427 174.495 68.5053 176.154 70.5562 176.154H122.545C124.596 176.154 126.258 174.495 126.258 172.449V157.628C126.258 155.582 124.596 153.923 122.545 153.923Z" fill="url(#paint64_radial)"/>
<path d="M137.399 153.923H189.388C191.439 153.923 193.101 155.582 193.101 157.628V172.449C193.101 174.495 191.439 176.154 189.388 176.154H137.399C135.348 176.154 133.685 174.495 133.685 172.449V157.628C133.685 155.582 135.348 153.923 137.399 153.923Z" fill="url(#paint65_radial)"/>
<path d="M256.23 153.923H204.242C202.191 153.923 200.528 155.582 200.528 157.628V172.449C200.528 174.495 202.191 176.154 204.242 176.154H256.23C258.281 176.154 259.944 174.495 259.944 172.449V157.628C259.944 155.582 258.281 153.923 256.23 153.923Z" fill="url(#paint66_radial)"/>
<path d="M271.084 153.923H323.073C325.124 153.923 326.787 155.582 326.787 157.628V172.449C326.787 174.495 325.124 176.154 323.073 176.154H271.084C269.033 176.154 267.371 174.495 267.371 172.449V157.628C267.371 155.582 269.033 153.923 271.084 153.923Z" fill="url(#paint67_radial)"/>
<path d="M389.916 153.923H337.927C335.876 153.923 334.214 155.582 334.214 157.628V172.449C334.214 174.495 335.876 176.154 337.927 176.154H389.916C391.967 176.154 393.629 174.495 393.629 172.449V157.628C393.629 155.582 391.967 153.923 389.916 153.923Z" fill="url(#paint68_radial)"/>
<path d="M404.77 153.923H456.758C458.809 153.923 460.472 155.582 460.472 157.628V172.449C460.472 174.495 458.809 176.154 456.758 176.154H404.77C402.719 176.154 401.056 174.495 401.056 172.449V157.628C401.056 155.582 402.719 153.923 404.77 153.923Z" fill="url(#paint69_radial)"/>
<path d="M523.601 153.923H471.612C469.561 153.923 467.899 155.582 467.899 157.628V172.449C467.899 174.495 469.561 176.154 471.612 176.154H523.601C525.652 176.154 527.315 174.495 527.315 172.449V157.628C527.315 155.582 525.652 153.923 523.601 153.923Z" fill="url(#paint70_radial)"/>
<path d="M538.455 153.923H590.444C592.495 153.923 594.157 155.582 594.157 157.628V172.449C594.157 174.495 592.495 176.154 590.444 176.154H538.455C536.404 176.154 534.742 174.495 534.742 172.449V157.628C534.742 155.582 536.404 153.923 538.455 153.923Z" fill="url(#paint71_radial)"/>
<path d="M657.286 153.923H605.298C603.247 153.923 601.584 155.582 601.584 157.628V172.449C601.584 174.495 603.247 176.154 605.298 176.154H657.286C659.337 176.154 661 174.495 661 172.449V157.628C661 155.582 659.337 153.923 657.286 153.923Z" fill="url(#paint72_radial)"/>
<path d="M122.545 124.282H70.5562C68.5053 124.282 66.8427 125.941 66.8427 127.987V142.808C66.8427 144.854 68.5053 146.513 70.5562 146.513H122.545C124.596 146.513 126.258 144.854 126.258 142.808V127.987C126.258 125.941 124.596 124.282 122.545 124.282Z" fill="url(#paint73_radial)"/>
<path d="M137.399 124.282H189.388C191.439 124.282 193.101 125.941 193.101 127.987V142.808C193.101 144.854 191.439 146.513 189.388 146.513H137.399C135.348 146.513 133.685 144.854 133.685 142.808V127.987C133.685 125.941 135.348 124.282 137.399 124.282Z" fill="url(#paint74_radial)"/>
<path d="M256.23 124.282H204.242C202.191 124.282 200.528 125.941 200.528 127.987V142.808C200.528 144.854 202.191 146.513 204.242 146.513H256.23C258.281 146.513 259.944 144.854 259.944 142.808V127.987C259.944 125.941 258.281 124.282 256.23 124.282Z" fill="url(#paint75_radial)"/>
<path d="M271.084 124.282H323.073C325.124 124.282 326.787 125.941 326.787 127.987V142.808C326.787 144.854 325.124 146.513 323.073 146.513H271.084C269.033 146.513 267.371 144.854 267.371 142.808V127.987C267.371 125.941 269.033 124.282 271.084 124.282Z" fill="url(#paint76_radial)"/>
<path d="M389.916 124.282H337.927C335.876 124.282 334.214 125.941 334.214 127.987V142.808C334.214 144.854 335.876 146.513 337.927 146.513H389.916C391.967 146.513 393.629 144.854 393.629 142.808V127.987C393.629 125.941 391.967 124.282 389.916 124.282Z" fill="url(#paint77_radial)"/>
<path d="M404.77 124.282H456.758C458.809 124.282 460.472 125.941 460.472 127.987V142.808C460.472 144.854 458.809 146.513 456.758 146.513H404.77C402.719 146.513 401.056 144.854 401.056 142.808V127.987C401.056 125.941 402.719 124.282 404.77 124.282Z" fill="url(#paint78_radial)"/>
<path d="M523.601 124.282H471.612C469.561 124.282 467.899 125.941 467.899 127.987V142.808C467.899 144.854 469.561 146.513 471.612 146.513H523.601C525.652 146.513 527.315 144.854 527.315 142.808V127.987C527.315 125.941 525.652 124.282 523.601 124.282Z" fill="url(#paint79_radial)"/>
<path d="M538.455 124.282H590.444C592.495 124.282 594.157 125.941 594.157 127.987V142.808C594.157 144.854 592.495 146.513 590.444 146.513H538.455C536.404 146.513 534.742 144.854 534.742 142.808V127.987C534.742 125.941 536.404 124.282 538.455 124.282Z" fill="url(#paint80_radial)"/>
<path d="M657.286 124.282H605.298C603.247 124.282 601.584 125.941 601.584 127.987V142.808C601.584 144.854 603.247 146.513 605.298 146.513H657.286C659.337 146.513 661 144.854 661 142.808V127.987C661 125.941 659.337 124.282 657.286 124.282Z" fill="url(#paint81_radial)"/>
<path d="M122.545 94.641H70.5562C68.5053 94.641 66.8427 96.2999 66.8427 98.3462V113.167C66.8427 115.213 68.5053 116.872 70.5562 116.872H122.545C124.596 116.872 126.258 115.213 126.258 113.167V98.3462C126.258 96.2999 124.596 94.641 122.545 94.641Z" fill="url(#paint82_radial)"/>
<path d="M137.399 94.641H189.388C191.439 94.641 193.101 96.2999 193.101 98.3462V113.167C193.101 115.213 191.439 116.872 189.388 116.872H137.399C135.348 116.872 133.685 115.213 133.685 113.167V98.3462C133.685 96.2999 135.348 94.641 137.399 94.641Z" fill="url(#paint83_radial)"/>
<path d="M256.23 94.641H204.242C202.191 94.641 200.528 96.2999 200.528 98.3462V113.167C200.528 115.213 202.191 116.872 204.242 116.872H256.23C258.281 116.872 259.944 115.213 259.944 113.167V98.3462C259.944 96.2999 258.281 94.641 256.23 94.641Z" fill="url(#paint84_radial)"/>
<path d="M271.084 94.641H323.073C325.124 94.641 326.787 96.2999 326.787 98.3462V113.167C326.787 115.213 325.124 116.872 323.073 116.872H271.084C269.033 116.872 267.371 115.213 267.371 113.167V98.3462C267.371 96.2999 269.033 94.641 271.084 94.641Z" fill="url(#paint85_radial)"/>
<path d="M389.916 94.641H337.927C335.876 94.641 334.214 96.2999 334.214 98.3462V113.167C334.214 115.213 335.876 116.872 337.927 116.872H389.916C391.967 116.872 393.629 115.213 393.629 113.167V98.3462C393.629 96.2999 391.967 94.641 389.916 94.641Z" fill="url(#paint86_radial)"/>
<path d="M404.77 94.641H456.758C458.809 94.641 460.472 96.2999 460.472 98.3462V113.167C460.472 115.213 458.809 116.872 456.758 116.872H404.77C402.719 116.872 401.056 115.213 401.056 113.167V98.3462C401.056 96.2999 402.719 94.641 404.77 94.641Z" fill="url(#paint87_radial)"/>
<path d="M523.601 94.641H471.612C469.561 94.641 467.899 96.2999 467.899 98.3462V113.167C467.899 115.213 469.561 116.872 471.612 116.872H523.601C525.652 116.872 527.315 115.213 527.315 113.167V98.3462C527.315 96.2999 525.652 94.641 523.601 94.641Z" fill="url(#paint88_radial)"/>
<path d="M538.455 94.641H590.444C592.495 94.641 594.157 96.2999 594.157 98.3462V113.167C594.157 115.213 592.495 116.872 590.444 116.872H538.455C536.404 116.872 534.742 115.213 534.742 113.167V98.3462C534.742 96.2999 536.404 94.641 538.455 94.641Z" fill="url(#paint89_radial)"/>
<path d="M657.286 94.641H605.298C603.247 94.641 601.584 96.2999 601.584 98.3462V113.167C601.584 115.213 603.247 116.872 605.298 116.872H657.286C659.337 116.872 661 115.213 661 113.167V98.3462C661 96.2999 659.337 94.641 657.286 94.641Z" fill="url(#paint90_radial)"/>
<path d="M122.545 65H70.5562C68.5053 65 66.8427 66.6588 66.8427 68.7051V83.5256C66.8427 85.5719 68.5053 87.2308 70.5562 87.2308H122.545C124.596 87.2308 126.258 85.5719 126.258 83.5256V68.7051C126.258 66.6588 124.596 65 122.545 65Z" fill="url(#paint91_radial)"/>
<path d="M137.399 65H189.388C191.439 65 193.101 66.6588 193.101 68.7051V83.5256C193.101 85.5719 191.439 87.2308 189.388 87.2308H137.399C135.348 87.2308 133.685 85.5719 133.685 83.5256V68.7051C133.685 66.6588 135.348 65 137.399 65Z" fill="url(#paint92_radial)"/>
<path d="M256.23 65H204.242C202.191 65 200.528 66.6588 200.528 68.7051V83.5256C200.528 85.5719 202.191 87.2308 204.242 87.2308H256.23C258.281 87.2308 259.944 85.5719 259.944 83.5256V68.7051C259.944 66.6588 258.281 65 256.23 65Z" fill="url(#paint93_radial)"/>
<path d="M271.084 65H323.073C325.124 65 326.787 66.6588 326.787 68.7051V83.5256C326.787 85.5719 325.124 87.2308 323.073 87.2308H271.084C269.033 87.2308 267.371 85.5719 267.371 83.5256V68.7051C267.371 66.6588 269.033 65 271.084 65Z" fill="url(#paint94_radial)"/>
<path d="M389.916 65H337.927C335.876 65 334.214 66.6588 334.214 68.7051V83.5256C334.214 85.5719 335.876 87.2308 337.927 87.2308H389.916C391.967 87.2308 393.629 85.5719 393.629 83.5256V68.7051C393.629 66.6588 391.967 65 389.916 65Z" fill="url(#paint95_radial)"/>
<path d="M404.77 65H456.758C458.809 65 460.472 66.6588 460.472 68.7051V83.5256C460.472 85.5719 458.809 87.2308 456.758 87.2308H404.77C402.719 87.2308 401.056 85.5719 401.056 83.5256V68.7051C401.056 66.6588 402.719 65 404.77 65Z" fill="url(#paint96_radial)"/>
<path d="M523.601 65H471.612C469.561 65 467.899 66.6588 467.899 68.7051V83.5256C467.899 85.5719 469.561 87.2308 471.612 87.2308H523.601C525.652 87.2308 527.315 85.5719 527.315 83.5256V68.7051C527.315 66.6588 525.652 65 523.601 65Z" fill="url(#paint97_radial)"/>
<path d="M538.455 65H590.444C592.495 65 594.157 66.6588 594.157 68.7051V83.5256C594.157 85.5719 592.495 87.2308 590.444 87.2308H538.455C536.404 87.2308 534.742 85.5719 534.742 83.5256V68.7051C534.742 66.6588 536.404 65 538.455 65Z" fill="url(#paint98_radial)"/>
<path d="M657.286 65H605.298C603.247 65 601.584 66.6588 601.584 68.7051V83.5256C601.584 85.5719 603.247 87.2308 605.298 87.2308H657.286C659.337 87.2308 661 85.5719 661 83.5256V68.7051C661 66.6588 659.337 65 657.286 65Z" fill="url(#paint99_radial)"/>
<g opacity="0.453348" filter="url(#filter0_f)">
<path d="M295.699 194.45C295.699 194.45 318.18 182.33 320.174 172.854C334.331 105.574 329.623 116.274 333.524 105.83C336.824 96.9939 341.8 161.175 354.29 181.045C367.063 201.366 393.423 96.4168 409.172 105.83C422.819 113.986 425.056 181.361 435.872 181.045C449.744 180.64 453.862 117.001 458.863 117.001C461.63 117.001 466.917 161.842 475.921 172.854C476.848 173.987 484.718 161.028 485.562 161.683C488.321 163.825 515.363 167.115 518.195 166.151C533.152 161.06 523.993 117.001 529.32 117.001C532.05 117.001 528.815 150.146 545.636 157.215C562.118 164.142 598.938 144.772 575.302 166.151C566.278 174.314 435.872 208.599 435.872 208.599C435.872 208.599 430.668 260.905 423.264 259.984C402.171 257.36 389.315 211.182 382.473 213.812C366.179 220.077 375.034 252.092 358.74 248.069C355.105 247.171 353.468 214.746 349.84 213.812C323.367 207 269 222.004 269 222.004L295.699 194.45Z" fill="url(#paint100_linear)"/>
</g>
<g opacity="0.45" filter="url(#filter1_bd)">
<path d="M117 344C109.268 344 103 337.732 103 330L103 282C103 274.268 109.268 268 117 268L492 268L492 344L117 344Z" fill="url(#paint101_linear)"/>
</g>
<defs>
<filter id="filter0_f" x="164.645" y="0.644981" width="522.71" height="363.706" filterUnits="userSpaceOnUse" color-interpolation-filters="sRGB">
<feFlood flood-opacity="0" result="BackgroundImageFix"/>
<feBlend mode="normal" in="SourceGraphic" in2="BackgroundImageFix" result="shape"/>
<feGaussianBlur stdDeviation="52.1775" result="effect1_foregroundBlur"/>
</filter>
<filter id="filter1_bd" x="55" y="190" width="485" height="172" filterUnits="userSpaceOnUse" color-interpolation-filters="sRGB">
<feFlood flood-opacity="0" result="BackgroundImageFix"/>
<feGaussianBlur in="BackgroundImage" stdDeviation="7.5"/>
<feComposite in2="SourceAlpha" operator="in" result="effect1_backgroundBlur"/>
<feColorMatrix in="SourceAlpha" type="matrix" values="0 0 0 0 0 0 0 0 0 0 0 0 0 0 0 0 0 0 127 0"/>
<feOffset dy="-30"/>
<feGaussianBlur stdDeviation="24"/>
<feColorMatrix type="matrix" values="0 0 0 0 0.101181 0 0 0 0 0.0952456 0 0 0 0 0.208014 0 0 0 0.506567 0"/>
<feBlend mode="normal" in2="effect1_backgroundBlur" result="effect2_dropShadow"/>
<feBlend mode="normal" in="SourceGraphic" in2="effect2_dropShadow" result="shape"/>
</filter>
<radialGradient id="paint0_radial" cx="0" cy="0" r="1" gradientUnits="userSpaceOnUse" gradientTransform="translate(262.335 298.408) rotate(180) scale(320.467 68.9719)">
<stop stop-color="#1B193D" stop-opacity="0.902542"/>
<stop offset="1" stop-color="#23214C" stop-opacity="0.01"/>
</radialGradient>
<radialGradient id="paint1_radial" cx="0" cy="0" r="1" gradientUnits="userSpaceOnUse" gradientTransform="translate(262.335 298.408) rotate(180) scale(320.467 68.9719)">
<stop stop-color="#1B193D" stop-opacity="0.902542"/>
<stop offset="1" stop-color="#23214C" stop-opacity="0.01"/>
</radialGradient>
<radialGradient id="paint2_radial" cx="0" cy="0" r="1" gradientUnits="userSpaceOnUse" gradientTransform="translate(262.335 298.408) rotate(180) scale(320.467 68.9719)">
<stop stop-color="#1B193D" stop-opacity="0.902542"/>
<stop offset="1" stop-color="#23214C" stop-opacity="0.01"/>
</radialGradient>
<radialGradient id="paint3_radial" cx="0" cy="0" r="1" gradientUnits="userSpaceOnUse" gradientTransform="translate(262.335 298.408) rotate(180) scale(320.467 68.9719)">
<stop stop-color="#1B193D" stop-opacity="0.902542"/>
<stop offset="1" stop-color="#23214C" stop-opacity="0.01"/>
</radialGradient>
<radialGradient id="paint4_radial" cx="0" cy="0" r="1" gradientUnits="userSpaceOnUse" gradientTransform="translate(262.335 298.408) rotate(180) scale(320.467 68.9719)">
<stop stop-color="#1B193D" stop-opacity="0.902542"/>
<stop offset="1" stop-color="#23214C" stop-opacity="0.01"/>
</radialGradient>
<radialGradient id="paint5_radial" cx="0" cy="0" r="1" gradientUnits="userSpaceOnUse" gradientTransform="translate(262.335 298.408) rotate(180) scale(320.467 68.9719)">
<stop stop-color="#1B193D" stop-opacity="0.902542"/>
<stop offset="1" stop-color="#23214C" stop-opacity="0.01"/>
</radialGradient>
<radialGradient id="paint6_radial" cx="0" cy="0" r="1" gradientUnits="userSpaceOnUse" gradientTransform="translate(262.335 298.408) rotate(180) scale(320.467 68.9719)">
<stop stop-color="#1B193D" stop-opacity="0.902542"/>
<stop offset="1" stop-color="#23214C" stop-opacity="0.01"/>
</radialGradient>
<radialGradient id="paint7_radial" cx="0" cy="0" r="1" gradientUnits="userSpaceOnUse" gradientTransform="translate(262.335 298.408) rotate(180) scale(320.467 68.9719)">
<stop stop-color="#1B193D" stop-opacity="0.902542"/>
<stop offset="1" stop-color="#23214C" stop-opacity="0.01"/>
</radialGradient>
<radialGradient id="paint8_radial" cx="0" cy="0" r="1" gradientUnits="userSpaceOnUse" gradientTransform="translate(262.335 298.408) rotate(180) scale(320.467 68.9719)">
<stop stop-color="#1B193D" stop-opacity="0.902542"/>
<stop offset="1" stop-color="#23214C" stop-opacity="0.01"/>
</radialGradient>
<radialGradient id="paint9_radial" cx="0" cy="0" r="1" gradientUnits="userSpaceOnUse" gradientTransform="translate(262.335 298.408) rotate(180) scale(320.467 68.9719)">
<stop stop-color="#1B193D" stop-opacity="0.902542"/>
<stop offset="1" stop-color="#23214C" stop-opacity="0.01"/>
</radialGradient>
<radialGradient id="paint10_radial" cx="0" cy="0" r="1" gradientUnits="userSpaceOnUse" gradientTransform="translate(262.335 298.408) rotate(180) scale(320.467 68.9719)">
<stop stop-color="#1B193D" stop-opacity="0.902542"/>
<stop offset="1" stop-color="#23214C" stop-opacity="0.01"/>
</radialGradient>
<radialGradient id="paint11_radial" cx="0" cy="0" r="1" gradientUnits="userSpaceOnUse" gradientTransform="translate(262.335 298.408) rotate(180) scale(320.467 68.9719)">
<stop stop-color="#1B193D" stop-opacity="0.902542"/>
<stop offset="1" stop-color="#23214C" stop-opacity="0.01"/>
</radialGradient>
<radialGradient id="paint12_radial" cx="0" cy="0" r="1" gradientUnits="userSpaceOnUse" gradientTransform="translate(262.335 298.408) rotate(180) scale(320.467 68.9719)">
<stop stop-color="#1B193D" stop-opacity="0.902542"/>
<stop offset="1" stop-color="#23214C" stop-opacity="0.01"/>
</radialGradient>
<radialGradient id="paint13_radial" cx="0" cy="0" r="1" gradientUnits="userSpaceOnUse" gradientTransform="translate(262.335 298.408) rotate(180) scale(320.467 68.9719)">
<stop stop-color="#1B193D" stop-opacity="0.902542"/>
<stop offset="1" stop-color="#23214C" stop-opacity="0.01"/>
</radialGradient>
<radialGradient id="paint14_radial" cx="0" cy="0" r="1" gradientUnits="userSpaceOnUse" gradientTransform="translate(262.335 298.408) rotate(180) scale(320.467 68.9719)">
<stop stop-color="#1B193D" stop-opacity="0.902542"/>
<stop offset="1" stop-color="#23214C" stop-opacity="0.01"/>
</radialGradient>
<radialGradient id="paint15_radial" cx="0" cy="0" r="1" gradientUnits="userSpaceOnUse" gradientTransform="translate(262.335 298.408) rotate(180) scale(320.467 68.9719)">
<stop stop-color="#1B193D" stop-opacity="0.902542"/>
<stop offset="1" stop-color="#23214C" stop-opacity="0.01"/>
</radialGradient>
<radialGradient id="paint16_radial" cx="0" cy="0" r="1" gradientUnits="userSpaceOnUse" gradientTransform="translate(262.335 298.408) rotate(180) scale(320.467 68.9719)">
<stop stop-color="#1B193D" stop-opacity="0.902542"/>
<stop offset="1" stop-color="#23214C" stop-opacity="0.01"/>
</radialGradient>
<radialGradient id="paint17_radial" cx="0" cy="0" r="1" gradientUnits="userSpaceOnUse" gradientTransform="translate(262.335 298.408) rotate(180) scale(320.467 68.9719)">
<stop stop-color="#1B193D" stop-opacity="0.902542"/>
<stop offset="1" stop-color="#23214C" stop-opacity="0.01"/>
</radialGradient>
<radialGradient id="paint18_radial" cx="0" cy="0" r="1" gradientUnits="userSpaceOnUse" gradientTransform="translate(262.335 298.408) rotate(180) scale(320.467 68.9719)">
<stop stop-color="#1B193D" stop-opacity="0.902542"/>
<stop offset="1" stop-color="#23214C" stop-opacity="0.01"/>
</radialGradient>
<radialGradient id="paint19_radial" cx="0" cy="0" r="1" gradientUnits="userSpaceOnUse" gradientTransform="translate(262.335 298.408) rotate(180) scale(320.467 68.9719)">
<stop stop-color="#1B193D" stop-opacity="0.902542"/>
<stop offset="1" stop-color="#23214C" stop-opacity="0.01"/>
</radialGradient>
<radialGradient id="paint20_radial" cx="0" cy="0" r="1" gradientUnits="userSpaceOnUse" gradientTransform="translate(262.335 298.408) rotate(180) scale(320.467 68.9719)">
<stop stop-color="#1B193D" stop-opacity="0.902542"/>
<stop offset="1" stop-color="#23214C" stop-opacity="0.01"/>
</radialGradient>
<radialGradient id="paint21_radial" cx="0" cy="0" r="1" gradientUnits="userSpaceOnUse" gradientTransform="translate(262.335 298.408) rotate(180) scale(320.467 68.9719)">
<stop stop-color="#1B193D" stop-opacity="0.902542"/>
<stop offset="1" stop-color="#23214C" stop-opacity="0.01"/>
</radialGradient>
<radialGradient id="paint22_radial" cx="0" cy="0" r="1" gradientUnits="userSpaceOnUse" gradientTransform="translate(262.335 298.408) rotate(180) scale(320.467 68.9719)">
<stop stop-color="#1B193D" stop-opacity="0.902542"/>
<stop offset="1" stop-color="#23214C" stop-opacity="0.01"/>
</radialGradient>
<radialGradient id="paint23_radial" cx="0" cy="0" r="1" gradientUnits="userSpaceOnUse" gradientTransform="translate(262.335 298.408) rotate(180) scale(320.467 68.9719)">
<stop stop-color="#1B193D" stop-opacity="0.902542"/>
<stop offset="1" stop-color="#23214C" stop-opacity="0.01"/>
</radialGradient>
<radialGradient id="paint24_radial" cx="0" cy="0" r="1" gradientUnits="userSpaceOnUse" gradientTransform="translate(262.335 298.408) rotate(180) scale(320.467 68.9719)">
<stop stop-color="#1B193D" stop-opacity="0.902542"/>
<stop offset="1" stop-color="#23214C" stop-opacity="0.01"/>
</radialGradient>
<radialGradient id="paint25_radial" cx="0" cy="0" r="1" gradientUnits="userSpaceOnUse" gradientTransform="translate(262.335 298.408) rotate(180) scale(320.467 68.9719)">
<stop stop-color="#1B193D" stop-opacity="0.902542"/>
<stop offset="1" stop-color="#23214C" stop-opacity="0.01"/>
</radialGradient>
<radialGradient id="paint26_radial" cx="0" cy="0" r="1" gradientUnits="userSpaceOnUse" gradientTransform="translate(262.335 298.408) rotate(180) scale(320.467 68.9719)">
<stop stop-color="#1B193D" stop-opacity="0.902542"/>
<stop offset="1" stop-color="#23214C" stop-opacity="0.01"/>
</radialGradient>
<radialGradient id="paint27_radial" cx="0" cy="0" r="1" gradientUnits="userSpaceOnUse" gradientTransform="translate(262.335 298.408) rotate(180) scale(320.467 68.9719)">
<stop stop-color="#1B193D" stop-opacity="0.902542"/>
<stop offset="1" stop-color="#23214C" stop-opacity="0.01"/>
</radialGradient>
<radialGradient id="paint28_radial" cx="0" cy="0" r="1" gradientUnits="userSpaceOnUse" gradientTransform="translate(262.335 298.408) rotate(180) scale(320.467 68.9719)">
<stop stop-color="#1B193D" stop-opacity="0.902542"/>
<stop offset="1" stop-color="#23214C" stop-opacity="0.01"/>
</radialGradient>
<radialGradient id="paint29_radial" cx="0" cy="0" r="1" gradientUnits="userSpaceOnUse" gradientTransform="translate(262.335 298.408) rotate(180) scale(320.467 68.9719)">
<stop stop-color="#1B193D" stop-opacity="0.902542"/>
<stop offset="1" stop-color="#23214C" stop-opacity="0.01"/>
</radialGradient>
<radialGradient id="paint30_radial" cx="0" cy="0" r="1" gradientUnits="userSpaceOnUse" gradientTransform="translate(262.335 298.408) rotate(180) scale(320.467 68.9719)">
<stop stop-color="#1B193D" stop-opacity="0.902542"/>
<stop offset="1" stop-color="#23214C" stop-opacity="0.01"/>
</radialGradient>
<radialGradient id="paint31_radial" cx="0" cy="0" r="1" gradientUnits="userSpaceOnUse" gradientTransform="translate(262.335 298.408) rotate(180) scale(320.467 68.9719)">
<stop stop-color="#1B193D" stop-opacity="0.902542"/>
<stop offset="1" stop-color="#23214C" stop-opacity="0.01"/>
</radialGradient>
<radialGradient id="paint32_radial" cx="0" cy="0" r="1" gradientUnits="userSpaceOnUse" gradientTransform="translate(262.335 298.408) rotate(180) scale(320.467 68.9719)">
<stop stop-color="#1B193D" stop-opacity="0.902542"/>
<stop offset="1" stop-color="#23214C" stop-opacity="0.01"/>
</radialGradient>
<radialGradient id="paint33_radial" cx="0" cy="0" r="1" gradientUnits="userSpaceOnUse" gradientTransform="translate(262.335 298.408) rotate(180) scale(320.467 68.9719)">
<stop stop-color="#1B193D" stop-opacity="0.902542"/>
<stop offset="1" stop-color="#23214C" stop-opacity="0.01"/>
</radialGradient>
<radialGradient id="paint34_radial" cx="0" cy="0" r="1" gradientUnits="userSpaceOnUse" gradientTransform="translate(262.335 298.408) rotate(180) scale(320.467 68.9719)">
<stop stop-color="#1B193D" stop-opacity="0.902542"/>
<stop offset="1" stop-color="#23214C" stop-opacity="0.01"/>
</radialGradient>
<radialGradient id="paint35_radial" cx="0" cy="0" r="1" gradientUnits="userSpaceOnUse" gradientTransform="translate(262.335 298.408) rotate(180) scale(320.467 68.9719)">
<stop stop-color="#1B193D" stop-opacity="0.902542"/>
<stop offset="1" stop-color="#23214C" stop-opacity="0.01"/>
</radialGradient>
<radialGradient id="paint36_radial" cx="0" cy="0" r="1" gradientUnits="userSpaceOnUse" gradientTransform="translate(262.335 298.408) rotate(180) scale(320.467 68.9719)">
<stop stop-color="#1B193D" stop-opacity="0.902542"/>
<stop offset="1" stop-color="#23214C" stop-opacity="0.01"/>
</radialGradient>
<radialGradient id="paint37_radial" cx="0" cy="0" r="1" gradientUnits="userSpaceOnUse" gradientTransform="translate(262.335 298.408) rotate(180) scale(320.467 68.9719)">
<stop stop-color="#1B193D" stop-opacity="0.902542"/>
<stop offset="1" stop-color="#23214C" stop-opacity="0.01"/>
</radialGradient>
<radialGradient id="paint38_radial" cx="0" cy="0" r="1" gradientUnits="userSpaceOnUse" gradientTransform="translate(262.335 298.408) rotate(180) scale(320.467 68.9719)">
<stop stop-color="#1B193D" stop-opacity="0.902542"/>
<stop offset="1" stop-color="#23214C" stop-opacity="0.01"/>
</radialGradient>
<radialGradient id="paint39_radial" cx="0" cy="0" r="1" gradientUnits="userSpaceOnUse" gradientTransform="translate(262.335 298.408) rotate(180) scale(320.467 68.9719)">
<stop stop-color="#1B193D" stop-opacity="0.902542"/>
<stop offset="1" stop-color="#23214C" stop-opacity="0.01"/>
</radialGradient>
<radialGradient id="paint40_radial" cx="0" cy="0" r="1" gradientUnits="userSpaceOnUse" gradientTransform="translate(262.335 298.408) rotate(180) scale(320.467 68.9719)">
<stop stop-color="#1B193D" stop-opacity="0.902542"/>
<stop offset="1" stop-color="#23214C" stop-opacity="0.01"/>
</radialGradient>
<radialGradient id="paint41_radial" cx="0" cy="0" r="1" gradientUnits="userSpaceOnUse" gradientTransform="translate(262.335 298.408) rotate(180) scale(320.467 68.9719)">
<stop stop-color="#1B193D" stop-opacity="0.902542"/>
<stop offset="1" stop-color="#23214C" stop-opacity="0.01"/>
</radialGradient>
<radialGradient id="paint42_radial" cx="0" cy="0" r="1" gradientUnits="userSpaceOnUse" gradientTransform="translate(262.335 298.408) rotate(180) scale(320.467 68.9719)">
<stop stop-color="#1B193D" stop-opacity="0.902542"/>
<stop offset="1" stop-color="#23214C" stop-opacity="0.01"/>
</radialGradient>
<radialGradient id="paint43_radial" cx="0" cy="0" r="1" gradientUnits="userSpaceOnUse" gradientTransform="translate(262.335 298.408) rotate(180) scale(320.467 68.9719)">
<stop stop-color="#1B193D" stop-opacity="0.902542"/>
<stop offset="1" stop-color="#23214C" stop-opacity="0.01"/>
</radialGradient>
<radialGradient id="paint44_radial" cx="0" cy="0" r="1" gradientUnits="userSpaceOnUse" gradientTransform="translate(262.335 298.408) rotate(180) scale(320.467 68.9719)">
<stop stop-color="#1B193D" stop-opacity="0.902542"/>
<stop offset="1" stop-color="#23214C" stop-opacity="0.01"/>
</radialGradient>
<radialGradient id="paint45_radial" cx="0" cy="0" r="1" gradientUnits="userSpaceOnUse" gradientTransform="translate(262.335 298.408) rotate(180) scale(320.467 68.9719)">
<stop stop-color="#1B193D" stop-opacity="0.902542"/>
<stop offset="1" stop-color="#23214C" stop-opacity="0.01"/>
</radialGradient>
<radialGradient id="paint46_radial" cx="0" cy="0" r="1" gradientUnits="userSpaceOnUse" gradientTransform="translate(262.335 298.408) rotate(180) scale(320.467 68.9719)">
<stop stop-color="#1B193D" stop-opacity="0.902542"/>
<stop offset="1" stop-color="#23214C" stop-opacity="0.01"/>
</radialGradient>
<radialGradient id="paint47_radial" cx="0" cy="0" r="1" gradientUnits="userSpaceOnUse" gradientTransform="translate(262.335 298.408) rotate(180) scale(320.467 68.9719)">
<stop stop-color="#1B193D" stop-opacity="0.902542"/>
<stop offset="1" stop-color="#23214C" stop-opacity="0.01"/>
</radialGradient>
<radialGradient id="paint48_radial" cx="0" cy="0" r="1" gradientUnits="userSpaceOnUse" gradientTransform="translate(262.335 298.408) rotate(180) scale(320.467 68.9719)">
<stop stop-color="#1B193D" stop-opacity="0.902542"/>
<stop offset="1" stop-color="#23214C" stop-opacity="0.01"/>
</radialGradient>
<radialGradient id="paint49_radial" cx="0" cy="0" r="1" gradientUnits="userSpaceOnUse" gradientTransform="translate(262.335 298.408) rotate(180) scale(320.467 68.9719)">
<stop stop-color="#1B193D" stop-opacity="0.902542"/>
<stop offset="1" stop-color="#23214C" stop-opacity="0.01"/>
</radialGradient>
<radialGradient id="paint50_radial" cx="0" cy="0" r="1" gradientUnits="userSpaceOnUse" gradientTransform="translate(262.335 298.408) rotate(180) scale(320.467 68.9719)">
<stop stop-color="#1B193D" stop-opacity="0.902542"/>
<stop offset="1" stop-color="#23214C" stop-opacity="0.01"/>
</radialGradient>
<radialGradient id="paint51_radial" cx="0" cy="0" r="1" gradientUnits="userSpaceOnUse" gradientTransform="translate(262.335 298.408) rotate(180) scale(320.467 68.9719)">
<stop stop-color="#1B193D" stop-opacity="0.902542"/>
<stop offset="1" stop-color="#23214C" stop-opacity="0.01"/>
</radialGradient>
<radialGradient id="paint52_radial" cx="0" cy="0" r="1" gradientUnits="userSpaceOnUse" gradientTransform="translate(262.335 298.408) rotate(180) scale(320.467 68.9719)">
<stop stop-color="#1B193D" stop-opacity="0.902542"/>
<stop offset="1" stop-color="#23214C" stop-opacity="0.01"/>
</radialGradient>
<radialGradient id="paint53_radial" cx="0" cy="0" r="1" gradientUnits="userSpaceOnUse" gradientTransform="translate(262.335 298.408) rotate(180) scale(320.467 68.9719)">
<stop stop-color="#1B193D" stop-opacity="0.902542"/>
<stop offset="1" stop-color="#23214C" stop-opacity="0.01"/>
</radialGradient>
<radialGradient id="paint54_radial" cx="0" cy="0" r="1" gradientUnits="userSpaceOnUse" gradientTransform="translate(262.335 298.408) rotate(180) scale(320.467 68.9719)">
<stop stop-color="#1B193D" stop-opacity="0.902542"/>
<stop offset="1" stop-color="#23214C" stop-opacity="0.01"/>
</radialGradient>
<radialGradient id="paint55_radial" cx="0" cy="0" r="1" gradientUnits="userSpaceOnUse" gradientTransform="translate(262.335 298.408) rotate(180) scale(320.467 68.9719)">
<stop stop-color="#1B193D" stop-opacity="0.902542"/>
<stop offset="1" stop-color="#23214C" stop-opacity="0.01"/>
</radialGradient>
<radialGradient id="paint56_radial" cx="0" cy="0" r="1" gradientUnits="userSpaceOnUse" gradientTransform="translate(262.335 298.408) rotate(180) scale(320.467 68.9719)">
<stop stop-color="#1B193D" stop-opacity="0.902542"/>
<stop offset="1" stop-color="#23214C" stop-opacity="0.01"/>
</radialGradient>
<radialGradient id="paint57_radial" cx="0" cy="0" r="1" gradientUnits="userSpaceOnUse" gradientTransform="translate(262.335 298.408) rotate(180) scale(320.467 68.9719)">
<stop stop-color="#1B193D" stop-opacity="0.902542"/>
<stop offset="1" stop-color="#23214C" stop-opacity="0.01"/>
</radialGradient>
<radialGradient id="paint58_radial" cx="0" cy="0" r="1" gradientUnits="userSpaceOnUse" gradientTransform="translate(262.335 298.408) rotate(180) scale(320.467 68.9719)">
<stop stop-color="#1B193D" stop-opacity="0.902542"/>
<stop offset="1" stop-color="#23214C" stop-opacity="0.01"/>
</radialGradient>
<radialGradient id="paint59_radial" cx="0" cy="0" r="1" gradientUnits="userSpaceOnUse" gradientTransform="translate(262.335 298.408) rotate(180) scale(320.467 68.9719)">
<stop stop-color="#1B193D" stop-opacity="0.902542"/>
<stop offset="1" stop-color="#23214C" stop-opacity="0.01"/>
</radialGradient>
<radialGradient id="paint60_radial" cx="0" cy="0" r="1" gradientUnits="userSpaceOnUse" gradientTransform="translate(262.335 298.408) rotate(180) scale(320.467 68.9719)">
<stop stop-color="#1B193D" stop-opacity="0.902542"/>
<stop offset="1" stop-color="#23214C" stop-opacity="0.01"/>
</radialGradient>
<radialGradient id="paint61_radial" cx="0" cy="0" r="1" gradientUnits="userSpaceOnUse" gradientTransform="translate(262.335 298.408) rotate(180) scale(320.467 68.9719)">
<stop stop-color="#1B193D" stop-opacity="0.902542"/>
<stop offset="1" stop-color="#23214C" stop-opacity="0.01"/>
</radialGradient>
<radialGradient id="paint62_radial" cx="0" cy="0" r="1" gradientUnits="userSpaceOnUse" gradientTransform="translate(262.335 298.408) rotate(180) scale(320.467 68.9719)">
<stop stop-color="#1B193D" stop-opacity="0.902542"/>
<stop offset="1" stop-color="#23214C" stop-opacity="0.01"/>
</radialGradient>
<radialGradient id="paint63_radial" cx="0" cy="0" r="1" gradientUnits="userSpaceOnUse" gradientTransform="translate(262.335 298.408) rotate(180) scale(320.467 68.9719)">
<stop stop-color="#1B193D" stop-opacity="0.902542"/>
<stop offset="1" stop-color="#23214C" stop-opacity="0.01"/>
</radialGradient>
<radialGradient id="paint64_radial" cx="0" cy="0" r="1" gradientUnits="userSpaceOnUse" gradientTransform="translate(262.335 298.408) rotate(180) scale(320.467 68.9719)">
<stop stop-color="#1B193D" stop-opacity="0.902542"/>
<stop offset="1" stop-color="#23214C" stop-opacity="0.01"/>
</radialGradient>
<radialGradient id="paint65_radial" cx="0" cy="0" r="1" gradientUnits="userSpaceOnUse" gradientTransform="translate(262.335 298.408) rotate(180) scale(320.467 68.9719)">
<stop stop-color="#1B193D" stop-opacity="0.902542"/>
<stop offset="1" stop-color="#23214C" stop-opacity="0.01"/>
</radialGradient>
<radialGradient id="paint66_radial" cx="0" cy="0" r="1" gradientUnits="userSpaceOnUse" gradientTransform="translate(262.335 298.408) rotate(180) scale(320.467 68.9719)">
<stop stop-color="#1B193D" stop-opacity="0.902542"/>
<stop offset="1" stop-color="#23214C" stop-opacity="0.01"/>
</radialGradient>
<radialGradient id="paint67_radial" cx="0" cy="0" r="1" gradientUnits="userSpaceOnUse" gradientTransform="translate(262.335 298.408) rotate(180) scale(320.467 68.9719)">
<stop stop-color="#1B193D" stop-opacity="0.902542"/>
<stop offset="1" stop-color="#23214C" stop-opacity="0.01"/>
</radialGradient>
<radialGradient id="paint68_radial" cx="0" cy="0" r="1" gradientUnits="userSpaceOnUse" gradientTransform="translate(262.335 298.408) rotate(180) scale(320.467 68.9719)">
<stop stop-color="#1B193D" stop-opacity="0.902542"/>
<stop offset="1" stop-color="#23214C" stop-opacity="0.01"/>
</radialGradient>
<radialGradient id="paint69_radial" cx="0" cy="0" r="1" gradientUnits="userSpaceOnUse" gradientTransform="translate(262.335 298.408) rotate(180) scale(320.467 68.9719)">
<stop stop-color="#1B193D" stop-opacity="0.902542"/>
<stop offset="1" stop-color="#23214C" stop-opacity="0.01"/>
</radialGradient>
<radialGradient id="paint70_radial" cx="0" cy="0" r="1" gradientUnits="userSpaceOnUse" gradientTransform="translate(262.335 298.408) rotate(180) scale(320.467 68.9719)">
<stop stop-color="#1B193D" stop-opacity="0.902542"/>
<stop offset="1" stop-color="#23214C" stop-opacity="0.01"/>
</radialGradient>
<radialGradient id="paint71_radial" cx="0" cy="0" r="1" gradientUnits="userSpaceOnUse" gradientTransform="translate(262.335 298.408) rotate(180) scale(320.467 68.9719)">
<stop stop-color="#1B193D" stop-opacity="0.902542"/>
<stop offset="1" stop-color="#23214C" stop-opacity="0.01"/>
</radialGradient>
<radialGradient id="paint72_radial" cx="0" cy="0" r="1" gradientUnits="userSpaceOnUse" gradientTransform="translate(262.335 298.408) rotate(180) scale(320.467 68.9719)">
<stop stop-color="#1B193D" stop-opacity="0.902542"/>
<stop offset="1" stop-color="#23214C" stop-opacity="0.01"/>
</radialGradient>
<radialGradient id="paint73_radial" cx="0" cy="0" r="1" gradientUnits="userSpaceOnUse" gradientTransform="translate(262.335 298.408) rotate(180) scale(320.467 68.9719)">
<stop stop-color="#1B193D" stop-opacity="0.902542"/>
<stop offset="1" stop-color="#23214C" stop-opacity="0.01"/>
</radialGradient>
<radialGradient id="paint74_radial" cx="0" cy="0" r="1" gradientUnits="userSpaceOnUse" gradientTransform="translate(262.335 298.408) rotate(180) scale(320.467 68.9719)">
<stop stop-color="#1B193D" stop-opacity="0.902542"/>
<stop offset="1" stop-color="#23214C" stop-opacity="0.01"/>
</radialGradient>
<radialGradient id="paint75_radial" cx="0" cy="0" r="1" gradientUnits="userSpaceOnUse" gradientTransform="translate(262.335 298.408) rotate(180) scale(320.467 68.9719)">
<stop stop-color="#1B193D" stop-opacity="0.902542"/>
<stop offset="1" stop-color="#23214C" stop-opacity="0.01"/>
</radialGradient>
<radialGradient id="paint76_radial" cx="0" cy="0" r="1" gradientUnits="userSpaceOnUse" gradientTransform="translate(262.335 298.408) rotate(180) scale(320.467 68.9719)">
<stop stop-color="#1B193D" stop-opacity="0.902542"/>
<stop offset="1" stop-color="#23214C" stop-opacity="0.01"/>
</radialGradient>
<radialGradient id="paint77_radial" cx="0" cy="0" r="1" gradientUnits="userSpaceOnUse" gradientTransform="translate(262.335 298.408) rotate(180) scale(320.467 68.9719)">
<stop stop-color="#1B193D" stop-opacity="0.902542"/>
<stop offset="1" stop-color="#23214C" stop-opacity="0.01"/>
</radialGradient>
<radialGradient id="paint78_radial" cx="0" cy="0" r="1" gradientUnits="userSpaceOnUse" gradientTransform="translate(262.335 298.408) rotate(180) scale(320.467 68.9719)">
<stop stop-color="#1B193D" stop-opacity="0.902542"/>
<stop offset="1" stop-color="#23214C" stop-opacity="0.01"/>
</radialGradient>
<radialGradient id="paint79_radial" cx="0" cy="0" r="1" gradientUnits="userSpaceOnUse" gradientTransform="translate(262.335 298.408) rotate(180) scale(320.467 68.9719)">
<stop stop-color="#1B193D" stop-opacity="0.902542"/>
<stop offset="1" stop-color="#23214C" stop-opacity="0.01"/>
</radialGradient>
<radialGradient id="paint80_radial" cx="0" cy="0" r="1" gradientUnits="userSpaceOnUse" gradientTransform="translate(262.335 298.408) rotate(180) scale(320.467 68.9719)">
<stop stop-color="#1B193D" stop-opacity="0.902542"/>
<stop offset="1" stop-color="#23214C" stop-opacity="0.01"/>
</radialGradient>
<radialGradient id="paint81_radial" cx="0" cy="0" r="1" gradientUnits="userSpaceOnUse" gradientTransform="translate(262.335 298.408) rotate(180) scale(320.467 68.9719)">
<stop stop-color="#1B193D" stop-opacity="0.902542"/>
<stop offset="1" stop-color="#23214C" stop-opacity="0.01"/>
</radialGradient>
<radialGradient id="paint82_radial" cx="0" cy="0" r="1" gradientUnits="userSpaceOnUse" gradientTransform="translate(262.335 298.408) rotate(180) scale(320.467 68.9719)">
<stop stop-color="#1B193D" stop-opacity="0.902542"/>
<stop offset="1" stop-color="#23214C" stop-opacity="0.01"/>
</radialGradient>
<radialGradient id="paint83_radial" cx="0" cy="0" r="1" gradientUnits="userSpaceOnUse" gradientTransform="translate(262.335 298.408) rotate(180) scale(320.467 68.9719)">
<stop stop-color="#1B193D" stop-opacity="0.902542"/>
<stop offset="1" stop-color="#23214C" stop-opacity="0.01"/>
</radialGradient>
<radialGradient id="paint84_radial" cx="0" cy="0" r="1" gradientUnits="userSpaceOnUse" gradientTransform="translate(262.335 298.408) rotate(180) scale(320.467 68.9719)">
<stop stop-color="#1B193D" stop-opacity="0.902542"/>
<stop offset="1" stop-color="#23214C" stop-opacity="0.01"/>
</radialGradient>
<radialGradient id="paint85_radial" cx="0" cy="0" r="1" gradientUnits="userSpaceOnUse" gradientTransform="translate(262.335 298.408) rotate(180) scale(320.467 68.9719)">
<stop stop-color="#1B193D" stop-opacity="0.902542"/>
<stop offset="1" stop-color="#23214C" stop-opacity="0.01"/>
</radialGradient>
<radialGradient id="paint86_radial" cx="0" cy="0" r="1" gradientUnits="userSpaceOnUse" gradientTransform="translate(262.335 298.408) rotate(180) scale(320.467 68.9719)">
<stop stop-color="#1B193D" stop-opacity="0.902542"/>
<stop offset="1" stop-color="#23214C" stop-opacity="0.01"/>
</radialGradient>
<radialGradient id="paint87_radial" cx="0" cy="0" r="1" gradientUnits="userSpaceOnUse" gradientTransform="translate(262.335 298.408) rotate(180) scale(320.467 68.9719)">
<stop stop-color="#1B193D" stop-opacity="0.902542"/>
<stop offset="1" stop-color="#23214C" stop-opacity="0.01"/>
</radialGradient>
<radialGradient id="paint88_radial" cx="0" cy="0" r="1" gradientUnits="userSpaceOnUse" gradientTransform="translate(262.335 298.408) rotate(180) scale(320.467 68.9719)">
<stop stop-color="#1B193D" stop-opacity="0.902542"/>
<stop offset="1" stop-color="#23214C" stop-opacity="0.01"/>
</radialGradient>
<radialGradient id="paint89_radial" cx="0" cy="0" r="1" gradientUnits="userSpaceOnUse" gradientTransform="translate(262.335 298.408) rotate(180) scale(320.467 68.9719)">
<stop stop-color="#1B193D" stop-opacity="0.902542"/>
<stop offset="1" stop-color="#23214C" stop-opacity="0.01"/>
</radialGradient>
<radialGradient id="paint90_radial" cx="0" cy="0" r="1" gradientUnits="userSpaceOnUse" gradientTransform="translate(262.335 298.408) rotate(180) scale(320.467 68.9719)">
<stop stop-color="#1B193D" stop-opacity="0.902542"/>
<stop offset="1" stop-color="#23214C" stop-opacity="0.01"/>
</radialGradient>
<radialGradient id="paint91_radial" cx="0" cy="0" r="1" gradientUnits="userSpaceOnUse" gradientTransform="translate(262.335 298.408) rotate(180) scale(320.467 68.9719)">
<stop stop-color="#1B193D" stop-opacity="0.902542"/>
<stop offset="1" stop-color="#23214C" stop-opacity="0.01"/>
</radialGradient>
<radialGradient id="paint92_radial" cx="0" cy="0" r="1" gradientUnits="userSpaceOnUse" gradientTransform="translate(262.335 298.408) rotate(180) scale(320.467 68.9719)">
<stop stop-color="#1B193D" stop-opacity="0.902542"/>
<stop offset="1" stop-color="#23214C" stop-opacity="0.01"/>
</radialGradient>
<radialGradient id="paint93_radial" cx="0" cy="0" r="1" gradientUnits="userSpaceOnUse" gradientTransform="translate(262.335 298.408) rotate(180) scale(320.467 68.9719)">
<stop stop-color="#1B193D" stop-opacity="0.902542"/>
<stop offset="1" stop-color="#23214C" stop-opacity="0.01"/>
</radialGradient>
<radialGradient id="paint94_radial" cx="0" cy="0" r="1" gradientUnits="userSpaceOnUse" gradientTransform="translate(262.335 298.408) rotate(180) scale(320.467 68.9719)">
<stop stop-color="#1B193D" stop-opacity="0.902542"/>
<stop offset="1" stop-color="#23214C" stop-opacity="0.01"/>
</radialGradient>
<radialGradient id="paint95_radial" cx="0" cy="0" r="1" gradientUnits="userSpaceOnUse" gradientTransform="translate(262.335 298.408) rotate(180) scale(320.467 68.9719)">
<stop stop-color="#1B193D" stop-opacity="0.902542"/>
<stop offset="1" stop-color="#23214C" stop-opacity="0.01"/>
</radialGradient>
<radialGradient id="paint96_radial" cx="0" cy="0" r="1" gradientUnits="userSpaceOnUse" gradientTransform="translate(262.335 298.408) rotate(180) scale(320.467 68.9719)">
<stop stop-color="#1B193D" stop-opacity="0.902542"/>
<stop offset="1" stop-color="#23214C" stop-opacity="0.01"/>
</radialGradient>
<radialGradient id="paint97_radial" cx="0" cy="0" r="1" gradientUnits="userSpaceOnUse" gradientTransform="translate(262.335 298.408) rotate(180) scale(320.467 68.9719)">
<stop stop-color="#1B193D" stop-opacity="0.902542"/>
<stop offset="1" stop-color="#23214C" stop-opacity="0.01"/>
</radialGradient>
<radialGradient id="paint98_radial" cx="0" cy="0" r="1" gradientUnits="userSpaceOnUse" gradientTransform="translate(262.335 298.408) rotate(180) scale(320.467 68.9719)">
<stop stop-color="#1B193D" stop-opacity="0.902542"/>
<stop offset="1" stop-color="#23214C" stop-opacity="0.01"/>
</radialGradient>
<radialGradient id="paint99_radial" cx="0" cy="0" r="1" gradientUnits="userSpaceOnUse" gradientTransform="translate(262.335 298.408) rotate(180) scale(320.467 68.9719)">
<stop stop-color="#1B193D" stop-opacity="0.902542"/>
<stop offset="1" stop-color="#23214C" stop-opacity="0.01"/>
</radialGradient>
<linearGradient id="paint100_linear" x1="434.92" y1="33.3308" x2="307.047" y2="279.744" gradientUnits="userSpaceOnUse">
<stop stop-color="#F4FF05" stop-opacity="0.389719"/>
<stop offset="0.0001" stop-color="#3A42FF" stop-opacity="0.389719"/>
<stop offset="0.363677" stop-color="#3A42FF"/>
<stop offset="0.765625" stop-color="#3A42FF"/>
<stop offset="0.790756" stop-color="#C56FDA"/>
<stop offset="1" stop-color="#3A42FF" stop-opacity="0.489074"/>
</linearGradient>
<linearGradient id="paint101_linear" x1="111.17" y1="318.129" x2="485.25" y2="318.129" gradientUnits="userSpaceOnUse">
<stop stop-color="#332F67" stop-opacity="0.0549706"/>
<stop offset="0.575619" stop-color="#454185" stop-opacity="0.169724"/>
<stop offset="1" stop-color="#3D3C7D" stop-opacity="0.0586787"/>
</linearGradient>
</defs>
</svg>
