<svg width="170" height="84" viewBox="0 0 170 84" fill="none" xmlns="http://www.w3.org/2000/svg">
<path fill-rule="evenodd" clip-rule="evenodd" d="M45.1717 0.177977C27.3714 1.42668 10.8634 11.5095 4.02445 25.3097C1.22305 30.9625 0 36.0431 0 42.0289C0 52.2664 4.16274 61.7703 12.0589 69.5611C20.2356 77.6288 32.9052 83.055 45.4624 83.868C60.9818 84.8721 75.6423 80.1198 86.3623 70.6092C89.7674 67.5886 92.6132 63.8519 92.6132 62.4023C92.6132 60.9864 91.3528 59.5924 90.0729 59.5924C88.7263 59.5924 87.645 60.4264 84.8082 63.653C72.2783 77.9044 48.039 82.3639 28.9881 73.9233C17.6603 68.9045 9.75444 60.3693 6.73535 49.8994C5.6452 46.1188 5.63073 37.9859 6.70776 34.2604C10.2241 22.0946 20.2646 12.5319 34.0381 8.22951C41.089 6.02698 50.145 5.30012 57.1179 6.37622C68.734 8.16939 78.554 13.1118 84.7295 20.273C87.9922 24.0563 88.4962 24.4653 89.8982 24.4653C92.1963 24.4653 93.4712 21.9456 92.1764 19.9623C89.984 16.6033 84.5932 11.5193 80.2468 8.71184C77.4642 6.91427 70.6838 3.7302 67.5466 2.74766C63.7021 1.5432 58.8927 0.55458 55.7703 0.326591C50.3499 -0.0689262 48.9657 -0.0885165 45.1717 0.177977ZM18.1102 32.7644C17.657 33.2197 17.5816 34.538 17.5816 42.0117C17.5816 51.501 17.5954 51.5706 19.4911 51.5706C21.1899 51.5706 21.2827 51.0657 21.2827 41.8195C21.2827 32.5851 21.2148 32.2338 19.4322 32.2338C18.9961 32.2338 18.4012 32.4726 18.1102 32.7644ZM26.9326 36.5545C23.3278 40.1736 22.6286 41.0402 22.6286 41.8904C22.6286 42.7453 23.3415 43.614 27.1456 47.3956C31.0446 51.271 31.7696 51.8537 32.4449 51.6517C33.4728 51.3447 34.0684 50.5479 34.0687 49.4795C34.0687 48.8212 33.2467 47.8353 30.6199 45.343L27.1708 42.0708L30.6196 38.5523C34.2531 34.8454 34.704 33.929 33.453 32.7928C32.1623 31.6201 31.4244 32.0457 26.9326 36.5545ZM39.9202 32.6712C39.5699 32.8634 39.1722 33.1856 39.0363 33.3873C38.9003 33.5889 38.7869 37.5681 38.7839 42.2298C38.7792 50.0162 38.829 50.7515 39.3943 51.2649C40.0403 51.852 41.047 51.9847 41.6725 51.5655C42.6724 50.8954 42.8164 49.6852 42.8164 41.9573C42.8164 35.5685 42.7226 33.9385 42.3222 33.3643C41.7095 32.4865 40.7576 32.2119 39.9202 32.6712ZM47.4896 32.8739L46.6858 33.5295L49.6457 42.4778C51.5117 48.1194 52.7963 51.4997 53.122 51.625C53.9881 51.9587 54.8262 51.8486 55.2407 51.3474C55.4577 51.0849 56.6539 48.0707 57.8991 44.6492L60.1632 38.428L62.3395 44.4939C63.5363 47.8302 64.7142 50.8441 64.9568 51.192C65.5113 51.9871 66.7781 52.0077 67.4507 51.2328C67.9386 50.6705 73.4347 34.5461 73.4347 33.6771C73.4347 32.9164 71.9203 32.1865 71.0408 32.5229C70.3584 32.784 69.9375 33.7463 68.2316 38.9448C67.128 42.3075 66.122 44.9475 65.9965 44.8107C65.871 44.6739 64.8057 41.9228 63.6291 38.6972C61.8876 33.9216 61.3455 32.7766 60.7113 32.5327C59.2608 31.9761 58.815 32.6513 56.627 38.7198C55.4682 41.933 54.4187 44.6729 54.2946 44.8083C54.1704 44.9434 53.1846 42.3595 52.1042 39.0664C51.0235 35.7729 50.0437 32.9813 49.9266 32.8627C49.3284 32.2571 48.2399 32.2622 47.4896 32.8739ZM78.7821 32.6949L77.977 33.0978L77.8871 41.8367C77.8071 49.6109 77.8592 50.6448 78.3599 51.1997C79.0776 51.9962 80.2384 51.9989 80.953 51.2062C81.4399 50.6661 81.5099 49.5282 81.5099 42.1511C81.5099 33.4666 81.4331 32.9303 80.128 32.479C79.8309 32.3764 79.2253 32.4733 78.7821 32.6949ZM117.148 32.5804C112.582 33.3407 109.436 37.1948 109.436 42.0289C109.436 46.9791 112.808 50.9809 117.556 51.6642C121.036 52.1654 125.587 50.1875 125.587 48.1741C125.587 46.2708 124.233 45.9256 122.054 47.2729C119.478 48.8655 115.871 48.1646 114.289 45.7648C112.535 43.1046 112.997 39.397 115.339 37.3326C117.214 35.6796 120.336 35.5091 122.281 36.953C123.966 38.2034 125.587 37.689 125.587 35.9046C125.587 33.7973 120.909 31.9542 117.148 32.5804ZM136.327 32.579C131.582 33.3731 128.485 37.0385 128.485 41.86C128.485 47.5259 132.342 51.4794 137.868 51.4794C143.327 51.4794 147.495 47.2287 147.442 41.7141C147.402 37.5289 144.054 33.3295 140.29 32.7425C139.513 32.6212 138.65 32.477 138.372 32.4216C138.095 32.3662 137.174 32.4372 136.327 32.579ZM151.715 33.1893C151.228 33.7287 151.158 34.8582 151.158 42.1157C151.158 51.1197 151.231 51.4862 153.014 51.4862C154.489 51.4862 154.858 50.3827 154.873 45.9222L154.886 41.86L157.215 46.6954L159.543 51.5311L160.65 51.424C161.855 51.3078 162 51.0792 165.125 44.3932L166.467 41.5222L166.561 46.0597C166.616 48.7 166.809 50.783 167.023 51.0417C167.588 51.7246 169.247 51.5929 169.652 50.8329C169.865 50.4334 170 46.9632 170 41.9063C170 32.8414 169.91 32.4182 168.023 32.6378C167.237 32.7293 166.792 33.4514 163.958 39.2424C162.208 42.8186 160.694 45.7409 160.594 45.7371C160.493 45.7331 159.136 43.0354 157.578 39.7419C156.02 36.4484 154.52 33.4879 154.245 33.1627C153.597 32.3956 152.419 32.4081 151.715 33.1893ZM141.304 36.9432C142.853 38.094 143.589 39.7909 143.582 42.1984C143.573 45.856 141.249 48.2778 137.796 48.2278C134.042 48.1734 131.413 44.5462 132.289 40.6302C132.67 38.9276 133.495 37.7424 135.039 36.6794C136.587 35.6131 139.689 35.7435 141.304 36.9432ZM95.4354 39.9956C94.3837 40.4221 93.2861 41.988 93.2861 43.0617C93.2861 44.2557 94.6865 45.9493 95.8601 46.1742C97.8889 46.5636 99.6789 45.091 99.6789 43.0317C99.6789 41.5482 99.1271 40.694 97.8122 40.1425C96.5249 39.6027 96.4203 39.5963 95.4354 39.9956Z" fill="white"/>
</svg>
