<svg width="21" height="21" viewBox="0 0 21 21" fill="none" xmlns="http://www.w3.org/2000/svg">
<path d="M16.1311 21H16.1002C11.8557 20.8955 7.80525 19.2006 4.75113 16.251C1.80063 13.1995 0.104873 9.15028 0.00012239 4.90674C-0.00612805 4.31229 0.227258 3.74034 0.647695 3.32007L3.64627 0.323508C4.07772 -0.107836 4.77709 -0.107836 5.20854 0.323508L9.62796 4.74321C10.0593 5.17469 10.0593 5.87411 9.62796 6.30558L7.86461 8.06573C8.19166 9.28769 8.79409 10.4186 9.62575 11.3717C10.5771 12.2037 11.7064 12.8066 12.9271 13.134L14.6948 11.3728C15.1263 10.9414 15.8256 10.9414 16.2571 11.3728L20.6765 15.7925C21.1078 16.224 21.1078 16.9234 20.6765 17.3548L17.6779 20.3525C17.2691 20.7656 16.7124 20.9987 16.1311 21ZM4.4252 2.66816H4.41967L2.20996 4.88243C2.30006 8.54931 3.76374 12.0487 6.31118 14.6876C8.95006 17.2343 12.4485 18.6979 16.1146 18.789L18.332 16.5737L15.4682 13.7174L14.0396 15.145C13.8353 15.3517 13.5569 15.4682 13.2662 15.4687C13.1886 15.4688 13.1112 15.4606 13.0353 15.4444C11.1942 15.0371 9.48476 14.1744 8.06349 12.9351C6.82434 11.5138 5.96162 9.80419 5.55436 7.96297C5.47753 7.59698 5.59103 7.21696 5.85598 6.95307L7.28346 5.5244L4.4252 2.66816Z" fill="#0077ED"/>
</svg>
