<svg width="73" height="63" viewBox="0 0 73 63" fill="none" xmlns="http://www.w3.org/2000/svg">
<g filter="url(#filter0_d)">
<path d="M15.9556 32.625C15.9556 28.4583 16.9972 24.5 19.0806 20.75C21.2472 17 24.0806 13.875 27.5806 11.375L33.5806 16.125C31.4972 17.375 29.5389 19.125 27.7056 21.375C25.9556 23.625 24.9139 25.7917 24.5806 27.875C24.9139 27.7083 25.6222 27.625 26.7056 27.625C28.7889 27.625 30.5389 28.375 31.9556 29.875C33.3722 31.375 34.0806 33.25 34.0806 35.5C34.0806 37.8333 33.2472 39.8333 31.5806 41.5C29.9139 43.1667 27.9139 44 25.5806 44C22.9139 44 20.6222 43 18.7056 41C16.8722 38.9167 15.9556 36.125 15.9556 32.625ZM39.0806 32.625C39.0806 28.4583 40.1222 24.5 42.2056 20.75C44.3722 17 47.2056 13.875 50.7056 11.375L56.7056 16.125C54.6222 17.375 52.6639 19.125 50.8306 21.375C49.0806 23.625 48.0389 25.7917 47.7056 27.875C48.0389 27.7083 48.7472 27.625 49.8306 27.625C51.9139 27.625 53.6639 28.375 55.0806 29.875C56.4972 31.375 57.2056 33.25 57.2056 35.5C57.2056 37.8333 56.3722 39.8333 54.7056 41.5C53.0389 43.1667 51.0389 44 48.7056 44C46.0389 44 43.7472 43 41.8306 41C39.9972 38.9167 39.0806 36.125 39.0806 32.625Z" fill="white"/>
</g>
<defs>
<filter id="filter0_d" x="0.955566" y="0.375" width="71.25" height="62.625" filterUnits="userSpaceOnUse" color-interpolation-filters="sRGB">
<feFlood flood-opacity="0" result="BackgroundImageFix"/>
<feColorMatrix in="SourceAlpha" type="matrix" values="0 0 0 0 0 0 0 0 0 0 0 0 0 0 0 0 0 0 127 0"/>
<feOffset dy="4"/>
<feGaussianBlur stdDeviation="7.5"/>
<feColorMatrix type="matrix" values="0 0 0 0 0 0 0 0 0 0 0 0 0 0 0 0 0 0 0.27 0"/>
<feBlend mode="normal" in2="BackgroundImageFix" result="effect1_dropShadow"/>
<feBlend mode="normal" in="SourceGraphic" in2="effect1_dropShadow" result="shape"/>
</filter>
</defs>
</svg>
