<svg width="84" height="84" viewBox="0 0 84 84" fill="none" xmlns="http://www.w3.org/2000/svg">
<g clip-path="url(#clip0)">
<path d="M41.6951 45.2618C41.7821 45.2618 41.869 45.2618 41.9734 45.2618C42.0082 45.2618 42.043 45.2618 42.0778 45.2618C42.13 45.2618 42.1995 45.2618 42.2517 45.2618C47.3484 45.1748 51.471 43.3831 54.5151 39.9563C61.2122 32.407 60.0989 19.4651 59.9771 18.2301C59.5423 8.95862 55.1588 4.52292 51.5406 2.45293C48.8444 0.904779 45.6959 0.0698238 42.1822 0.000244141H42.0604C42.043 0.000244141 42.0082 0.000244141 41.9908 0.000244141H41.8864C39.9556 0.000244141 36.1635 0.313352 32.528 2.38335C28.8751 4.45334 24.422 8.88904 23.9871 18.2301C23.8653 19.4651 22.752 32.407 29.4491 39.9563C32.4758 43.3831 36.5984 45.1748 41.6951 45.2618ZM28.6315 18.665C28.6315 18.6128 28.6489 18.5606 28.6489 18.5258C29.2229 6.05367 38.077 4.71426 41.869 4.71426H41.9386C41.9734 4.71426 42.0256 4.71426 42.0778 4.71426C46.7744 4.81863 54.7587 6.73207 55.2979 18.5258C55.2979 18.578 55.2979 18.6302 55.3153 18.665C55.3327 18.7867 56.5503 30.6153 51.0188 36.8427C48.827 39.3127 45.9047 40.5304 42.0604 40.5652C42.0256 40.5652 42.0082 40.5652 41.9734 40.5652C41.9386 40.5652 41.9212 40.5652 41.8864 40.5652C38.0596 40.5304 35.1198 39.3127 32.9455 36.8427C27.4313 30.6501 28.6141 18.7693 28.6315 18.665Z" fill="white"/>
<path d="M77.72 66.7271C77.72 66.7097 77.72 66.6923 77.72 66.6749C77.72 66.5357 77.7026 66.3965 77.7026 66.24C77.5983 62.7958 77.3721 54.742 69.8227 52.1675C69.7706 52.1501 69.701 52.1327 69.6488 52.1153C61.8037 50.1149 55.2806 45.5922 55.211 45.54C54.1499 44.7921 52.6888 45.053 51.9408 46.1141C51.1928 47.1752 51.4537 48.6363 52.5148 49.3843C52.8105 49.5931 59.7337 54.4115 68.3964 56.638C72.4494 58.0818 72.9016 62.4131 73.0234 66.3792C73.0234 66.5357 73.0234 66.6749 73.0408 66.814C73.0582 68.3796 72.9538 70.7975 72.6755 72.1891C69.8575 73.7894 58.8118 79.321 42.0083 79.321C25.2744 79.321 14.159 73.772 11.3237 72.1717C11.0454 70.7801 10.9236 68.3622 10.9584 66.7966C10.9584 66.6575 10.9758 66.5183 10.9758 66.3618C11.0975 62.3957 11.5498 58.0644 15.6028 56.6206C24.2655 54.3941 31.1887 49.5583 31.4844 49.3669C32.5455 48.6189 32.8064 47.1578 32.0584 46.0967C31.3104 45.0356 29.8492 44.7747 28.7882 45.5227C28.7186 45.5748 22.2303 50.0975 14.3504 52.0979C14.2808 52.1153 14.2286 52.1327 14.1764 52.1501C6.62705 54.742 6.40091 62.7958 6.29654 66.2226C6.29654 66.3792 6.29654 66.5183 6.27915 66.6575C6.27915 66.6749 6.27915 66.6923 6.27915 66.7097C6.26175 67.6142 6.24436 72.2586 7.16629 74.5896C7.34024 75.0418 7.65335 75.4245 8.07082 75.6854C8.59267 76.0333 21.0996 84.0002 42.0257 84.0002C62.9518 84.0002 75.4587 76.0159 75.9805 75.6854C76.3806 75.4245 76.7111 75.0418 76.8851 74.5896C77.7548 72.276 77.7374 67.6316 77.72 66.7271Z" fill="white"/>
</g>
<defs>
<clipPath id="clip0">
<rect width="84" height="84" fill="white" transform="translate(0 0.000244141)"/>
</clipPath>
</defs>
</svg>
