<svg width="80" height="80" viewBox="0 0 80 80" fill="none" xmlns="http://www.w3.org/2000/svg">
<g clip-path="url(#clip0)">
<path d="M68.867 18.5213L51.9478 1.60228C50.9148 0.56915 49.5416 0.000244141 48.0806 0.000244141H15C11.9845 0.000244141 9.53125 2.45353 9.53125 5.46899V74.5315C9.53125 77.547 11.9845 80.0002 15 80.0002H65C68.0155 80.0002 70.4688 77.547 70.4688 74.5315V22.3884C70.4688 20.9279 69.9 19.5546 68.867 18.5213ZM62.4667 18.7502H52.5C52.0692 18.7502 51.7188 18.3998 51.7188 17.969V8.00243L62.4667 18.7502ZM65 75.3127H15C14.5692 75.3127 14.2188 74.9623 14.2188 74.5315V5.46899C14.2188 5.03821 14.5692 4.68774 15 4.68774H47.0312V17.969C47.0312 20.9845 49.4845 23.4377 52.5 23.4377H65.7812V74.5315C65.7812 74.9623 65.4308 75.3127 65 75.3127Z" fill="white"/>
<path d="M42.5156 35.7815H57.4486C58.743 35.7815 59.7923 34.7321 59.7923 33.4377C59.7923 32.1434 58.743 31.094 57.4486 31.094H42.5156C41.2213 31.094 40.1719 32.1434 40.1719 33.4377C40.1719 34.7321 41.2211 35.7815 42.5156 35.7815Z" fill="white"/>
<path d="M42.5156 51.4065H57.4486C58.743 51.4065 59.7923 50.3571 59.7923 49.0627C59.7923 47.7684 58.743 46.719 57.4486 46.719H42.5156C41.2213 46.719 40.1719 47.7684 40.1719 49.0627C40.1719 50.3571 41.2211 51.4065 42.5156 51.4065Z" fill="white"/>
<path d="M57.5156 62.344H42.5156C41.2212 62.344 40.1719 63.3934 40.1719 64.6877C40.1719 65.9821 41.2212 67.0315 42.5156 67.0315H57.5156C58.81 67.0315 59.8594 65.9821 59.8594 64.6877C59.8594 63.3934 58.81 62.344 57.5156 62.344Z" fill="white"/>
<path d="M30.8212 27.056L25.4162 32.4608L24.1416 31.1863C23.2265 30.271 21.7424 30.271 20.8271 31.1863C19.9118 32.1016 19.9118 33.5855 20.8271 34.5008L23.759 37.4327C24.2166 37.8904 24.8165 38.1193 25.4162 38.1193C26.0159 38.1193 26.6159 37.8905 27.0734 37.4327L34.1355 30.3705C35.0509 29.4552 35.0509 27.9713 34.1355 27.056C33.2204 26.1407 31.7363 26.1407 30.8212 27.056Z" fill="white"/>
<path d="M30.8212 43.8742L25.4162 49.2792L24.1416 48.0047C23.2265 47.0896 21.7424 47.0894 20.8271 48.0047C19.9118 48.92 19.9118 50.4039 20.8271 51.3192L23.759 54.251C24.2166 54.7086 24.8165 54.9374 25.4162 54.9374C26.0159 54.9374 26.6159 54.7086 27.0734 54.2508L34.1355 47.1886C35.0509 46.2733 35.0509 44.7894 34.1355 43.8741C33.2204 42.9589 31.7363 42.9589 30.8212 43.8742Z" fill="white"/>
<path d="M30.8212 59.4992L25.4162 64.9042L24.1416 63.6297C23.2265 62.7146 21.7424 62.7144 20.8271 63.6297C19.9118 64.545 19.9118 66.0289 20.8271 66.9442L23.759 69.876C24.2166 70.3336 24.8165 70.5624 25.4162 70.5624C26.0159 70.5624 26.6159 70.3336 27.0734 69.8758L34.1355 62.8136C35.0509 61.8983 35.0509 60.4144 34.1355 59.4991C33.2204 58.5839 31.7363 58.5839 30.8212 59.4992Z" fill="white"/>
</g>
<defs>
<clipPath id="clip0">
<rect width="80" height="80" fill="white" transform="translate(0 0.000244141)"/>
</clipPath>
</defs>
</svg>
