<svg width="80" height="80" viewBox="0 0 80 80" fill="none" xmlns="http://www.w3.org/2000/svg">
<g clip-path="url(#clip0)">
<path d="M78.483 23.5884L57.4827 15.6716C57.0969 6.96509 49.8937 0.000244141 41.0938 0.000244141C32.3766 0.000244141 25.1822 6.81337 24.7139 15.5118C24.5844 17.882 24.7503 19.8327 25.9303 22.5073L3.17125 13.9068C2.45125 13.6351 1.64375 13.7341 1.01078 14.1718C0.377812 14.6095 0 15.3301 0 16.0996V67.9746C0 68.9498 0.603906 69.8232 1.51625 70.1674L27.1388 79.8484C27.1389 79.8484 27.1391 79.8485 27.1394 79.8485L27.1412 79.8492C27.678 80.0517 28.2797 80.0446 28.7963 79.8492L52.8125 70.7865L76.8288 79.8493C77.547 80.1202 78.3547 80.0231 78.9892 79.5843C79.6222 79.1467 80 78.426 80 77.6565V25.7815C80 24.806 79.3958 23.9326 78.483 23.5884ZM25.625 74.267L4.6875 66.354V19.4891L25.625 27.4021V74.267ZM50.4688 66.6609L30.3125 74.267V30.0851C32.4216 33.3727 35.2497 37.6509 39.12 43.6943C39.5509 44.3671 40.2948 44.7742 41.0938 44.7742C41.8927 44.7742 42.6366 44.3673 43.0675 43.6943C46.1558 38.8721 48.6152 35.1256 50.4688 32.2812V66.6609ZM52.8013 17.1282C52.7989 17.1615 52.7984 17.1948 52.7977 17.2281C52.6439 20.9613 50.9852 22.774 41.0939 38.0966C30.2316 21.2613 29.1439 20.3496 29.3944 15.7677C29.3944 15.767 29.3944 15.7663 29.3945 15.7656C29.7283 9.55368 34.8672 4.68774 41.0938 4.68774C47.5555 4.68774 52.8125 9.94478 52.8125 16.4065C52.8125 16.6582 52.8092 16.8973 52.8013 17.1282ZM75.3125 74.267L55.1562 66.6609V24.7695C56.0736 23.1184 56.6586 21.7943 57.0145 20.5046L75.3125 27.4027V74.267Z" fill="white"/>
<path d="M41.0938 9.37524C37.2167 9.37524 34.0625 12.5295 34.0625 16.4065C34.0625 20.2835 37.2167 23.4377 41.0938 23.4377C44.9708 23.4377 48.125 20.2835 48.125 16.4065C48.125 12.5295 44.9708 9.37524 41.0938 9.37524ZM41.0938 18.7502C39.8014 18.7502 38.75 17.6988 38.75 16.4065C38.75 15.1142 39.8014 14.0627 41.0938 14.0627C42.3861 14.0627 43.4375 15.1142 43.4375 16.4065C43.4375 17.6988 42.3861 18.7502 41.0938 18.7502Z" fill="white"/>
</g>
<defs>
<clipPath id="clip0">
<rect width="80" height="80" fill="white" transform="translate(0 0.000244141)"/>
</clipPath>
</defs>
</svg>
