<svg width="80" height="80" viewBox="0 0 80 80" fill="none" xmlns="http://www.w3.org/2000/svg">
<g clip-path="url(#clip0)">
<path d="M25.3125 7.81274C14.8014 7.81274 6.25 16.3642 6.25 26.8752C6.25 37.3863 14.8014 45.9377 25.3125 45.9377C35.8236 45.9377 44.375 37.3863 44.375 26.8752C44.375 16.3642 35.8236 7.81274 25.3125 7.81274ZM25.3125 42.8127C16.5245 42.8127 9.375 35.6632 9.375 26.8752C9.375 18.0873 16.5245 10.9377 25.3125 10.9377C34.1005 10.9377 41.25 18.0873 41.25 26.8752C41.25 35.6632 34.1005 42.8127 25.3125 42.8127Z" fill="white"/>
<path d="M25.3057 19.7207C27.0633 19.7207 28.4932 20.9537 28.4932 22.469C28.4932 23.3319 29.1927 24.0315 30.0557 24.0315C30.9186 24.0315 31.6182 23.3319 31.6182 22.469C31.6182 19.7321 29.5955 17.4266 26.8682 16.778V16.069C26.8682 15.206 26.1686 14.5065 25.3057 14.5065C24.4427 14.5065 23.7432 15.206 23.7432 16.069V16.778C21.0157 17.4266 18.9932 19.7321 18.9932 22.469C18.9932 25.7076 21.825 28.3424 25.3057 28.3424C27.0633 28.3424 28.4932 29.5754 28.4932 31.0907C28.4932 32.606 27.0633 33.839 25.3057 33.839C23.548 33.839 22.1182 32.606 22.1182 31.0907C22.1182 30.2277 21.4186 29.5282 20.5557 29.5282C19.6927 29.5282 18.9932 30.2277 18.9932 31.0907C18.9932 33.8277 21.0158 36.133 23.7432 36.7816V37.3598C23.7432 38.2227 24.4427 38.9223 25.3057 38.9223C26.1686 38.9223 26.8682 38.2227 26.8682 37.3598V36.7816C29.5955 36.133 31.6182 33.8276 31.6182 31.0907C31.6182 27.8521 28.7863 25.2174 25.3057 25.2174C23.548 25.2174 22.1182 23.9844 22.1182 22.469C22.118 20.9537 23.548 19.7207 25.3057 19.7207Z" fill="white"/>
<path d="M78.7966 31.2321L66.5958 19.0448C65.9928 18.4424 65.2809 18.0145 64.5233 17.759V12.829C64.5233 11.0879 65.9397 9.67149 67.6808 9.67149C69.4219 9.67149 70.8383 11.0879 70.8383 12.829V17.8382C70.8383 18.7012 71.5378 19.4007 72.4008 19.4007C73.2637 19.4007 73.9633 18.7012 73.9633 17.8382V12.829C73.9633 9.36477 71.145 6.54649 67.6808 6.54649C64.2166 6.54649 61.3983 9.36477 61.3983 12.829V17.6613C60.5178 17.8974 59.6858 18.359 58.9964 19.049L50.618 27.4368C50.622 27.2496 50.6252 27.0624 50.6252 26.8752C50.6252 12.9179 39.27 1.56274 25.3127 1.56274C11.3553 1.56274 0 12.9179 0 26.8752C0 36.4232 5.31453 44.7523 13.14 49.0627H5.9375C2.66359 49.0627 0 51.7263 0 55.0002C0 56.7301 0.743906 58.289 1.92828 59.3752C0.743906 60.4615 0 62.0204 0 63.7502C0 65.4801 0.743906 67.039 1.92828 68.1252C0.743906 69.2115 0 70.7704 0 72.5002C0 75.7741 2.66359 78.4377 5.9375 78.4377H44.6875C45.8506 78.4377 46.9753 78.0956 47.9309 77.4723C48.8014 78.0799 49.8588 78.4377 50.9984 78.4377H74.6266C77.5895 78.4377 80 76.0273 80 73.0643V34.1352C80 33.0385 79.5727 32.0076 78.7966 31.2321ZM45.625 49.1382C45.3169 49.0893 45.0039 49.0627 44.6875 49.0627H37.5134C40.6712 47.3277 43.445 44.9252 45.625 41.9926V49.1382ZM3.125 26.8752C3.125 14.641 13.0783 4.68774 25.3125 4.68774C37.5467 4.68774 47.5 14.641 47.5 26.8752C47.5 28.2381 47.3748 29.5993 47.1297 30.9288L46.8253 31.2337C46.0513 32.0084 45.625 33.0384 45.625 34.1335V35.8081C42.0769 43.8693 34.1394 49.0627 25.3125 49.0627C13.0783 49.0627 3.125 39.1095 3.125 26.8752ZM3.125 63.7502C3.125 62.1995 4.38672 60.9377 5.9375 60.9377H17.3441C18.207 60.9377 18.9066 60.2382 18.9066 59.3752C18.9066 58.5123 18.207 57.8127 17.3441 57.8127H5.9375C4.38672 57.8127 3.125 56.551 3.125 55.0002C3.125 53.4495 4.38672 52.1877 5.9375 52.1877H44.6875C45.0106 52.1877 45.3264 52.244 45.625 52.3495V57.651C45.3266 57.7565 45.0111 57.8127 44.6875 57.8127H31.4066C30.5436 57.8127 29.8441 58.5123 29.8441 59.3752C29.8441 60.2382 30.5436 60.9377 31.4066 60.9377H44.6875C45.0106 60.9377 45.3264 60.994 45.625 61.0995V66.401C45.3266 66.5065 45.0111 66.5627 44.6875 66.5627H5.9375C4.38672 66.5627 3.125 65.301 3.125 63.7502ZM5.9375 75.3127C4.38672 75.3127 3.125 74.051 3.125 72.5002C3.125 70.9495 4.38672 69.6877 5.9375 69.6877H44.6875C45.0106 69.6877 45.3264 69.744 45.625 69.8495V73.0643C45.625 73.7434 45.753 74.3929 45.9837 74.9915C45.587 75.1979 45.1444 75.3127 44.6875 75.3127H5.9375ZM76.875 73.0643C76.875 74.3041 75.8662 75.3127 74.6266 75.3127H50.9984C49.7586 75.3127 48.75 74.304 48.75 73.0643V34.1335C48.75 33.8724 48.8516 33.627 49.0361 33.4424H49.0363L49.6627 32.8152C49.6653 32.8126 49.668 32.8098 49.6708 32.8071L61.2073 21.2576C61.2683 21.1966 61.3323 21.1409 61.3983 21.0884V27.0706C61.3983 27.9335 62.0978 28.6331 62.9608 28.6331C63.8237 28.6331 64.5233 27.9335 64.5233 27.0706V21.3917L76.5881 33.4429C76.7733 33.6279 76.8752 33.8737 76.8752 34.1351V73.0643H76.875Z" fill="white"/>
<path d="M69.7238 38.5641C68.9764 38.1328 68.021 38.3888 67.5894 39.136L55.3288 60.372C54.8972 61.1194 55.1533 62.075 55.9007 62.5064C56.1468 62.6485 56.4154 62.716 56.6805 62.716C57.2205 62.716 57.7457 62.4358 58.035 61.9345L70.2957 40.6985C70.7272 39.9513 70.4711 38.9955 69.7238 38.5641Z" fill="white"/>
<path d="M69.6875 53.3408C67.1028 53.3408 65 55.4436 65 58.0283C65 60.613 67.1028 62.7158 69.6875 62.7158C72.2722 62.7158 74.375 60.613 74.375 58.0283C74.375 55.4436 72.2722 53.3408 69.6875 53.3408ZM69.6875 59.5908C68.8259 59.5908 68.125 58.8899 68.125 58.0283C68.125 57.1668 68.8259 56.4658 69.6875 56.4658C70.5491 56.4658 71.25 57.1668 71.25 58.0283C71.25 58.8899 70.5491 59.5908 69.6875 59.5908Z" fill="white"/>
<path d="M60.9209 42.5289C60.9209 39.9442 58.8181 37.8414 56.2334 37.8414C53.6487 37.8414 51.5459 39.9442 51.5459 42.5289C51.5459 45.1136 53.6487 47.2164 56.2334 47.2164C58.8181 47.2164 60.9209 45.1136 60.9209 42.5289ZM54.6709 42.5289C54.6709 41.6674 55.3718 40.9664 56.2334 40.9664C57.095 40.9664 57.7959 41.6674 57.7959 42.5289C57.7959 43.3905 57.095 44.0914 56.2334 44.0914C55.3718 44.0914 54.6709 43.3905 54.6709 42.5289Z" fill="white"/>
<path d="M24.375 57.8127C23.9641 57.8127 23.5609 57.9799 23.2703 58.2706C22.9797 58.5612 22.8125 58.9643 22.8125 59.3752C22.8125 59.7862 22.9797 60.1893 23.2703 60.4799C23.5609 60.7706 23.9641 60.9377 24.375 60.9377C24.7859 60.9377 25.1891 60.7706 25.4797 60.4799C25.7703 60.1893 25.9375 59.7862 25.9375 59.3752C25.9375 58.9643 25.7703 58.5612 25.4797 58.2706C25.1891 57.9799 24.7859 57.8127 24.375 57.8127Z" fill="white"/>
</g>
<defs>
<clipPath id="clip0">
<rect width="80" height="80" fill="white" transform="translate(0 0.000244141)"/>
</clipPath>
</defs>
</svg>
