<svg width="86" height="86" viewBox="0 0 86 86" fill="none" xmlns="http://www.w3.org/2000/svg">
<g clip-path="url(#clip0)">
<path d="M26.2031 62.149C25.2759 62.149 24.5234 62.9015 24.5234 63.8287C24.5234 64.7559 25.2759 65.5084 26.2031 65.5084C27.1303 65.5084 27.8828 64.7559 27.8828 63.8287C27.8828 62.9015 27.1303 62.149 26.2031 62.149Z" fill="white"/>
<path d="M75.61 31.9144L85.5083 22.0162C85.9247 21.5998 86.0925 20.9957 85.9509 20.4243C85.8093 19.8527 85.3786 19.3972 84.8159 19.2235L60.7124 11.7842C58.5395 4.79986 52.0815 0.000488281 44.6796 0.000488281C37.7989 0.000488281 31.6452 4.19383 29.0983 10.5195L1.17955 19.225C0.618369 19.4 0.189377 19.8559 0.0487875 20.4268C-0.0918024 20.9976 0.0761664 21.6006 0.491889 22.0163L10.6505 32.1749L4.24347 42.8535C3.98127 43.2904 3.93172 43.8227 4.10842 44.3006C4.28513 44.7784 4.66927 45.1502 5.15269 45.3112L14.4452 48.4086V74.2425C14.4452 74.9426 14.8796 75.5693 15.5352 75.8152C21.217 77.9457 42.3282 85.8634 42.4416 85.9036C42.7748 86.021 43.1502 86.0369 43.5162 85.9185C43.5211 85.9168 43.5262 85.9158 43.531 85.9142L73.7654 75.836C74.4512 75.6074 74.914 74.9654 74.914 74.2425V47.7169L84.8238 44.6027C85.3841 44.4267 85.8118 43.9708 85.9517 43.4004C86.0915 42.83 85.9233 42.228 85.5081 41.8126L75.61 31.9144ZM61.4765 16.7974C61.4765 16.3706 61.4585 15.9448 61.4264 15.5203L81.1617 21.6117L72.7806 29.9927L59.0864 25.4284C60.6371 22.8365 61.4765 19.8457 61.4765 16.7974ZM31.9689 12.4255C33.8335 7.00311 38.9416 3.35986 44.6796 3.35986C50.861 3.35986 56.2222 7.54094 57.717 13.5273C57.9826 14.5911 58.1171 15.6913 58.1171 16.7974C58.1171 19.9172 57.0817 22.8414 55.1225 25.2549C52.5565 28.4198 48.7501 30.2349 44.6796 30.2349C40.2795 30.2349 36.1523 28.0751 33.6385 24.4561C32.0709 22.2043 31.2421 19.5557 31.2421 16.7974C31.2421 15.2972 31.4865 13.8263 31.9689 12.4255ZM4.83153 21.6051L28.0616 14.3616C27.945 15.1642 27.8827 15.9772 27.8827 16.7972C27.8827 19.5017 28.5234 22.1211 29.7445 24.4846L13.2192 29.9927L4.83153 21.6051ZM8.20149 42.7863L13.5127 33.934L40.4822 42.9239L35.1712 51.7762C32.2914 50.8162 11.2763 43.8111 8.20149 42.7863ZM41.3202 81.897L17.8046 73.0787V49.5284C36.3064 55.663 35.4029 55.4757 35.918 55.4757C36.4955 55.4757 37.0484 55.1769 37.3587 54.66L41.3202 48.057V81.897ZM42.9999 40.2221L18.0774 31.9147L31.6482 27.3913C34.8245 31.2961 39.6061 33.5942 44.6796 33.5942C49.373 33.5942 53.784 31.6628 56.9568 28.2597L67.9224 31.9146L42.9999 40.2221ZM71.5546 73.032L44.6796 81.9902V46.7806L50.6343 54.2233C51.0675 54.7647 51.7885 54.984 52.4495 54.7764L71.5546 48.7727V73.032ZM52.5392 51.2271L45.8164 42.8243L72.7806 33.8363L81.173 42.2287L52.5392 51.2271Z" fill="white"/>
<path d="M36.8708 65.8772L33.1352 64.4763C32.2667 64.1508 31.2985 64.5907 30.9726 65.4593C30.6469 66.328 31.087 67.2962 31.9556 67.6219L35.6912 69.0227C36.5616 69.3489 37.5286 68.9068 37.8538 68.0398C38.1795 67.1712 37.7394 66.2029 36.8708 65.8772Z" fill="white"/>
<path d="M36.8706 73.0529L26.7925 69.2736C25.9239 68.948 24.9558 69.388 24.6299 70.2566C24.3041 71.1252 24.7443 72.0935 25.6129 72.4192L35.691 76.1985C35.8853 76.2714 36.0846 76.306 36.2806 76.306C36.9607 76.306 37.6006 75.8899 37.8536 75.2155C38.1795 74.3468 37.7394 73.3786 36.8706 73.0529Z" fill="white"/>
<path d="M54.2662 10.5705C53.6103 9.91441 52.5467 9.91457 51.8906 10.5705L43.0002 19.4611L40.8285 17.2894C40.1726 16.6335 39.109 16.6335 38.4529 17.2894C37.7969 17.9453 37.797 19.0089 38.4529 19.665L41.8125 23.0242C42.4684 23.6801 43.532 23.6801 44.1881 23.0242L54.2662 12.9461C54.9221 12.2902 54.9221 11.2266 54.2662 10.5705Z" fill="white"/>
</g>
<defs>
<clipPath id="clip0">
<rect width="86" height="86" fill="white" transform="translate(0 0.000244141)"/>
</clipPath>
</defs>
</svg>
