<svg width="76" height="76" viewBox="0 0 76 76" fill="none" xmlns="http://www.w3.org/2000/svg">
<g clip-path="url(#clip0)">
<path d="M73.7734 18.1096H62.4056L62.3438 13.3446C62.3357 5.9851 56.3458 0.000244141 48.9844 0.000244141C41.618 0.000244141 35.625 5.99326 35.625 13.3596C35.625 13.3693 35.625 13.3789 35.6251 13.3886L35.6865 18.1096H24.3438C23.1141 18.1096 22.1172 19.1065 22.1172 20.3362V35.9221H2.22656C0.996906 35.9221 0 36.919 0 38.1487V69.3206C0 73.0037 2.99651 76.0002 6.67969 76.0002H42.6016H47.0547H69.3203C73.0035 76.0002 76 73.0037 76 69.3206V20.3362C76 19.1065 75.0031 18.1096 73.7734 18.1096ZM48.9844 4.45337C53.8953 4.45337 57.8906 8.44871 57.8906 13.3596C57.8906 13.3693 57.8906 13.3789 57.8908 13.3886L57.9522 18.1096H40.14L40.0781 13.3461C40.0854 8.44129 44.0779 4.45337 48.9844 4.45337ZM49.2812 69.3206C49.2812 70.5483 48.2824 71.5471 47.0547 71.5471H42.6016H6.67969C5.45196 71.5471 4.45312 70.5483 4.45312 69.3206V40.3752H49.2812V69.3206ZM71.5469 69.3206C71.5469 70.5483 70.548 71.5471 69.3203 71.5471H53.3514C53.5986 70.8502 53.7344 70.101 53.7344 69.3206V38.1487C53.7344 36.919 52.7375 35.9221 51.5078 35.9221H26.5703V22.5627H35.7443L35.7736 24.8183C35.7893 26.038 36.7831 27.0159 37.9994 27.0159C38.0092 27.0159 38.019 27.0159 38.0289 27.0157C39.2586 26.9997 40.2424 25.99 40.2264 24.7604L40.1978 22.5627H58.01L58.0392 24.8183C58.0549 26.038 59.0487 27.0159 60.265 27.0159C60.2748 27.0159 60.2846 27.0159 60.2946 27.0157C61.5242 26.9997 62.5081 25.99 62.492 24.7604L62.4634 22.5627H71.5469V69.3206Z" fill="white"/>
<path d="M38 44.8284C36.7703 44.8284 35.7734 45.8253 35.7734 47.0549V49.2815C35.7734 54.1924 31.7781 58.1877 26.8672 58.1877C21.9563 58.1877 17.9609 54.1924 17.9609 49.2815V47.0549C17.9609 45.8253 16.964 44.8284 15.7344 44.8284C14.5047 44.8284 13.5078 45.8253 13.5078 47.0549V49.2815C13.5078 56.6479 19.5008 62.6409 26.8672 62.6409C34.2335 62.6409 40.2266 56.6479 40.2266 49.2815V47.0549C40.2266 45.8253 39.2297 44.8284 38 44.8284Z" fill="white"/>
</g>
<defs>
<clipPath id="clip0">
<rect width="76" height="76" fill="white" transform="translate(0 0.000244141)"/>
</clipPath>
</defs>
</svg>
