<svg width="80" height="80" viewBox="0 0 80 80" fill="none" xmlns="http://www.w3.org/2000/svg">
<g clip-path="url(#clip0)">
<path d="M69.8438 24.1587V0.000244141H10.1562V24.1587L0 31.9712V80.0002H80V31.9712L69.8438 24.1587ZM75.3125 34.2793V40.7204L69.8438 44.0788V30.0726L75.3125 34.2793ZM65.1562 4.68774V46.9574L40.0164 62.3959L14.8438 46.5193V4.68774H65.1562ZM10.1562 30.0726V43.5629L4.6875 40.1137V34.2793L10.1562 30.0726ZM4.6875 75.3127V45.6557L39.9836 67.9171L75.3125 46.2212V75.3127H4.6875Z" fill="white"/>
<path d="M39.9514 50.954C50.8574 50.954 59.73 42.0814 59.73 31.1754C59.73 20.2695 50.8574 11.3969 39.9514 11.3969C29.0455 11.3969 20.1729 20.2695 20.1729 31.1754C20.1729 42.0814 29.0455 50.954 39.9514 50.954ZM39.9514 16.0843C48.2725 16.0843 55.0425 22.8542 55.0425 31.1754C55.0425 39.4967 48.2727 46.2665 39.9514 46.2665C31.6302 46.2665 24.8604 39.4967 24.8604 31.1754C24.8604 22.8542 31.6302 16.0843 39.9514 16.0843Z" fill="white"/>
<path d="M48.8105 27.6976L45.496 24.3831L37.9151 31.9638L34.4063 28.4552L31.0918 31.7698L37.9151 38.5929L48.8105 27.6976Z" fill="white"/>
</g>
<defs>
<clipPath id="clip0">
<rect width="80" height="80" fill="white" transform="translate(0 0.000244141)"/>
</clipPath>
</defs>
</svg>
