<svg width="231" height="38" viewBox="0 0 231 38" fill="none" xmlns="http://www.w3.org/2000/svg">
<path d="M30.8054 32.5999C30.2296 33.1749 29.5098 33.7499 28.5022 34.3249C27.6385 34.8999 26.6308 35.3312 25.4792 35.7624C24.3276 36.1937 23.176 36.4812 22.0244 36.7687C20.8728 37.0562 19.5772 37.0562 18.4256 37.0562C15.8345 37.0562 13.5313 36.6249 11.2281 35.6187C8.92492 34.6124 7.05356 33.4624 5.32616 31.7374C3.74271 30.1562 2.3032 28.1437 1.4395 25.9874C0.431851 23.6874 0 21.3874 0 18.7999C0 16.2124 0.431851 13.9124 1.4395 11.6124C2.44715 9.3124 3.74271 7.44365 5.32616 5.8624C6.90961 4.28115 8.92492 2.84365 11.2281 1.98115C13.5313 1.11865 15.8345 0.543652 18.4256 0.543652C20.5849 0.543652 22.7441 0.831152 24.7594 1.40615C26.7748 1.98115 28.5022 2.84365 29.9417 4.1374C31.0933 5.14365 31.6691 6.29365 31.6691 7.5874C31.6691 8.4499 31.3812 9.16865 30.8054 9.8874C29.9417 11.0374 28.7901 11.6124 27.3506 11.6124C26.3429 11.6124 25.4792 11.3249 24.6155 10.8937C23.7518 10.3187 22.7441 10.0312 21.7365 9.5999C20.7288 9.3124 19.7212 9.16865 18.4256 9.16865C16.9861 9.16865 15.8345 9.45615 14.6829 10.0312C13.6753 10.1749 12.8116 11.0374 12.0918 11.8999C11.3721 12.7624 10.7963 13.7687 10.3644 15.0624C9.93257 16.2124 9.78862 17.3624 9.78862 18.7999C9.78862 20.0937 9.93257 21.3874 10.3644 22.5374C10.7963 23.6874 11.3721 24.8374 12.0918 25.6999C12.8116 26.5624 13.8192 27.2812 14.8269 27.8562C15.9785 28.4312 17.1301 28.7187 18.5696 28.7187C20.297 28.7187 21.7365 28.4312 22.7441 27.8562C23.8957 27.2812 24.7594 26.7062 25.4792 26.2749C26.3429 25.6999 27.3506 25.2687 28.5022 25.2687C29.6538 25.2687 30.6614 25.6999 31.3812 26.7062C31.957 27.5687 32.3888 28.4312 32.3888 29.2937C32.2449 30.4437 31.6691 31.5937 30.8054 32.5999ZM67.3687 35.4749C66.505 36.3374 65.3534 36.9124 63.9139 36.9124C62.6184 36.9124 61.6107 36.3374 60.6031 35.4749C59.7394 34.4687 59.1636 33.3187 59.1636 32.0249C58.8757 32.5999 58.4438 33.1749 57.7241 33.7499C57.1483 34.3249 56.2846 34.8999 55.4209 35.4749C54.5572 36.0499 53.5495 36.3374 52.3979 36.7687C51.2463 37.0562 50.0947 37.1999 48.9431 37.1999C46.4959 37.1999 44.3367 36.7687 42.1774 35.7624C40.1621 34.7562 38.2908 33.4624 36.7073 31.8812C35.1239 30.2999 33.9723 28.2874 33.1086 25.9874C32.2449 23.6874 31.813 21.3874 31.813 18.7999C31.813 16.2124 32.2449 13.9124 33.2525 11.6124C34.5481 9.45615 35.6997 7.44365 37.4271 5.8624C39.1545 4.28115 41.0258 2.84365 43.329 1.98115C45.6322 0.974902 47.9354 0.543652 50.5265 0.543652C53.1177 0.543652 55.4209 0.974902 57.7241 1.98115C60.0273 2.9874 61.8986 4.28115 63.626 5.8624C65.3534 7.5874 66.505 9.45615 67.5127 11.7562C68.5203 14.0562 68.9522 16.3562 68.9522 18.9437V32.3124C68.8082 33.4624 68.3764 34.6124 67.3687 35.4749ZM58.5878 15.0624C58.1559 13.9124 57.7241 12.9062 56.8604 11.8999C56.1406 11.0374 55.133 10.3187 54.1253 9.8874C52.9737 9.3124 51.8221 9.16865 50.3826 9.16865C48.9431 9.16865 47.7915 9.45615 46.6399 9.8874C45.4883 10.4624 44.6246 11.0374 43.9048 11.8999C43.1851 12.7624 42.6093 13.7687 42.1774 15.0624C41.7456 16.2124 41.6016 17.5062 41.6016 18.7999C41.6016 20.0937 41.7456 21.3874 42.1774 22.5374C42.4653 23.6874 43.0411 24.6937 43.7609 25.5562C44.4806 26.4187 45.3443 27.1374 46.352 27.5687C47.3596 28.1437 48.6552 28.2874 49.9507 28.2874C51.3902 28.2874 52.5419 27.9999 53.6935 27.5687C54.8451 26.9937 55.7088 26.4187 56.5725 25.5562C57.2922 24.6937 58.012 23.6874 58.2999 22.5374C58.7317 21.3874 58.8757 20.0937 58.8757 18.7999C58.8757 17.5062 58.8757 16.2124 58.5878 15.0624ZM95.7269 7.8749C94.8632 8.7374 93.8556 9.16865 92.56 9.16865C91.1205 9.16865 89.681 9.3124 88.2415 9.74365C86.802 10.0312 85.6504 10.6062 84.4988 11.3249C83.3472 12.0437 82.4835 13.0499 81.9077 14.1999C81.188 15.3499 80.9001 16.7874 80.9001 18.3687V32.0249C80.9001 33.3187 80.4682 34.4687 79.4606 35.4749C78.5969 36.3374 77.4453 36.9124 76.0057 36.9124C74.7102 36.9124 73.5586 36.4812 72.5509 35.4749C71.5433 34.4687 71.1114 33.4624 71.1114 32.0249V5.71865C71.1114 4.4249 71.5433 3.2749 72.5509 2.26865C73.5586 1.2624 74.7102 0.831152 76.0057 0.831152C77.3013 0.831152 78.4529 1.2624 79.3166 2.26865C80.1803 3.2749 80.7561 4.4249 80.7561 5.71865C81.6198 4.7124 82.4835 3.8499 83.3472 3.13115C84.2109 2.4124 85.0746 1.98115 85.9383 1.5499C86.802 1.11865 87.8097 0.831152 88.9613 0.687402C90.1129 0.543652 91.2645 0.399902 92.56 0.399902C93.7116 0.399902 94.8632 0.831152 95.7269 1.69365C96.5906 2.55615 97.0225 3.5624 97.0225 4.85615C97.0225 6.1499 96.5906 7.0124 95.7269 7.8749ZM147.261 6.00615C147.261 6.29365 147.117 6.58115 146.973 6.86865L136.609 34.1812C136.321 35.0437 135.745 35.6187 135.025 36.1937C134.306 36.6249 133.442 36.9124 132.578 36.9124C131.714 36.9124 130.851 36.6249 130.131 36.0499C129.411 35.4749 128.979 34.8999 128.548 34.0374L123.077 18.6562L117.607 34.0374C117.319 34.8999 116.744 35.6187 116.024 36.0499C115.304 36.6249 114.44 36.9124 113.577 36.9124C112.713 36.9124 111.849 36.6249 111.13 36.1937C110.41 35.7624 109.834 35.0437 109.546 34.1812L99.1817 6.86865C99.0378 6.58115 99.0378 6.29365 98.8938 6.00615V5.14365C98.8938 3.99365 99.3257 2.84365 100.189 1.98115C101.053 1.11865 102.061 0.687402 103.356 0.687402C104.22 0.687402 105.084 0.974902 105.803 1.40615C106.523 1.8374 106.955 2.55615 107.243 3.41865L113.289 20.2374L119.191 3.70615C119.479 2.84365 120.055 2.1249 120.63 1.69365C121.35 1.11865 122.07 0.831152 123.077 0.831152C124.085 0.831152 124.805 1.11865 125.525 1.69365C126.244 2.26865 126.676 2.84365 126.964 3.70615L132.866 20.2374L138.912 3.70615C139.2 2.84365 139.776 2.1249 140.495 1.69365C141.215 1.11865 142.079 0.974902 142.943 0.974902C144.094 0.974902 145.246 1.40615 146.11 2.26865C146.973 3.13115 147.261 4.1374 147.261 5.43115C147.405 5.5749 147.261 5.71865 147.261 6.00615ZM181.377 25.9874C180.37 28.2874 179.074 30.1562 177.491 31.8812C175.763 33.6062 173.892 34.8999 171.589 35.7624C169.286 36.6249 166.982 37.1999 164.391 37.1999C161.8 37.1999 159.497 36.7687 157.194 35.7624C154.89 34.7562 153.019 33.4624 151.292 31.8812C149.564 30.1562 148.269 28.2874 147.405 25.9874C146.397 23.6874 145.966 21.3874 145.966 18.7999C145.966 16.2124 146.397 13.9124 147.405 11.6124C148.413 9.3124 149.708 7.44365 151.292 5.71865C153.019 3.99365 154.89 2.6999 157.194 1.8374C159.497 0.974902 161.8 0.399902 164.391 0.399902C166.982 0.399902 169.286 0.831152 171.589 1.8374C173.892 2.84365 175.763 4.1374 177.491 5.71865C179.218 7.2999 180.514 9.3124 181.377 11.6124C182.385 13.9124 182.817 16.2124 182.817 18.7999C182.817 21.3874 182.385 23.6874 181.377 25.9874ZM172.74 15.0624C172.308 13.9124 171.733 12.9062 171.013 11.8999C170.293 11.0374 169.286 10.3187 168.278 9.8874C167.126 9.3124 165.975 9.16865 164.535 9.16865C163.096 9.16865 161.944 9.45615 160.792 9.8874C159.641 10.4624 158.777 11.0374 158.057 11.8999C157.338 12.7624 156.762 13.7687 156.33 15.0624C155.898 16.2124 155.754 17.5062 155.754 18.7999C155.754 20.0937 155.898 21.3874 156.33 22.5374C156.762 23.6874 157.194 24.6937 158.057 25.5562C158.777 26.4187 159.785 27.1374 160.792 27.5687C161.944 28.1437 163.096 28.2874 164.535 28.2874C165.975 28.2874 167.126 27.9999 168.278 27.5687C169.429 26.9937 170.293 26.4187 171.013 25.5562C171.733 24.6937 172.308 23.6874 172.74 22.5374C173.172 21.3874 173.316 20.0937 173.316 18.7999C173.316 17.5062 173.028 16.2124 172.74 15.0624ZM230.32 6.00615C230.32 6.29365 230.176 6.58115 230.033 6.86865L219.668 34.1812C219.38 35.0437 218.804 35.6187 218.085 36.1937C217.365 36.6249 216.501 36.9124 215.638 36.9124C214.774 36.9124 213.91 36.6249 213.19 36.0499C212.471 35.4749 212.039 34.8999 211.607 34.0374L206.137 18.6562L200.667 34.0374C200.379 34.8999 199.803 35.6187 199.083 36.0499C198.363 36.6249 197.5 36.9124 196.636 36.9124C195.772 36.9124 194.909 36.6249 194.189 36.1937C193.469 35.7624 192.893 35.0437 192.605 34.1812L182.097 6.86865C181.953 6.58115 181.953 6.29365 181.809 6.00615V5.14365C181.809 3.99365 182.241 2.84365 183.105 1.98115C183.968 1.11865 184.976 0.687402 186.272 0.687402C187.135 0.687402 187.999 0.974902 188.719 1.40615C189.439 1.8374 189.87 2.55615 190.158 3.41865L196.204 20.0937L202.106 3.5624C202.394 2.6999 202.97 1.98115 203.546 1.5499C204.265 0.974902 204.985 0.687402 205.993 0.687402C206.857 0.687402 207.72 0.974902 208.44 1.5499C209.16 2.1249 209.592 2.6999 209.88 3.5624L215.925 20.2374L221.971 3.70615C222.259 2.84365 222.835 2.1249 223.555 1.69365C224.275 1.11865 225.138 0.974902 226.002 0.974902C227.154 0.974902 228.305 1.40615 229.169 2.26865C230.033 3.13115 230.32 4.1374 230.32 5.43115V6.00615Z" fill="white"/>
</svg>
