<svg width="111" height="74" viewBox="0 0 111 74" fill="none" xmlns="http://www.w3.org/2000/svg">
<path fill-rule="evenodd" clip-rule="evenodd" d="M90.4068 52.5769C91.3197 52.5769 92.3363 52.1246 92.857 51.6815C94.4823 50.2976 94.2862 49.1286 94.3989 46.7341L95.0503 40.7873C95.5034 37.5154 96.1751 37.4182 94.6964 35.9349C93.7023 34.9378 93.1433 34.8292 91.9171 34.8292C89.9537 34.8292 88.7748 37.2622 88.1707 38.7545C87.5621 40.2514 87.0616 43.2452 87.0616 45.3254C87.0616 47.9302 86.825 52.5769 90.4068 52.5769ZM46.8186 7.55766C46.8186 2.17615 53.1166 -2.36873 58.7114 1.36441C59.4846 1.87994 60.1067 2.5515 60.7063 3.25924C62.5412 5.42088 63.542 8.58874 63.542 12.2088C63.542 16.7243 61.5201 20.8147 59.2479 24.2448C57.8887 26.2957 56.2792 28.082 54.5616 29.8231C52.9701 31.433 50.8445 33.156 49.0389 34.4584L44.1024 37.7303C43.6515 38.0016 43.2593 38.2141 42.8062 38.4877C41.0954 39.5211 39.2966 40.3871 37.5045 41.287C36.1949 41.9428 31.7565 44.0411 30.4198 44.3531C30.5235 44.794 30.7218 44.984 30.9247 45.3616L32.471 48.1405C33.8122 50.6278 35.2684 53.0743 36.9545 55.3309C38.0635 56.8165 40.9308 59.5502 41.7896 56.1902C42.2247 54.4853 42.1773 48.4706 41.9812 46.7183L41.8572 43.1615C43.381 42.1372 49.1629 38.5375 50.8107 38.3996C50.8107 39.6635 50.8107 40.9252 50.8107 42.187C50.8107 43.5255 50.9256 44.482 50.9189 45.7595C50.9076 47.5074 51.2637 50.7906 51.6492 52.3847C52.0054 53.8589 52.9025 55.5932 54.2369 53.9562C56.7007 50.9353 54.9042 36.672 55.3212 35.8942C55.5511 35.4623 61.236 29.7643 63.2016 33.8705C63.5691 34.6393 63.7584 35.7563 63.7584 36.8846C64.2588 36.1633 64.6488 33.7936 66.2222 31.7812C67.9466 29.5834 70.7372 27.6207 73.485 29.8321C75.4754 31.4307 76.5957 34.5375 76.5957 37.3187C76.5957 40.7557 76.0164 49.5831 76.5641 52.5023C76.8775 54.1732 78.115 53.5582 78.7777 52.4932C79.8913 50.7069 79.6095 48.4706 79.614 46.2954C79.614 45.7415 79.6861 45.6329 79.7199 45.2124C79.7515 44.7986 79.7087 44.4933 79.7695 44.0727C80.2474 40.7421 80.6847 37.7732 82.1702 34.793C82.4835 34.1667 82.6503 33.8343 83.0268 33.269C83.9577 31.8739 85.0464 30.7433 86.5004 29.8276C91.766 26.5105 96.5583 32.1859 96.7702 32.9887H96.9866C97.3067 31.6161 98.5284 29.7598 99.4053 28.5953C100.519 27.112 102.383 25.3053 104.754 25.3053C106.465 25.3053 108.136 26.0198 109.098 27.1187C111.555 29.9226 111.102 34.0559 108.099 36.2356C106.684 37.2645 104.143 37.789 102.489 36.9931C102.3 37.8117 101.995 38.5714 101.797 39.4374C101.315 41.5651 100.873 43.9054 100.765 46.0852C100.735 46.6866 100.665 46.9851 100.652 47.4871L100.178 59.2404C100.104 59.7379 100.127 60.2399 100.055 60.7396C99.5811 64.0386 99.2993 67.6383 97.221 70.2341L95.7108 71.749C90.914 75.6156 82.1612 72.398 76.8211 71.2923C65.7646 69.0018 52.9183 67.6609 41.8325 70.519C41.3208 70.6524 40.613 70.935 40.1306 70.9757C40.8091 69.6892 43.0948 68.4591 44.5847 67.8667C46.4354 67.1318 48.2184 66.5326 50.3531 66.0781C59.2434 64.181 66.4521 64.2149 75.392 65.4744C80.5675 66.2002 88.2744 68.5676 91.3423 63.3648C92.0027 62.2478 92.3927 61.2483 92.7578 59.9143C93.0419 58.8741 93.5107 56.8527 93.5355 55.8239C93.2763 56.0138 93.0892 56.3801 92.857 56.6582C90.249 59.756 84.9743 62.0149 82.0349 57.9448C81.264 56.8753 80.3782 54.691 80.2654 53.3344C80.1685 53.4451 80.2564 53.3185 80.1279 53.522L79.9048 53.9471C79.7786 54.2026 79.7154 54.3473 79.5824 54.5983C79.3615 55.0076 79.1339 55.3649 78.8837 55.7379C77.3463 58.042 75.2229 60.2602 72.1731 60.2602C68.0435 60.2602 68.3974 56.0884 68.3974 53.0088L68.5056 48.4639C68.5011 47.5752 68.6183 47.1434 68.6138 46.3022C68.6048 44.6335 68.7648 43.3627 68.6228 41.8523C68.1337 36.654 64.7029 39.4171 64.1258 42.9897C63.8102 44.941 63.8666 47.3356 63.8666 49.547C63.8666 52.2513 63.7268 57.3999 63.8959 59.9346C63.9184 60.2896 64.0582 60.2625 63.6547 60.3665C62.451 60.6763 61.1369 60.5858 59.8745 60.5858C56.5407 60.5858 55.6187 57.8204 55.5579 55.0664C55.5421 55.0867 55.5263 55.1207 55.5196 55.1342C55.5105 55.15 55.4902 55.1862 55.479 55.2043L54.9492 56.4027C54.7216 56.8776 54.539 57.228 54.3001 57.7006C51.4576 63.3241 45.7975 65.3907 43.5208 59.1319C43.3698 58.7113 43.4419 58.6345 43.1511 58.4219C43.0925 59.1206 42.4478 60.7916 42.1796 61.3433C41.9519 61.8114 41.8325 62.2025 41.5529 62.6638C41.0773 63.4484 40.6107 64.3054 39.9953 64.995C38.7871 66.3472 37.775 67.2946 35.8162 67.2946C33.2622 67.2946 30.6407 63.9979 29.5339 62.3405C28.0033 60.0431 26.7658 57.6893 25.5305 55.2111C23.344 50.8245 21.4438 46.1372 19.6157 41.5538C19.3925 40.9931 19.0206 40.2062 18.8763 39.5912C19.1649 39.451 20.1003 39.2995 20.5376 39.2C27.0498 37.7189 33.9723 35.3742 39.9503 32.3759C41.7716 31.4624 43.5028 30.6325 45.2475 29.5721C49.3274 27.0961 54.7825 23.4037 57.0681 19.1369C57.8143 17.7463 58.4341 16.4349 58.5784 14.6983C55.9681 16.0844 53.1257 16.0912 50.6146 14.5717C48.3514 13.2037 46.8186 10.834 46.8186 7.55766ZM0.320312 32.5568C0.320312 29.2804 3.14249 26.2799 6.36139 26.2799C9.17004 26.2799 10.6735 27.5393 12.4859 29.3347C13.8834 30.7207 15.0285 32.7512 15.7634 34.5963C18.4841 41.4317 19.8637 53.9449 22.1967 62.3405C22.501 63.4326 22.8662 64.5722 23.2674 65.5965C25.8687 72.2329 28.222 72.3211 28.4789 73.0311C28.0619 73.2323 25.5621 73.463 24.8092 73.463C22.341 73.463 20.5669 73.4019 18.4097 72.2013C15.6484 70.6637 14.3884 67.7808 13.6332 64.7644C13.2388 63.1884 12.5693 58.544 12.5107 56.6899C12.4814 55.7312 12.3078 54.8244 12.2965 53.8748C12.2492 50.4853 10.9463 41.5516 9.49011 38.5081C5.77079 40.4821 0.320312 37.7551 0.320312 32.5568Z" fill="white"/>
</svg>
