<svg width="218" height="50" viewBox="0 0 218 50" fill="none" xmlns="http://www.w3.org/2000/svg">
<path d="M15.477 38.8669V34.5574H19.7156V21.6289H15.477V17.238H23.9541V34.4761H28.2726V38.7856H15.477V38.8669ZM43.0675 49.6H0.682129V6.50492H28.2726V10.8144H4.92067V45.2905H38.8289V21.5475H43.0675V49.6ZM43.0675 17.238V17.3193H38.8289V10.8144H32.4312V6.50492H38.8289V0H43.0675V6.50492H49.4653V10.7331H43.0675V17.238ZM88.012 24.8C88.3319 25.7757 88.4918 26.8328 88.4918 28.0525C88.4918 29.2721 88.3319 30.3292 88.012 31.3049C87.6921 32.2807 87.2122 33.0938 86.6524 33.7443C86.0926 34.3948 85.3729 34.8826 84.4932 35.2892C83.6135 35.6144 82.7338 35.8584 81.6142 35.8584C80.5745 35.8584 79.6149 35.6957 78.7352 35.2892C77.8555 34.9639 77.1357 34.3948 76.5759 33.7443C76.0161 33.0938 75.5363 32.2807 75.2164 31.3049C74.8965 30.3292 74.7365 29.2721 74.7365 28.0525C74.7365 26.8328 74.8965 25.7757 75.2164 24.8C75.5363 23.8243 76.0161 23.0111 76.5759 22.3607C77.1357 21.7102 77.8555 21.141 78.7352 20.8157C79.6149 20.4905 80.5745 20.2466 81.6142 20.2466C82.6538 20.2466 83.6135 20.4092 84.4932 20.8157C85.3729 21.141 86.0926 21.7102 86.6524 22.3607C87.2122 23.0111 87.6921 23.8243 88.012 24.8ZM142.633 19.3521C144.393 19.3521 145.672 19.7587 146.472 20.4905C147.351 21.3036 147.751 22.442 147.751 23.8243C147.751 24.4748 147.671 25.1252 147.431 25.6944C147.271 26.2636 146.872 26.7515 146.472 27.158C146.072 27.5646 145.512 27.8898 144.872 28.1338C144.233 28.3777 143.513 28.459 142.633 28.459H139.114V19.3521H142.633ZM217.327 49.6H57.8624V6.50492H217.327V49.6ZM92.6504 28.0525C92.6504 26.4262 92.4104 24.9626 91.8506 23.5803C91.2908 22.198 90.5711 20.9784 89.6114 20.0026C88.6517 19.0269 87.5321 18.2138 86.1726 17.6446C84.8131 17.0754 83.2936 16.7502 81.6941 16.7502C80.0947 16.7502 78.5752 17.0754 77.2157 17.5633C75.8562 18.1325 74.7365 18.9456 73.6969 19.9213C72.7372 20.8971 72.0175 22.1167 71.4577 23.499C70.8979 24.8813 70.658 26.3449 70.658 27.9711C70.658 29.5974 70.8979 31.061 71.4577 32.4433C72.0175 33.8256 72.7372 35.0452 73.6969 36.021C74.6566 36.9967 75.8562 37.8098 77.2157 38.379C78.5752 38.9482 80.0947 39.1921 81.6941 39.1921C83.2936 39.1921 84.8131 38.9482 86.1726 38.379C87.5321 37.8098 88.6517 36.9967 89.6114 36.021C90.5711 35.0452 91.2908 33.8256 91.8506 32.4433C92.3305 31.1423 92.6504 29.6787 92.6504 28.0525ZM114.083 16.9941H110.564V30.4105C110.564 30.7357 110.564 31.061 110.564 31.3862C110.564 31.7115 110.644 32.0367 110.644 32.4433L99.2881 17.7259C99.2081 17.5633 99.0481 17.482 98.9682 17.4007C98.8882 17.3193 98.8082 17.238 98.7283 17.238C98.6483 17.1567 98.5683 17.1567 98.4084 17.1567C98.3284 17.1567 98.1685 17.1567 97.9285 17.1567H95.8493V39.1921H99.368V25.5318C99.368 25.2879 99.368 24.9626 99.368 24.6374C99.368 24.3121 99.2881 23.9869 99.2881 23.6616L110.644 38.379C110.804 38.623 111.044 38.8669 111.284 38.9482C111.524 39.0295 111.764 39.1108 112.084 39.1108H114.163V16.9941H114.083ZM132.157 16.9941H118.481V39.0295H132.157V35.7771H122.56V29.5161H130.157V26.3449H122.56V20.3279H132.157V16.9941ZM150.79 23.8243C150.79 22.7672 150.63 21.8728 150.31 20.9784C149.991 20.1652 149.511 19.4334 148.791 18.783C148.151 18.2138 147.271 17.7259 146.232 17.4007C145.192 17.0754 143.993 16.9128 142.633 16.9128H136.235V39.0295H139.194V30.817H142.713C143.993 30.817 145.192 30.6544 146.152 30.3292C147.192 30.0039 147.991 29.5161 148.711 28.8656C149.431 28.2151 149.911 27.4833 150.23 26.6702C150.55 25.7757 150.79 24.8813 150.79 23.8243ZM166.865 36.5902H157.428V16.9941H154.469V39.1108H166.865V36.5902ZM187.178 16.9941H184.219V30.4105C184.219 31.3049 184.059 32.1993 183.819 32.9311C183.579 33.663 183.179 34.3948 182.699 34.9639C182.219 35.5331 181.58 35.9397 180.94 36.2649C180.22 36.5902 179.42 36.7528 178.541 36.7528C177.661 36.7528 176.861 36.5902 176.142 36.2649C175.422 35.9397 174.782 35.5331 174.302 34.9639C173.822 34.3948 173.422 33.7443 173.183 33.0125C172.943 32.2807 172.783 31.3862 172.783 30.4918V16.9941H169.824V30.4105C169.824 31.7115 169.984 32.8498 170.384 33.9882C170.783 35.0452 171.343 36.021 172.143 36.8341C172.863 37.6472 173.822 38.2977 174.862 38.7043C175.902 39.1921 177.101 39.3548 178.461 39.3548C179.82 39.3548 181.02 39.1108 182.059 38.7043C183.099 38.2164 184.059 37.6472 184.779 36.8341C185.498 36.021 186.058 35.1266 186.458 33.9882C186.858 32.9311 187.018 31.7115 187.018 30.4105V16.9941H187.178ZM204.612 32.362C204.612 31.4675 204.452 30.6544 204.132 30.0852C203.812 29.4348 203.412 28.9469 202.932 28.459C202.452 28.0525 201.893 27.6459 201.253 27.402C200.613 27.0767 199.973 26.8328 199.334 26.6702C198.694 26.4262 198.054 26.2636 197.414 26.0197C196.774 25.7757 196.215 25.5318 195.735 25.2879C195.255 24.9626 194.855 24.6374 194.535 24.2308C194.215 23.8243 194.055 23.3364 194.055 22.6859C194.055 22.198 194.135 21.7915 194.295 21.3036C194.455 20.897 194.695 20.4905 195.095 20.2466C195.415 19.9213 195.895 19.6774 196.375 19.5148C196.854 19.3521 197.494 19.2708 198.134 19.2708C198.854 19.2708 199.413 19.3521 199.893 19.5148C200.373 19.6774 200.773 19.9213 201.173 20.0839C201.493 20.3279 201.813 20.4905 202.053 20.6531C202.292 20.8157 202.452 20.897 202.612 20.897C202.772 20.897 202.932 20.897 203.012 20.8157C203.092 20.7344 203.252 20.6531 203.332 20.4905L204.052 19.1082C203.332 18.3764 202.452 17.8072 201.413 17.4007C200.453 16.9941 199.334 16.8315 198.054 16.8315C196.934 16.8315 195.975 16.9941 195.175 17.3193C194.375 17.6446 193.655 18.1325 193.096 18.7016C192.536 19.2708 192.056 19.9213 191.816 20.6531C191.496 21.3849 191.336 22.1167 191.336 22.9298C191.336 23.9056 191.496 24.7187 191.816 25.3692C192.136 26.0197 192.536 26.5889 193.016 26.9954C193.496 27.402 194.055 27.8085 194.695 28.0525C195.335 28.2964 195.975 28.5403 196.614 28.7843C197.254 29.0282 197.894 29.1908 198.534 29.4348C199.174 29.5974 199.733 29.8413 200.213 30.1666C200.693 30.4918 201.093 30.817 201.413 31.2236C201.733 31.6302 201.893 32.1993 201.893 32.8498C201.893 33.419 201.813 33.9882 201.573 34.4761C201.333 34.9639 201.093 35.3705 200.693 35.7771C200.293 36.1023 199.813 36.4275 199.334 36.5902C198.774 36.7528 198.134 36.9154 197.494 36.9154C196.614 36.9154 195.975 36.8341 195.335 36.5902C194.775 36.3462 194.295 36.1023 193.815 35.8584C193.416 35.6144 193.096 35.2892 192.776 35.1266C192.536 34.8826 192.296 34.8013 192.056 34.8013C191.896 34.8013 191.816 34.8013 191.656 34.8826C191.576 34.9639 191.416 35.0452 191.336 35.1266L190.457 36.5089C191.256 37.4033 192.296 38.1351 193.416 38.623C194.615 39.1108 195.815 39.4361 197.254 39.4361C198.374 39.4361 199.413 39.2734 200.373 38.8669C201.253 38.5416 202.053 37.9725 202.692 37.4033C203.332 36.7528 203.812 36.021 204.132 35.2079C204.452 34.2321 204.612 33.3377 204.612 32.362Z" fill="white"/>
</svg>
