<svg width="229" height="70" viewBox="0 0 229 70" fill="none" xmlns="http://www.w3.org/2000/svg">
<path fill-rule="evenodd" clip-rule="evenodd" d="M0.327637 0.47168H228.713V69.1283H0.327637V59.7161H6.65702C8.19142 59.7161 9.43812 58.4739 9.43812 56.945C9.43812 55.4161 8.19142 54.1739 6.65702 54.1739H0.327637V48.6317H6.65702C8.19142 48.6317 9.43812 47.3895 9.43812 45.8606C9.43812 44.3317 8.19142 43.0895 6.65702 43.0895H0.327637V37.5472H6.65702C8.19142 37.5472 9.43812 36.305 9.43812 34.7761C9.43812 33.2472 8.19142 32.005 6.65702 32.005H0.327637V26.5106H6.65702C8.19142 26.5106 9.43812 25.2683 9.43812 23.7395C9.43812 22.2106 8.19142 20.9683 6.65702 20.9683H0.327637V15.4261H6.65702C8.19142 15.4261 9.43812 14.1839 9.43812 12.655C9.43812 11.1261 8.19142 9.8839 6.65702 9.8839H0.327637V0.47168ZM202.149 17.7672C202.149 19.8695 203.875 21.6372 206.033 21.6372C208.19 21.6372 209.917 19.9172 209.917 17.7672C209.917 15.6172 208.19 13.8972 206.033 13.8972C203.875 13.8972 202.149 15.6172 202.149 17.7672ZM209.341 17.7672C209.341 19.5828 207.855 21.0639 206.033 21.0639C204.211 21.0639 202.724 19.5828 202.724 17.7672C202.724 15.9517 204.211 14.4706 206.033 14.4706C207.855 14.4706 209.341 15.9039 209.341 17.7672ZM206.944 17.5761C207.088 17.385 207.183 17.1461 207.183 16.8595C207.183 16.525 207.04 16.2383 206.8 15.9995C206.56 15.8083 206.224 15.7128 205.697 15.7128H205.026V19.535H205.601V17.9583H205.697L206.8 19.535H207.519L206.32 17.9106C206.608 17.9106 206.8 17.7672 206.944 17.5761ZM205.649 17.5283V16.3339H205.841C206.368 16.3339 206.656 16.525 206.656 16.9072C206.656 17.3372 206.368 17.5283 205.841 17.5283H205.649ZM54.4631 43.9972C54.4631 36.6872 48.0857 33.3906 42.5715 31.1928C37.9683 29.3295 35.8585 27.5139 35.8585 24.8383C35.8585 23.0228 37.6327 20.8728 40.8453 20.8728C43.962 20.8728 48.2775 23.6917 48.757 23.9783C49.4283 24.4083 50.2914 23.9783 50.7709 23.3095L52.9287 20.0606C53.3123 19.4872 53.1684 18.5317 52.593 18.1972C51.4422 17.3372 47.0308 14.4228 41.2289 14.4228C32.1664 14.4228 28.4263 20.2517 28.4263 25.3161C28.4263 32.005 33.7487 35.3972 39.1191 37.5472C43.9141 39.4583 46.3595 41.465 46.3595 44.3317C46.3595 46.7683 44.1538 48.6795 41.1809 48.6795C37.4888 48.6795 32.8856 45.335 32.5979 45.1439C32.0705 44.7617 31.1115 44.7617 30.6799 45.5261L28.6181 49.0617C28.0906 49.9695 28.3783 50.2561 28.9058 50.7817C30.0566 51.8806 34.2282 55.225 41.4207 55.225C49.3804 55.1772 54.4631 49.8261 54.4631 43.9972ZM72.3484 53.5528V16.0472C72.3484 15.4739 71.8209 14.9483 71.2455 14.9483H65.971C65.3956 14.9483 64.8682 15.4739 64.8682 16.0472V53.5528C64.8682 54.1261 65.3956 54.6517 65.971 54.6517H71.2455C71.8689 54.6517 72.3484 54.1261 72.3484 53.5528ZM165.707 43.7106C165.707 38.5028 161.343 35.445 158.323 34.4895C161.008 33.2472 164.556 29.855 164.556 25.4595C164.556 19.4872 159.329 14.9961 152.569 14.9961H139.526C138.903 14.9961 138.423 15.5217 138.423 16.095V53.6006C138.423 54.1739 138.855 54.6995 139.526 54.6995H153.288C160.241 54.6517 165.707 50.0172 165.707 43.7106ZM145.808 21.685H151.897C154.774 21.685 156.788 23.6917 156.788 26.5106C156.788 29.3295 154.774 31.6228 151.897 31.6228H145.808V21.685ZM145.808 47.9628V37.8339H151.993C154.966 37.8339 157.795 39.9361 157.795 42.755C157.795 45.7172 155.541 47.915 152.664 47.915H145.808V47.9628ZM209.773 53.1706L192.463 15.4739C192.175 14.9483 191.648 14.6139 191.024 14.6139C190.401 14.6139 189.826 14.9961 189.538 15.5217L172.084 53.1706C171.749 53.8872 172.18 54.6517 173.043 54.6517H177.982C178.893 54.6517 179.42 54.0783 179.612 53.505L182.393 47.3895H199.416L202.197 53.505C202.58 54.3172 203.012 54.6517 203.827 54.6517H208.766C209.677 54.6517 210.108 53.8872 209.773 53.1706ZM185.222 41.0828L190.785 28.6128H190.976L196.635 41.0828H185.222ZM127.635 53.3139L121.065 15.9995V15.9517C120.97 15.0917 120.25 14.4706 119.339 14.4706C118.62 14.4706 117.997 14.9006 117.757 15.5217L105.53 41.6561C105.482 41.6561 105.482 41.6561 105.338 41.6561L93.0627 15.4739C92.823 14.8528 92.1996 14.4228 91.4804 14.4228C90.6173 14.4228 89.898 15.0917 89.8021 15.9517L83.1851 53.2661C83.0892 54.0783 83.5207 54.5561 84.2879 54.5561H89.4185C89.946 54.5561 90.3775 54.1261 90.4255 53.6961L93.734 32.1961C93.782 32.1961 93.9258 32.1961 93.9258 32.1961L103.468 53.3617C103.804 54.1261 104.571 54.6995 105.434 54.6995C106.297 54.6995 107.064 54.1739 107.4 53.4095L116.894 32.1961C116.894 32.1961 116.99 32.1961 117.086 32.1961L120.442 53.6961C120.538 54.0783 121.018 54.5561 121.545 54.5561H126.724C127.347 54.6517 127.826 54.1261 127.635 53.3139Z" fill="white"/>
</svg>
