<svg width="260" height="45" viewBox="0 0 260 45" fill="none" xmlns="http://www.w3.org/2000/svg">
<path fill-rule="evenodd" clip-rule="evenodd" d="M13.8097 1.35003C14.5755 1.22098 29.3895 1.30363 30.9024 1.30363C32.1188 1.30363 35.493 1.16008 36.4056 1.49068C37.7573 1.98078 38.2913 3.28723 39.0197 4.60383C39.6848 5.80588 40.4089 6.99053 41.0869 8.20418L44.6108 14.3362C44.6165 14.3478 44.6237 14.3623 44.6309 14.3725C44.6367 14.3841 44.6439 14.3986 44.6496 14.4087C45.7811 16.4692 47.1572 18.7428 48.352 20.8612C49.3467 22.6244 49.0358 23.4422 48.08 25.0633L44.9706 30.4834C42.8906 34.0577 40.8436 37.761 38.7477 41.3207C37.9963 42.5982 37.5687 43.8089 35.8643 44.1076C35.1302 44.2367 20.2443 44.1526 18.7587 44.1526C17.5352 44.1526 14.1869 44.2947 13.2627 43.9684C12.5372 43.7118 12.019 43.2202 11.6879 42.6779C11.3208 42.0747 11.0013 41.4773 10.6414 40.8654L2.35272 26.4249C1.58403 25.0488 0.586452 23.812 0.726084 22.404C0.828289 21.3702 2.0749 19.5446 2.61615 18.576C4.64009 14.9583 6.77919 11.3797 8.83912 7.74018C9.51425 6.54828 10.2052 5.33463 10.9034 4.13403C11.6634 2.82758 12.0852 1.64003 13.8097 1.35003ZM16.0078 19.5258C15.337 19.5258 14.7871 20.0797 14.7871 20.7568C14.7871 21.4325 15.337 21.9864 16.0078 21.9864H33.672C34.3442 21.9864 34.8941 21.4325 34.8941 20.7568C34.8941 20.0797 34.3442 19.5258 33.672 19.5258H16.0078ZM18.1973 15.5861C17.5251 15.5861 16.9752 16.14 16.9752 16.8172C16.9752 17.4929 17.5251 18.0468 18.1973 18.0468H31.4998C32.1706 18.0468 32.7205 17.4929 32.7205 16.8172C32.7205 16.14 32.1706 15.5861 31.4998 15.5861H18.1973ZM20.3551 11.6595C19.6829 11.6595 19.133 12.2134 19.133 12.8891C19.133 13.5663 19.6829 14.1202 20.3551 14.1202H29.3261C29.9969 14.1202 30.5468 13.5663 30.5468 12.8891C30.5468 12.2134 29.9969 11.6595 29.3261 11.6595H20.3551ZM18.1973 25.9261H31.4998C32.1706 25.9261 32.7205 25.3722 32.7205 24.6965C32.7205 24.0193 32.1706 23.4654 31.4998 23.4654H18.1973C17.5251 23.4654 16.9752 24.0193 16.9752 24.6965C16.9752 25.3722 17.5251 25.9261 18.1973 25.9261ZM20.9871 29.8527H28.6855C29.3564 29.8527 29.9062 29.2988 29.9062 28.6231C29.9062 27.9459 29.3564 27.392 28.6855 27.392H20.9871C20.3148 27.392 19.7649 27.9459 19.7649 28.6231C19.7649 29.2988 20.3148 29.8527 20.9871 29.8527ZM23.1622 33.8025H26.5133C27.187 33.8025 27.7355 33.2486 27.7355 32.5729C27.7355 31.8957 27.187 31.3418 26.5133 31.3418H23.1622C22.4899 31.3418 21.94 31.8957 21.94 32.5729C21.94 33.2486 22.4899 33.8025 23.1622 33.8025Z" fill="white"/>
<path fill-rule="evenodd" clip-rule="evenodd" d="M63.9519 3.50908V17.0782C66.3732 15.038 69.4523 13.82 72.8538 13.82C80.9136 13.82 87.1553 18.9864 87.1553 29.0711C87.1553 39.1559 80.7927 44.4034 72.8956 44.4034C69.5185 44.4034 66.4077 43.139 63.9519 41.0351V41.8108C63.9519 45.1574 58.1335 45.1574 58.1335 41.8108V3.50908C58.1335 0.161034 63.9519 0.161034 63.9519 3.50908ZM63.9519 22.4403V35.8818C65.8564 37.8146 68.6375 39.1559 71.3697 39.1559C76.7808 39.1559 81.1108 35.7397 81.1108 29.0711C81.1108 22.4026 76.7808 18.9864 71.3697 18.9864C68.6965 18.9864 65.8549 20.4639 63.9519 22.4403Z" fill="white"/>
<path fill-rule="evenodd" clip-rule="evenodd" d="M189.655 3.50908V17.0782C192.089 15.0366 195.183 13.82 198.602 13.82C206.7 13.82 212.972 18.9864 212.972 29.0711C212.972 39.1559 206.579 44.4034 198.642 44.4034C195.249 44.4034 192.122 43.139 189.655 41.0351V41.8108C189.655 45.1574 183.808 45.1574 183.808 41.8108V3.50908C183.808 0.161034 189.655 0.161034 189.655 3.50908ZM189.655 22.4403V35.8818C191.568 37.8146 194.362 39.1559 197.109 39.1559C202.546 39.1559 206.897 35.7397 206.897 29.0711C206.897 22.4026 202.546 18.9864 197.109 18.9864C194.423 18.9864 191.567 20.4639 189.655 22.4403Z" fill="white"/>
<path fill-rule="evenodd" clip-rule="evenodd" d="M97.1022 16.72L97.0792 30.8706C97.0792 36.1573 99.2039 38.8702 104.2 38.8702C108.633 38.8702 111.084 35.6744 111.967 34.078V16.72C111.967 14.9945 113.451 13.8128 114.949 13.7954C116.477 13.7794 118.02 14.9612 118.02 16.72V36.5386C118.02 38.7934 119.092 39.2965 120.228 39.2965C121.307 39.2965 121.932 38.8615 122.766 38.8876C124.634 38.8601 125.747 41.2859 124.113 42.7359C122.984 43.7205 120.474 44.4005 118.015 44.4005C115.177 44.4005 113.102 43.0926 112.315 40.0259C110.007 43.0665 105.97 44.4005 102.411 44.4005C96.9367 44.4005 91.0491 42.1414 91.0491 30.4443V16.72C91.0491 14.9945 92.5333 13.8128 94.0318 13.7954C95.5591 13.7794 97.1022 14.9612 97.1022 16.72Z" fill="white"/>
<path fill-rule="evenodd" clip-rule="evenodd" d="M133.654 16.72V18.4673C135.751 15.3788 139.606 13.6837 143.015 13.6837C147.083 13.6837 151.176 14.8176 153.011 19.8114C154.903 15.953 159.13 13.6881 162.987 13.6881C167.982 13.6881 173.252 15.9704 174.137 24.7588C174.32 26.174 174.333 34.4434 174.349 36.5386C174.349 38.7934 175.421 39.2965 176.557 39.2965C177.635 39.2965 178.261 38.8615 179.095 38.8876C180.963 38.8601 181.739 41.4657 180.199 42.8316C179.07 43.8162 176.803 44.4005 174.343 44.4005C170.478 44.4005 168.296 42.227 168.296 36.9142V26.9222C168.094 22.027 165.536 19.2314 161.481 19.2314C157.049 19.2314 154.57 22.9768 154.013 25.1866V43.8568H148.04V26.8135C147.839 22.027 145.281 19.2314 141.227 19.2314C136.795 19.2314 134.374 23.1392 133.654 25.2272V43.8568H127.602V16.72C127.602 14.996 129.087 13.8128 130.584 13.7954C132.112 13.7794 133.654 14.9626 133.654 16.72Z" fill="white"/>
<path fill-rule="evenodd" clip-rule="evenodd" d="M223.283 35.4845C223.283 38.7731 224.911 39.2965 226.335 39.2965C227.413 39.2965 228.038 38.8615 228.873 38.8876C230.904 38.8151 231.798 41.3744 230.24 42.7577C229.11 43.7422 226.169 44.4005 223.711 44.4005C219.948 44.4005 217.465 41.6078 217.465 37.8654V3.50908C217.465 0.161034 223.283 0.161034 223.283 3.50908V35.4845Z" fill="white"/>
<path fill-rule="evenodd" clip-rule="evenodd" d="M237.688 26.3683H254.218C254.582 20.3479 250.668 18.5398 246.523 18.5398C241.896 18.5398 238.47 21.4688 237.688 26.3683ZM259.183 31.0939H237.614C238.148 36.2312 241.166 39.5865 247.925 39.5865C251.513 39.5865 254.859 37.732 256.533 36.8286C258.763 35.6251 261.06 38.7629 259.052 40.7871C256.746 43.1115 251.826 44.6021 247.054 44.6021C237.981 44.6021 231.539 39.3603 231.539 29.2756C231.539 19.1908 238.345 13.5605 246.608 13.5605C251.118 13.5605 254.715 14.7611 257.107 17.735C259.347 20.5205 260.643 24.2963 259.183 31.0939Z" fill="white"/>
</svg>

