<svg width="163" height="42" viewBox="0 0 163 42" fill="none" xmlns="http://www.w3.org/2000/svg">
<path fill-rule="evenodd" clip-rule="evenodd" d="M186.012 26.5076H180.08V5.36093H186.012C190.291 5.36093 193.321 5.99764 195.395 7.24524C198.19 8.93298 199.903 12.2724 199.903 15.8895C199.903 22.6965 194.919 26.5076 186.012 26.5076ZM202.696 4.68494C198.839 1.35714 194.208 0 186.786 0H172.247V31.8692H186.732C193.791 31.8692 198.954 30.3291 202.576 27.1901C206.015 24.1942 207.971 20.0898 207.971 15.8405C207.971 11.6879 206.073 7.62543 202.696 4.68494ZM216.115 31.8692H223.593V0H216.115V31.8692ZM299.267 0V23.3423C299.267 23.3423 298.35 21.6262 297.778 20.9618L281.336 0H272.734V31.8608H279.858V8.81955C280.038 9.35055 280.547 10.1232 281.691 11.5371L298.497 32.1624H306.318V0H299.267ZM153.684 31.8692H161.163V0H153.684V31.8692ZM243.417 18.83L247.927 7.28906L252.491 18.83H243.417ZM244.543 0L230.357 31.8692H238.186L241.393 24.0041H254.514L257.597 31.8692H265.428L251.247 0H244.543ZM90.7994 18.2056H104.211V13.0309H90.7994V5.16827H107.174V0H83.3172V31.8692H107.95V26.71H90.7994V18.2056ZM129.511 13.9614H124.641V5.16827H129.511C134.374 5.16827 136.332 6.38301 136.332 9.42017C136.332 12.6055 134.256 13.9614 129.511 13.9614ZM141.916 15.2625C143.338 13.7184 144.048 11.7388 144.048 9.27002C144.048 6.27604 142.982 3.96254 140.844 2.37018C138.526 0.586419 135.92 0 130.223 0H117.16V31.8692H124.641V19.1219H128.379L137.344 31.8692H145.531L135.802 18.2056C139.059 17.4819 140.426 16.8033 141.916 15.2625ZM46.5892 19.5898L46.5732 0.0289917H39.0635L0.823242 41.6H9.84076L39.0731 9.14691V31.8692H44.5148L65.1377 9.17078V31.8692H72.6435V0.0289917H64.6766L46.5892 19.5898Z" fill="white"/>
</svg>
