<svg width="140" height="111" viewBox="0 0 140 111" fill="none" xmlns="http://www.w3.org/2000/svg">
<path d="M11.5874 28.6584C13.231 17.079 24.4165 9.37444 35.8212 11.9663L106.498 28.0284C113.694 29.6638 119.404 35.1287 121.354 42.2458L133.072 85.0088C136.559 97.737 126.98 110.294 113.783 110.294H23.0393C10.8755 110.294 1.52836 99.5265 3.23775 87.4834L11.5874 28.6584Z" fill="#FF9DE4" fill-opacity="0.6"/>
<g clip-path="url(#clip0)">
<path d="M127 21.5056L122.845 16.8965L124.142 10.8244L118.242 8.91319L116.333 3.0052L110.269 4.30401L105.666 0.143066L101.063 4.30393L94.9996 3.00512L93.0911 8.9131L87.1912 10.8243L88.4882 16.8964L84.333 21.5056L88.4882 26.1149L87.1912 32.187L93.0911 34.0982L94.9996 40.0062L101.063 38.7074L105.666 42.8682L110.269 38.7074L116.333 40.0062L118.241 34.0982L124.141 32.187L122.844 26.1149L127 21.5056ZM116.243 32.097L114.638 37.0661L109.538 35.9737L105.666 39.4733L101.795 35.9737L96.6948 37.0661L95.0895 32.097L90.1272 30.4895L91.2181 25.3823L87.7232 21.5056L91.2181 17.629L90.1272 12.5218L95.0895 10.9143L96.6948 5.94521L101.795 7.03763L105.666 3.53802L109.538 7.03763L114.638 5.94521L116.243 10.9143L121.205 12.5218L120.114 17.629L123.609 21.5056L120.114 25.3823L121.205 30.4895L116.243 32.097Z" fill="black"/>
<path d="M111.119 23.1855C109.037 23.1855 107.344 24.8813 107.344 26.9656C107.344 29.0499 109.037 30.7456 111.119 30.7456C113.2 30.7456 114.893 29.0499 114.893 26.9656C114.893 24.8813 113.2 23.1855 111.119 23.1855ZM111.119 28.2256C110.425 28.2256 109.86 27.6603 109.86 26.9656C109.86 26.2708 110.425 25.7056 111.119 25.7056C111.812 25.7056 112.377 26.2708 112.377 26.9656C112.377 27.6603 111.812 28.2256 111.119 28.2256Z" fill="black"/>
<path d="M100.214 19.8257C102.296 19.8257 103.989 18.1299 103.989 16.0456C103.989 13.9613 102.296 12.2656 100.214 12.2656C98.1328 12.2656 96.4395 13.9613 96.4395 16.0456C96.4395 18.1299 98.1328 19.8257 100.214 19.8257ZM100.214 14.7856C100.908 14.7856 101.473 15.3509 101.473 16.0456C101.473 16.7404 100.908 17.3056 100.214 17.3056C99.5205 17.3056 98.956 16.7404 98.956 16.0456C98.956 15.3509 99.5205 14.7856 100.214 14.7856Z" fill="black"/>
<path d="M97.2236 28.1738L112.321 13.0561L114.1 14.8377L99.0028 29.9554L97.2236 28.1738Z" fill="black"/>
</g>
<g clip-path="url(#clip1)">
<path d="M100.995 59.1471C100.968 58.7866 100.805 58.4498 100.54 58.2041C100.275 57.9584 99.9273 57.822 99.5662 57.822H78.9996L78.0644 39.0913C78.046 38.7235 77.8872 38.3769 77.6207 38.1231C77.3543 37.8693 77.0006 37.7278 76.6329 37.7278H66.5995V30.5513C66.6002 28.4845 66.1055 26.4477 65.157 24.6121C64.2085 22.7766 62.8338 21.1958 61.1485 20.0026C59.4632 18.8095 57.5165 18.0389 55.4721 17.7555C53.4276 17.4721 51.3451 17.6843 49.3995 18.3742C47.454 17.6843 45.3714 17.4721 43.327 17.7555C41.2825 18.0389 39.3359 18.8095 37.6506 20.0026C35.9653 21.1958 34.5906 22.7766 33.6421 24.6121C32.6935 26.4477 32.1988 28.4845 32.1995 30.5513V37.7278H22.1662C21.7985 37.7278 21.4448 37.8693 21.1784 38.1231C20.9119 38.3769 20.7531 38.7235 20.7347 39.0913L17.868 96.5033C17.8583 96.6976 17.8881 96.8919 17.9557 97.0742C18.0232 97.2566 18.1271 97.4234 18.261 97.5643C18.3949 97.7053 18.556 97.8175 18.7345 97.8942C18.913 97.9709 19.1053 98.0104 19.2995 98.0104H102.433C102.63 98.0104 102.826 97.9696 103.007 97.8904C103.188 97.8112 103.35 97.6954 103.485 97.5503C103.619 97.4052 103.722 97.2339 103.787 97.0471C103.852 96.8603 103.877 96.6621 103.862 96.4649L100.995 59.1471ZM96.6995 90.5508L99.7547 95.1398H93.6451L96.6995 90.5508ZM100.583 91.2091L98.0902 87.4647L95.4167 60.6926H98.2389L100.583 91.2091ZM92.5357 60.6926L95.2232 87.5948L92.077 92.3194L89.6473 60.6926H92.5357ZM76.1294 57.822H73.4317L72.4198 40.5984H75.2685L76.1294 57.822ZM69.5481 40.5984L70.56 57.822H67.5321L66.6721 40.5984H69.5481ZM53.6995 20.5042C56.3596 20.5072 58.9099 21.5667 60.7908 23.4503C62.6718 25.3338 63.7298 27.8875 63.7329 30.5513V37.7278H57.9995V30.5513C57.9995 28.6269 57.5695 26.7268 56.7409 24.9905C55.9123 23.2541 54.7062 21.7255 53.2109 20.5165C53.3729 20.5088 53.5356 20.5042 53.6995 20.5042ZM49.3995 21.4755C51.1138 22.2914 52.5621 23.5769 53.5768 25.1832C54.5915 26.7894 55.131 28.6506 55.1329 30.5513V37.7278H43.6662V30.5513C43.668 28.6506 44.2075 26.7894 45.2222 25.1832C46.2369 23.5769 47.6853 22.2914 49.3995 21.4755ZM35.0662 30.5513C35.0692 27.8875 36.1273 25.3338 38.0083 23.4503C39.8892 21.5667 42.4395 20.5072 45.0995 20.5042C45.2635 20.5042 45.4262 20.5088 45.5881 20.5165C44.0929 21.7254 42.8867 23.2541 42.0581 24.9905C41.2295 26.7268 40.7995 28.6269 40.7995 30.5513V37.7278H35.0662V30.5513ZM52.3723 95.1398H20.8063L23.5297 40.5984H32.1995V49.8774L28.5377 52.3219C28.3414 52.453 28.1805 52.6306 28.0691 52.8389C27.9578 53.0472 27.8995 53.2798 27.8995 53.5161V64.9985C27.8995 65.3792 28.0506 65.7442 28.3194 66.0134C28.5882 66.2826 28.9527 66.4338 29.3329 66.4338H37.9329C38.313 66.4338 38.6776 66.2826 38.9464 66.0134C39.2152 65.7442 39.3662 65.3792 39.3662 64.9985V53.5161C39.3662 53.2798 39.3079 53.0472 39.1966 52.8389C39.0853 52.6306 38.9243 52.453 38.728 52.3219L35.0662 49.8774V40.5984H55.1329V44.9043C55.1329 45.2849 55.2839 45.65 55.5527 45.9192C55.8215 46.1884 56.1861 46.3396 56.5662 46.3396C56.9463 46.3396 57.3109 46.1884 57.5797 45.9192C57.8485 45.65 57.9995 45.2849 57.9995 44.9043V40.5984H63.8027L64.6627 57.822H56.5662C56.2051 57.822 55.8573 57.9584 55.5923 58.2041C55.3273 58.4498 55.1647 58.7866 55.137 59.1471L52.3723 95.1398ZM33.6329 52.3705L36.4995 54.2841V63.5632H30.7662V54.2841L33.6329 52.3705ZM57.8935 60.6926H86.7723L89.4184 95.1398H55.2474L57.8935 60.6926Z" fill="black"/>
<path d="M79.5001 66.4338C79.1199 66.4338 78.7553 66.5851 78.4865 66.8542C78.2177 67.1234 78.0667 67.4885 78.0667 67.8691V79.3515C78.0654 80.4931 77.612 81.5876 76.8059 82.3949C75.9997 83.2021 74.9068 83.6562 73.7667 83.6574H70.9001C69.76 83.6562 68.667 83.2021 67.8609 82.3949C67.0548 81.5876 66.6013 80.4931 66.6001 79.3515V67.8691C66.6001 67.4885 66.4491 67.1234 66.1803 66.8542C65.9114 66.5851 65.5469 66.4338 65.1667 66.4338C64.7866 66.4338 64.422 66.5851 64.1532 66.8542C63.8844 67.1234 63.7334 67.4885 63.7334 67.8691V79.3515C63.7355 81.2542 64.4913 83.0783 65.8348 84.4237C67.1784 85.7691 69 86.5259 70.9001 86.528H73.7667C75.6668 86.5259 77.4884 85.7691 78.832 84.4237C80.1755 83.0783 80.9313 81.2542 80.9334 79.3515V67.8691C80.9334 67.4885 80.7824 67.1234 80.5136 66.8542C80.2448 66.5851 79.8802 66.4338 79.5001 66.4338Z" fill="black"/>
</g>
<defs>
<clipPath id="clip0">
<rect width="42.6666" height="42.7253" fill="white" transform="translate(84.333 0.143066)"/>
</clipPath>
<clipPath id="clip1">
<rect width="91.7333" height="91.8593" fill="white" transform="translate(15 4.41553)"/>
</clipPath>
</defs>
</svg>
