<svg width="125" height="121" viewBox="0 0 125 121" fill="none" xmlns="http://www.w3.org/2000/svg">
<path d="M119.124 27.8314C121.991 14.3227 110.63 2.04257 96.9391 3.85219L17.3792 14.3685C7.43303 15.6832 0 24.1634 0 34.1961V100.308C0 111.354 8.95431 120.308 20 120.308H83.2988C92.7445 120.308 100.902 113.7 102.863 104.46L119.124 27.8314Z" fill="#B9FFEE" fill-opacity="0.8"/>
<g clip-path="url(#clip0)">
<path d="M101 21.1716H31C27.1359 21.1762 24.0046 24.3118 24 28.1812V98.2774C24.0046 102.147 27.1359 105.282 31 105.287H101C104.864 105.282 107.995 102.147 108 98.2774V28.1812C107.995 24.3118 104.864 21.1762 101 21.1716ZM31 23.9755H101C103.319 23.978 105.197 25.8595 105.2 28.1812V37.9947H26.8V28.1812C26.8025 25.8595 28.6815 23.978 31 23.9755ZM101 102.483H31C28.6815 102.481 26.8025 100.599 26.8 98.2774V40.7986H105.2V98.2774C105.197 100.599 103.319 102.481 101 102.483Z" fill="black"/>
<path d="M33.7996 35.1908C36.1192 35.1908 37.9996 33.3078 37.9996 30.9851C37.9996 28.6623 36.1192 26.7793 33.7996 26.7793C31.48 26.7793 29.5996 28.6623 29.5996 30.9851C29.6022 33.3068 31.4811 35.1883 33.7996 35.1908ZM33.7996 29.5831C34.5728 29.5831 35.1996 30.2108 35.1996 30.9851C35.1996 31.7593 34.5728 32.387 33.7996 32.387C33.0264 32.387 32.3996 31.7593 32.3996 30.9851C32.4003 30.2111 33.0267 29.5838 33.7996 29.5831Z" fill="black"/>
<path d="M44.9998 35.1908C47.3194 35.1908 49.1998 33.3078 49.1998 30.9851C49.1998 28.6623 47.3194 26.7793 44.9998 26.7793C42.6802 26.7793 40.7998 28.6623 40.7998 30.9851C40.8024 33.3068 42.6813 35.1883 44.9998 35.1908ZM44.9998 29.5831C45.773 29.5831 46.3998 30.2108 46.3998 30.9851C46.3998 31.7593 45.773 32.387 44.9998 32.387C44.2266 32.387 43.5998 31.7593 43.5998 30.9851C43.6005 30.2111 44.2269 29.5838 44.9998 29.5831Z" fill="black"/>
<path d="M56.2 35.1908C58.5196 35.1908 60.4 33.3078 60.4 30.9851C60.4 28.6623 58.5196 26.7793 56.2 26.7793C53.8804 26.7793 52 28.6623 52 30.9851C52.0025 33.3068 53.8815 35.1883 56.2 35.1908ZM56.2 29.5831C56.9732 29.5831 57.6 30.2108 57.6 30.9851C57.6 31.7593 56.9732 32.387 56.2 32.387C55.4268 32.387 54.8 31.7593 54.8 30.9851C54.8007 30.2111 55.4271 29.5838 56.2 29.5831Z" fill="black"/>
<path d="M80.0002 67.4351H91.2002C92.7458 67.4333 93.9984 66.1791 94.0002 64.6313V53.4159C93.9984 51.8681 92.7458 50.6138 91.2002 50.6121H80.0002C78.4545 50.6138 77.202 51.8681 77.2002 53.4159V64.6313C77.202 66.1791 78.4545 67.4333 80.0002 67.4351ZM80.0002 53.4159H91.2002V64.6313H80.0002V53.4159Z" fill="black"/>
<path d="M92.6002 85.6601C91.827 85.6601 91.2002 86.2878 91.2002 87.062V89.8659H80.0002V78.6505H87.0002C87.7734 78.6505 88.4002 78.0229 88.4002 77.2486C88.4002 76.4743 87.7734 75.8467 87.0002 75.8467H80.0002C78.4545 75.8485 77.202 77.1027 77.2002 78.6505V89.8659C77.202 91.4137 78.4545 92.668 80.0002 92.6697H91.2002C92.7458 92.668 93.9984 91.4137 94.0002 89.8659V87.062C94.0002 86.2878 93.3734 85.6601 92.6002 85.6601Z" fill="black"/>
<path d="M36.6002 54.8178H47.8002C48.5734 54.8178 49.2002 54.1901 49.2002 53.4158C49.2002 52.6416 48.5734 52.0139 47.8002 52.0139H36.6002C35.827 52.0139 35.2002 52.6416 35.2002 53.4158C35.2002 54.1901 35.827 54.8178 36.6002 54.8178Z" fill="black"/>
<path d="M70.2 52.0139H53.4C52.6268 52.0139 52 52.6416 52 53.4158C52 54.1901 52.6268 54.8178 53.4 54.8178H70.2C70.9732 54.8178 71.6 54.1901 71.6 53.4158C71.6 52.6416 70.9732 52.0139 70.2 52.0139Z" fill="black"/>
<path d="M70.2002 57.6216H36.6002C35.827 57.6216 35.2002 58.2492 35.2002 59.0235C35.2002 59.7978 35.827 60.4254 36.6002 60.4254H70.2002C70.9734 60.4254 71.6002 59.7978 71.6002 59.0235C71.6002 58.2492 70.9734 57.6216 70.2002 57.6216Z" fill="black"/>
<path d="M36.6002 66.0331H53.4002C54.1734 66.0331 54.8002 65.4054 54.8002 64.6312C54.8002 63.8569 54.1734 63.2292 53.4002 63.2292H36.6002C35.827 63.2292 35.2002 63.8569 35.2002 64.6312C35.2002 65.4054 35.827 66.0331 36.6002 66.0331Z" fill="black"/>
<path d="M70.2006 63.2292H59.0006C58.2274 63.2292 57.6006 63.8569 57.6006 64.6312C57.6006 65.4054 58.2274 66.0331 59.0006 66.0331H70.2006C70.9738 66.0331 71.6006 65.4054 71.6006 64.6312C71.6006 63.8569 70.9738 63.2292 70.2006 63.2292Z" fill="black"/>
<path d="M36.6002 80.0524H47.8002C48.5734 80.0524 49.2002 79.4247 49.2002 78.6505C49.2002 77.8762 48.5734 77.2485 47.8002 77.2485H36.6002C35.827 77.2485 35.2002 77.8762 35.2002 78.6505C35.2002 79.4247 35.827 80.0524 36.6002 80.0524Z" fill="black"/>
<path d="M70.2 77.2485H53.4C52.6268 77.2485 52 77.8762 52 78.6505C52 79.4247 52.6268 80.0524 53.4 80.0524H70.2C70.9732 80.0524 71.6 79.4247 71.6 78.6505C71.6 77.8762 70.9732 77.2485 70.2 77.2485Z" fill="black"/>
<path d="M70.2002 82.8562H36.6002C35.827 82.8562 35.2002 83.4839 35.2002 84.2581C35.2002 85.0324 35.827 85.66 36.6002 85.66H70.2002C70.9734 85.66 71.6002 85.0324 71.6002 84.2581C71.6002 83.4839 70.9734 82.8562 70.2002 82.8562Z" fill="black"/>
<path d="M53.4002 88.4639H36.6002C35.827 88.4639 35.2002 89.0915 35.2002 89.8658C35.2002 90.64 35.827 91.2677 36.6002 91.2677H53.4002C54.1734 91.2677 54.8002 90.64 54.8002 89.8658C54.8002 89.0915 54.1734 88.4639 53.4002 88.4639Z" fill="black"/>
<path d="M70.2006 88.4639H59.0006C58.2274 88.4639 57.6006 89.0915 57.6006 89.8658C57.6006 90.64 58.2274 91.2677 59.0006 91.2677H70.2006C70.9738 91.2677 71.6006 90.64 71.6006 89.8658C71.6006 89.0915 70.9738 88.4639 70.2006 88.4639Z" fill="black"/>
<path d="M94.2802 73.6036L86.8481 83.5258L85.19 81.8651C84.6407 81.3338 83.7675 81.3414 83.2274 81.8822C82.6874 82.423 82.6798 83.2973 83.2104 83.8474L86.0104 86.6513C86.2727 86.9144 86.6289 87.0622 87.0002 87.062C87.0329 87.062 87.0658 87.0606 87.1 87.0587C87.5047 87.0299 87.877 86.8265 88.1202 86.5013L96.5202 75.2859C96.9841 74.6665 96.8587 73.7877 96.2402 73.3232C95.6216 72.8586 94.7441 72.9842 94.2802 73.6036Z" fill="black"/>
</g>
<defs>
<clipPath id="clip0">
<rect width="84" height="84.1154" fill="white" transform="translate(24 21.1716)"/>
</clipPath>
</defs>
</svg>
