<svg width="142" height="126" viewBox="0 0 142 126" fill="none" xmlns="http://www.w3.org/2000/svg">
<path d="M0 36.6634C0 20.9226 17.3422 11.3512 30.6605 19.7414L98.5517 62.5112C100.982 64.0423 103.054 66.0789 104.627 68.4824L121.747 94.6469C130.451 107.949 120.908 125.598 105.012 125.598H20C8.9543 125.598 0 116.643 0 105.598V36.6634Z" fill="#F691FF" fill-opacity="0.6"/>
<g clip-path="url(#clip0)">
<path d="M93.5071 15.4465H89.3796C87.5653 15.4465 87.5653 18.2633 89.3796 18.2633H93.5071C97.7696 18.2633 101.238 21.7234 101.238 25.9764V58.5705C101.238 62.8237 97.7698 66.2838 93.5071 66.2838H88.8258C88.517 66.2838 88.2168 66.3856 87.9713 66.5735L79.3814 73.1531V67.6922C79.3814 66.9144 78.7519 66.2838 77.975 66.2838H60.8575C59.4557 66.2838 58.1085 65.9133 56.9203 65.2089V49.3989C56.9203 46.4376 55.4141 43.8212 53.1269 42.2733V25.9764C53.1269 21.7234 56.5948 18.2633 60.8575 18.2633H80.5658C82.38 18.2633 82.38 15.4465 80.5658 15.4465H60.8575C55.0438 15.4465 50.314 20.1703 50.314 25.9764V41.0354C49.67 40.8814 48.999 40.7975 48.3085 40.7975H22.5618C17.8134 40.7975 13.9502 44.6561 13.9502 49.3989V52.4401C13.9502 54.2567 16.7631 54.2567 16.7631 52.4401V49.3989C16.7631 46.2092 19.3643 43.6142 22.5618 43.6142H48.3087C51.5063 43.6142 54.1076 46.2092 54.1076 49.3989V65.7696C54.0908 65.894 54.0915 66.0192 54.1076 66.1426V75.1022C54.1076 75.2792 54.0969 75.4556 54.081 75.631H51.1805C47.9845 75.631 45.3201 77.9409 44.7677 80.9768C44.6398 81.0251 44.5169 81.0925 44.4031 81.1804L38.1125 86.0442V82.2952C38.1125 81.5174 37.483 80.8869 36.7061 80.8869H22.5618C19.3643 80.8869 16.7631 78.2919 16.7631 75.1022V60.8904C16.7631 59.0738 13.9502 59.0738 13.9502 60.8904V75.1023C13.9502 79.8452 17.8134 83.7038 22.5618 83.7038H35.2998V88.9111C35.2998 90.0408 36.6697 90.7185 37.5659 90.026L44.661 84.5402V100.385C44.661 103.976 47.5858 106.897 51.1807 106.897H59.8116V110.184C59.8116 111.313 61.1815 111.992 62.0775 111.299L67.7701 106.897H69.4519C73.0467 106.897 75.9716 103.976 75.9716 100.385V97.884C75.9716 96.0674 73.1587 96.0674 73.1587 97.884V100.385C73.1587 102.423 71.4959 104.081 69.4519 104.081H67.2902C66.9791 104.081 66.6768 104.184 66.4308 104.374L62.6244 107.317V105.489C62.6244 104.711 61.9948 104.081 61.2179 104.081H51.1805C49.1367 104.081 47.4737 102.422 47.4737 100.384V82.1441C47.4737 80.1059 49.1365 78.4479 51.1805 78.4479H69.4519C71.4957 78.4479 73.1587 80.1061 73.1587 82.1441V89.0581C73.1587 90.8748 75.9716 90.8748 75.9716 89.0581V82.1443C75.9716 78.5529 73.0467 75.6313 69.4519 75.6313H56.9044C56.9151 75.4554 56.9205 68.3419 56.9205 68.3419C58.1607 68.8412 59.4902 69.1007 60.8577 69.1007H76.5687V76.0037C76.5687 77.1306 77.9328 77.8091 78.8297 77.1223L89.3024 69.1007H93.5073C99.3208 69.1007 104.051 64.377 104.051 58.5707V25.9764C104.05 20.1703 99.3206 15.4465 93.5071 15.4465V15.4465Z" fill="black"/>
<path d="M80.6961 25.8521C78.9103 25.3956 77.0905 26.8084 77.0905 28.6562C77.0905 30.6751 76.3558 32.6208 75.0226 34.1337L71.1476 38.5247C70.8967 38.1392 70.4631 37.884 69.9693 37.884H62.4045C61.6276 37.884 60.998 38.5146 60.998 39.2924V56.3367C60.998 57.1145 61.6276 57.745 62.4045 57.745H69.9693C70.5377 57.745 71.0261 57.4068 71.2479 56.9212C72.7794 57.8583 74.5542 58.3649 76.3599 58.3649H89.7291C91.772 58.3649 93.4573 56.5898 93.3615 54.5493C93.3189 53.6457 93.3654 41.5124 93.3654 41.2429C93.3654 39.2351 91.7341 37.6014 89.7332 37.6014L82.781 37.5805L83.0689 36.8979C84.3844 33.7783 84.1678 30.1608 82.4902 27.2206C82.0986 26.5337 81.4612 26.0479 80.6961 25.8521C81.4612 26.0479 79.9306 25.6564 80.6961 25.8521C81.4612 26.0479 78.9104 25.3956 80.6961 25.8521ZM68.5629 54.9283H63.811V40.7008H68.5629V54.9283ZM89.7291 40.418C90.1833 40.418 90.5527 40.7879 90.5527 41.2427C90.5527 41.5107 90.5499 42.238 90.5461 43.224C90.5253 48.6683 90.5114 53.8245 90.5516 54.6815C90.5662 54.9908 90.416 55.197 90.3252 55.2924C90.1681 55.4573 89.9564 55.548 89.7291 55.548H76.3599C74.7663 55.548 73.2066 54.9949 71.9678 53.9908L71.3758 53.5109V42.5196L77.1312 35.9981C78.9189 33.9692 79.9034 31.3619 79.9034 28.6561C79.9034 28.5764 80.012 28.5558 80.048 28.6178C81.2935 30.8004 81.4541 33.4859 80.4776 35.8018L79.3676 38.4344C79.1844 38.8687 79.2306 39.3658 79.4899 39.759C79.7496 40.1522 80.1884 40.3892 80.659 40.3907L89.7291 40.418Z" fill="black"/>
<path d="M25.9924 64.3641C25.2155 64.3641 24.5859 64.9947 24.5859 65.7725C24.5859 66.5503 25.2155 67.1809 25.9924 67.1809H30.1382L29.3638 71.8716C29.237 72.6389 29.7557 73.3639 30.5219 73.4908C30.5997 73.5038 30.6768 73.51 30.753 73.51C31.4288 73.51 32.0249 73.0208 32.139 72.3311L32.9892 67.1811H36.3821L35.6077 71.8718C35.4809 72.6391 35.9996 73.3641 36.7658 73.491C36.8436 73.504 36.9207 73.5102 36.9969 73.5102C37.6727 73.5102 38.2689 73.021 38.3829 72.3313L39.2331 67.1813H44.8764C45.6533 67.1813 46.2828 66.5507 46.2828 65.7729C46.2828 64.9951 45.6533 64.3645 44.8764 64.3645H39.6982L40.2655 60.9288H44.8764C45.6533 60.9288 46.2828 60.2982 46.2828 59.5204C46.2828 58.7426 45.6533 58.112 44.8764 58.112H40.7305L41.505 53.4214C41.6318 52.6541 41.1131 51.929 40.3468 51.8021C39.5797 51.6748 38.8566 52.1946 38.7298 52.9618L37.8795 58.1118H34.4866L35.2611 53.4212C35.3879 52.6539 34.8692 51.9288 34.1029 51.8019C33.3348 51.6746 32.6128 52.1944 32.4859 52.9617L31.6356 58.1117H25.9924C25.2155 58.1117 24.5859 58.7422 24.5859 59.52C24.5859 60.2978 25.2155 60.9284 25.9924 60.9284H31.1706L30.6033 64.3641H25.9924ZM34.0217 60.9284H37.4147L36.8474 64.3641H33.4545L34.0217 60.9284Z" fill="black"/>
<path d="M60.2986 85.715C59.1629 84.7787 57.652 84.4093 56.1364 84.7783C54.1942 85.2506 52.2344 87.0687 52.2344 90.0656C52.2344 91.9308 52.9142 93.5499 54.3126 95.0154C55.4548 96.2125 57.1031 97.3509 59.6569 98.7067C59.863 98.8162 60.0893 98.8708 60.3157 98.8708C60.542 98.8708 60.7684 98.8162 60.9745 98.7067C65.4297 96.3415 68.3968 93.967 68.3968 90.0656C68.3968 87.0524 66.3674 85.2528 64.3559 84.8061C62.8448 84.4703 61.3799 84.8268 60.2986 85.715ZM65.5837 90.0656C65.5837 92.1699 64.1898 93.7261 60.3155 95.8617C56.4412 93.7259 55.0471 92.1697 55.0471 90.0656C55.0471 88.4998 55.9525 87.7216 56.7999 87.5155C56.9561 87.4775 57.1234 87.4561 57.2954 87.4561C57.9328 87.4561 58.6336 87.7509 59.0656 88.5898C59.3118 89.0671 59.8095 89.3631 60.3434 89.352C60.8796 89.3413 61.3632 89.0262 61.5899 88.5394C62.045 87.5626 63.0022 87.3908 63.7463 87.5562C64.6348 87.7532 65.5837 88.5162 65.5837 90.0656Z" fill="black"/>
</g>
<defs>
<clipPath id="clip0">
<rect width="96" height="96.1319" fill="white" transform="translate(11 15.4465)"/>
</clipPath>
</defs>
</svg>
