<svg width="142" height="119" viewBox="0 0 142 119" fill="none" xmlns="http://www.w3.org/2000/svg">
<path d="M0 98.5879C0 109.634 8.95431 118.588 20 118.588H117.415C130.098 118.588 139.578 106.935 136.997 94.5176L124.246 33.1744C122.554 25.0348 116.003 18.7907 107.791 17.4907L23.1273 4.08718C10.9856 2.16498 0 11.5482 0 23.8412V98.5879Z" fill="#FFE49E" fill-opacity="0.8"/>
<g clip-path="url(#clip0)">
<path d="M108.377 46.8077L108.377 46.8075L97.6514 39.6868V15.8858C97.6514 15.1164 97.0285 14.4927 96.2601 14.4927H37.738C36.9697 14.4927 36.3468 15.1164 36.3468 15.8858V39.6885L25.6225 46.8075L25.6227 46.8079C25.2476 47.0574 25 47.4839 25 47.9687V91.1112C25 91.8805 25.6229 92.5043 26.3912 92.5043H107.609C108.377 92.5043 109 91.8805 109 91.1112V47.9687C109 47.4839 108.752 47.0574 108.377 46.8077ZM36.3468 51.6798L31.983 49.3618H36.3468V51.6798ZM27.7824 50.2846L59.7759 67.279L27.7824 88.5153V50.2846ZM66.9994 65.8266L102.993 89.718H31.0065L66.9994 65.8266ZM74.2236 67.2791L106.217 50.2846V88.516L74.2236 67.2791ZM97.6514 49.3618H102.017L97.6514 51.6807V49.3618ZM102.993 46.5756H97.6514V43.0296L102.993 46.5756ZM94.8689 17.2789V53.1587L71.5842 65.5271L67.768 62.9941C67.3022 62.6848 66.6965 62.6848 66.2307 62.9941L62.4151 65.5268L39.1292 53.1578V17.2789H94.8689ZM36.3468 46.5756H31.0078L36.3468 43.0314V46.5756Z" fill="black"/>
<path d="M66.9988 51.1304H78.0829C78.8512 51.1304 79.4741 50.5066 79.4741 49.7372C79.4741 48.9678 78.8512 48.3441 78.0829 48.3441H66.9988C61.6541 48.3441 57.3059 43.9899 57.3059 38.6379V38.2268C57.3059 32.8748 61.6541 28.5206 66.9988 28.5206C72.3435 28.5206 76.6917 32.8748 76.6917 38.2268V39.2546C76.6917 40.4131 75.7505 41.3558 74.5934 41.3558C73.4362 41.3558 72.495 40.4133 72.495 39.2546V37.3019C72.495 33.9837 69.7992 31.284 66.4855 31.284C63.1718 31.284 60.476 33.9835 60.476 37.3019C60.476 40.6202 63.1718 43.3197 66.4855 43.3197C68.0008 43.3197 69.3859 42.7541 70.444 41.8241C71.3054 43.214 72.8428 44.1418 74.5934 44.1418C77.2845 44.1418 79.4741 41.9494 79.4741 39.2544V38.2266C79.4741 31.3382 73.8777 25.7341 66.9988 25.7341C60.1199 25.7341 54.5234 31.3382 54.5234 38.2266V38.6377C54.5234 45.5262 60.1199 51.1304 66.9988 51.1304ZM66.4855 40.5335C64.7061 40.5335 63.2584 39.0839 63.2584 37.3019C63.2584 35.52 64.7062 34.0703 66.4855 34.0703C68.2648 34.0703 69.7126 35.52 69.7126 37.3019C69.7126 39.0839 68.265 40.5335 66.4855 40.5335Z" fill="black"/>
</g>
<defs>
<clipPath id="clip0">
<rect width="84" height="84.1154" fill="white" transform="translate(25 11.4407)"/>
</clipPath>
</defs>
</svg>
