<svg width="142" height="121" viewBox="0 0 142 121" fill="none" xmlns="http://www.w3.org/2000/svg">
<path d="M135.282 28.6712C138.542 15.1486 127.345 2.51043 113.528 4.11811L17.6885 15.2697C7.60504 16.4429 0 24.9842 0 35.1356V100.97C0 112.016 8.9543 120.97 20 120.97H97.2804C106.521 120.97 114.558 114.64 116.723 105.657L135.282 28.6712Z" fill="#CCF3FF" fill-opacity="0.8"/>
<path d="M66 46.5242C65.0513 46.5242 64.2812 47.2953 64.2812 48.2453C64.2812 49.1953 65.0513 49.9664 66 49.9664C66.9487 49.9664 67.7188 49.1953 67.7188 48.2453C67.7188 47.2953 66.9487 46.5242 66 46.5242Z" fill="black"/>
<path d="M37.4688 77.5042C38.4174 77.5042 39.1875 76.7331 39.1875 75.7831C39.1875 74.8332 38.4174 74.062 37.4688 74.062C36.5201 74.062 35.75 74.8332 35.75 75.7831C35.75 76.7331 36.5201 77.5042 37.4688 77.5042Z" fill="black"/>
<path d="M79.75 29.313C64.2766 29.313 51.5766 39.996 50.5944 53.4522C35.8581 54.1925 22 64.8331 22 79.2252C22 85.2397 24.3767 91.0672 28.7031 95.6847C29.5591 99.2183 28.5198 102.964 25.941 105.546C25.4496 106.038 25.3026 106.778 25.5684 107.422C25.8343 108.065 26.4607 108.484 27.1562 108.484C32.058 108.484 36.7819 106.559 40.2919 103.167C43.7113 104.335 48.1727 105.042 52.25 105.042C67.7214 105.042 80.42 94.3616 81.405 80.908C85.0036 80.748 88.7466 80.0824 91.7081 79.0719C95.2181 82.4637 99.942 84.3885 104.844 84.3885C105.539 84.3885 106.166 83.969 106.432 83.3263C106.697 82.6829 106.55 81.9427 106.059 81.4505C103.48 78.8682 102.441 75.1228 103.297 71.5891C107.623 66.9717 110 61.1441 110 55.1297C110 40.1755 95.0744 29.313 79.75 29.313ZM52.25 101.6C48.1935 101.6 43.571 100.802 40.4745 99.5686C39.8112 99.3037 39.0532 99.4778 38.5705 100.006C36.4952 102.277 33.7969 103.861 30.8569 104.589C32.477 101.481 32.8906 97.8172 31.905 94.3454C31.8271 94.0718 31.6827 93.8217 31.4847 93.618C27.5853 89.5962 25.4375 84.4847 25.4375 79.2252C25.4375 67.0967 37.7158 56.8508 52.25 56.8508C65.9745 56.8508 78.0312 66.4076 78.0312 79.2252C78.0312 91.5627 66.4659 101.6 52.25 101.6ZM100.515 69.5224C100.317 69.7268 100.173 69.9769 100.095 70.2499C99.1094 73.7217 99.523 77.3858 101.143 80.4938C98.2031 79.7664 95.5048 78.1818 93.4295 75.91C92.9468 75.383 92.1888 75.2082 91.5255 75.473C88.8419 76.542 85.0137 77.2822 81.3996 77.4611C80.8974 70.9524 77.6553 64.8351 72.1123 60.293H94.5312C95.4806 60.293 96.25 59.5225 96.25 58.5719C96.25 57.6212 95.4806 56.8508 94.5312 56.8508H66.8318C62.9304 54.8621 58.5496 53.7023 54.0406 53.459C55.0282 41.8993 66.1819 32.7552 79.75 32.7552C94.2842 32.7552 106.562 43.0012 106.562 55.1297C106.562 60.3891 104.415 65.5007 100.515 69.5224Z" fill="black"/>
<path d="M66 74.062H44.3438C43.3944 74.062 42.625 74.8325 42.625 75.7831C42.625 76.7338 43.3944 77.5042 44.3438 77.5042H66C66.9493 77.5042 67.7188 76.7338 67.7188 75.7831C67.7188 74.8325 66.9493 74.062 66 74.062Z" fill="black"/>
<path d="M66 84.3887H37.4688C36.5194 84.3887 35.75 85.1591 35.75 86.1098C35.75 87.0604 36.5194 87.8309 37.4688 87.8309H66C66.9493 87.8309 67.7188 87.0604 67.7188 86.1098C67.7188 85.1591 66.9493 84.3887 66 84.3887Z" fill="black"/>
<path d="M94.5312 46.5242H72.875C71.9257 46.5242 71.1562 47.2946 71.1562 48.2453C71.1562 49.1959 71.9257 49.9664 72.875 49.9664H94.5312C95.4806 49.9664 96.25 49.1959 96.25 48.2453C96.25 47.2946 95.4806 46.5242 94.5312 46.5242Z" fill="black"/>
</svg>
