<svg width="142" height="119" viewBox="0 0 142 119" fill="none" xmlns="http://www.w3.org/2000/svg">
<path d="M0 98.967C0 110.013 8.95431 118.967 20 118.967H117.415C130.098 118.967 139.578 107.314 136.997 94.8968L124.246 33.5536C122.554 25.414 116.003 19.1698 107.791 17.8699L23.1273 4.46633C10.9856 2.54413 0 11.9274 0 24.2203V98.967Z" fill="#FEFFC2"/>
<g clip-path="url(#clip0)">
<path d="M92.2041 42.4396C95.1973 42.4396 97.6237 40.0098 97.6244 37.0125C97.6244 34.0152 95.198 31.5854 92.2048 31.5854C89.2116 31.5854 86.7852 34.0152 86.7852 37.0125C86.7886 40.0084 89.213 42.4361 92.2041 42.4396ZM92.2041 34.075C93.8245 34.075 95.1376 35.3899 95.1383 37.0125C95.1383 38.6345 93.8245 39.9501 92.2048 39.9501C90.5844 39.9501 89.2713 38.6352 89.2713 37.0125C89.2727 35.3913 90.5851 34.0771 92.2041 34.075Z" fill="black"/>
<path d="M96.2436 41.5623C95.8427 41.5775 95.4722 41.7797 95.2419 42.1082C95.0165 42.4222 94.7446 42.7007 94.4366 42.9341C93.6333 43.5322 92.6247 43.7837 91.6349 43.6329C90.6422 43.4718 89.7543 42.9216 89.1668 42.1034C88.9358 41.7755 88.5654 41.5755 88.1652 41.5623C85.4085 41.5623 83.2242 43.8872 83.2242 46.6483V51.9649C83.2145 52.2796 83.3372 52.5838 83.562 52.804C83.7874 53.0235 84.094 53.1388 84.4083 53.1207H99.9998C100.311 53.1381 100.615 53.0221 100.836 52.8019C101.058 52.581 101.175 52.2775 101.16 51.9649V46.6483C101.16 43.8872 99.0002 41.5623 96.2436 41.5623ZM98.6735 50.6312H85.7103V46.6483C85.6992 45.4695 86.5122 44.4435 87.6609 44.1865C89.8209 46.5038 93.3711 46.8365 95.9231 44.9596C96.22 44.729 96.4947 44.4699 96.7424 44.1865C97.8869 44.4456 98.6929 45.473 98.6735 46.6483V50.6312Z" fill="black"/>
<path d="M92.2915 24.6658C85.6524 24.6623 79.5703 28.3799 76.5376 34.2939C73.5056 40.2079 74.0335 47.3236 77.9055 52.7243L66.0001 56.4836L54.0947 52.7243C58.6861 46.3039 58.4821 37.6163 53.5953 31.4189C48.7084 25.2208 40.3164 23.0084 33.0148 25.9911C25.7133 28.9745 21.2634 36.4347 22.1007 44.2867C22.9386 52.1387 28.8626 58.4896 36.6289 59.8608L32.8449 63.6486C28.3652 68.1344 28.5934 75.669 33.352 80.4431C38.5385 85.6465 44.1295 91.2549 48.7895 95.9206C48.3608 97.5933 48.8388 99.3687 50.0499 100.599L50.111 100.66C51.0266 101.571 52.2676 102.079 53.5585 102.071C53.974 102.07 54.3881 102.02 54.7918 101.92L55.2601 102.388C56.0023 103.131 56.9436 103.642 57.9702 103.859C58.8581 104.635 59.9985 105.058 61.177 105.049C61.2367 105.049 61.297 105.048 61.3574 105.046C62.7218 104.994 64.0148 104.423 64.9742 103.451L66.0001 102.424L67.0267 103.451C67.9861 104.423 69.2791 104.994 70.6428 105.045C70.7032 105.047 70.7628 105.049 70.8232 105.049C72.001 105.058 73.1414 104.635 74.0286 103.861C75.0552 103.64 75.9959 103.128 76.7402 102.387L77.2112 101.917C78.8822 102.346 80.6559 101.869 81.8886 100.66L81.951 100.598C83.158 99.3653 83.6345 97.5926 83.2086 95.9206C87.9034 91.2208 93.4021 85.7062 98.6483 80.4424C103.407 75.6676 103.635 68.133 99.1553 63.6479L95.3714 59.8608C104.413 58.2618 110.735 50.009 109.933 40.8497C109.132 31.6912 101.473 24.6651 92.2915 24.6658ZM24.4876 42.3974C24.4869 33.9792 31.3022 27.1546 39.7087 27.1546C48.1153 27.1546 54.9306 33.9792 54.9306 42.3974C54.9306 50.8155 48.1153 57.6394 39.7087 57.6394C31.3063 57.6304 24.4966 50.8113 24.4876 42.3974ZM63.2157 101.691C63.206 101.701 63.1949 101.71 63.1845 101.719C63.4779 101.266 63.6923 100.765 63.8185 100.238L64.2424 100.663L63.2157 101.691ZM80.1939 98.8373L80.1308 98.8999C79.1562 99.8758 77.4852 99.7911 76.4072 98.7109L58.435 80.714L56.6772 82.4742L72.3271 98.1462C73.4043 99.2256 73.4883 100.898 72.5268 101.861L72.5081 101.879C72.0357 102.345 71.3899 102.591 70.7282 102.558C69.9936 102.526 69.2985 102.217 68.7845 101.69L53.1354 86.0202L51.3776 87.7804L60.602 97.0181C61.1271 97.5329 61.4365 98.2289 61.4677 98.9645C61.501 99.6278 61.2554 100.275 60.7893 100.748L60.731 100.806C59.7592 101.779 58.0916 101.697 57.0137 100.623C51.9769 95.6032 43.0675 86.6662 35.1118 78.6843C31.3202 74.8806 31.0913 68.9249 34.6026 65.4087L39.8766 60.1275C44.5831 60.0852 49.0774 58.1625 52.3619 54.7873L61.8666 57.7888L56.6009 59.4517C56.0425 59.6281 55.6832 60.1706 55.7373 60.7541L55.8712 62.1913C55.9399 64.0153 56.7584 65.7303 58.1332 66.9293C59.5428 68.1483 61.3949 68.7256 63.2463 68.5241L63.9919 68.4512L81.1894 85.6958C82.2666 86.776 82.3499 88.4479 81.3759 89.4232C81.3725 89.4266 81.3697 89.4301 81.3662 89.4336C80.8945 89.8934 80.2529 90.1358 79.5953 90.1025C78.8996 90.0733 78.2378 89.7927 77.7328 89.3127L72.1196 83.6939C67.8418 79.4116 64.1466 75.7141 63.7915 75.355L62.0275 77.1089C62.3861 77.4708 66.082 81.1711 70.3619 85.4548L75.8953 90.993L75.8939 90.9944C75.9293 91.0298 75.9646 91.0652 76.0014 91.1C77.4942 92.5941 78.8774 93.9785 80.0053 95.1093C81.0839 96.1901 81.1678 97.8614 80.1939 98.8373ZM96.8884 78.6843C91.8469 83.7425 86.5729 89.0328 82.0037 93.6076C81.9267 93.52 81.8476 93.4332 81.7637 93.3498C81.4814 93.0664 81.1831 92.7684 80.8703 92.4552C81.7276 92.2489 82.5108 91.8092 83.133 91.184C83.1379 91.1792 83.1427 91.175 83.1476 91.1701C85.076 89.2231 84.9886 85.9827 82.9478 83.937L67.7572 68.7033L68.7595 67.6982C69.1299 67.3266 69.2277 66.7612 69.0037 66.286C68.7789 65.8109 68.2809 65.5282 67.7586 65.5796L63.0035 66.0464C61.8326 66.1798 60.6589 65.8186 59.764 65.051C58.8983 64.2911 58.3878 63.2054 58.3531 62.053C58.3531 62.0322 58.351 62.0113 58.349 61.9905L58.306 61.5237L79.6383 54.7873C82.9221 58.1625 87.4164 60.0845 92.1222 60.1275L97.3962 65.4087C100.908 68.9249 100.68 74.8806 96.8884 78.6843ZM92.2915 57.6394C83.8849 57.6394 77.0704 50.8155 77.0704 42.3974C77.0704 33.9792 83.8849 27.1553 92.2915 27.1553C100.698 27.1553 107.513 33.9792 107.513 42.3974C107.504 50.8113 100.694 57.6304 92.2915 57.6394Z" fill="black"/>
<path d="M39.6218 42.4396C42.615 42.4396 45.0414 40.0098 45.0414 37.0125C45.0414 34.0152 42.615 31.5854 39.6218 31.5854C36.6286 31.5854 34.2021 34.0152 34.2021 37.0125C34.2056 40.0084 36.63 42.4361 39.6218 42.4396ZM39.6218 34.075C41.2415 34.075 42.5553 35.3906 42.5553 37.0125C42.5553 38.6352 41.2415 39.9501 39.6218 39.9501C38.0014 39.9501 36.6883 38.6352 36.6883 37.0125C36.6896 35.3913 38.0021 34.0771 39.6218 34.075Z" fill="black"/>
<path d="M48.5967 51.9649V46.6483C48.5967 43.8872 46.4179 41.5623 43.6613 41.5623C43.2603 41.5775 42.8899 41.7797 42.6596 42.1082C42.4342 42.4222 42.1623 42.7007 41.8543 42.9341C40.168 44.1567 37.8116 43.783 36.5852 42.0978C36.3535 41.772 35.9824 41.5734 35.5828 41.5623C32.8255 41.5623 30.6613 43.8872 30.6613 46.6483V51.9649C30.6474 52.2775 30.7653 52.5817 30.9873 52.8019C31.2093 53.0221 31.5138 53.1381 31.8259 53.1207H47.4175C47.731 53.1388 48.0376 53.0235 48.2617 52.8033C48.4857 52.5838 48.6078 52.2796 48.5967 51.9649ZM46.1106 50.6312H33.1474V46.6483C33.1321 45.4716 33.9416 44.4449 35.0882 44.1865C37.2462 46.5038 40.7957 46.8365 43.3457 44.9596C43.6453 44.729 43.9221 44.4699 44.1718 44.1865C45.3185 44.4449 46.1273 45.4716 46.1106 46.6483V50.6312Z" fill="black"/>
</g>
<defs>
<clipPath id="clip0">
<rect width="88" height="88.1209" fill="white" transform="translate(22 20.8328)"/>
</clipPath>
</defs>
</svg>
