<svg width="506" height="507" viewBox="0 0 506 507" fill="none" xmlns="http://www.w3.org/2000/svg">
<path d="M36.391 429.712C22.7397 433.514 14.7132 447.72 18.4996 461.38C22.2859 475.039 36.4735 483.06 50.1248 479.258C63.776 475.456 71.8023 461.249 68.0159 447.589C64.2295 433.929 50.0422 425.91 36.391 429.712ZM46.1614 464.959C40.3888 466.567 34.3901 463.176 32.789 457.4C31.1879 451.624 34.5815 445.617 40.3541 444.009C46.1257 442.402 52.1253 445.793 53.7264 451.569C55.3275 457.345 51.9339 463.352 46.1614 464.959Z" fill="#B1F1FF"/>
<path d="M441.928 193.697C438.966 180.138 431.178 167.896 419.411 158.294C416.453 155.881 411.762 155.967 408.93 158.488C406.1 161.009 406.202 165.008 409.159 167.421C418.672 175.183 424.963 185.068 427.354 196.01C428.481 201.168 433.31 205.224 439.373 206.102C469.388 210.456 491.173 232.48 491.173 258.471C491.173 284.462 469.388 306.485 439.374 310.84C433.311 311.719 428.48 315.774 427.354 320.931C420.976 350.123 387.663 369.135 353.598 363.193C347.819 362.184 341.922 364.19 338.572 368.293C322.064 388.513 293.15 398.802 264.408 394.285C260.384 393.647 256.516 395.918 255.773 399.351C255.03 402.781 257.69 406.077 261.716 406.71C267.034 407.546 272.481 407.971 277.901 407.971C306.883 407.971 334.081 395.865 350.681 375.582C392.638 382.873 434.009 359.529 441.861 323.296C479.024 317.906 505.998 290.643 505.998 258.471C505.998 226.299 479.024 199.037 441.928 193.697Z" fill="#B1F1FF"/>
<path d="M385.965 142.251C374.515 139.654 362.335 139.337 350.685 141.361C315.461 98.3209 240.65 98.1566 205.235 141.234C163.226 134.304 122.533 157.859 114.779 193.648C77.6147 199.038 50.6406 226.3 50.6406 258.473C50.6406 290.645 77.6147 317.908 114.711 323.248C122.512 358.962 163.056 382.662 205.235 375.713C211.024 382.755 218.135 388.872 226.369 393.894C227.676 394.691 229.183 395.074 230.676 395.074C237.843 395.07 240.859 387.192 234.994 383.615C228.103 379.413 222.157 374.293 217.323 368.398C214.004 364.349 208.188 362.341 202.507 363.291C198.583 363.943 194.561 364.274 190.557 364.274C160.539 364.274 134.77 346.046 129.283 320.933C128.156 315.776 123.326 311.72 117.263 310.842C87.2484 306.488 65.4638 284.464 65.4638 258.472C65.4638 232.481 87.2484 210.458 117.263 206.104C123.325 205.225 128.156 201.17 129.284 196.012C135.631 166.957 168.63 148.018 202.506 153.655C208.183 154.601 214.004 152.595 217.323 148.547C231.155 131.68 253.802 121.609 277.902 121.609C302.067 121.609 324.747 131.718 338.574 148.654C341.927 152.757 347.827 154.758 353.6 153.75C363.032 152.105 372.888 152.361 382.149 154.462C386.105 155.361 390.166 153.354 391.22 149.983C392.273 146.611 389.921 143.15 385.965 142.251Z" fill="#B1F1FF"/>
<path d="M165.918 411.221C164.173 407.516 159.758 405.931 156.05 407.685C152.346 409.436 150.76 413.859 152.507 417.565C160.288 434.069 151.209 453.36 133.959 458.164C118.475 462.477 102.382 453.38 98.0868 437.886C92.489 417.691 109.495 398.279 130.205 401.171C134.259 401.739 138.008 398.906 138.579 394.847C139.15 390.789 136.324 387.039 132.269 386.472C100.962 382.095 75.3622 411.435 83.7971 441.864C90.277 465.241 114.557 478.969 137.922 472.462C163.979 465.205 177.631 436.062 165.918 411.221Z" fill="#B1F1FF"/>
</svg>
