<svg width="65" height="66" viewBox="0 0 65 66" fill="none" xmlns="http://www.w3.org/2000/svg">
<circle cx="2.5" cy="2.50293" r="2.5" fill="white" fill-opacity="0.4"/>
<circle cx="2.5" cy="14.5029" r="2.5" fill="white" fill-opacity="0.4"/>
<circle cx="2.5" cy="26.5029" r="2.5" fill="white" fill-opacity="0.4"/>
<circle cx="2.5" cy="38.5029" r="2.5" fill="white" fill-opacity="0.4"/>
<circle cx="2.5" cy="50.5029" r="2.5" fill="white" fill-opacity="0.4"/>
<circle cx="2.5" cy="62.5029" r="2.5" fill="white" fill-opacity="0.4"/>
<circle cx="14.5" cy="2.50293" r="2.5" fill="white" fill-opacity="0.4"/>
<circle cx="14.5" cy="14.5029" r="2.5" fill="white" fill-opacity="0.4"/>
<circle cx="14.5" cy="26.5029" r="2.5" fill="white" fill-opacity="0.4"/>
<circle cx="14.5" cy="38.5029" r="2.5" fill="white" fill-opacity="0.4"/>
<circle cx="14.5" cy="50.5029" r="2.5" fill="white" fill-opacity="0.4"/>
<circle cx="14.5" cy="62.5029" r="2.5" fill="white" fill-opacity="0.4"/>
<circle cx="26.5" cy="2.50293" r="2.5" fill="white" fill-opacity="0.4"/>
<circle cx="26.5" cy="14.5029" r="2.5" fill="white" fill-opacity="0.4"/>
<circle cx="26.5" cy="26.5029" r="2.5" fill="white" fill-opacity="0.4"/>
<circle cx="26.5" cy="38.5029" r="2.5" fill="white" fill-opacity="0.4"/>
<circle cx="26.5" cy="50.5029" r="2.5" fill="white" fill-opacity="0.4"/>
<circle cx="26.5" cy="62.5029" r="2.5" fill="white" fill-opacity="0.4"/>
<circle cx="38.5" cy="2.50293" r="2.5" fill="white" fill-opacity="0.4"/>
<circle cx="38.5" cy="14.5029" r="2.5" fill="white" fill-opacity="0.4"/>
<circle cx="38.5" cy="26.5029" r="2.5" fill="white" fill-opacity="0.4"/>
<circle cx="38.5" cy="38.5029" r="2.5" fill="white" fill-opacity="0.4"/>
<circle cx="38.5" cy="50.5029" r="2.5" fill="white" fill-opacity="0.4"/>
<circle cx="38.5" cy="62.5029" r="2.5" fill="white" fill-opacity="0.4"/>
<circle cx="50.5" cy="2.50293" r="2.5" fill="white" fill-opacity="0.4"/>
<circle cx="50.5" cy="14.5029" r="2.5" fill="white" fill-opacity="0.4"/>
<circle cx="50.5" cy="26.5029" r="2.5" fill="white" fill-opacity="0.4"/>
<circle cx="50.5" cy="38.5029" r="2.5" fill="white" fill-opacity="0.4"/>
<circle cx="50.5" cy="50.5029" r="2.5" fill="white" fill-opacity="0.4"/>
<circle cx="50.5" cy="62.5029" r="2.5" fill="white" fill-opacity="0.4"/>
<circle cx="62.5" cy="2.50293" r="2.5" fill="white" fill-opacity="0.4"/>
<circle cx="62.5" cy="14.5029" r="2.5" fill="white" fill-opacity="0.4"/>
<circle cx="62.5" cy="26.5029" r="2.5" fill="white" fill-opacity="0.4"/>
<circle cx="62.5" cy="38.5029" r="2.5" fill="white" fill-opacity="0.4"/>
<circle cx="62.5" cy="50.5029" r="2.5" fill="white" fill-opacity="0.4"/>
<circle cx="62.5" cy="62.5029" r="2.5" fill="white" fill-opacity="0.4"/>
</svg>
