<svg width="467" height="513" viewBox="0 0 467 513" fill="none" xmlns="http://www.w3.org/2000/svg">
<path d="M447.48 378.278C447.437 378.585 447.341 378.875 447.192 379.148C447.033 379.421 446.839 379.652 446.611 379.842C446.383 380.032 446.121 380.181 445.825 380.289C445.528 380.397 445.22 380.444 444.9 380.432C444.58 380.419 444.294 380.348 444.041 380.218C443.778 380.089 443.561 379.921 443.389 379.715C443.207 379.508 443.076 379.264 442.995 378.982C442.914 378.7 442.896 378.406 442.939 378.099C442.984 377.782 443.086 377.487 443.245 377.215C443.402 376.952 443.6 376.726 443.838 376.536C444.066 376.346 444.327 376.202 444.622 376.104C444.909 375.996 445.212 375.948 445.532 375.961C445.852 375.974 446.143 376.045 446.406 376.175C446.67 376.295 446.889 376.458 447.06 376.664C447.232 376.87 447.359 377.109 447.441 377.381C447.512 377.662 447.525 377.961 447.48 378.278Z" fill="white" fill-opacity="0.3"/>
<path d="M421.407 377.03C421.34 377.333 421.221 377.615 421.05 377.877C420.87 378.137 420.659 378.354 420.416 378.528C420.174 378.702 419.9 378.832 419.596 378.919C419.291 379.007 418.98 379.033 418.662 378.999C418.344 378.965 418.063 378.875 417.821 378.729C417.569 378.582 417.365 378.4 417.21 378.183C417.045 377.966 416.933 377.714 416.874 377.428C416.816 377.141 416.821 376.847 416.888 376.545C416.958 376.232 417.083 375.946 417.263 375.685C417.441 375.435 417.657 375.223 417.909 375.05C418.151 374.876 418.424 374.751 418.726 374.673C419.021 374.585 419.327 374.558 419.645 374.592C419.963 374.627 420.249 374.717 420.501 374.864C420.755 375.002 420.96 375.178 421.115 375.395C421.271 375.612 421.379 375.858 421.439 376.134C421.488 376.419 421.477 376.718 421.407 377.03Z" fill="white" fill-opacity="0.3"/>
<path d="M395.646 374.057C395.555 374.353 395.414 374.626 395.224 374.874C395.024 375.121 394.796 375.322 394.54 375.479C394.285 375.635 394.002 375.746 393.691 375.812C393.38 375.877 393.067 375.882 392.752 375.826C392.437 375.77 392.164 375.661 391.933 375.499C391.693 375.336 391.503 375.141 391.365 374.915C391.217 374.687 391.125 374.428 391.089 374.14C391.052 373.851 391.08 373.558 391.171 373.262C391.264 372.956 391.411 372.68 391.612 372.433C391.809 372.196 392.04 372 392.306 371.845C392.561 371.689 392.843 371.583 393.151 371.527C393.452 371.459 393.76 371.454 394.075 371.51C394.39 371.565 394.668 371.675 394.908 371.839C395.152 371.993 395.343 372.183 395.481 372.41C395.619 372.636 395.708 372.888 395.747 373.168C395.773 373.454 395.739 373.751 395.646 374.057Z" fill="white" fill-opacity="0.3"/>
<path d="M370.332 369.361C370.219 369.649 370.058 369.911 369.849 370.144C369.631 370.376 369.388 370.561 369.121 370.698C368.854 370.836 368.563 370.926 368.247 370.97C367.932 371.013 367.619 370.996 367.308 370.919C366.998 370.841 366.734 370.713 366.516 370.536C366.288 370.356 366.114 370.149 365.993 369.914C365.862 369.677 365.79 369.413 365.775 369.123C365.761 368.833 365.811 368.544 365.924 368.255C366.041 367.958 366.208 367.693 366.427 367.461C366.642 367.239 366.888 367.061 367.165 366.925C367.432 366.788 367.721 366.702 368.033 366.668C368.339 366.622 368.647 366.637 368.957 366.715C369.267 366.793 369.536 366.922 369.764 367.102C369.996 367.272 370.172 367.475 370.293 367.71C370.414 367.945 370.483 368.202 370.501 368.483C370.505 368.77 370.449 369.063 370.332 369.361Z" fill="white" fill-opacity="0.3"/>
<path d="M345.608 362.961C345.474 363.24 345.293 363.489 345.067 363.707C344.832 363.922 344.576 364.088 344.299 364.206C344.022 364.324 343.725 364.394 343.407 364.414C343.088 364.435 342.777 364.396 342.473 364.296C342.169 364.197 341.915 364.051 341.71 363.858C341.496 363.663 341.338 363.444 341.234 363.202C341.122 362.956 341.069 362.688 341.076 362.399C341.084 362.109 341.155 361.824 341.289 361.545C341.428 361.257 341.615 361.005 341.851 360.79C342.082 360.584 342.34 360.424 342.627 360.309C342.904 360.191 343.199 360.126 343.513 360.115C343.821 360.091 344.128 360.128 344.432 360.228C344.736 360.328 344.995 360.475 345.209 360.671C345.427 360.857 345.588 361.071 345.691 361.314C345.795 361.556 345.845 361.818 345.842 362.099C345.825 362.385 345.747 362.673 345.608 362.961Z" fill="white" fill-opacity="0.3"/>
<path d="M321.613 354.879C321.459 355.148 321.261 355.382 321.019 355.583C320.769 355.78 320.501 355.928 320.216 356.025C319.931 356.123 319.63 356.17 319.311 356.168C318.992 356.166 318.684 356.104 318.388 355.982C318.092 355.861 317.849 355.697 317.659 355.491C317.46 355.28 317.318 355.051 317.233 354.801C317.138 354.548 317.105 354.278 317.134 353.989C317.162 353.701 317.254 353.423 317.408 353.154C317.568 352.877 317.773 352.639 318.024 352.442C318.269 352.254 318.539 352.113 318.833 352.019C319.118 351.921 319.417 351.878 319.731 351.889C320.041 351.888 320.344 351.948 320.64 352.069C320.936 352.19 321.184 352.356 321.383 352.567C321.587 352.768 321.732 352.994 321.817 353.243C321.902 353.492 321.933 353.757 321.91 354.036C321.872 354.321 321.773 354.601 321.613 354.879Z" fill="white" fill-opacity="0.3"/>
<path d="M298.476 345.156C298.302 345.413 298.088 345.633 297.833 345.816C297.569 345.994 297.291 346.122 297 346.198C296.71 346.274 296.405 346.3 296.088 346.274C295.77 346.248 295.468 346.164 295.182 346.021C294.895 345.878 294.665 345.697 294.491 345.476C294.307 345.252 294.182 345.012 294.115 344.757C294.039 344.497 294.026 344.225 294.076 343.939C294.125 343.654 294.236 343.382 294.41 343.125C294.589 342.86 294.811 342.638 295.075 342.46C295.333 342.29 295.612 342.169 295.912 342.097C296.203 342.021 296.505 341.999 296.817 342.033C297.125 342.055 297.423 342.137 297.709 342.28C297.995 342.423 298.23 342.606 298.414 342.831C298.602 343.047 298.73 343.283 298.797 343.538C298.864 343.793 298.876 344.059 298.832 344.337C298.774 344.618 298.655 344.891 298.476 345.156Z" fill="white" fill-opacity="0.3"/>
<path d="M276.333 333.838C276.142 334.082 275.912 334.286 275.645 334.45C275.37 334.608 275.084 334.715 274.789 334.77C274.494 334.825 274.189 334.828 273.875 334.779C273.561 334.729 273.266 334.623 272.991 334.459C272.717 334.294 272.5 334.096 272.343 333.863C272.176 333.625 272.069 333.376 272.021 333.116C271.964 332.851 271.97 332.577 272.04 332.295C272.11 332.013 272.24 331.75 272.431 331.506C272.629 331.255 272.865 331.049 273.141 330.89C273.411 330.74 273.697 330.639 274.001 330.59C274.296 330.535 274.598 330.536 274.906 330.593C275.212 330.637 275.502 330.741 275.777 330.905C276.051 331.069 276.272 331.27 276.438 331.508C276.611 331.739 276.721 331.984 276.769 332.244C276.818 332.504 276.81 332.771 276.746 333.045C276.668 333.322 276.53 333.586 276.333 333.838Z" fill="white" fill-opacity="0.3"/>
<path d="M255.316 320.979C255.108 321.209 254.865 321.396 254.588 321.54C254.302 321.679 254.011 321.765 253.714 321.798C253.416 321.831 253.113 321.811 252.804 321.738C252.495 321.666 252.21 321.537 251.949 321.352C251.687 321.168 251.487 320.953 251.347 320.708C251.199 320.457 251.11 320.2 251.08 319.936C251.043 319.666 251.069 319.393 251.159 319.116C251.248 318.839 251.397 318.585 251.605 318.355C251.819 318.117 252.069 317.929 252.355 317.791C252.634 317.659 252.926 317.58 253.231 317.553C253.529 317.52 253.828 317.544 254.131 317.624C254.432 317.69 254.713 317.816 254.974 318.001C255.235 318.186 255.44 318.403 255.588 318.654C255.743 318.897 255.835 319.151 255.865 319.415C255.894 319.679 255.867 319.946 255.784 320.215C255.686 320.487 255.53 320.741 255.316 320.979Z" fill="white" fill-opacity="0.3"/>
<path d="M235.54 306.65C235.317 306.865 235.063 307.035 234.777 307.159C234.483 307.277 234.188 307.341 233.89 307.353C233.593 307.364 233.293 307.321 232.991 307.226C232.69 307.13 232.416 306.98 232.17 306.775C231.924 306.571 231.74 306.34 231.619 306.084C231.49 305.822 231.421 305.557 231.411 305.29C231.393 305.017 231.439 304.745 231.548 304.474C231.657 304.202 231.823 303.959 232.046 303.744C232.276 303.521 232.538 303.351 232.832 303.233C233.118 303.122 233.414 303.065 233.719 303.06C234.017 303.049 234.313 303.095 234.607 303.197C234.901 303.286 235.171 303.433 235.417 303.638C235.663 303.843 235.851 304.076 235.98 304.339C236.116 304.594 236.189 304.855 236.199 305.122C236.209 305.389 236.163 305.655 236.061 305.919C235.944 306.184 235.77 306.427 235.54 306.65Z" fill="white" fill-opacity="0.3"/>
<path d="M217.124 290.928C216.887 291.128 216.623 291.28 216.33 291.383C216.03 291.48 215.732 291.523 215.436 291.512C215.14 291.502 214.846 291.437 214.554 291.319C214.262 291.201 214.002 291.03 213.773 290.806C213.544 290.583 213.378 290.338 213.277 290.072C213.168 289.799 213.119 289.528 213.129 289.259C213.131 288.984 213.197 288.714 213.325 288.449C213.453 288.185 213.635 287.953 213.872 287.753C214.117 287.546 214.389 287.395 214.689 287.298C214.981 287.208 215.279 287.172 215.582 287.189C215.878 287.2 216.168 287.268 216.452 287.392C216.737 287.504 216.994 287.671 217.223 287.895C217.452 288.118 217.621 288.366 217.73 288.639C217.846 288.906 217.899 289.174 217.889 289.442C217.88 289.711 217.815 289.974 217.694 290.232C217.559 290.49 217.369 290.722 217.124 290.928Z" fill="white" fill-opacity="0.3"/>
<path d="M200.174 273.898C199.925 274.082 199.651 274.216 199.353 274.299C199.049 274.374 198.751 274.396 198.458 274.363C198.166 274.331 197.879 274.245 197.599 274.105C197.318 273.965 197.073 273.774 196.863 273.533C196.653 273.292 196.507 273.034 196.427 272.759C196.339 272.477 196.311 272.201 196.34 271.931C196.363 271.654 196.448 271.388 196.595 271.131C196.742 270.875 196.94 270.655 197.19 270.471C197.447 270.281 197.728 270.149 198.033 270.073C198.329 270.004 198.627 269.989 198.926 270.029C199.218 270.061 199.5 270.15 199.773 270.296C200.047 270.428 200.289 270.615 200.499 270.857C200.709 271.098 200.858 271.36 200.945 271.642C201.04 271.918 201.073 272.191 201.044 272.461C201.014 272.73 200.93 272.99 200.791 273.241C200.638 273.489 200.432 273.709 200.174 273.898Z" fill="white" fill-opacity="0.3"/>
<path d="M184.788 255.655C184.527 255.822 184.246 255.937 183.945 255.999C183.638 256.053 183.341 256.054 183.053 256C182.766 255.947 182.489 255.84 182.222 255.679C181.955 255.518 181.727 255.309 181.537 255.051C181.347 254.793 181.223 254.523 181.164 254.241C181.099 253.951 181.092 253.672 181.142 253.403C181.186 253.126 181.29 252.864 181.455 252.616C181.62 252.369 181.833 252.162 182.094 251.995C182.364 251.823 182.652 251.709 182.959 251.655C183.258 251.606 183.554 251.613 183.847 251.674C184.134 251.727 184.406 251.837 184.665 252.004C184.926 252.156 185.152 252.362 185.341 252.619C185.531 252.877 185.658 253.151 185.723 253.441C185.796 253.726 185.808 254.003 185.758 254.271C185.708 254.54 185.605 254.796 185.449 255.038C185.278 255.277 185.058 255.483 184.788 255.655Z" fill="white" fill-opacity="0.3"/>
<path d="M171.06 236.302C170.789 236.452 170.502 236.547 170.199 236.589C169.891 236.622 169.597 236.601 169.317 236.527C169.037 236.454 168.771 236.326 168.519 236.146C168.267 235.965 168.057 235.739 167.889 235.466C167.722 235.194 167.62 234.914 167.583 234.626C167.542 234.329 167.556 234.048 167.626 233.781C167.692 233.505 167.815 233.249 167.998 233.012C168.18 232.774 168.407 232.581 168.678 232.431C168.959 232.277 169.253 232.183 169.561 232.15C169.86 232.122 170.153 232.149 170.438 232.232C170.718 232.306 170.98 232.435 171.223 232.621C171.469 232.793 171.676 233.015 171.844 233.288C172.012 233.56 172.116 233.845 172.158 234.141C172.208 234.432 172.198 234.712 172.128 234.979C172.058 235.245 171.936 235.495 171.762 235.728C171.575 235.956 171.341 236.148 171.06 236.302Z" fill="white" fill-opacity="0.3"/>
<path d="M159.066 215.947C158.785 216.079 158.494 216.155 158.19 216.176C157.883 216.188 157.593 216.147 157.322 216.054C157.051 215.96 156.798 215.814 156.563 215.615C156.328 215.416 156.138 215.174 155.994 214.888C155.849 214.603 155.771 214.314 155.757 214.022C155.74 213.721 155.776 213.439 155.867 213.176C155.953 212.903 156.096 212.654 156.296 212.428C156.495 212.202 156.735 212.023 157.016 211.891C157.305 211.755 157.604 211.681 157.911 211.669C158.21 211.662 158.497 211.709 158.773 211.812C159.044 211.905 159.293 212.054 159.519 212.257C159.749 212.447 159.937 212.684 160.081 212.97C160.225 213.256 160.306 213.549 160.324 213.85C160.351 214.146 160.319 214.426 160.228 214.69C160.137 214.953 159.997 215.196 159.806 215.418C159.602 215.635 159.356 215.811 159.066 215.947Z" fill="white" fill-opacity="0.3"/>
<path d="M148.876 194.709C148.587 194.822 148.292 194.879 147.99 194.879C147.685 194.87 147.401 194.81 147.14 194.697C146.879 194.585 146.64 194.421 146.424 194.205C146.207 193.99 146.039 193.733 145.919 193.437C145.799 193.14 145.744 192.845 145.755 192.55C145.762 192.247 145.821 191.966 145.932 191.707C146.039 191.44 146.201 191.199 146.416 190.985C146.632 190.772 146.884 190.608 147.173 190.495C147.471 190.378 147.772 190.324 148.078 190.333C148.374 190.345 148.655 190.412 148.92 190.534C149.181 190.646 149.415 190.812 149.622 191.031C149.835 191.238 150.001 191.489 150.121 191.786C150.241 192.083 150.298 192.383 150.291 192.686C150.294 192.986 150.239 193.265 150.128 193.524C150.017 193.782 149.858 194.017 149.652 194.227C149.432 194.431 149.174 194.592 148.876 194.709Z" fill="white" fill-opacity="0.3"/>
<path d="M140.547 172.705C140.252 172.799 139.955 172.837 139.656 172.817C139.353 172.788 139.078 172.708 138.828 172.578C138.578 172.448 138.355 172.267 138.158 172.036C137.961 171.805 137.815 171.537 137.721 171.231C137.626 170.926 137.596 170.626 137.63 170.331C137.662 170.027 137.743 169.749 137.875 169.497C138.003 169.235 138.183 169.005 138.414 168.805C138.645 168.604 138.909 168.457 139.204 168.363C139.509 168.265 139.812 168.231 140.114 168.26C140.407 168.293 140.679 168.379 140.932 168.518C141.182 168.648 141.4 168.83 141.588 169.064C141.782 169.286 141.926 169.549 142.021 169.855C142.115 170.161 142.147 170.465 142.115 170.769C142.093 171.071 142.016 171.347 141.885 171.599C141.754 171.851 141.577 172.076 141.356 172.273C141.121 172.463 140.852 172.607 140.547 172.705Z" fill="white" fill-opacity="0.3"/>
<path d="M134.128 150.064C133.827 150.14 133.529 150.158 133.234 150.118C132.936 150.069 132.669 149.971 132.432 149.824C132.195 149.677 131.989 149.482 131.812 149.238C131.636 148.993 131.513 148.715 131.445 148.402C131.376 148.09 131.371 147.787 131.43 147.494C131.486 147.191 131.59 146.918 131.741 146.674C131.89 146.421 132.087 146.201 132.333 146.016C132.579 145.831 132.852 145.7 133.153 145.625C133.464 145.547 133.767 145.533 134.065 145.582C134.352 145.634 134.616 145.738 134.855 145.895C135.092 146.041 135.293 146.238 135.46 146.485C135.635 146.72 135.756 146.993 135.825 147.306C135.893 147.618 135.899 147.926 135.843 148.228C135.796 148.529 135.697 148.801 135.546 149.045C135.395 149.289 135.201 149.502 134.965 149.685C134.717 149.86 134.438 149.987 134.128 150.064Z" fill="white" fill-opacity="0.3"/>
<path d="M129.651 126.915C129.346 126.971 129.049 126.969 128.759 126.91C128.468 126.842 128.21 126.726 127.987 126.564C127.764 126.401 127.575 126.192 127.42 125.936C127.265 125.68 127.166 125.394 127.124 125.077C127.082 124.759 127.102 124.456 127.184 124.167C127.265 123.868 127.391 123.601 127.561 123.367C127.73 123.123 127.944 122.916 128.204 122.747C128.464 122.578 128.746 122.465 129.051 122.41C129.366 122.352 129.669 122.358 129.96 122.427C130.241 122.497 130.494 122.618 130.719 122.791C130.942 122.953 131.126 123.163 131.272 123.421C131.425 123.667 131.523 123.949 131.566 124.266C131.608 124.583 131.588 124.891 131.507 125.19C131.436 125.487 131.315 125.753 131.145 125.987C130.975 126.221 130.765 126.422 130.515 126.59C130.254 126.749 129.966 126.857 129.651 126.915Z" fill="white" fill-opacity="0.3"/>
<path d="M127.147 103.388C126.839 103.423 126.543 103.402 126.259 103.325C125.975 103.237 125.729 103.105 125.52 102.928C125.312 102.752 125.141 102.53 125.008 102.264C124.875 101.999 124.8 101.706 124.784 101.386C124.768 101.067 124.813 100.765 124.919 100.482C125.024 100.188 125.171 99.9301 125.36 99.7073C125.548 99.4745 125.779 99.2821 126.051 99.13C126.323 98.9779 126.613 98.884 126.921 98.8483C127.239 98.8115 127.54 98.8368 127.824 98.9245C128.098 99.0132 128.34 99.151 128.549 99.3377C128.757 99.5144 128.923 99.7363 129.046 100.003C129.179 100.259 129.253 100.547 129.269 100.866C129.285 101.186 129.24 101.493 129.135 101.786C129.04 102.078 128.898 102.336 128.709 102.559C128.52 102.781 128.295 102.968 128.032 103.119C127.76 103.261 127.464 103.351 127.147 103.388Z" fill="white" fill-opacity="0.3"/>
<path d="M126.621 79.6184C126.311 79.6338 126.018 79.5935 125.742 79.4975C125.466 79.3914 125.232 79.2434 125.038 79.0535C124.845 78.8635 124.693 78.6316 124.582 78.3577C124.471 78.0838 124.421 77.7869 124.432 77.4671C124.442 77.1472 124.511 76.8494 124.64 76.5736C124.769 76.2878 124.936 76.04 125.143 75.8301C125.349 75.6103 125.594 75.4335 125.878 75.2997C126.161 75.1658 126.458 75.0912 126.768 75.0758C127.087 75.0599 127.385 75.105 127.661 75.211C127.926 75.3176 128.156 75.4708 128.349 75.6708C128.542 75.8607 128.689 76.0929 128.79 76.3673C128.901 76.6312 128.951 76.9231 128.941 77.2429C128.931 77.5628 128.861 77.8656 128.732 78.1514C128.613 78.4367 128.451 78.6843 128.244 78.8941C128.038 79.1039 127.798 79.2755 127.525 79.4088C127.242 79.5327 126.94 79.6026 126.621 79.6184Z" fill="white" fill-opacity="0.3"/>
<path d="M128.073 55.7426C127.763 55.7374 127.474 55.6778 127.206 55.5638C126.94 55.4399 126.718 55.2769 126.541 55.0748C126.363 54.8727 126.23 54.6316 126.142 54.3514C126.054 54.0711 126.028 53.7721 126.064 53.4541C126.1 53.1361 126.193 52.844 126.344 52.5778C126.495 52.3016 126.683 52.0658 126.905 51.8705C127.129 51.6652 127.387 51.5052 127.681 51.3907C127.974 51.2762 128.276 51.2215 128.586 51.2267C128.906 51.2321 129.199 51.2967 129.466 51.4207C129.722 51.5444 129.938 51.7123 130.115 51.9243C130.292 52.1264 130.42 52.3675 130.498 52.6475C130.588 52.9178 130.614 53.2119 130.578 53.5299C130.542 53.8478 130.448 54.1449 130.297 54.4211C130.155 54.6974 129.973 54.9333 129.75 55.1287C129.528 55.324 129.275 55.4791 128.991 55.5938C128.699 55.6984 128.393 55.748 128.073 55.7426Z" fill="white" fill-opacity="0.3"/>
<path d="M131.49 31.8949C131.181 31.8689 130.898 31.7901 130.64 31.6586C130.384 31.5173 130.176 31.3401 130.015 31.127C129.854 30.914 129.74 30.665 129.674 30.3801C129.608 30.0952 129.606 29.7957 129.668 29.4817C129.729 29.1676 129.845 28.8831 130.017 28.6282C130.19 28.3635 130.395 28.1414 130.633 27.9619C130.872 27.7726 131.143 27.6308 131.445 27.5365C131.747 27.4423 132.053 27.4082 132.362 27.4342C132.681 27.4611 132.968 27.5452 133.224 27.6864C133.47 27.8269 133.673 28.0086 133.832 28.2315C133.993 28.4446 134.101 28.6931 134.157 28.9772C134.225 29.2523 134.228 29.5468 134.167 29.8609C134.105 30.175 133.988 30.4643 133.815 30.7291C133.651 30.9946 133.451 31.2172 133.213 31.3967C132.976 31.5762 132.711 31.7134 132.419 31.8085C132.119 31.893 131.809 31.9218 131.49 31.8949Z" fill="white" fill-opacity="0.3"/>
<path d="M136.848 8.20854C136.541 8.16148 136.264 8.0637 136.017 7.91522C135.773 7.75709 135.578 7.5665 135.434 7.34345C135.29 7.1204 135.196 6.86488 135.153 6.57689C135.109 6.28891 135.13 5.99076 135.216 5.68246C135.301 5.37416 135.44 5.09905 135.631 4.85713C135.824 4.60559 136.047 4.39865 136.298 4.23632C136.552 4.06436 136.833 3.94183 137.142 3.86873C137.451 3.79562 137.759 3.7826 138.065 3.82966C138.382 3.87825 138.662 3.9816 138.907 4.13972C139.141 4.29633 139.329 4.49097 139.471 4.72366C139.615 4.94672 139.704 5.20148 139.738 5.48794C139.784 5.76629 139.764 6.05962 139.678 6.36792C139.593 6.67623 139.453 6.95615 139.259 7.2077C139.076 7.46077 138.858 7.66846 138.607 7.83079C138.356 7.99311 138.08 8.11159 137.781 8.18621C137.475 8.24968 137.164 8.25713 136.848 8.20854Z" fill="white" fill-opacity="0.3"/>
</svg>
