<svg width="189" height="108" viewBox="0 0 189 108" fill="none" xmlns="http://www.w3.org/2000/svg">
<g clip-path="url(#clip0)">
<path d="M34.0257 54.1087C33.6208 50.0807 34.9553 46.7285 37.9391 44.3598C42.9996 40.3281 51.3551 40.0653 59.1969 43.6653L61.9109 37.7341C51.8424 33.1356 40.848 33.7212 33.887 39.2545C30.9257 41.6082 28.9764 44.6976 28.0618 48.2075C26.821 45.7337 26.1013 42.9521 26.1013 39.9865C26.1013 29.8021 34.3443 21.5435 44.5215 21.5435C45.095 21.5435 45.6273 21.6599 46.1896 21.7124C48.6974 14.8766 55.201 9.97396 62.9005 9.97396C65.6669 9.97396 68.2496 10.6572 70.5887 11.7796C73.3701 8.58877 77.4185 6.53162 81.9804 6.53162C85.5752 6.53162 88.8477 7.80795 91.4417 9.91014C88.3416 11.7233 85.9988 14.1183 84.5819 17.1702C84.4732 17.3992 84.4169 17.6394 84.3232 17.8684L84.3157 17.8647C82.6177 21.0705 79.1428 23.6908 75.6379 24.3852C73.9286 24.7231 71.4358 24.7531 69.2804 22.9737L65.1271 27.989C67.5786 30.0273 70.5962 31.0897 73.8386 31.0897C74.8432 31.0897 75.8703 30.9883 76.9049 30.7819C79.1315 30.3389 81.2644 29.438 83.2137 28.2142C83.6635 31.4801 84.6643 34.3969 85.504 36.4015L91.5054 33.8563C90.4296 31.3224 88.1805 24.8845 90.4895 19.9143C91.5054 17.7183 93.4021 16.0178 96.0673 14.7977C97.1769 14.5199 98.3277 14.3135 99.5272 14.3135C107.924 14.3135 114.72 21.1268 114.72 29.5281C114.72 29.5844 114.701 29.6369 114.701 29.6932C120.511 32.2196 124.579 38.0006 124.579 44.7427C124.579 48.2413 123.476 51.4622 121.61 54.1049H129.069C130.381 51.2069 131.093 48.0273 131.093 44.7502C131.093 36.9984 127.195 29.8809 120.886 25.6728C119.057 15.5222 110.173 7.79669 99.5234 7.79669C99.2161 7.79669 98.8937 7.8042 98.5826 7.81921C94.5154 2.9091 88.4991 0.00732422 81.9842 0.00732422C77.3398 0.00732422 72.8415 1.53516 69.1343 4.29429C67.0913 3.73496 65.0071 3.44966 62.9005 3.44966C54.3839 3.44966 46.542 7.9919 42.175 15.1318C29.5237 16.3218 19.5977 27.013 19.5977 39.9827C19.5977 45.0805 21.172 49.9944 23.9984 54.1049H34.0257V54.1087Z" fill="white"/>
<path d="M105.528 91.3816L104.024 91.4529C103.961 90.3831 103.844 89.4971 103.676 88.7839C103.507 88.0744 103.282 87.5076 103.005 87.0871C102.724 86.6629 102.386 86.3701 101.985 86.2012C101.584 86.0323 101.112 85.9497 100.568 85.9497H98.4091V99.3699C98.4091 100.106 99.1251 100.474 100.561 100.474V101.836H92.6289V100.474C94.0459 100.474 94.7543 100.106 94.7543 99.3699V85.9497H92.5802C92.0404 85.9497 91.5681 86.0323 91.1707 86.2012C90.7734 86.3701 90.4323 86.6629 90.1549 87.0871C89.8775 87.5113 89.6526 88.0744 89.4877 88.7839C89.319 89.4934 89.2065 90.3831 89.1428 91.4529L87.6396 91.3816V84.084H105.531V91.3816H105.528Z" fill="white"/>
<path d="M123.135 89.4443L121.463 89.5419C121.272 87.1356 120.253 85.9306 118.405 85.9306H113.055V91.7192H115.777C116.733 91.7192 117.28 90.7544 117.426 88.8249H118.929L118.569 96.2877H117.111C116.95 94.3094 116.452 93.3221 115.608 93.3221H113.052V99.974H117.542C120.219 99.974 121.7 98.266 121.984 94.8537L123.705 95.0226L123.131 101.84H107.271V100.477C108.688 100.477 109.397 100.109 109.397 99.3734V86.5801C109.397 85.8443 108.688 85.4764 107.271 85.4764V84.0649H123.131V89.4443H123.135Z" fill="white"/>
<path d="M144.271 99.2046C144.271 100 144.039 100.669 143.578 101.202C143.117 101.735 142.326 102.001 141.213 102.001C139.972 102.001 139.087 101.712 138.563 101.127C138.038 100.545 137.775 99.824 137.775 98.9606V97.1663C137.775 95.8261 137.584 94.8501 137.202 94.2345C136.819 93.6226 136.118 93.3147 135.099 93.3147H131.467V99.3435C131.467 100.076 132.351 100.443 134.117 100.443V101.832H125.683V100.443C127.1 100.443 127.808 100.076 127.808 99.3435V86.569C127.808 85.837 127.1 85.4691 125.683 85.4691V84.0576H135.905C136.685 84.0576 137.449 84.1102 138.199 84.2115C138.949 84.3166 139.612 84.5269 140.193 84.8459C140.774 85.165 141.239 85.6155 141.591 86.1973C141.94 86.7792 142.116 87.5488 142.116 88.506C142.116 89.1291 142.019 89.6735 141.827 90.1464C141.636 90.6157 141.385 91.0211 141.074 91.3552C140.763 91.6893 140.407 91.9633 140.009 92.1698C139.612 92.3763 139.196 92.5302 138.765 92.624C139.177 92.7667 139.548 92.9544 139.882 93.1871C140.216 93.4199 140.493 93.7127 140.725 94.073C140.954 94.4334 141.13 94.8651 141.246 95.3757C141.366 95.8862 141.426 96.4906 141.426 97.1925V99.3923C141.426 99.7452 141.498 100 141.644 100.169C141.79 100.338 141.974 100.421 142.202 100.421C142.446 100.421 142.637 100.338 142.783 100.169C142.93 100 143.001 99.7415 143.001 99.3923V98.2436H144.268V99.2046H144.271ZM131.47 86.0697V91.7156H135.388C136.343 91.7156 137.074 91.4979 137.584 91.0587C138.094 90.6195 138.349 89.8762 138.349 88.8213C138.349 86.9894 137.363 86.0697 135.388 86.0697H131.47Z" fill="white"/>
<path d="M164.363 99.2046C164.363 100 164.131 100.669 163.67 101.202C163.209 101.735 162.418 102.001 161.305 102.001C160.064 102.001 159.179 101.712 158.654 101.127C158.13 100.545 157.867 99.824 157.867 98.9606V97.1663C157.867 95.8261 157.676 94.8501 157.294 94.2345C156.911 93.6226 156.21 93.3147 155.191 93.3147H151.558V99.3435C151.558 100.076 152.443 100.443 154.209 100.443V101.832H145.774V100.443C147.191 100.443 147.9 100.076 147.9 99.3435V86.569C147.9 85.837 147.191 85.4691 145.774 85.4691V84.0576H155.997C156.776 84.0576 157.541 84.1102 158.291 84.2115C159.04 84.3166 159.704 84.5269 160.285 84.8459C160.866 85.165 161.331 85.6155 161.683 86.1973C162.032 86.7792 162.208 87.5488 162.208 88.506C162.208 89.1291 162.11 89.6735 161.919 90.1464C161.728 90.6157 161.477 91.0211 161.166 91.3552C160.855 91.6893 160.499 91.9633 160.101 92.1698C159.704 92.3763 159.288 92.5302 158.857 92.624C159.269 92.7667 159.64 92.9544 159.974 93.1871C160.307 93.4199 160.585 93.7127 160.817 94.073C161.046 94.4334 161.222 94.8651 161.338 95.3757C161.458 95.8862 161.518 96.4906 161.518 97.1925V99.3923C161.518 99.7452 161.589 100 161.736 100.169C161.882 100.338 162.065 100.421 162.294 100.421C162.538 100.421 162.729 100.338 162.875 100.169C163.021 100 163.093 99.7415 163.093 99.3923V98.2436H164.36V99.2046H164.363ZM151.558 86.0697V91.7156H155.476C156.431 91.7156 157.162 91.4979 157.672 91.0587C158.182 90.6195 158.437 89.8762 158.437 88.8213C158.437 86.9894 157.451 86.0697 155.476 86.0697H151.558Z" fill="white"/>
<path d="M183.137 99.7304C183.294 100.207 183.95 100.447 185.097 100.447V101.836H176.356V100.447H178.458C178.919 100.447 179.152 100.297 179.152 99.9931C179.152 99.9443 179.129 99.858 179.081 99.7304L178.125 97.1477H170.793L169.908 99.5389C169.874 99.6365 169.859 99.7304 169.859 99.8242C169.859 100.241 170.208 100.447 170.909 100.447H172.39V101.836H165.867V100.425C166.534 100.425 167.029 100.369 167.348 100.256C167.666 100.143 167.865 99.9781 167.944 99.7529L173.915 84.0615H177.379L183.137 99.7304ZM171.407 95.3758H177.521L174.489 86.9558L171.407 95.3758Z" fill="white"/>
<path d="M9.17671 57.3818C10.1663 57.3818 11.0735 57.4569 11.8944 57.6033C12.7153 57.7497 13.4163 58.0125 13.9973 58.3916C14.5783 58.7708 15.0281 59.2851 15.343 59.9345C15.6616 60.5839 15.8191 61.4135 15.8191 62.4196C15.8191 63.4406 15.6616 64.2928 15.343 64.9722C15.0244 65.6517 14.5746 66.1998 13.9935 66.6089C13.4125 67.0181 12.7115 67.3109 11.8906 67.4799C11.0697 67.6488 10.1626 67.7351 9.17295 67.7351H5.59688V72.236C5.59688 72.9493 6.45529 73.3097 8.16836 73.3097V74.6348H-0.0146484V73.3097C1.36106 73.3097 2.04703 72.953 2.04703 72.2398V59.8219C2.04703 59.1086 1.36106 58.752 -0.0146484 58.752V57.3818H9.17671ZM5.59688 59.3339V65.8356H8.77186C10.0239 65.8356 10.9198 65.5466 11.4595 64.9722C11.9993 64.3979 12.2692 63.5495 12.2692 62.4346C12.2692 61.4548 11.9993 60.6965 11.4595 60.1522C10.9198 59.6079 10.0239 59.3376 8.77186 59.3376H5.59688V59.3339Z" fill="white"/>
<path d="M35.5216 72.0783C35.5216 72.8517 35.2967 73.4973 34.8506 74.0154C34.4008 74.5334 33.6361 74.7924 32.5565 74.7924C31.3495 74.7924 30.4948 74.5109 29.985 73.944C29.4752 73.381 29.2203 72.679 29.2203 71.8418V70.1C29.2203 68.8012 29.0367 67.8514 28.6656 67.2545C28.2945 66.6577 27.616 66.3611 26.6264 66.3611H23.1028V72.2097C23.1028 72.923 23.9612 73.2758 25.6742 73.2758V74.6235H17.4912V73.2758C18.8669 73.2758 19.5529 72.9192 19.5529 72.2097V59.8142C19.5529 59.101 18.8632 58.7481 17.4912 58.7481V57.3779H27.4136C28.1708 57.3779 28.913 57.4267 29.6402 57.5281C30.3674 57.6294 31.0121 57.8322 31.5744 58.1437C32.1367 58.4553 32.5903 58.8908 32.9314 59.4538C33.2725 60.0207 33.4412 60.764 33.4412 61.695C33.4412 62.2993 33.3475 62.8286 33.1638 63.2866C32.9764 63.7446 32.7327 64.135 32.4328 64.4579C32.1292 64.7844 31.7881 65.0472 31.3982 65.2462C31.0121 65.4489 30.6073 65.5953 30.1912 65.6891C30.5886 65.828 30.9522 66.012 31.2745 66.2335C31.5969 66.4587 31.8706 66.744 32.0917 67.0931C32.3129 67.4422 32.4816 67.8627 32.5978 68.3582C32.714 68.8537 32.7702 69.4431 32.7702 70.1225V72.2585C32.7702 72.6001 32.8414 72.8517 32.9839 73.0131C33.1263 73.1745 33.3062 73.2571 33.5237 73.2571C33.7598 73.2571 33.9472 73.1745 34.0897 73.0131C34.2321 72.8517 34.2996 72.6001 34.2996 72.2585V71.1436H35.5291V72.0783H35.5216ZM23.099 59.3337V64.8107H26.9C27.8259 64.8107 28.5381 64.5967 29.0329 64.1726C29.5277 63.7484 29.7751 63.0239 29.7751 62.0028C29.7751 60.2234 28.8155 59.3337 26.9 59.3337H23.099Z" fill="white"/>
<path d="M45.9313 57.0366C47.1683 57.0366 48.3154 57.1905 49.3725 57.5021C50.4296 57.8099 51.3442 58.3167 52.1089 59.0187C52.8736 59.7207 53.4734 60.6441 53.9045 61.789C54.3355 62.934 54.553 64.3379 54.553 66.0084C54.553 67.3861 54.3693 68.6249 53.9982 69.7285C53.6271 70.8322 53.0723 71.7781 52.3301 72.5552C51.5879 73.336 50.6545 73.9404 49.5262 74.3646C48.3979 74.7887 47.0859 75.0027 45.5865 75.0027C44.3644 75.0027 43.2286 74.8563 42.179 74.5635C41.1294 74.2707 40.2185 73.7827 39.4538 73.1032C38.6891 72.4238 38.0856 71.5341 37.6471 70.438C37.2047 69.3419 36.9873 67.9867 36.9873 66.38C36.9873 64.9423 37.156 63.6472 37.4971 62.4948C37.8382 61.3423 38.3705 60.3626 39.0977 59.5517C39.8249 58.7409 40.7508 58.1178 41.8791 57.6861C43.0037 57.2506 44.3532 57.0366 45.9313 57.0366ZM46.0475 58.9398C45.0879 58.9398 44.2632 59.0825 43.566 59.3678C42.8725 59.6531 42.3027 60.0698 41.8604 60.6103C41.4218 61.1509 41.0957 61.8191 40.8858 62.6074C40.6759 63.3957 40.5747 64.2929 40.5747 65.2989C40.5747 66.8605 40.6909 68.1444 40.9233 69.1391C41.1557 70.1377 41.4856 70.926 41.9204 71.5078C42.3515 72.0897 42.88 72.4914 43.4985 72.7166C44.117 72.9418 44.8105 73.0545 45.5865 73.0545C46.6061 73.0545 47.4645 72.9043 48.1579 72.6002C48.8514 72.2999 49.41 71.857 49.826 71.2789C50.2421 70.697 50.5458 69.98 50.7295 69.1204C50.9131 68.2607 51.0068 67.2735 51.0068 66.1623C51.0068 64.7246 50.8869 63.5383 50.647 62.6111C50.4071 61.6839 50.0697 60.9482 49.6386 60.4039C49.2075 59.8633 48.6827 59.4842 48.0755 59.2664C47.4645 59.0487 46.7897 58.9398 46.0475 58.9398Z" fill="white"/>
<path d="M106.293 72.0783C106.293 72.8517 106.068 73.4973 105.622 74.0154C105.172 74.5334 104.408 74.7924 103.328 74.7924C102.121 74.7924 101.266 74.5109 100.756 73.944C100.247 73.381 99.9918 72.679 99.9918 71.8418V70.1C99.9918 68.8012 99.8081 67.8514 99.437 67.2545C99.0659 66.6577 98.3874 66.3611 97.3978 66.3611H93.8742V72.2097C93.8742 72.923 94.7326 73.2758 96.4457 73.2758V74.6235H88.2627V73.2758C89.6384 73.2758 90.3244 72.9192 90.3244 72.2097V59.8142C90.3244 59.101 89.6347 58.7481 88.2627 58.7481V57.3779H98.185C98.9422 57.3779 99.6844 57.4267 100.412 57.5281C101.139 57.6294 101.784 57.8322 102.346 58.1437C102.908 58.4553 103.362 58.8908 103.703 59.4538C104.044 60.0207 104.213 60.764 104.213 61.695C104.213 62.2993 104.119 62.8286 103.935 63.2866C103.748 63.7446 103.504 64.135 103.204 64.4579C102.901 64.7844 102.56 65.0472 102.17 65.2462C101.784 65.4489 101.379 65.5953 100.963 65.6891C101.36 65.828 101.724 66.012 102.046 66.2335C102.368 66.4587 102.642 66.744 102.863 67.0931C103.084 67.4422 103.253 67.8627 103.369 68.3582C103.485 68.8537 103.542 69.4431 103.542 70.1225V72.2585C103.542 72.6001 103.613 72.8517 103.755 73.0131C103.898 73.1745 104.078 73.2571 104.295 73.2571C104.531 73.2571 104.719 73.1745 104.861 73.0131C105.004 72.8517 105.075 72.6001 105.075 72.2585V71.1436H106.304V72.0783H106.293ZM93.8667 59.3337V64.8107H97.6677C98.5936 64.8107 99.3058 64.5967 99.8006 64.1726C100.295 63.7484 100.543 63.0239 100.543 62.0028C100.543 60.2234 99.5832 59.3337 97.6677 59.3337H93.8667Z" fill="white"/>
<path d="M123.146 62.6073L121.523 62.7011C121.339 60.3662 120.35 59.195 118.554 59.195H113.363V64.8146H116.005C116.931 64.8146 117.467 63.8798 117.606 62.0066H119.068L118.719 69.2479H117.306C117.152 67.3297 116.665 66.3687 115.844 66.3687H113.363V72.8217H117.722C120.32 72.8217 121.756 71.1662 122.033 67.8552L123.701 68.0167L123.146 74.6348H107.755V73.3097C109.131 73.3097 109.817 72.953 109.817 72.2398V59.8219C109.817 59.1086 109.127 58.752 107.755 58.752V57.3818H123.146V62.6073Z" fill="white"/>
<path d="M139.744 63.4182L138.193 63.6284C138.099 62.8251 137.893 62.1269 137.567 61.5375C137.24 60.9481 136.832 60.4639 136.337 60.0735C135.842 59.6868 135.273 59.4016 134.62 59.2139C133.972 59.0299 133.267 58.9361 132.51 58.9361C131.367 58.9361 130.445 59.1313 129.74 59.5179C129.035 59.9046 128.686 60.5315 128.686 61.3986C128.686 61.9242 128.855 62.3371 129.196 62.6411C129.537 62.9415 129.983 63.1892 130.542 63.3844C131.097 63.5796 131.734 63.7373 132.454 63.8611C133.173 63.985 133.904 64.1202 134.643 64.2666C135.385 64.413 136.116 64.6006 136.832 64.8221C137.552 65.0474 138.189 65.3552 138.744 65.7493C139.298 66.1435 139.748 66.6465 140.089 67.2584C140.43 67.8703 140.599 68.6398 140.599 69.567C140.599 70.4942 140.442 71.3013 140.123 71.9807C139.804 72.6602 139.355 73.227 138.766 73.6737C138.178 74.1242 137.477 74.4545 136.656 74.6723C135.835 74.89 134.924 74.9988 133.919 74.9988C132.9 74.9988 132.015 74.8862 131.265 74.661C130.516 74.4358 129.849 74.1317 129.26 73.7451C128.983 73.5611 128.72 73.4673 128.473 73.4673C128.364 73.4673 128.195 73.5799 127.963 73.8051C127.731 74.0304 127.554 74.3044 127.431 74.631H125.879V68.2719L127.408 68.133C127.468 68.8763 127.663 69.5482 127.989 70.1526C128.315 70.757 128.743 71.2713 129.275 71.6954C129.807 72.1196 130.445 72.4537 131.187 72.694C131.929 72.9342 132.746 73.0543 133.646 73.0543C134.958 73.0543 135.962 72.7953 136.659 72.2773C137.357 71.7593 137.702 70.9447 137.702 69.8335C137.702 69.4769 137.593 69.1766 137.375 68.9289C137.158 68.6811 136.866 68.4784 136.495 68.3132C136.123 68.1518 135.7 68.0167 135.22 67.9078C134.74 67.7989 134.23 67.7013 133.691 67.6187C133.151 67.5324 132.604 67.4461 132.056 67.3522C131.509 67.2584 130.977 67.142 130.467 67.0031C129.77 66.8192 129.144 66.5902 128.589 66.3199C128.034 66.0497 127.566 65.7118 127.187 65.3101C126.809 64.9085 126.516 64.4205 126.306 63.8499C126.096 63.2793 125.995 62.5998 125.995 61.8115C125.995 61.2072 126.096 60.6216 126.295 60.051C126.497 59.4804 126.831 58.9699 127.303 58.5194C127.776 58.0727 128.39 57.7123 129.148 57.442C129.905 57.1718 130.838 57.0366 131.951 57.0366C132.986 57.0366 133.859 57.1342 134.572 57.3257C135.284 57.5209 135.91 57.7724 136.45 58.0802C136.776 58.2641 137.061 58.358 137.308 58.358C137.477 58.358 137.683 58.2566 137.923 58.0577C138.163 57.855 138.35 57.6335 138.492 57.3857H139.744V63.4182Z" fill="white"/>
<path d="M156.178 63.4182L154.626 63.6284C154.533 62.8251 154.326 62.1269 154 61.5375C153.674 60.9481 153.266 60.4639 152.771 60.0735C152.276 59.6868 151.706 59.4016 151.054 59.2139C150.406 59.0299 149.701 58.9361 148.944 58.9361C147.8 58.9361 146.878 59.1313 146.173 59.5179C145.469 59.9046 145.12 60.5315 145.12 61.3986C145.12 61.9242 145.289 62.3371 145.63 62.6411C145.971 62.9415 146.417 63.1892 146.976 63.3844C147.53 63.5796 148.168 63.7373 148.887 63.8611C149.607 63.985 150.338 64.1202 151.077 64.2666C151.819 64.413 152.55 64.6006 153.266 64.8221C153.985 65.0474 154.623 65.3552 155.177 65.7493C155.732 66.1435 156.182 66.6465 156.523 67.2584C156.864 67.8703 157.033 68.6398 157.033 69.567C157.033 70.4942 156.875 71.3013 156.557 71.9807C156.238 72.6602 155.788 73.227 155.2 73.6737C154.611 74.1242 153.91 74.4545 153.089 74.6723C152.269 74.89 151.358 74.9988 150.353 74.9988C149.333 74.9988 148.449 74.8862 147.699 74.661C146.949 74.4358 146.282 74.1317 145.694 73.7451C145.416 73.5611 145.154 73.4673 144.906 73.4673C144.798 73.4673 144.629 73.5799 144.397 73.8051C144.164 74.0304 143.988 74.3044 143.864 74.631H142.312V68.2719L143.842 68.133C143.902 68.8763 144.097 69.5482 144.423 70.1526C144.749 70.757 145.176 71.2713 145.709 71.6954C146.241 72.1196 146.878 72.4537 147.62 72.694C148.363 72.9342 149.18 73.0543 150.079 73.0543C151.391 73.0543 152.396 72.7953 153.093 72.2773C153.79 71.7593 154.135 70.9447 154.135 69.8335C154.135 69.4769 154.027 69.1766 153.809 68.9289C153.592 68.6811 153.299 68.4784 152.928 68.3132C152.557 68.1518 152.134 68.0167 151.654 67.9078C151.174 67.7989 150.664 67.7013 150.124 67.6187C149.585 67.5324 149.037 67.4461 148.49 67.3522C147.943 67.2584 147.41 67.142 146.901 67.0031C146.203 66.8192 145.577 66.5902 145.023 66.3199C144.468 66.0497 143.999 65.7118 143.621 65.3101C143.242 64.9085 142.95 64.4205 142.74 63.8499C142.53 63.2793 142.429 62.5998 142.429 61.8115C142.429 61.2072 142.53 60.6216 142.729 60.051C142.931 59.4804 143.265 58.9699 143.737 58.5194C144.209 58.0727 144.824 57.7123 145.581 57.442C146.338 57.1718 147.272 57.0366 148.385 57.0366C149.42 57.0366 150.293 57.1342 151.005 57.3257C151.718 57.5209 152.344 57.7724 152.883 58.0802C153.209 58.2641 153.494 58.358 153.742 58.358C153.91 58.358 154.117 58.2566 154.356 58.0577C154.596 57.855 154.784 57.6335 154.926 57.3857H156.178V63.4182Z" fill="white"/>
<path d="M119.18 51.8003C112.714 45.1672 103.856 36.1015 79.8809 44.2813L81.935 50.3213C99.8155 44.2137 106.844 48.6358 112.489 54.1128H121.519C120.766 53.4108 119.994 52.63 119.18 51.8003Z" fill="white"/>
<path d="M61.0072 94.8611C61.0072 94.8611 61.0072 94.8611 61.011 94.8573C61.1047 94.7748 61.2584 94.6359 61.0785 94.7935C61.1122 94.7598 61.131 94.741 61.056 94.8123C60.9135 94.9436 60.9435 94.9174 61.0072 94.8611Z" fill="white"/>
<path d="M73.2538 68.2497V74.2634H70.9109L70.4012 72.5441C70.1837 72.8069 69.9063 73.0622 69.5652 73.3099C69.2241 73.5577 68.8268 73.7829 68.3732 73.9819C67.9159 74.1846 67.3986 74.3423 66.8213 74.4586C66.2403 74.575 65.6031 74.6313 64.9096 74.6313C63.8113 74.6313 62.7542 74.4661 61.7346 74.132C60.715 73.7979 59.8153 73.2724 59.0357 72.5517C58.256 71.8309 57.6337 70.9112 57.1689 69.7888C56.7041 68.6664 56.4717 67.3074 56.4717 65.7158C56.4717 64.1354 56.7041 62.7765 57.1689 61.6315C57.6337 60.4866 58.2635 59.5444 59.0582 58.8123C59.8528 58.0766 60.79 57.5323 61.862 57.1756C62.9379 56.819 64.0774 56.6426 65.2807 56.6426C66.5327 56.6426 67.601 56.834 68.4932 57.2132C69.3816 57.5923 70.0488 58.0203 70.4986 58.5008L71.0796 57.0367H72.7965V62.7014L71.1059 62.8628C70.7947 61.564 70.2025 60.5166 69.3216 59.7283C68.4407 58.94 67.3124 58.5458 65.9367 58.5458C64.9171 58.5458 64.0437 58.7222 63.3165 59.0789C62.5893 59.4355 61.9932 59.931 61.5322 60.5654C61.0674 61.1998 60.73 61.9544 60.5126 62.829C60.2952 63.7037 60.1865 64.6609 60.1865 65.697C60.1865 66.9809 60.3214 68.062 60.5913 68.9366C60.8612 69.8113 61.2473 70.5208 61.7496 71.0614C62.2519 71.6019 62.8516 71.9923 63.5451 72.2326C64.2423 72.4728 65.0145 72.5929 65.8617 72.5929C66.4652 72.5929 67.0387 72.5104 67.5898 72.3489C68.1371 72.1875 68.6131 71.9623 69.0142 71.677C69.4153 71.3917 69.7377 71.0576 69.9776 70.6784C70.2175 70.2993 70.3374 69.8939 70.3374 69.4584V68.2497C70.3374 67.5364 69.6402 67.1836 68.2495 67.1836V65.8584H75.3417V67.1836C73.951 67.1798 73.2538 67.5364 73.2538 68.2497Z" fill="white"/>
<path d="M60.3848 53.7066C69.0551 45.0914 81.9612 45.8496 85.5673 55.0354C85.2037 39.896 65.2391 42.6401 60.3848 53.7066Z" fill="white"/>
<path d="M87.2997 55.6927C86.7937 57.1718 86.1189 58.7259 85.4105 60.2012C85.403 57.3445 84.5595 54.8331 82.8427 52.8923C79.9076 49.5739 74.6297 48.9057 68.5121 50.5161C73.0329 50.0018 76.8301 50.9666 79.1542 53.5981C83.1951 58.1666 82.243 65.7307 77.0813 73.7377C69.7342 82.9573 61.5287 87.0003 55.8384 83.8282C52.982 82.2366 51.4151 78.8355 51.1003 74.3909C50.6804 80.6262 52.2286 85.5137 55.8309 87.5258C58.0463 88.7608 60.6815 88.926 63.4966 88.1189C62.1097 89.2113 60.6065 90.3 59.1446 91.1709C64.2501 90.0372 69.4493 85.4874 72.0058 83.2614C78.9068 77.2514 83.2326 70.6333 84.7732 64.8147C86.0477 61.9843 87.206 58.6846 87.2997 55.6927Z" fill="white"/>
<path d="M76.7959 95.0148C76.1174 95.5667 75.3977 96.0547 74.6555 96.4713C74.2844 96.6778 73.9058 96.873 73.5234 97.0457L72.9424 97.2897L72.6538 97.4098C72.5601 97.4511 72.4551 97.4812 72.3576 97.5149C70.787 98.0705 69.1601 98.3558 67.5745 98.3596C65.9852 98.3521 64.4445 98.0818 63.0238 97.5863C61.6069 97.0757 60.3137 96.3437 59.2041 95.4503C60.5536 95.9158 61.9405 96.1448 63.2825 96.1448C64.6319 96.1335 65.9327 95.8933 67.121 95.4691C68.3092 95.0336 69.3776 94.3992 70.2922 93.6409C70.3484 93.5921 70.4084 93.5508 70.4646 93.4983L70.6258 93.3443L70.9482 93.044C71.1581 92.8413 71.353 92.6236 71.5405 92.4059C71.9116 91.9667 72.2377 91.5049 72.5151 91.0244L76.7959 95.0148Z" fill="white"/>
<path d="M67.6338 91.79L78.0322 84.5337L79.1117 97.1844L67.6338 91.79Z" fill="white"/>
<path d="M79.8817 44.2808L78.3711 44.9452L79.1283 47.5729L82.1721 45.925L79.8817 44.2808Z" fill="white"/>
</g>
<defs>
<clipPath id="clip0">
<rect width="189" height="108" fill="white"/>
</clipPath>
</defs>
</svg>
