<svg viewBox="0 0 41 41" fill="none" xmlns="http://www.w3.org/2000/svg">
<g clip-path="url(#clip0)">
<path d="M20.1563 40.084C31.2031 40.084 40.1583 31.134 40.1583 20.0936C40.1583 9.05327 31.2031 0.103271 20.1563 0.103271C9.10949 0.103271 0.154297 9.05327 0.154297 20.0936C0.154297 31.134 9.10949 40.084 20.1563 40.084Z" fill="#742AD2"/>
<path d="M32.6419 11.6184H7.61947L16.6844 21.0518L19.3002 23.699C17.877 23.3738 17.7889 23.1712 17.1582 22.6566C16.8274 22.3867 16.1883 21.653 15.2176 20.6623C12.1875 17.5699 7.0459 12.3226 7.0459 12.3226V27.8481L7.69167 28.4935L7.61939 28.5687L19.1145 40.0571C19.4592 40.0748 19.8061 40.0839 20.1552 40.0839C31.202 40.0839 40.1572 31.1339 40.1572 20.0935C40.1572 19.762 40.1486 19.4325 40.1328 19.1049L32.6419 11.6184Z" fill="#742AD2"/>
<path d="M7.0459 12.323V27.8485L14.6207 20.0543L7.0459 12.323Z" fill="white"/>
<path d="M33.2647 12.323V27.8485L25.7275 20.0857L33.2647 12.323Z" fill="white"/>
<path d="M7.61914 11.6184H32.6415L22.8074 21.8524C22.1075 22.5807 21.1407 22.9924 20.1304 22.9924C19.12 22.9924 18.1533 22.5807 17.4534 21.8524L7.61914 11.6184Z" fill="white"/>
<path d="M23.3747 22.3967C22.5309 23.2747 21.3485 23.7784 20.1304 23.7784C18.9124 23.7784 17.7298 23.2749 16.8862 22.3968L15.2181 20.6609L7.61914 28.5686H32.6415L25.0427 20.6609L23.3747 22.3967Z" fill="white"/>
</g>
<defs>
<clipPath id="clip0">
<rect width="40.004" height="39.9807" fill="white" transform="translate(0.154297 0.103271)"/>
</clipPath>
</defs>
</svg>
