<svg viewBox="0 0 41 41" fill="none" xmlns="http://www.w3.org/2000/svg">
<ellipse cx="20.0987" cy="20.0936" rx="20.002" ry="19.9904" fill="#742AD2"/>
<g clip-path="url(#clip0)">
<path d="M26.1788 11.1445C23.0048 7.97236 17.8628 7.97236 14.6881 11.1445C11.5141 14.3149 11.5141 19.4588 14.6881 22.6285C14.6881 22.6285 20.4298 28.2564 20.4298 34.7533C20.4298 28.2564 26.178 22.6285 26.178 22.6285C29.3535 19.4596 29.3535 14.3149 26.1788 11.1445ZM20.4306 20.1394C18.6372 20.1394 17.1835 18.6865 17.1835 16.8909C17.1835 15.0954 18.6372 13.6425 20.4306 13.6425C22.2304 13.6425 23.6842 15.0954 23.6842 16.8909C23.6842 18.6865 22.2304 20.1394 20.4306 20.1394Z" fill="white"/>
</g>
<defs>
<clipPath id="clip0">
<rect width="26.0026" height="25.9875" fill="white" transform="translate(7.43262 8.76587)"/>
</clipPath>
</defs>
</svg>
