<svg viewBox="0 0 41 41" fill="none" xmlns="http://www.w3.org/2000/svg">
<g clip-path="url(#clip0)">
<path d="M20.125 40.084C31.1718 40.084 40.127 31.134 40.127 20.0936C40.127 9.05327 31.1718 0.103271 20.125 0.103271C9.07824 0.103271 0.123047 9.05327 0.123047 20.0936C0.123047 31.134 9.07824 40.084 20.125 40.084Z" fill="#742AD2"/>
<path d="M10.7238 8.08424L10.7232 8.08455C8.40743 9.29209 7.43585 12.0843 8.49689 14.4698C10.0242 17.9036 12.0748 21.0446 14.5497 23.7952L16.4201 25.6645L28.8489 38.0861C31.9602 36.5763 34.62 34.284 36.5744 31.4656L31.9882 26.8821C31.8115 26.6218 31.5843 26.3903 31.3099 26.2043L14.0096 8.91407C13.2835 7.84467 11.8702 7.4864 10.7238 8.08424Z" fill="#742AD2"/>
<path d="M27.4364 23.5775C26.7964 23.1434 25.9555 23.1456 25.3178 23.5831L24.3996 24.2129C23.3768 24.9144 22.0167 24.8763 21.0336 24.1202C20.1071 23.4075 19.2228 22.6434 18.383 21.8336C17.5727 20.9943 16.8082 20.1106 16.0951 19.1846C15.3384 18.2021 15.3004 16.8428 16.0023 15.8205L16.6325 14.9029C17.0702 14.2655 17.0724 13.4251 16.6381 12.7854L14.0097 8.91427C13.2836 7.84494 11.8704 7.48667 10.7239 8.08443L10.7232 8.08474C8.40743 9.29229 7.43585 12.0845 8.49689 14.4699C10.0242 17.9038 12.0748 21.0448 14.5497 23.7954L16.4201 25.6647C19.1724 28.1381 22.3151 30.1876 25.751 31.714C28.1378 32.7744 30.9316 31.8034 32.1399 29.489L32.1402 29.4883C32.7383 28.3426 32.3799 26.93 31.3099 26.2044L27.4364 23.5775Z" fill="white"/>
</g>
<defs>
<clipPath id="clip0">
<rect width="40.004" height="39.9807" fill="white" transform="translate(0.123047 0.103271)"/>
</clipPath>
</defs>
</svg>
