<svg width="32" height="32" viewBox="0 0 32 32" fill="none" xmlns="http://www.w3.org/2000/svg">
<path d="M7.67183 21.1686C8.71728 20.1365 10.0224 20.1365 11.0612 21.1686C11.8536 21.9544 12.646 22.7401 13.4251 23.5392C13.6382 23.7589 13.818 23.8055 14.0777 23.6591C14.5904 23.3794 15.1365 23.153 15.6292 22.8467C17.9265 21.4017 19.851 19.5439 21.5556 17.453C22.4013 16.4142 23.1538 15.3021 23.6798 14.0503C23.7864 13.7972 23.7664 13.6308 23.56 13.4243C22.7676 12.6586 21.9951 11.8728 21.216 11.0871C20.1306 9.99499 20.1306 8.71649 21.2227 7.61777C21.842 6.99183 22.4612 6.37921 23.0805 5.75328C23.7198 5.11402 24.3524 4.46811 24.9983 3.83551C26.0437 2.8167 27.3489 2.8167 28.3877 3.84217C29.1867 4.62792 29.9525 5.43365 30.7649 6.20608C31.5173 6.91858 31.8969 7.7909 31.9768 8.80971C32.1033 10.4678 31.6971 12.0326 31.1245 13.5575C29.9525 16.7138 28.1679 19.5172 26.0038 22.0876C23.0805 25.5635 19.5913 28.3136 15.5094 30.298C13.6715 31.1903 11.7671 31.8761 9.69614 31.9893C8.27113 32.0692 7.03258 31.7097 6.0404 30.5976C5.3612 29.8385 4.59542 29.146 3.87626 28.4202C2.81084 27.3414 2.80418 26.0363 3.86295 24.9709C5.12814 23.699 6.39998 22.4338 7.67183 21.1686Z" fill="#742AD2"/>
<path d="M8.94386 15.8615L6.48673 15.442C6.87295 13.1846 7.93837 11.1403 9.55648 9.51556C11.2678 7.80423 13.432 6.72548 15.8158 6.39254L16.1621 8.86299C14.3176 9.12269 12.6396 9.95505 11.3144 11.2802C10.0626 12.532 9.24351 14.1169 8.94386 15.8615Z" fill="#742AD2"/>
<path d="M5.10178 5.18062C7.93848 2.34393 11.5276 0.552689 15.4897 0L15.8359 2.47045C12.4133 2.94989 9.31021 4.50142 6.85974 6.94523C4.53578 9.26919 3.01089 12.2058 2.4582 15.4353L0.0010643 15.0158C0.646977 11.2735 2.41159 7.87748 5.10178 5.18062Z" fill="#742AD2"/>
</svg>
