<svg width="586" height="380" viewBox="0 0 586 380" fill="none" xmlns="http://www.w3.org/2000/svg">
<path d="M66.2878 29.6935C154.455 -4.27748 244.076 25.7533 304.85 91.175C365.64 156.597 493.189 46.0223 560.837 111.338C607.007 155.905 585.854 270.508 522.55 320.151C436.52 387.614 115.963 389.637 62.7823 366.493C-28.1042 326.931 62.2009 253.664 19.7758 183.433C-30.2759 100.582 27.334 44.7089 66.2878 29.6935Z" fill="#E7F3FE"/>
<path d="M562.615 346.987C518.48 344.751 368.342 348.549 322.668 350.022C277.011 351.495 224.001 348.07 196.47 343.029C168.939 337.988 9.78926 343.455 17.0055 357.015C24.2217 370.575 87.9192 363.085 160.132 368.534C232.363 373.983 394.779 367.859 431.424 368.534C468.069 369.208 501.654 367.167 548.884 364.452C596.114 361.736 588.197 348.283 562.615 346.987Z" fill="#CCE2FF"/>
<path opacity="0.5" d="M466.889 48.4184C467.06 46.8032 467.163 45.1526 467.163 43.4842C467.163 42.5968 467.129 41.7271 467.078 40.8574L459.229 38.2129C458.75 34.7696 457.792 31.5039 456.441 28.4511L461.64 21.7953C460.443 19.5945 459.058 17.5179 457.519 15.5655L449.67 18.2278C447.378 15.7963 444.762 13.7019 441.889 12.0335L442.334 3.47868C440.145 2.44925 437.854 1.59732 435.477 0.958364L430.637 7.8981C428.756 7.56088 426.807 7.40114 424.823 7.40114C423.473 7.40114 422.139 7.48988 420.839 7.63187L416.359 0.425903C413.948 0.940616 411.622 1.65056 409.382 2.57349L409.399 11.1461C406.441 12.6725 403.722 14.6249 401.328 16.9144L393.633 13.8262C391.991 15.6898 390.504 17.6776 389.204 19.8075L394.061 26.7295C392.556 29.7112 391.444 32.9238 390.777 36.3315L382.809 38.5323C382.638 40.1475 382.535 41.7981 382.535 43.4665C382.535 44.3539 382.569 45.2236 382.621 46.0933L390.47 48.7379C390.948 52.1811 391.906 55.4469 393.257 58.4996L388.058 65.1554C389.255 67.3562 390.641 69.4328 392.18 71.3852L400.028 68.7229C402.32 71.1545 404.936 73.2488 407.809 74.9172L407.364 83.472C409.553 84.5015 411.845 85.3534 414.221 85.9924L419.078 79.0526C420.959 79.3898 422.908 79.5496 424.892 79.5496C426.243 79.5496 427.577 79.4608 428.876 79.3188L433.356 86.5248C435.767 86.0101 438.093 85.3002 440.333 84.3772L440.316 75.8046C443.274 74.2782 445.993 72.3259 448.387 70.0363L456.082 73.1246C457.724 71.2609 459.212 69.2731 460.511 67.1432L455.655 60.2213C457.16 57.2395 458.271 54.027 458.938 50.6192L466.889 48.4184ZM424.841 60.7182C415.675 60.7182 408.254 52.9975 408.254 43.4842C408.254 33.9709 415.692 26.268 424.841 26.268C434.006 26.268 441.428 33.9887 441.428 43.4842C441.445 52.9975 434.006 60.7182 424.841 60.7182Z" fill="#9EC8FF"/>
<path d="M447.481 63.3805C447.293 63.3805 447.088 63.3095 446.934 63.1675C446.574 62.8481 446.523 62.2979 446.831 61.9251C450.969 56.7603 453.244 50.211 453.244 43.4842C453.244 40.2717 452.731 37.0947 451.739 34.0774C451.585 33.616 451.824 33.1013 452.269 32.9415C452.713 32.7818 453.209 33.0303 453.363 33.4917C454.423 36.6865 454.971 40.0587 454.971 43.4665C454.971 50.6015 452.56 57.559 448.165 63.0433C447.96 63.274 447.72 63.3805 447.481 63.3805Z" fill="white"/>
<path d="M445.07 22.7182C444.864 22.7182 444.642 22.6295 444.488 22.4697C441.701 19.7542 438.486 17.6953 434.912 16.3464C434.468 16.1867 434.245 15.672 434.399 15.2105C434.553 14.749 435.049 14.5183 435.494 14.678C439.29 16.0979 442.693 18.2988 445.651 21.1741C445.993 21.5113 446.01 22.0792 445.685 22.4342C445.531 22.6295 445.292 22.7182 445.07 22.7182Z" fill="white"/>
<path d="M418.411 15.5477C418.035 15.5477 417.676 15.2815 417.591 14.8733C417.471 14.3941 417.744 13.9148 418.206 13.7906C420.566 13.1694 422.994 12.8677 425.457 12.8677C425.935 12.8677 426.312 13.2581 426.312 13.7551C426.312 14.2521 425.935 14.6425 425.457 14.6425C423.148 14.6425 420.857 14.9443 418.634 15.5122C418.548 15.53 418.48 15.5477 418.411 15.5477Z" fill="white"/>
<path opacity="0.5" d="M399.259 0.58252H134.808V165.45H399.259V0.58252Z" fill="#9EC8FF"/>
<path d="M396.471 4.5968H147.684V155.94H396.471V4.5968Z" fill="white"/>
<path d="M359.844 82.8154C371.694 71.1012 391.958 71.3675 391.53 89.2049C391.103 107.042 392.522 108.711 397.395 118.082C414.324 150.544 377.217 148.645 361.742 149.71C346.266 150.775 347.549 120.514 350.285 103.741C353.021 86.9686 356.372 86.2586 359.844 82.8154Z" fill="#303C60"/>
<path d="M365.367 185.101C361.571 218.238 354.663 242.731 353.893 258.439C353.124 274.146 350.046 335.983 350.046 335.983C350.046 335.983 358.51 335.361 359.28 334.03C360.049 332.699 375.183 297.823 374.413 276.258C373.644 254.694 389.53 221.912 389.53 221.912L385.699 189.733L365.367 185.101Z" fill="#6B44BD"/>
<path d="M369.009 199.513L363.058 202.087C361.451 212.594 359.655 222.036 358.082 230.414C367.538 236.768 372.429 257.906 374.515 270.845C375.575 256.38 382.159 238.897 386.246 229.224L369.009 199.513Z" fill="#613EAB"/>
<path d="M396.472 181.764C396.472 181.764 409.279 198.732 408.886 217.972C408.271 247.257 405.193 255.634 410.545 286.34C412.631 298.338 405.928 337.58 405.928 337.58C405.928 337.58 400.199 338.042 397.121 336.462C397.378 333.587 393.411 286.677 385.699 265.112C381.971 254.676 376.721 225.426 373.9 208.654C371.078 191.881 370.565 188.42 371.591 188.42C372.617 188.42 396.472 181.764 396.472 181.764Z" fill="#6B44BD"/>
<path d="M323.472 134.642C323.472 134.642 324.036 125.856 323.13 123.158C322.223 120.443 314.357 118.082 314.357 118.082C314.357 118.082 314.015 130.63 314.819 132.157C315.623 133.683 320.291 138.067 320.291 138.067L323.472 134.642Z" fill="#F9C096"/>
<path d="M367.71 128.252C349.703 148.379 343.821 156.845 342.453 156.845C338.178 149.018 323.985 132.441 323.985 132.441L317.932 136.487C317.932 136.487 331.919 174.434 340.811 174.825C349.703 175.215 367.778 161.744 368 160.2C368.223 158.656 367.71 128.252 367.71 128.252Z" fill="#A2DFF2"/>
<path d="M348.916 172.854C357.723 169.127 367.829 161.336 368 160.182C368.222 158.638 367.709 128.252 367.709 128.252C363.776 132.636 360.356 136.523 357.381 139.931C354.149 152.408 354.354 165.986 348.916 172.854Z" fill="#96CFE0"/>
<path d="M386.006 115.011C386.006 115.011 403.243 123.975 407.005 139.842C410.767 155.709 399.635 175.322 398.267 185.793C396.899 196.265 365.435 198.093 365.435 186.894C365.435 176.156 357.552 153.366 357.997 147.545C359.04 133.914 378.226 117.23 378.226 117.23L386.006 115.011Z" fill="#A2DFF2"/>
<path d="M380.997 94.4408L388.401 118.118C388.401 118.118 380.501 124.454 366.975 139.664C367.505 129.53 375.679 118.49 375.679 118.49L370.087 96.1269L380.997 94.4408Z" fill="#F9C096"/>
<path d="M384.451 105.498L380.997 94.4585L370.087 96.1624L375.679 118.526C375.679 118.526 375.131 119.431 374.328 120.851C379.595 116.769 382.826 111.71 384.451 105.498Z" fill="#F49D5E"/>
<path d="M376.91 99.7831C374.909 107.326 367.18 111.462 361.691 109.9C356.202 108.338 355.022 101.647 357.023 94.1035C359.023 86.5603 365.094 81.7326 370.583 83.2945C376.072 84.8742 378.911 92.2576 376.91 99.7831Z" fill="#F9C096"/>
<path d="M364.051 176.28C366.445 192.041 357.553 225.746 357.553 225.746C357.553 225.746 362.854 226.988 378.757 225.391C394.66 223.793 401.671 207.323 404.065 206.861C406.459 206.4 407.69 222.196 408.87 223.438C410.05 224.681 410.238 203.489 407.143 195.165C401.671 180.398 402.748 174.132 404.783 165.187C408.425 149.302 364.051 176.28 364.051 176.28Z" fill="#A2DFF2"/>
<path d="M350.422 328.227C351.858 334.261 349.02 339.053 345.241 342.55C342.163 345.389 332.706 346.596 333.151 348.016C333.613 349.436 344.779 349.88 348.541 349.294C352.303 348.708 353.329 346.809 358.014 346.809C361.092 346.809 361.656 344.218 360.288 341.023C358.92 337.829 358.442 336.054 359.673 333.178C360.921 330.303 350.422 328.227 350.422 328.227Z" fill="#6B44BD"/>
<path d="M406.254 328.227C406.031 334.492 405.33 339.177 406.801 342.071C412.529 347.04 417.283 352.684 415.471 353.075C406.801 354.938 403.501 349.543 398.593 348.016C392.574 346.135 399.157 338.29 396.797 328.227C395.481 322.636 405.877 323.967 405.877 323.967L406.254 328.227Z" fill="#6B44BD"/>
<path d="M408.442 200.329C408.1 198.359 407.673 196.585 407.142 195.182C401.67 180.415 402.748 174.15 404.783 165.205C404.936 164.495 405.005 163.874 404.988 163.341C405.449 161.744 405.877 160.129 406.253 158.496L404.389 141.102L391 124.596C380.962 139.86 387.734 158.851 386.229 169.323C384.724 179.794 367.915 193.141 367.915 193.141L368.462 196.851C369.215 201.945 373.763 205.494 378.688 204.784C385.614 203.79 394.711 201.785 398.763 197.88C402.679 194.117 406.151 197.028 408.442 200.329Z" fill="#96CFE0"/>
<path d="M371.865 192.538C371.865 192.538 364.444 194.685 363.555 195.182C362.666 195.679 362.17 198.217 362.17 198.217C362.17 198.217 357.929 202.051 359.553 203.4C361.178 204.749 364.085 208.192 367.932 206.595C370.292 205.619 372.122 196.62 373.661 196.549C375.217 196.46 371.865 192.538 371.865 192.538Z" fill="#F9C096"/>
<path d="M392.881 122.572C400.833 122.803 408.032 137.659 410.545 150.544C413.059 163.43 415.693 181.747 415.693 181.747C415.693 181.747 402.526 192.538 389.512 195.679C378.158 198.43 372.361 199.513 372.361 199.513L370.053 192.786L397.207 176.227C397.207 176.227 387.221 156.703 386.229 141.972C385.255 127.258 386.845 122.395 392.881 122.572Z" fill="#A2DFF2"/>
<path d="M316.468 115.155L296.667 119.278L299.19 132.33L318.991 128.207L316.468 115.155Z" fill="#F5DC95"/>
<path d="M318.701 133.577C318.975 128.181 316.393 120.815 314.922 120.815C313.434 120.833 315.384 125.643 314.58 128.838C314.152 130.577 318.701 133.577 318.701 133.577Z" fill="#F9C096"/>
<path d="M358.493 85.6552C358.938 100.44 375.576 99.304 380.142 98.3988C384.707 97.4936 374.584 129.601 383.271 131.447C389.649 132.814 388.213 122.448 395.292 123.14C398.422 123.442 401.585 128.483 401.585 128.483C401.585 128.483 401.106 125.377 398.712 123.14C396.318 120.904 390.043 107.184 388.384 97.3516C386.742 87.5366 375.559 81.1825 372.259 80.9873C368.958 80.7921 360.853 84.6968 360.853 84.6968L358.493 85.6552Z" fill="#303C60"/>
<path d="M383.116 134.819C382.894 134.819 382.655 134.801 382.432 134.748C379.645 134.127 378.311 131.11 378.191 125.199C378.089 120.141 378.893 113.663 379.748 106.794C380.09 104.025 380.449 101.15 380.739 98.3633C380.757 98.1325 380.962 97.955 381.201 97.9728C381.423 97.9905 381.594 98.2035 381.577 98.452C381.287 101.239 380.927 104.114 380.585 106.883C378.944 120.176 377.371 132.725 382.62 133.878C382.791 133.914 382.945 133.932 383.099 133.932C386.109 133.932 388.811 127.844 390.401 121.916C390.469 121.685 390.692 121.543 390.914 121.614C391.136 121.685 391.273 121.916 391.205 122.147C390.144 126.069 387.34 134.819 383.116 134.819Z" fill="#303C60"/>
<path d="M382.005 138.245C381.065 138.245 380.227 137.872 379.543 137.109C373.866 130.879 379.474 99.6411 379.714 98.3277C379.765 98.097 379.97 97.9373 380.193 97.9905C380.415 98.0438 380.569 98.2567 380.517 98.4875C380.466 98.8069 374.738 130.613 380.124 136.523C380.757 137.215 381.492 137.481 382.381 137.357C385.323 136.949 387.033 132.796 388.537 129.139C389.991 125.59 391.359 122.235 393.804 122.324C394.026 122.324 394.215 122.537 394.197 122.768C394.197 122.998 393.992 123.194 393.77 123.176C393.753 123.176 393.736 123.176 393.702 123.176C391.872 123.176 390.624 126.229 389.29 129.477C387.699 133.346 385.904 137.748 382.484 138.209C382.347 138.245 382.176 138.245 382.005 138.245Z" fill="#303C60"/>
<path d="M380.754 101.23C381.93 99.6576 381.993 97.6671 380.896 96.7838C379.799 95.9005 377.957 96.4589 376.782 98.0311C375.607 99.6033 375.543 101.594 376.64 102.477C377.737 103.36 379.579 102.802 380.754 101.23Z" fill="#F9C096"/>
<path d="M251.43 156.011C255.5 164.442 252.131 174.15 244.146 177.593C236.109 181.054 227.302 179.084 223.25 170.654C219.18 162.223 222.206 152.106 229.987 148.06C237.75 144.031 247.361 147.58 251.43 156.011Z" fill="#303C60"/>
<path d="M229.524 178.605C228.635 178.605 226.857 178.268 224.617 176.209C222.77 174.505 221.453 171.914 220.889 168.879C220.188 165.063 220.649 160.661 222.257 155.816C222.325 155.585 222.565 155.478 222.787 155.549C223.009 155.62 223.112 155.869 223.043 156.1C221.47 160.803 221.026 165.045 221.71 168.719C222.24 171.559 223.471 173.99 225.164 175.57C228.02 178.197 229.918 177.718 229.952 177.718C230.174 177.664 230.396 177.789 230.465 178.019C230.533 178.25 230.396 178.481 230.174 178.552C230.14 178.552 229.918 178.605 229.524 178.605Z" fill="#303C60"/>
<path d="M241.939 188.828C246.556 189.911 252.404 203.24 255.26 211.795C258.15 220.421 263.04 231.106 266.238 234.425C269.436 237.744 290.469 245.447 290.469 245.447C290.469 245.447 238.502 245.553 239.562 245.447C240.639 245.34 241.939 188.828 241.939 188.828Z" fill="#A8CEFF"/>
<path d="M269.539 241.169C266.7 240.743 256.423 242.11 260.801 240.229C265.179 238.329 264.563 235.898 264.563 235.898C264.563 235.898 258.373 241.276 257.244 236.572C256.287 232.526 255.91 218.202 252.251 203.844C249.224 196.727 245.274 189.609 241.94 188.828C241.94 188.828 241.82 193.887 241.632 200.968C242.914 216.641 245.069 239.678 245.616 245.482C252.507 245.5 264.033 245.482 273.677 245.464L280.09 245.145C280.107 245.163 272.378 241.595 269.539 241.169Z" fill="#93BBF0"/>
<path d="M224.942 185.882C224.942 185.882 210.236 194.419 206.799 196.23C203.362 198.04 216.409 251.304 219.299 253.576C222.206 255.865 247.719 253.966 250.626 251.091C253.533 248.216 248.403 239.394 250.917 221.717C253.43 204.039 243.239 188.793 241.939 188.828C240.623 188.864 232.09 185.864 232.09 185.864H224.942V185.882Z" fill="#A8CEFF"/>
<path d="M219.316 253.576C222.223 255.865 240.486 255.901 248.249 253.398C249.122 253.114 253.106 251.463 253.208 249.919C252.268 249.742 248.54 250.203 247.035 249.848C241.786 248.588 238.879 241.826 238.879 241.826C238.879 241.826 235.989 240.743 229.508 237.903C223.027 235.064 225.695 226.438 225.541 222.64C225.387 218.841 219.145 206.417 207.398 197.01L206.32 197.507C205.482 206.169 216.632 251.463 219.316 253.576Z" fill="#93BBF0"/>
<path d="M320.377 211.792H284.963L268.838 247.431H307.86L322.463 215.182C323.165 213.602 322.053 211.792 320.377 211.792Z" fill="#7579DE"/>
<path d="M270.941 247.931H249.634C248.318 247.931 247.24 246.813 247.24 245.447C247.24 244.08 248.318 242.962 249.634 242.962H269.402L282.774 213.073C283.338 211.831 284.758 211.281 285.955 211.866C287.152 212.452 287.682 213.925 287.117 215.167L273.095 246.494C272.719 247.381 271.864 247.931 270.941 247.931Z" fill="#613EAB"/>
<path d="M233.97 240.317C243.221 242.11 245.496 244.311 250.523 245.163C256.235 246.121 255.551 247.435 251.31 247.435C247.069 247.435 236.399 247.612 232.739 246.76C229.097 245.908 233.97 240.317 233.97 240.317Z" fill="#F9C096"/>
<path d="M205.653 197.223C198.574 220.74 188.519 247.434 190.126 247.434C191.734 247.434 232.415 249.138 234.022 247.718C235.629 246.299 235.168 240.832 234.928 240.122C234.689 239.412 211.792 235.188 211.792 235.188C211.792 235.188 214.802 229.082 215.947 217.155C217.093 205.246 206.987 192.769 205.653 197.223Z" fill="#A8CEFF"/>
<path d="M230.329 165.453L224.617 187.107C224.617 187.107 234.262 202.726 236.912 201.341C239.563 199.957 235.424 188.633 235.424 187.107C235.424 185.58 239.563 169.713 239.563 169.713L230.329 165.453Z" fill="#F9C096"/>
<path d="M235.647 188.207C235.527 187.692 235.442 187.302 235.442 187.107C235.442 185.563 239.58 169.713 239.58 169.713L230.346 165.453L228.465 172.624C230.089 180.007 233.065 184.941 235.647 188.207Z" fill="#F49D5E"/>
<path d="M251.687 165.081C252.781 171.364 252.063 179.706 246.693 181.818C241.324 183.93 234.843 179.883 232.244 172.766C229.628 165.649 231.868 158.141 237.237 156.029C242.607 153.917 250.387 157.591 251.687 165.081Z" fill="#F9C096"/>
<path d="M232.058 173.644C233.615 173.069 234.266 170.82 233.512 168.623C232.758 166.425 230.885 165.109 229.328 165.685C227.771 166.26 227.12 168.508 227.874 170.706C228.628 172.904 230.501 174.219 232.058 173.644Z" fill="#F9C096"/>
<path d="M251.755 157.2C249.925 171.932 232.688 170.032 232.688 170.032C232.688 170.032 229.132 165.187 227.524 167.725C225.917 170.263 229.747 152.781 239.648 152.231C242.897 152.053 251.755 157.2 251.755 157.2Z" fill="#303C60"/>
<path d="M224.89 160.058C230.047 160.058 234.227 155.989 234.227 150.97C234.227 145.952 230.047 141.883 224.89 141.883C219.734 141.883 215.554 145.952 215.554 150.97C215.554 155.989 219.734 160.058 224.89 160.058Z" fill="#303C60"/>
<path d="M206.285 354.477H208.423L222.205 288.15H217.503L206.285 354.477Z" fill="#303C60"/>
<path d="M272.684 354.477H270.547L254.507 285.807H259.192L272.684 354.477Z" fill="#303C60"/>
<path d="M230.653 290.635C222.103 290.635 216.682 289.037 213.211 285.541C208.919 281.21 208.029 274.483 208.029 265.733C208.012 258.847 207.858 254.356 207.499 250.736C207.363 249.369 208.32 248.144 209.637 248.002C210.954 247.86 212.133 248.854 212.27 250.221C212.646 254.019 212.817 258.652 212.817 265.716C212.835 274.59 213.912 279.293 216.562 281.973C219.281 284.724 224.172 285.843 232.465 285.63C240.468 285.417 245.974 284.263 250.386 283.322C256.2 282.098 260.407 281.21 265.4 283.677C266.597 284.263 267.093 285.754 266.529 286.996C265.964 288.239 264.528 288.753 263.331 288.168C259.791 286.411 256.799 287.05 251.344 288.203C246.744 289.179 240.998 290.386 232.585 290.599C231.918 290.635 231.268 290.635 230.653 290.635Z" fill="#303C60"/>
<path d="M211.21 247.718L224.308 248.286L220.82 285.825C220.82 285.825 211.056 279.364 211.21 272.389C211.364 265.432 211.21 247.718 211.21 247.718Z" fill="#303C60"/>
<path d="M275.866 251.215C286.947 249.476 290.708 250.026 297.48 263.107C304.252 276.205 313.28 299.775 318.462 302.81C326.276 307.39 328.859 318.642 332.073 318.128C335.288 317.631 337.34 319.086 333.852 322.103C330.363 325.121 324.72 327.676 322.788 327.144C320.856 326.611 319.368 317.968 314.324 315.164C309.296 312.359 310.801 310.052 311.126 307.567C311.451 305.082 296.437 293.652 285.1 279.435C278.174 270.756 274.617 265.006 274.087 259.823C273.591 254.623 275.866 251.215 275.866 251.215Z" fill="#F9C096"/>
<path d="M303.327 298.693C300.762 291.913 298.18 280.749 295.752 270.49C292.298 255.918 288.69 252.457 286.398 250.895C283.628 250.168 280.345 250.505 275.882 251.215C275.882 251.215 273.608 254.64 274.138 259.823C274.668 265.023 278.225 270.756 285.15 279.435C291.101 286.925 298.095 293.652 303.327 298.693Z" fill="#F49D5E"/>
<path d="M279.234 262.734C279.234 262.734 276.292 285.807 273.539 288.15C271.573 289.836 270.188 289.943 268.82 283.056C267.452 276.17 270.957 250.487 270.957 250.487L279.234 262.734Z" fill="#303C60"/>
<path d="M276.891 275.229L249.616 279.986L265.023 257.072L276.737 254.587L283.765 256.273L276.891 275.229Z" fill="#F9C096"/>
<path d="M311.159 307.585C310.27 311.276 310.39 314.01 311.912 315.394C313.451 316.761 319.248 326.949 319.248 326.949L321.06 326.665L316.871 317.347L311.159 307.585Z" fill="#303C60"/>
<path d="M322.804 327.162C324.737 327.694 330.362 325.138 333.868 322.121C337.356 319.104 335.287 317.631 332.09 318.145C331.901 318.181 331.73 318.163 331.559 318.11C329.952 321.819 324.685 324.606 322.992 320.683C321.299 316.796 314.083 309.058 311.176 307.39C311.176 307.443 311.193 307.514 311.176 307.567C310.851 310.052 309.329 312.359 314.374 315.164C319.384 317.986 320.872 326.629 322.804 327.162Z" fill="#303C60"/>
<path d="M220.204 252.138C210.526 270.153 217.143 281.618 228.891 282.79C240.656 283.961 259.209 281.725 270.034 272.389C280.858 263.053 289.733 253.185 288.502 251.712C287.27 250.239 220.204 252.138 220.204 252.138Z" fill="#F49D5E"/>
<path d="M275.079 265.574C277.063 259.397 279.337 254.676 283.766 254.587C288.417 254.498 291.273 257.001 291.478 264.899C291.717 274.306 292.025 305.437 291.615 319.281C291.29 329.753 294.248 333.125 293.992 344.041C293.804 352.276 302.251 348.105 298.985 352.383C296.745 355.311 290.059 354.353 285.955 353.82C282.295 353.341 287.853 341.964 282.791 338.911C278.448 336.302 278.362 332.06 281.098 328.848C283.834 325.635 281.406 316.14 279.576 309.502C277.747 302.864 274.908 295.675 273.044 279.968C272.514 275.495 273.865 269.354 275.079 265.574Z" fill="#F9C096"/>
<path d="M296.095 349.028C294.693 349.472 292.966 349.969 291.461 350.004C288.417 350.111 287.494 346.632 287.288 341.893C287.117 337.758 284.227 331.262 281.252 328.635C281.201 328.706 281.149 328.777 281.081 328.848C278.345 332.06 278.431 336.302 282.774 338.911C287.836 341.946 282.278 353.323 285.937 353.82C290.041 354.37 296.728 355.329 298.968 352.382C301.105 349.614 298.472 349.401 296.095 349.028Z" fill="#303C60"/>
<path d="M281.782 327.694C281.782 327.694 277.336 332.504 277.746 334.51C278.157 336.515 279.525 341.574 279.747 345.478C279.969 349.383 280.175 353.856 280.175 353.856C280.175 353.856 281.782 353.856 281.902 353.376C282.021 352.897 282.911 337.509 282.911 337.509L281.782 327.694Z" fill="#303C60"/>
<path d="M215.536 250.487C215.536 250.487 209.79 275.761 217.041 282.772C224.291 289.783 254.404 283.482 261.501 283.056C266.306 282.772 270.957 288.86 270.957 288.86C270.957 288.86 267.605 274.75 269.897 263.373C272.188 251.978 275.865 251.215 275.865 251.215L270.957 250.505H215.536V250.487Z" fill="#7579DE"/>
<path d="M214.236 243.885C216.699 249.28 211.603 258.616 213.381 261.314C215.16 264.012 225.386 261.687 232.089 256.096C238.792 250.505 251.463 249.263 251.463 249.263L214.236 243.885Z" fill="#A8CEFF"/>
<path d="M224.617 289.943C244.88 290.741 266.221 290.369 266.221 287.227C266.221 284.086 265.315 281.885 249.6 283.145C233.902 284.405 223.231 286.144 218.512 285.044C213.792 283.944 224.617 289.943 224.617 289.943Z" fill="#303C60"/>
<path d="M440.795 253.15H155.19C153.976 253.15 152.984 252.12 152.984 250.86V249.706C152.984 248.446 153.976 247.417 155.19 247.417H440.795C442.009 247.417 443 248.446 443 249.706V250.86C443 252.138 442.009 253.15 440.795 253.15Z" fill="#303C60"/>
<path d="M478.74 170.671C480.707 177.86 475.901 185.261 470.618 186.823C465.334 188.385 461.572 183.504 459.605 176.315C457.639 169.127 460.34 162.045 465.624 160.484C470.908 158.922 476.774 163.483 478.74 170.671Z" fill="#F9C096"/>
<path d="M449.123 309.91C449.123 309.91 462.666 331.741 464.496 332.681C466.325 333.622 470.891 333.871 469.181 337.42C467.471 340.988 466.787 354.974 465.18 355.684C463.572 356.394 449.858 358.062 451.927 355.684C453.979 353.305 455.245 354.495 456.288 350.235C457.331 345.958 458.784 337.9 456.835 336.231C454.886 334.563 443.001 319.618 443.001 319.618L449.123 309.91Z" fill="#F9C096"/>
<path d="M380.962 319.281C380.962 319.281 364.495 347.448 361.451 349.968C358.407 352.489 348.335 356.305 356.578 356.926C364.82 357.547 368.77 354.086 373.951 352.489C379.132 350.891 385.528 349.951 383.1 345.851C380.671 341.751 381.68 332.752 386.93 327.055C392.18 321.375 380.962 319.281 380.962 319.281Z" fill="#F9C096"/>
<path d="M464.958 254.001C464.958 254.001 424.209 252.901 408.049 266.656C398.593 281.53 375.747 325.404 373.969 330.232C375.183 331.492 382.04 333.782 385.101 333.462C394.095 322.334 405.98 312.714 410.7 303.982C416.531 293.226 418.326 287.848 427.765 286.89C437.205 285.931 458.545 282.772 464.958 282.772C471.37 282.772 464.958 254.001 464.958 254.001Z" fill="#6791C9"/>
<path d="M500.491 357.015H498.37L483.049 290.688H487.751L500.491 357.015Z" fill="#303C60"/>
<path d="M436.521 357.015H438.658L456.22 288.345H451.534L436.521 357.015Z" fill="#303C60"/>
<path d="M488.179 251.091L464.495 255.333C464.495 255.333 433.014 255.634 418.616 258.421C405.517 260.959 403.602 276.4 418.616 297.645C427.149 309.715 434.365 319.352 449.122 330.214C452.867 327.357 454.303 326.274 455.347 319.388C454.286 317.861 451.516 308.348 450.661 306.502C442.505 288.789 431.612 282.364 431.458 280.607C433.288 277.518 479.902 296.687 489.17 285.417C498.011 274.661 488.179 251.091 488.179 251.091Z" fill="#7579DE"/>
<path d="M489.171 195.431C482.93 194.526 476.586 195.75 470.635 200.223C465.436 205.725 459.571 214.777 459.93 229.721C460.392 248.712 457.109 249.919 460.529 255.137C474.824 261.261 499.294 287.6 493.532 259.361C489.359 238.915 502.68 223.669 491.941 201.004C491.052 199.158 489.958 197.365 489.171 195.431Z" fill="#F37168"/>
<path d="M459.913 236.856C459.64 246.76 458.289 249.671 459.315 252.777C465.146 253.398 475.816 255.812 478.484 259.681C481.528 264.118 484.589 264.739 483.152 261.474C481.733 258.208 477.971 253.558 483.768 237.637C489.565 221.717 492.301 210.961 486.606 199.886L459.913 236.856Z" fill="#D54A41"/>
<path d="M489.171 195.431C485.324 185.988 484.383 175.392 484.383 175.392L474.328 178.481C474.328 178.481 480.04 191.775 474.551 196.513C473.388 197.525 472.037 198.75 470.635 200.223C476.568 195.75 482.93 194.526 489.171 195.431Z" fill="#F9C096"/>
<path d="M484.674 177.895C484.075 177.345 483.34 176.653 482.553 175.943L474.345 178.463C474.345 178.481 474.328 178.499 474.328 178.516C474.533 178.996 476.62 184.054 476.893 188.917C479.338 187.373 482.023 184.87 485.084 180.486C484.913 179.492 484.776 178.623 484.674 177.895Z" fill="#F49D5E"/>
<path d="M482.092 198.395C471.73 202.158 472.875 213.481 463.351 230.183C458.409 238.826 453.826 238.702 453.826 238.702C453.826 238.702 442.249 238.791 428.261 237.016C419.489 235.898 418.942 238.613 425.029 240.867C437.324 245.429 450.081 250.345 460.375 249.156C470.669 247.967 488.265 220.723 489.172 213.641C490.42 203.844 487.308 196.496 482.092 198.395Z" fill="#F9C096"/>
<path d="M476.756 293.173C476.106 293.173 475.456 293.173 474.772 293.155C466.359 292.942 460.614 291.735 456.014 290.759C450.559 289.605 447.566 288.984 444.027 290.724C442.83 291.309 441.41 290.795 440.829 289.552C440.247 288.31 440.76 286.837 441.957 286.233C446.951 283.766 451.14 284.653 456.971 285.878C461.4 286.819 466.906 287.972 474.892 288.185C483.904 288.416 489.41 287.014 492.214 283.784C494.728 280.891 495.463 276.063 494.54 268.609C494.232 266.088 493.907 263.976 493.634 262.13C492.864 256.93 492.351 253.487 492.984 248.198C493.565 243.263 495.156 236.661 498.815 223.882C499.191 222.568 500.525 221.823 501.79 222.213C503.056 222.604 503.774 223.988 503.398 225.302C496.558 249.209 496.9 251.552 498.37 261.385C498.644 263.266 498.969 265.396 499.294 267.987C500.405 277.004 499.294 283.074 495.771 287.121C492.163 291.274 486.247 293.173 476.756 293.173Z" fill="#303C60"/>
<path d="M382.091 343.029C371.165 348.566 365.299 351.743 361.794 351.442C360.973 351.371 360.289 351.282 359.708 351.193C355.809 353.589 349.601 356.411 356.595 356.944C364.82 357.583 368.788 354.104 373.969 352.507C379.15 350.927 385.546 349.969 383.117 345.869C382.639 345.07 382.297 344.111 382.091 343.029Z" fill="#D54A41"/>
<path d="M465.675 333.161C465.402 342.141 464.222 351.034 458.938 352.702C457.536 353.146 456.253 353.217 455.125 353.057C454.287 354.122 453.278 354.14 451.91 355.701C449.858 358.08 463.572 356.411 465.162 355.701C466.77 354.991 467.454 340.988 469.164 337.438C470.583 334.51 467.745 333.835 465.675 333.161Z" fill="#D54A41"/>
<path d="M423.61 247.931H388.914C387.991 247.931 387.136 247.363 386.742 246.494L372.72 215.167C372.156 213.925 372.686 212.452 373.883 211.866C375.08 211.28 376.499 211.831 377.064 213.073L390.436 242.962H423.61C424.927 242.962 426.004 244.08 426.004 245.447C426.004 246.813 424.927 247.931 423.61 247.931Z" fill="#7579DE"/>
<path d="M430.877 237.335C423.866 237.229 416.906 232.898 413.452 233.519C409.998 234.158 398.712 242.27 400.148 242.589C401.567 242.909 410.511 238.099 410.818 238.028C411.126 237.957 413.059 241.364 417.829 242.607C422.6 243.849 417.864 238.897 432.672 243.53C442.282 246.565 430.877 237.335 430.877 237.335Z" fill="#F9C096"/>
<path d="M488.128 186.805L489.154 195.413C489.154 195.413 480.074 195.981 475.559 198.608C471.045 201.252 464.376 208.866 464.376 208.866L469.814 199.14L470.6 192.91L488.128 186.805Z" fill="#F2E5DE"/>
<path d="M484.263 197.365C477.526 196.052 474.414 202.317 470.036 212.558C465.659 222.781 458.203 235.206 456.732 236.821C455.262 238.436 431.732 236.821 431.732 236.821C431.732 236.821 431.014 243.885 431.732 244.737C432.45 245.589 436.503 245.482 436.503 245.482C436.503 245.482 438.128 246.831 439.65 247.896C441.171 248.961 454.082 250.966 460.067 250.647C466.069 250.327 471.541 249.795 472.362 248.854C473.183 247.914 489.53 221.752 490.556 212.363C491.582 202.956 487.718 198.022 484.263 197.365Z" fill="#F2E5DE"/>
<path d="M464.393 154.325C451.654 154.964 453.654 174.86 453.654 174.86C453.654 174.86 456.972 175.925 463.897 174.736C463.367 172.606 463.589 167.139 463.589 167.139C463.589 167.139 464.393 171.577 465.419 174.257C466.89 174.949 468.548 174.328 471.37 173.635C472.823 179.954 476.91 182.634 479.715 183.539C482.81 184.551 486.093 185.758 489.752 183.859C493.412 181.96 491.394 162.56 489.462 158.655C486.555 152.798 481.698 147.562 473.319 150.331C469.096 151.716 464.393 154.325 464.393 154.325Z" fill="#303C60"/>
<path d="M486.555 177.966L491.77 185.864C491.77 185.864 485.99 200.844 502.783 207.624C515.933 212.931 514.394 222.302 508.443 231.709C502.492 241.134 512 249.351 512 249.351C512 249.351 513.453 238.915 526.227 236.945C543.652 234.265 548.594 209.985 535.563 197.827C524.79 187.781 521.524 196.105 514.223 187.089C506.938 178.073 493.172 184.16 493.172 184.16L488.128 176.528L486.555 177.966Z" fill="#303C60"/>
<path d="M541.582 222.267C541.514 222.267 541.446 222.249 541.377 222.213C541.172 222.107 541.104 221.841 541.206 221.628C545.601 213.304 542.01 203.205 540.214 200.471C540.026 200.187 539.838 199.886 539.65 199.584C537.872 196.709 535.666 193.141 523.918 190.94C521.097 190.408 518.822 188.668 516.394 186.84C511.384 183.024 505.69 178.694 493.343 184.586C493.138 184.693 492.882 184.586 492.796 184.373C492.694 184.16 492.796 183.894 493.001 183.805C505.792 177.7 511.692 182.19 516.89 186.148C519.233 187.923 521.439 189.609 524.055 190.106C536.162 192.36 538.487 196.123 540.334 199.122C540.522 199.424 540.693 199.708 540.881 199.992C541.976 201.643 543.31 205.05 543.857 208.955C544.336 212.345 544.387 217.368 541.924 222.054C541.873 222.178 541.719 222.267 541.582 222.267Z" fill="#303C60"/>
<path d="M483.784 186.006C482.947 186.006 482.057 185.935 481.083 185.775C476.637 185.083 470.686 182.456 470.207 167.725C470.207 167.494 470.378 167.281 470.617 167.281C470.857 167.264 471.045 167.459 471.045 167.707C471.233 173.813 472.413 178.321 474.516 181.125C476.124 183.255 478.244 184.462 481.202 184.923C485.358 185.562 488.094 184.764 489.376 182.545C489.496 182.332 489.752 182.279 489.94 182.403C490.146 182.527 490.197 182.794 490.077 182.989C488.949 184.994 486.828 186.006 483.784 186.006Z" fill="#303C60"/>
<path d="M86.0382 196.46C71.2467 205.246 50.6754 241.737 55.0188 247.683C59.3622 253.647 82.6866 237.974 82.6866 237.974L86.0382 196.46Z" fill="#96CFE0"/>
<path d="M113.672 154.147C108.029 153.988 110.115 149.621 103.617 151.379C100.197 152.301 102.728 153.757 98.2818 153.278C93.8529 152.798 91.6641 152.337 91.0998 155.336C90.5355 158.336 90.2619 159.294 88.1415 159.774C86.004 160.253 85.0464 164.211 88.1415 166.891C91.2366 169.589 89.7318 170.689 89.0478 172.908C88.3638 175.126 90.7065 175.286 91.9719 177.345C93.2373 179.404 90.8091 179.794 92.6388 181.569C94.4685 183.344 97.0335 183.202 97.0335 183.202L104.728 167.885L113.672 154.147Z" fill="#303C60"/>
<path d="M228.754 338.059C228.754 338.059 236.979 338.29 243.392 335.681C249.787 333.072 254.131 329.043 252.985 333.782C251.839 338.521 246.59 346.667 242.007 347.466C237.441 348.265 235.834 353.483 233.32 353.483C230.806 353.483 227.147 347.466 220.752 344.467C214.92 341.716 228.754 338.059 228.754 338.059Z" fill="#303C60"/>
<path d="M163.895 337.261C163.895 337.261 167.349 342.213 173.385 345.656C179.61 349.223 186.792 350.927 182.328 352.542C177.865 354.157 171.367 355.4 165.023 353.483C160.577 352.134 155.345 351.868 153.977 349.685C152.592 347.502 155.601 342.017 154.353 333.817C153.344 327.25 163.895 337.261 163.895 337.261Z" fill="#303C60"/>
<path d="M125.351 257.622C125.351 257.622 173.026 276.152 176.873 281.334C180.721 286.517 230.824 333.693 230.824 337.172C230.824 340.651 222.291 346.987 222.291 346.987C222.291 346.987 179.318 319.618 168.648 305.703C157.978 291.788 131.934 285.079 118.1 283.784C104.266 282.488 125.351 257.622 125.351 257.622Z" fill="#613EAB"/>
<path d="M127.18 257.622C127.18 257.622 159.79 256.362 166.801 257.622C173.812 258.882 189.185 258.865 179.13 288.345C171.247 311.436 168.648 340.686 168.648 340.686L152.967 344.68C152.967 344.68 153.583 292.108 161.073 278.104C155.618 279.045 145.631 280.855 131.763 284.973C106.062 292.605 91.9544 288.789 91.9544 288.789L88.124 274.874L127.18 257.622Z" fill="#6B44BD"/>
<path d="M99.9403 170.228L91.9717 194.668L102.044 201.536L107.755 180.415L99.9403 170.228Z" fill="#F9C096"/>
<path d="M102.95 198.217L107.755 180.433L99.9578 170.228L97.0508 179.173C98.0426 187.231 100.471 193.904 102.95 198.217Z" fill="#F49D5E"/>
<path d="M120.272 174.363C120.529 181.8 117.006 188.225 111.414 188.811C105.823 189.378 100.727 183.841 100.026 176.44C99.3245 169.038 103.292 162.578 108.883 161.992C114.475 161.424 119.862 162.631 120.272 174.363Z" fill="#F9C096"/>
<path d="M88.1413 193.94C63.6713 211.085 78.8902 238.791 84.2596 259.042C88.8424 276.294 88.6885 286.712 89.3725 286.712C90.0565 286.712 106.883 284.103 116.476 275.087C126.069 266.071 132.567 257.338 132.567 257.338C132.567 257.338 120.272 255.066 116.254 238.542C114.219 230.165 115.142 225.604 110.491 212.31C105.857 199.052 88.1413 193.94 88.1413 193.94Z" fill="#A2DFF2"/>
<path d="M88.1416 193.94L90.7579 187.284C90.7579 187.284 99.0685 192.981 102.386 195.662C105.703 198.359 107.738 198.981 107.738 198.981C107.738 198.981 108.935 208.512 108.166 207.66C98.3674 196.762 88.1416 193.94 88.1416 193.94Z" fill="#A2DFF2"/>
<path d="M77.3008 357.015H79.4383L94.7599 290.688H90.0574L77.3008 357.015Z" fill="#303C60"/>
<path d="M141.289 357.015H139.151L121.572 288.345H126.275L141.289 357.015Z" fill="#303C60"/>
<path d="M101.104 293.173C92.5536 293.173 87.1329 291.576 83.6616 288.079C79.3695 283.748 78.4803 277.022 78.4803 268.271C78.4461 249.884 77.4714 246.068 72.4782 234.833C71.931 233.591 72.444 232.117 73.6581 231.532C74.8551 230.964 76.2744 231.496 76.8387 232.756C82.1055 244.63 83.2512 248.996 83.2683 268.254C83.2854 277.128 84.3627 281.831 87.0132 284.512C89.7321 287.263 94.6227 288.381 102.916 288.168C110.919 287.955 116.425 286.801 120.837 285.86C126.651 284.636 130.858 283.748 135.851 286.215C137.048 286.801 137.544 288.292 136.979 289.534C136.415 290.777 134.979 291.292 133.782 290.706C130.242 288.949 127.249 289.588 121.795 290.741C117.195 291.718 111.449 292.924 103.036 293.137C102.369 293.155 101.719 293.173 101.104 293.173Z" fill="#303C60"/>
<path d="M206.799 247.647H172.103C170.786 247.647 169.709 246.529 169.709 245.163C169.709 243.796 170.786 242.678 172.103 242.678H205.277L218.649 212.789C219.213 211.547 220.633 210.996 221.83 211.582C223.027 212.168 223.557 213.641 222.993 214.883L208.971 246.21C208.577 247.079 207.739 247.647 206.799 247.647Z" fill="#613EAB"/>
<path d="M89.0479 218.912C89.0479 218.912 95.1526 238.205 102.694 246.192C110.235 254.179 125.42 256.859 130.173 256.557C126.377 254.978 119.161 250.469 116.271 238.56C114.236 230.183 115.16 225.621 110.508 212.328C107.054 202.459 96.418 197.117 91.1511 195.023C97.7176 199.921 105.908 207.961 108.439 214.102C111.227 220.9 89.0479 218.912 89.0479 218.912Z" fill="#96CFE0"/>
<path d="M173.197 235.845C173.197 235.845 183.714 230.857 184.859 231.336C186.005 231.816 197.667 239.11 197.667 240.335C197.667 241.542 187.373 235.827 187.373 235.827C187.373 235.827 188.519 238.986 187.835 240.513C187.151 242.039 179.233 242.021 172.103 241.56C164.972 241.098 173.197 235.845 173.197 235.845Z" fill="#F9C096"/>
<path d="M89.3895 204.003C79.6938 224.627 112.953 245.535 132.67 247.381C152.403 249.245 175.83 242.536 175.83 242.536L173.18 235.845C173.18 235.845 133.661 230.484 132.653 229.739C131.678 228.994 92.9463 196.46 89.3895 204.003Z" fill="#A2DFF2"/>
<path d="M100.521 176.593C102.234 175.917 102.893 173.379 101.993 170.923C101.094 168.468 98.9764 167.025 97.2639 167.701C95.5514 168.377 94.8923 170.915 95.7918 173.371C96.6913 175.826 98.8088 177.269 100.521 176.593Z" fill="#F9C096"/>
<path d="M120.289 155.212C122.974 154.059 125.984 152.816 125.043 157.537C124.633 159.596 125.043 159.01 125.761 160.91C126.48 162.809 123.966 164.3 123.162 165.347C122.341 166.394 124.342 167.548 122.718 168.808C121.093 170.068 118.956 168.346 117.434 168.808C112.919 170.21 113.467 166.518 110.936 165.755C108.388 164.992 107.157 165.098 106.661 166.784C106.182 168.47 108.439 174.026 106.507 173.493C104.575 172.961 104.147 177.451 103.617 179.972C103.087 182.492 101.77 178.232 101.856 175.321C101.992 170.884 100.932 169.021 99.3419 167.778C97.7687 166.536 97.1018 155.23 104.711 154.822C112.338 154.396 112.372 153.633 115.638 152.923C118.904 152.23 119.075 155.745 120.289 155.212Z" fill="#303C60"/>
<path d="M547.532 284.227C552.389 288.824 550.285 293.439 546.694 301.994C543.103 310.549 542.471 342.124 542.471 342.124L545.429 341.68C545.429 341.68 545.002 309.235 549.02 300.45C553.039 291.682 554.732 287.298 558.323 290.138C561.896 292.995 547.532 284.227 547.532 284.227Z" fill="#74B570"/>
<path d="M544.866 278.264C545.464 275.531 548.952 272.584 553.638 270.082C552.937 274.111 550.714 280.696 553.022 282.044C556.134 283.873 553.33 274.679 554.527 269.62C558.922 267.384 564.223 265.574 569.096 264.669C569.096 264.686 569.079 264.704 569.079 264.722C566.326 271.963 562.735 274.803 564.223 275.903C565.334 276.72 568.959 268.378 573.747 264.083C577.338 263.888 580.382 264.385 582.178 265.875C584.948 268.165 586.829 270.188 584.025 277.128C582.434 278.317 580.365 279.169 577.954 279.418C571.61 280.074 568.652 280.287 573.098 282.488C575.269 283.553 578.912 282.435 581.87 281.743C580.912 283.571 579.732 285.647 578.296 288.008C577.39 289.499 576.381 290.812 575.321 291.93C573.286 292.339 571.49 292.339 570.55 291.93C567.591 290.617 559.982 286.446 558.084 288.203C556.22 289.925 572.174 291.008 571.063 295.374C563.334 299.988 554.493 297.805 552.92 293.546C550.833 287.813 543.087 286.482 544.866 278.264Z" fill="#9CD499"/>
<path d="M560.837 309.448C552.389 302.864 543.72 309.005 539.291 316.033C534.862 323.044 538.025 338.84 538.025 338.84C538.025 338.84 539.718 338.84 539.718 338.183C539.718 337.527 535.067 319.547 546.062 311.436C552.936 306.36 557.895 308.809 558.528 311.223C559.161 313.637 555.775 318.021 555.775 318.021L560.837 309.448Z" fill="#74B570"/>
<path d="M541.411 295.924C549.859 295.924 552.612 309.519 550.286 317.417C547.961 325.316 544.797 340.012 544.797 340.012L542.677 337.811C542.677 337.811 550.697 317.205 548.798 307.993C546.9 298.781 542.249 297.255 541.411 297.255C540.556 297.237 541.411 295.924 541.411 295.924Z" fill="#9CD499"/>
<path d="M548.491 317.471C549.089 316.654 549.824 315.98 550.714 315.536C550.594 316.193 550.457 316.814 550.269 317.418C549.209 321.021 547.978 326.026 546.952 330.41C546.866 329.842 546.712 328.99 546.49 327.641C546.439 327.321 546.404 326.984 546.37 326.629C547.191 323.701 547.978 320.506 548.491 317.471Z" fill="#74B570"/>
<path d="M550.799 317.542C566.856 310.531 558.391 300.894 572.55 307.248C573.542 307.691 574.756 308.827 575.987 310.389C574.721 310.762 573.2 311.028 571.507 310.762C567.283 310.105 568.754 313.619 575.73 314.489C577.047 314.649 578.107 314.879 578.996 315.199C582.314 321.819 583.819 330.534 576.791 333.569C575.406 334.172 573.696 334.51 571.78 334.634C569.609 332.841 572.31 322.494 568.959 323.914C565.744 325.28 569.968 332.788 569.386 334.687C566.223 334.634 562.717 334.084 559.349 333.232C558.015 332.468 557.006 331.421 556.698 330.072C555.638 325.475 562.615 322.618 562.82 318.678C563.008 315.057 560.272 326.665 552.987 328.368C546.404 325.156 543.292 320.825 550.799 317.542Z" fill="#9CD499"/>
<path d="M539.359 305.135C541.052 301.408 536.606 300.538 536.828 303.378C537.016 305.899 537.033 312.04 534.537 313.708C530.228 313.229 524.379 311.418 519.951 308.685C519.899 308.312 519.951 307.94 520.139 307.549C522.037 303.609 534.297 300.308 530.484 298.994C527.457 297.947 522.156 304.124 517.864 307.248C515.299 305.224 513.572 302.81 513.572 300.13C513.572 296.492 517.83 292.356 523.353 290.386C525.833 290.652 528.141 292.055 531.75 294.167C537.068 297.29 535.836 292.232 530.809 289.233C535.152 289.463 539.479 291.398 542.676 295.995C542.676 295.995 542.369 297.965 544.386 301C549.858 309.306 543.549 314.134 535.99 313.832C536.418 311.649 538.196 307.709 539.359 305.135Z" fill="#9CD499"/>
<path d="M560.323 309.076C564.462 312.395 569.044 316.264 574.67 318.891C580.296 321.518 579.185 330.09 579.185 330.09C579.185 330.09 580.023 322.689 575.337 320.151C570.635 317.613 567.54 314.596 563.983 314.01C560.409 313.424 558.442 312.838 558.442 312.838C558.442 312.838 559.571 310.496 558.904 309.626C558.254 308.756 560.323 309.076 560.323 309.076Z" fill="#74B570"/>
<path d="M580.69 270.153C565.574 274.341 554.493 284.387 552.424 286.819C550.355 289.25 550.354 289.943 550.354 289.943L551.945 293.066L552.697 292.676C552.697 292.676 551.483 290.049 554.664 286.641C560.17 280.766 566.873 276.116 571.473 274.075C576.073 272.034 580.69 270.153 580.69 270.153Z" fill="#74B570"/>
<path d="M538.966 357.015H544.746C548.85 357.015 552.184 353.554 552.184 349.294V335.521H531.527V349.294C531.527 353.554 534.862 357.015 538.966 357.015Z" fill="#7579DE"/>
<path d="M552.184 337.988H531.527V339.497H552.184V337.988Z" fill="white"/>
<path d="M552.184 340.739H531.527V341.627H552.184V340.739Z" fill="white"/>
<path d="M294.008 47.9036C294.008 31.6636 281.423 18.4763 265.827 18.2633C250.147 18.0503 237.151 31.1489 236.894 47.4244C236.775 55.3581 239.664 62.5995 244.452 67.9951C246.658 70.4799 247.889 73.728 247.889 77.118V90.394C247.889 98.9844 254.661 106.031 262.955 106.031H267.982C276.258 106.031 283.047 99.0021 283.047 90.394V77.1002C283.047 73.6925 284.312 70.4267 286.535 67.9241C291.17 62.6528 294.008 55.6243 294.008 47.9036Z" fill="#F5DC95"/>
<path opacity="0.5" d="M290.024 49.8915C290.024 35.9232 279.2 24.5641 265.776 24.3866C252.284 24.2091 241.101 35.4795 240.896 49.4655C240.793 56.2987 243.273 62.5285 247.394 67.1609C249.292 69.2908 250.352 72.0951 250.352 75.0059V86.436C250.352 93.8372 256.183 99.8895 263.314 99.8895H267.64C274.771 99.8895 280.602 93.8372 280.602 86.436V75.0059C280.602 72.0773 281.696 69.273 283.594 67.1077C287.579 62.5818 290.024 56.5295 290.024 49.8915Z" fill="white"/>
<path d="M269.675 82.4248H260.27C259.826 82.4248 259.467 82.0698 259.415 81.6261C259.398 81.4309 257.637 62.5995 249.531 57.3104C249.138 57.0442 249.018 56.494 249.258 56.0857C249.514 55.6775 250.044 55.5355 250.438 55.8018C258.355 60.9489 260.612 76.834 261.04 80.6499H268.769C268.735 79.3365 268.803 76.8162 269.538 73.5327C270.513 69.1488 272.89 62.5463 278.738 55.9615C279.063 55.6065 279.593 55.571 279.952 55.9082C280.294 56.2455 280.329 56.7957 280.004 57.1684C269.333 69.2375 270.513 81.3244 270.53 81.4486C270.564 81.6971 270.479 81.9456 270.325 82.1408C270.137 82.3183 269.915 82.4248 269.675 82.4248Z" fill="#A194F2"/>
<path d="M276.702 58.535C273.522 58.535 269.195 56.1922 264.647 53.6542C258.764 56.9022 253.258 59.8307 250.18 57.8961C248.727 56.9909 248.043 55.1983 248.06 52.4472C248.077 49.8559 248.795 48.0988 250.197 47.2469C253.275 45.3478 258.799 48.3828 264.647 51.6486C270.615 48.3473 276.241 45.259 279.319 47.2114C280.704 48.0811 281.388 49.8559 281.354 52.4827C281.319 55.216 280.567 57.0441 279.113 57.9493C278.412 58.3398 277.609 58.535 276.702 58.535ZM266.459 52.6425C271.162 55.2338 276.07 57.7186 278.241 56.3874C279.148 55.8372 279.626 54.5061 279.644 52.4295C279.661 50.4771 279.267 49.217 278.429 48.7023C276.343 47.3889 271.247 50.0157 266.459 52.6425ZM252.506 48.4183C251.942 48.4183 251.463 48.5248 251.069 48.7733C250.232 49.288 249.787 50.5304 249.787 52.465C249.77 54.5061 250.197 55.8195 251.069 56.3697C253.173 57.7008 258.115 55.2338 262.834 52.6425C259.004 50.5126 255.002 48.4183 252.506 48.4183Z" fill="#A194F2"/>
<path d="M268.478 110.237H263.006C261.073 110.237 259.5 108.604 259.5 106.599V106.066C259.5 104.06 261.073 102.428 263.006 102.428H268.478C270.41 102.428 271.983 104.06 271.983 106.066V106.599C271.983 108.604 270.393 110.237 268.478 110.237Z" fill="#A194F2"/>
<path d="M247.052 80.8274V90.2342C247.052 99.2328 254.148 106.598 262.818 106.598H268.068C276.737 106.598 283.834 99.2328 283.834 90.2342V80.8274H247.052Z" fill="#A194F2"/>
<path d="M283.697 83.7915H247.667C246.539 83.7915 245.615 82.833 245.615 81.6616V81.4309C245.615 80.2595 246.539 79.301 247.667 79.301H283.697C284.826 79.301 285.749 80.2595 285.749 81.4309V81.6616C285.749 82.833 284.826 83.7915 283.697 83.7915Z" fill="#9EC8FF"/>
<path d="M283.817 87.1638L248.061 91.7429C246.949 91.8849 245.906 91.0507 245.769 89.897L245.735 89.6663C245.598 88.4949 246.402 87.43 247.513 87.288L283.269 82.7089C284.398 82.5669 285.424 83.4011 285.561 84.5547L285.595 84.7855C285.749 85.9569 284.945 87.0218 283.817 87.1638Z" fill="#9EC8FF"/>
<path d="M283.817 93.6598L248.061 98.239C246.949 98.381 245.906 97.5468 245.769 96.3931L245.735 96.1624C245.598 94.991 246.402 93.926 247.513 93.784L283.269 89.2048C284.398 89.0628 285.424 89.897 285.561 91.0507L285.595 91.2815C285.749 92.4529 284.945 93.5178 283.817 93.6598Z" fill="#9EC8FF"/>
<path d="M281.611 100.599L251.84 104.415C250.814 104.54 249.873 103.776 249.736 102.712L249.668 102.126C249.548 101.061 250.284 100.085 251.31 99.9427L281.081 96.1268C282.107 96.0025 283.047 96.7657 283.184 97.8307L283.252 98.4164C283.372 99.499 282.637 100.475 281.611 100.599Z" fill="#9EC8FF"/>
<path d="M539.427 109.03H558.614C558.614 119.963 549.944 128.944 539.427 128.944C528.911 128.944 520.241 119.946 520.241 109.03C520.241 98.0969 528.911 89.1161 539.427 89.1161V109.03Z" fill="#9EC8FF"/>
<path d="M561.828 106.244C561.828 95.2393 553.227 86.3295 542.642 86.3295V106.244H561.828Z" fill="#F39892"/>
<path d="M523.438 106.244C523.438 117.248 532.04 126.158 542.625 126.158C532.108 126.158 523.438 117.177 523.438 106.244Z" fill="#F39892"/>
<path d="M542.643 86.3295C532.041 86.3295 523.457 95.2571 523.457 106.244C523.44 95.3103 532.11 86.3295 542.643 86.3295Z" fill="#F39892"/>
<path d="M542.642 126.158C553.244 126.158 561.828 117.23 561.828 106.244C561.828 117.177 553.158 126.158 542.642 126.158Z" fill="#F39892"/>
<path d="M167.981 95.8606H163.792V108.444H167.981V95.8606Z" fill="#9EC8FF"/>
<path d="M221.709 99.9427H217.52V108.444H221.709V99.9427Z" fill="#9EC8FF"/>
<path d="M185.748 78.9816H181.559V108.444H185.748V78.9816Z" fill="#9EC8FF"/>
<path d="M194.641 95.2039H190.451V108.444H194.641V95.2039Z" fill="#9EC8FF"/>
<path d="M203.516 91.4589H199.326V108.444H203.516V91.4589Z" fill="#9EC8FF"/>
<path d="M176.873 87.5364H172.684V108.444H176.873V87.5364Z" fill="#9EC8FF"/>
<path d="M212.425 82.7087H208.235V108.444H212.425V82.7087Z" fill="#9EC8FF"/>
<path d="M52.0774 71.9353L30.0868 57.9849L26.1025 84.4126C36.448 86.0988 46.6909 81.0759 52.0774 71.9353Z" fill="#A2DFF2"/>
<path d="M52.1122 71.9175C52.1635 71.8111 52.249 71.6868 52.249 71.6868C56.9002 63.6111 57.0712 53.5831 52.8133 45.3655C45.0328 49.5897 49.6669 47.0339 30.1045 58.0026C52.1122 71.9708 48.6922 69.8055 52.1122 71.9175Z" fill="#ABDFA8"/>
<path d="M5.9248 48.7555L30.0871 58.0026L52.7617 45.2767C42.1597 24.919 13.6198 27.3506 5.9248 48.7555Z" fill="#9EC8FF"/>
<path d="M26.1194 84.4127L30.1037 57.9849L5.94142 48.7378C0.178723 64.7294 10.3874 81.8391 26.1194 84.4127Z" fill="#FDC4C0"/>
<path d="M4.35137 53.1217C4.79597 53.1217 5.20637 53.2459 5.56547 53.4411C5.77067 52.2342 6.06137 51.0451 6.43757 49.8736L19.5533 54.8965C19.5533 54.8965 19.5533 54.8965 19.5533 54.8788C19.5191 54.2576 19.7585 53.6719 20.1176 53.2104L18.8009 52.7134L7.01897 48.2053C7.99367 45.7559 9.27616 43.5374 10.8152 41.585C10.268 41.372 9.80627 40.9638 9.49847 40.4491C7.83977 42.5612 6.45467 44.9573 5.41157 47.6018H5.39447L5.10377 48.436L4.79597 49.2702H4.81307C4.40267 50.5481 4.07777 51.8615 3.85547 53.1572C4.04357 53.1394 4.19747 53.1217 4.35137 53.1217Z" fill="white"/>
<path d="M53.9074 45.6317L53.5141 44.8508C53.5141 44.8331 53.497 44.8153 53.497 44.7976L53.1721 44.1586H53.155C50.59 39.5262 46.9306 35.8522 42.5359 33.4561C38.2267 31.1311 33.3361 30.0839 28.3771 30.4389C22.546 30.8648 17.2279 33.1367 13.0213 36.7929C13.5172 37.1124 13.8934 37.5916 14.1157 38.1596C18.0658 34.7163 23.0419 32.5865 28.5139 32.196C38.0557 31.5038 46.828 36.3492 51.6331 44.8863L44.9299 48.649C43.5448 49.4122 41.6125 50.5126 38.3806 52.323C36.3115 53.4944 33.6952 54.9498 30.3607 56.8312L30.1555 56.9554L29.4886 56.5294L29.4544 56.7779L24.7006 54.9853C24.7006 55.6065 24.4612 56.1922 24.0679 56.6359L29.1466 58.5705L25.4188 83.3832C18.3736 81.9633 12.2689 77.4729 8.5753 70.9236C6.3694 67.0189 5.24079 62.6705 5.18949 58.2866C4.91589 58.3931 4.64229 58.4463 4.35159 58.4463C4.04379 58.4463 3.73599 58.3931 3.47949 58.2866C3.53079 62.9722 4.74489 67.6401 7.1047 71.8288C11.0548 78.8396 17.587 83.6494 25.1452 85.1403V85.1581L25.9831 85.3001L26.8381 85.4421V85.4243C27.9325 85.5663 29.0269 85.6373 30.1213 85.6373C33.9688 85.6373 37.7821 84.7676 41.3218 83.046C45.8533 80.8629 49.6666 77.4374 52.3855 73.1067L52.4026 73.1245L52.5736 72.8405L52.8472 72.379C52.8814 72.308 52.9327 72.2193 52.9669 72.166L52.984 72.1305L53.0011 72.1128L53.2747 71.6513H53.2576C57.6181 63.6644 57.8575 53.8316 53.9074 45.6317ZM27.0946 83.6672L30.7369 59.4402L40.2274 65.457C44.0578 67.8886 46.2466 69.273 47.6146 70.1427L50.8807 72.2193C45.6652 80.4547 36.4996 84.8563 27.0946 83.6672ZM51.8041 70.6929L51.6331 70.5864C50.7268 70.0362 50.3506 69.7877 48.5551 68.6695L31.8142 58.0381L45.7165 50.2287C47.7514 49.0927 48.5893 48.6313 50.6755 47.5131C51.1885 47.2469 51.7699 46.9274 52.4539 46.5547C56.062 54.1689 55.8226 63.2917 51.8041 70.6929Z" fill="#E7F3FE"/>
<path d="M171.06 62.8836H100.181C99.411 62.8836 98.7783 62.2269 98.7783 61.4282V29.7645C98.7783 28.9658 99.411 28.3091 100.181 28.3091H171.077C171.847 28.3091 172.479 28.9658 172.479 29.7645V61.4282C172.462 62.2269 171.83 62.8836 171.06 62.8836Z" fill="#9EC8FF"/>
<path d="M169.316 61.2506H101.924C101.309 61.2506 100.796 60.7182 100.796 60.0792V38.5678C100.796 37.9288 101.309 37.3964 101.924 37.3964H169.316C169.931 37.3964 170.444 37.9288 170.444 38.5678V60.0792C170.444 60.7359 169.948 61.2506 169.316 61.2506Z" fill="white"/>
<path d="M104.079 33.5627H102.437C102.095 33.5627 101.805 33.2787 101.805 32.906V31.5039C101.805 31.1489 102.078 30.8472 102.437 30.8472H104.079C104.421 30.8472 104.712 31.1311 104.712 31.5039V32.906C104.695 33.261 104.421 33.5627 104.079 33.5627Z" fill="white"/>
<path d="M109.329 33.5627H107.687C107.345 33.5627 107.055 33.2787 107.055 32.906V31.5039C107.055 31.1489 107.328 30.8472 107.687 30.8472H109.329C109.671 30.8472 109.962 31.1311 109.962 31.5039V32.906C109.945 33.261 109.671 33.5627 109.329 33.5627Z" fill="white"/>
<path d="M114.578 33.5627H112.936C112.594 33.5627 112.304 33.2787 112.304 32.906V31.5039C112.304 31.1489 112.577 30.8472 112.936 30.8472H114.578C114.92 30.8472 115.211 31.1311 115.211 31.5039V32.906C115.194 33.261 114.92 33.5627 114.578 33.5627Z" fill="white"/>
<path d="M167.606 42.6323H130.756C130.157 42.6323 129.661 42.1176 129.661 41.4964C129.661 40.8752 130.157 40.3605 130.756 40.3605H167.606C168.204 40.3605 168.7 40.8752 168.7 41.4964C168.717 42.1176 168.222 42.6323 167.606 42.6323Z" fill="#9EC8FF"/>
<path d="M139.904 60.2744H103.053C102.455 60.2744 101.959 59.7597 101.959 59.1385C101.959 58.5173 102.455 58.0026 103.053 58.0026H139.904C140.502 58.0026 140.998 58.5173 140.998 59.1385C140.998 59.7597 140.502 60.2744 139.904 60.2744Z" fill="#9EC8FF"/>
<path d="M146.692 60.2744H142.879C142.674 60.2744 142.503 60.0969 142.503 59.884V58.3753C142.503 58.1624 142.674 57.9849 142.879 57.9849H146.692C146.898 57.9849 147.069 58.1624 147.069 58.3753V59.884C147.069 60.0969 146.898 60.2744 146.692 60.2744Z" fill="#9EC8FF"/>
<path d="M152.438 60.2744H148.624C148.419 60.2744 148.248 60.0969 148.248 59.884V58.3753C148.248 58.1624 148.419 57.9849 148.624 57.9849H152.438C152.643 57.9849 152.814 58.1624 152.814 58.3753V59.884C152.814 60.0969 152.643 60.2744 152.438 60.2744Z" fill="#9EC8FF"/>
<path d="M167.965 47.6197H106.953C106.542 47.6197 106.2 47.2648 106.2 46.8388C106.2 46.4128 106.542 46.0579 106.953 46.0579H167.965C168.376 46.0579 168.718 46.4128 168.718 46.8388C168.718 47.2648 168.376 47.6197 167.965 47.6197Z" fill="#9EC8FF"/>
<path d="M167.965 50.9564H106.953C106.542 50.9564 106.2 50.6014 106.2 50.1755C106.2 49.7495 106.542 49.3945 106.953 49.3945H167.965C168.376 49.3945 168.718 49.7495 168.718 50.1755C168.718 50.6192 168.376 50.9564 167.965 50.9564Z" fill="#9EC8FF"/>
<path d="M352.029 40.8752H320.565V21.8308H344.232C347.276 24.9901 348.986 26.7649 352.029 29.9242V40.8752Z" fill="#FFB8B3"/>
<path d="M343.65 21.8308V32.0008H352.029V30.0484L344.181 21.8841L343.65 21.8308Z" fill="#F39892"/>
<path d="M344.231 21.8308V30.0485H352.029L344.231 21.8308Z" fill="#FFB8B3"/>
<path d="M338.144 28.9836H324.122C323.814 28.9836 323.558 28.7173 323.558 28.3978C323.558 28.0784 323.814 27.8121 324.122 27.8121H338.144C338.452 27.8121 338.708 28.0784 338.708 28.3978C338.691 28.7173 338.452 28.9836 338.144 28.9836Z" fill="white"/>
<path d="M338.144 31.9298H324.122C323.814 31.9298 323.558 31.6636 323.558 31.3441C323.558 31.0246 323.814 30.7584 324.122 30.7584H338.144C338.452 30.7584 338.708 31.0246 338.708 31.3441C338.691 31.6636 338.452 31.9298 338.144 31.9298Z" fill="white"/>
<path d="M338.144 35.0358H324.122C323.814 35.0358 323.558 34.7696 323.558 34.4501C323.558 34.1306 323.814 33.8644 324.122 33.8644H338.144C338.452 33.8644 338.708 34.1306 338.708 34.4501C338.691 34.7696 338.452 35.0358 338.144 35.0358Z" fill="white"/>
<path d="M335.357 24.2801C335.876 24.2801 336.297 23.8431 336.297 23.3039C336.297 22.7648 335.876 22.3278 335.357 22.3278C334.837 22.3278 334.416 22.7648 334.416 23.3039C334.416 23.8431 334.837 24.2801 335.357 24.2801Z" fill="#613EAB"/>
<path d="M216.725 22.7628L197.099 18.8269L192.525 43.3971L212.151 47.333L216.725 22.7628Z" fill="#FAE8B6"/>
<path d="M212.595 33.3851L202.182 31.2908C201.908 31.2376 201.72 30.9536 201.771 30.6696C201.822 30.3856 202.096 30.1904 202.37 30.2436L212.784 32.338C213.057 32.3912 213.245 32.6752 213.194 32.9592C213.143 33.2609 212.869 33.4384 212.595 33.3851Z" fill="#9EC8FF"/>
<path d="M212.083 36.083L201.669 33.9887C201.395 33.9354 201.207 33.6515 201.258 33.3675C201.31 33.0835 201.583 32.8883 201.857 32.9415L212.271 35.0358C212.545 35.0891 212.733 35.3731 212.681 35.657C212.63 35.9588 212.356 36.154 212.083 36.083Z" fill="#9EC8FF"/>
<path d="M211.569 38.8695L201.155 36.7752C200.882 36.7219 200.693 36.4379 200.745 36.154C200.796 35.87 201.07 35.6748 201.343 35.728L211.757 37.8223C212.031 37.8756 212.219 38.1596 212.168 38.4435C212.116 38.7275 211.843 38.9228 211.569 38.8695Z" fill="#9EC8FF"/>
<path d="M205.535 22.142C205.625 21.6609 205.322 21.1954 204.858 21.1024C204.395 21.0095 203.946 21.3242 203.857 21.8054C203.767 22.2866 204.07 22.752 204.534 22.845C204.997 22.938 205.446 22.6232 205.535 22.142Z" fill="#613EAB"/>
<path d="M366.563 67.4981L336.177 64.1791L338.177 44.4071L362.271 47.0339C364.477 49.856 365.708 51.4356 367.897 54.2576L366.563 67.4981Z" fill="#9EC8FF"/>
<path d="M361.844 48.4539L339.22 45.9868L337.527 62.6706L365.64 65.7411L366.632 55.9793L361.143 55.3759L361.844 48.4539Z" fill="white"/>
<path d="M358.766 54.5239L344.111 52.9265C343.769 52.891 343.53 52.5715 343.564 52.2343C343.598 51.8793 343.906 51.6308 344.231 51.6663L358.885 53.2637C359.227 53.2992 359.467 53.6187 359.432 53.9559C359.415 54.2931 359.108 54.5594 358.766 54.5239Z" fill="#9EC8FF"/>
<path d="M358.424 57.8607L343.769 56.2633C343.427 56.2278 343.188 55.9083 343.222 55.5711C343.256 55.2161 343.564 54.9676 343.889 55.0031L358.544 56.6005C358.886 56.636 359.125 56.9555 359.091 57.2927C359.074 57.6477 358.766 57.8962 358.424 57.8607Z" fill="#9EC8FF"/>
<path d="M358.082 61.3749L343.427 59.7775C343.085 59.742 342.846 59.4225 342.88 59.0853C342.914 58.7303 343.222 58.4818 343.547 58.5173L358.202 60.1147C358.544 60.1502 358.783 60.4697 358.749 60.8069C358.715 61.1441 358.407 61.4104 358.082 61.3749Z" fill="#9EC8FF"/>
<path d="M349.549 49.9447C350.068 49.9447 350.489 49.5076 350.489 48.9685C350.489 48.4294 350.068 47.9923 349.549 47.9923C349.029 47.9923 348.608 48.4294 348.608 48.9685C348.608 49.5076 349.029 49.9447 349.549 49.9447Z" fill="#613EAB"/>
<path d="M507.04 44.4426C512.829 44.4426 517.522 39.5715 517.522 33.5627C517.522 27.5539 512.829 22.6827 507.04 22.6827C501.251 22.6827 496.558 27.5539 496.558 33.5627C496.558 39.5715 501.251 44.4426 507.04 44.4426Z" fill="#BDF5BA"/>
<path d="M505.997 37.2899H505.98C505.843 37.2899 505.706 37.2189 505.621 37.1124L502.765 33.7579C502.577 33.5449 502.594 33.2077 502.816 33.0125C503.022 32.8172 503.346 32.835 503.535 33.0657L506.031 36.012L511.725 30.2259C511.931 30.0129 512.256 30.0307 512.444 30.2259C512.649 30.4389 512.632 30.7761 512.444 30.9714L506.356 37.1479C506.271 37.2366 506.134 37.2899 505.997 37.2899Z" fill="white"/>
<path d="M34.3625 134.641H94.8452C96.4013 134.641 97.6667 133.328 97.6667 131.713V109.279C97.6667 107.664 96.4013 106.35 94.8452 106.35H34.3625C32.8064 106.35 31.541 107.664 31.541 109.279V131.713C31.541 133.328 32.8235 134.641 34.3625 134.641Z" fill="#9EC8FF"/>
<path d="M89.6807 130.364V145.965L72.3584 127.986C72.3584 127.986 89.3216 130.364 89.6807 130.364Z" fill="#9EC8FF"/>
<path d="M37.3549 131.837H91.8526C93.1693 131.837 94.2466 130.719 94.2466 129.352V111.639C94.2466 110.273 93.1693 109.154 91.8526 109.154H37.3549C36.0382 109.154 34.9609 110.273 34.9609 111.639V129.352C34.9609 130.719 36.0382 131.837 37.3549 131.837Z" fill="white"/>
<path d="M61.9621 114.763H88.7407C89.3905 114.763 89.9206 114.213 89.9206 113.538C89.9206 112.864 89.3905 112.314 88.7407 112.314H61.9621C61.3123 112.314 60.7822 112.864 60.7822 113.538C60.7993 114.213 61.3123 114.763 61.9621 114.763Z" fill="#9EC8FF"/>
<path d="M39.5951 119.431H89.2535C89.6126 119.431 89.9033 119.129 89.9033 118.756V118.739C89.9033 118.366 89.6126 118.064 89.2535 118.064H39.5951C39.236 118.064 38.9453 118.366 38.9453 118.739V118.756C38.9453 119.129 39.236 119.431 39.5951 119.431Z" fill="#9EC8FF"/>
<path d="M39.5951 122.075H89.2535C89.6126 122.075 89.9033 121.774 89.9033 121.401V121.383C89.9033 121.01 89.6126 120.709 89.2535 120.709H39.5951C39.236 120.709 38.9453 121.01 38.9453 121.383V121.401C38.9453 121.774 39.236 122.075 39.5951 122.075Z" fill="#9EC8FF"/>
<path d="M481.698 114.869H484.862C485.529 114.869 486.076 114.301 486.076 113.609V110.894C486.076 110.201 485.529 109.634 484.862 109.634H481.698C481.032 109.634 480.484 110.201 480.484 110.894V113.609C480.484 114.319 481.032 114.869 481.698 114.869Z" fill="#9EC8FF"/>
<path d="M471.524 114.869H474.687C475.354 114.869 475.901 114.301 475.901 113.609V110.894C475.901 110.201 475.354 109.634 474.687 109.634H471.524C470.857 109.634 470.31 110.201 470.31 110.894V113.609C470.31 114.319 470.857 114.869 471.524 114.869Z" fill="#9EC8FF"/>
<path d="M461.349 114.869H464.512C465.179 114.869 465.727 114.301 465.727 113.609V110.894C465.727 110.201 465.179 109.634 464.512 109.634H461.349C460.682 109.634 460.135 110.201 460.135 110.894V113.609C460.135 114.319 460.682 114.869 461.349 114.869Z" fill="#9EC8FF"/>
</svg>
