<svg width="46" height="46" viewBox="0 0 46 46" fill="none" xmlns="http://www.w3.org/2000/svg">
<ellipse cx="24.636" cy="23.5774" rx="13.4728" ry="13.7615" fill="#050214"/>
<path d="M23 0C10.2974 0 0 10.2974 0 23C0 35.7025 10.2974 45.9999 23 45.9999C35.7025 45.9999 45.9999 35.7025 45.9999 23C45.9864 10.3031 35.6969 0.0135728 23 0ZM32.6861 23.7328C32.5269 24.0522 32.2681 24.3111 31.9486 24.4703V24.4785L18.8058 31.05C17.9941 31.4555 17.0074 31.1264 16.6018 30.3147C16.4864 30.084 16.4271 29.8293 16.4285 29.5714V16.4286C16.4281 15.5212 17.1633 14.7854 18.0706 14.7849C18.3258 14.7848 18.5775 14.8441 18.8058 14.9582L31.9486 21.5297C32.7606 21.9343 33.0909 22.9207 32.6861 23.7328Z" fill="white"/>
</svg>
