<?xml version="1.0" encoding="iso-8859-1"?>
<!-- Generator: Adobe Illustrator 16.0.0, SVG Export Plug-In . SVG Version: 6.00 Build 0)  -->
<!DOCTYPE svg PUBLIC "-//W3C//DTD SVG 1.1//EN" "http://www.w3.org/Graphics/SVG/1.1/DTD/svg11.dtd">
<svg version="1.1" id="Capa_1" xmlns="http://www.w3.org/2000/svg" xmlns:xlink="http://www.w3.org/1999/xlink" x="0px" y="0px"
	 width="497.25px" height="497.25px" viewBox="0 0 497.25 497.25" style="enable-background:new 0 0 497.25 497.25;"
	 xml:space="preserve">
<g>
	<g>
		<rect x="124.312" y="286.875" width="248.625" height="19.125"/>
		<rect x="124.312" y="401.625" width="248.625" height="19.125"/>
		<rect x="124.312" y="229.5" width="248.625" height="19.125"/>
		<rect x="124.312" y="344.25" width="248.625" height="19.125"/>
		<path d="M392.062,19.125h-19.125V0h-19.125v19.125h-57.375V0h-19.125v19.125h-57.375V0h-19.125v19.125h-57.375V0h-19.125v19.125
			h-19.125c-21.038,0-38.25,17.212-38.25,38.25V459c0,21.037,17.212,38.25,38.25,38.25h286.875c21.037,0,38.25-17.213,38.25-38.25
			V57.375C430.312,36.337,413.1,19.125,392.062,19.125z M411.188,459c0,11.475-7.65,19.125-19.125,19.125H105.188
			c-9.562,0-19.125-7.65-19.125-19.125V57.375c0-11.475,7.65-19.125,19.125-19.125h19.125v19.125h19.125V38.25h57.375v19.125h19.125
			V38.25h57.375v19.125h19.125V38.25h57.375v19.125h19.125V38.25h19.125c9.562,0,19.125,7.65,19.125,19.125V459z"/>
		<rect x="124.312" y="172.125" width="248.625" height="19.125"/>
		<rect x="124.312" y="114.75" width="248.625" height="19.125"/>
	</g>
</g>
<g>
</g>
<g>
</g>
<g>
</g>
<g>
</g>
<g>
</g>
<g>
</g>
<g>
</g>
<g>
</g>
<g>
</g>
<g>
</g>
<g>
</g>
<g>
</g>
<g>
</g>
<g>
</g>
<g>
</g>
</svg>
